<?xml version="1.0" encoding="UTF-8"?><svg id="Layer_68" xmlns="http://www.w3.org/2000/svg" width="520" height="520" viewBox="0 0 520 520"><defs><style>.cls-1,.cls-2,.cls-3,.cls-4,.cls-5{fill:#231f20;}.cls-6,.cls-4{opacity:.9;}.cls-7{opacity:.65;}.cls-2{opacity:.55;}.cls-3{opacity:.25;}.cls-5{opacity:.35;}</style></defs><path class="cls-2" d="m454,328.63s5.44,4.49,8.46,2.42,2.22,2.46,6.48,7.65c4.26,5.19,6.81,10.13,6.36,12.71s-2.5,2.86-2.5,2.86c0,0-1.8,4.68-2.35,5.26s-2.42,1.48-3.28-1.93c-.86-3.41-3.49-10.93-10.36-14.32,0,0-1.28,5.11-4.45,5.73s-3.03,1.32-2.57-1.83c.45-3.15,4.18-7.47,4.87-9.38.69-1.91.89-3.56.89-3.56l-1.54-5.62Z"/><path class="cls-2" d="m276.3,274.7c2.41.97,7.5,7.77,9.56,6.19.94-.72,5.63-3.68,6.87-3.1,3.1,1.45-21.51-12.82-21.51-12.82,0,0-8.48-5.26-11.56-5.95-3.09-.69-11.79-1.87-14.39.7s9.68,1.72,12.16,2.92,5.42,2.65,5.42,2.65c0,0-10.7,3.49-9.36,4.6,1.34,1.1,5.77,1.57,7.93.93s4.75-.59,4.75-.59c0,0,2.23,3.47,4.73,4.46,1.08.43,3.47-.76,5.38,0Z"/><path class="cls-1" d="m228.38,182.62c.65.87,1.19,1.82,1.67,2.8.12.26.24.52.36.78.03.07.17.39.07.16.07.18.15.36.22.54.21.56.4,1.12.57,1.69s.28,1.13.38,1.7c.06.34,0-.14.02.1.01.13.03.26.04.39.02.25.03.5.02.75,0,.12-.01.23-.02.35-.02.36.04-.11,0,.06-.06.2-.11.4-.16.6.09-.35.06-.1-.02.01-.05.08-.1.16-.15.24.08-.15.16-.2,0-.03-.22.25.1-.01-.02.03-.05.02-.37.21-.15.1.2-.1-.13.04-.2.05-.18.05-.32.02-.05.02-.15,0-.3.02-.46.01-.11,0-.45-.04-.16,0-.17-.02-.34-.06-.5-.1-.41-.1-.82-.23-1.21-.38-.67-.25-1.45.28-1.63.93-.2.74.25,1.38.93,1.63,1.27.48,2.79.84,4.11.34,1.16-.44,1.94-1.43,2.2-2.63.56-2.63-.46-5.48-1.5-7.86-.56-1.27-1.21-2.52-2.05-3.63-.43-.57-1.14-.87-1.81-.48-.56.33-.91,1.24-.48,1.81h0Z"/><path class="cls-5" d="m178.75,304.87c-3.37-9.02-26.37-35.78-28.83-45.59-.3-1.19-40.2,24.14-53.76,48.42,0,0-18.82-3.58-26.27-10.89,0,0,2.82,5.38-1.61,10.98-4.42,5.6-4.6,13.72-2.28,11.09s7.82-8.37,8.68-6.4-7.25,8.38-5.32,13.07,4.25,12.3,2.74,15.75c-1.51,3.46,29.32,20.43,29.32,20.43,0,0,26.94,15.21,32.06,14.51,5.12-.7,8.93-1.63,8.93-1.63,0,0,40.05-33.93,42.8-33.03s-19.36.64-19.95-3.14c-.59-3.79-.71-4.7,2.53-4.67s23.37,1.01,17.42-5.05-24.11-3.19-23.25-10.01c.87-6.82-2.19-1.98-1.06-5.22s14.16-3.64,14.16-3.64c0,0-9.36-2.71-6.96-6.67,2.4-3.95,10.64,1.69,10.64,1.69Z"/><path class="cls-1" d="m167.94,323.54c1.34.36,2.74.66,4.15.94.51.1,1.04.14,1.56.25,1.82.39,3.66.81,5.46,1.39.8.25,1.61.51,2.41.79.51.22,1.01.43,1.47.76.23.17.48.29.67.51.17.23.34.45.52.69.2.29.07.34-.3.35-.25,0-.5.02-.71.03-.28.02-.57.02-.83-.08-.44-.19-.93-.29-1.39-.44-.44-.2-.93-.33-1.39-.52-.98-.31-1.96-.63-2.96-.95-1.21-.4-2.54-.52-3.83-.75-1.42-.26-2.86-.52-4.3-.82-.89-.19-1.77-.41-2.66-.66-1.34-.4-2.71-.98-3.84-1.96-.88-.74-1.63-1.85-1.77-3.1-.04-.27-.07-.54-.03-.8.07-.49.2-.79.35-.98.13-.19.35-.25.58-.28.1-.01.19-.04.27-.04.2-.02.53.46.58,1,.15.83.29,1.47.69,1.97.36.51.93.93,1.62,1.34,1.02.57,2.32.99,3.68,1.32v.05Z"/><path class="cls-1" d="m166.7,318.71c-.87,0-1.73.06-2.48.2-.24.07-.17.02-.23.04-.04,0-.08,0-.11.02-.08.02-.15.09-.16.18,0,.1.01.19.06.29.03.02.12.19.25.29.11.12.25.23.42.34.66.46,1.58.76,2.49,1.1,3.28,1.14,6.93,1.99,10.48,3.07,1.58.49,3.18.98,4.73,1.64.98.44,2.01.88,2.87,1.62.42.37.86.73,1.18,1.22.17.23.3.49.43.74.14.25.25.5.34.77.22.67.04.61-.5.31-.25-.16-.65-.33-1.1-.5-.21-.09-.5-.14-.72-.24-.2-.12-.46-.21-.67-.35-3.16-1.93-7.27-2.84-11.34-3.98-2.46-.71-5.13-1.02-7.75-2.07-.83-.35-1.67-.75-2.47-1.4-.2-.18-.4-.32-.58-.55-.17-.2-.42-.48-.54-.78l-.23-.44c-.06-.15-.08-.31-.12-.47-.1-.31-.12-.63-.12-.95.04-.45.15-.92.46-1.27.31-.34.69-.61,1.13-.78.23-.08.43-.19.67-.23l.63-.13c.34-.04.68-.09,1-.1,1.89-.11,3.67.06,5.46.22,2.7.24,5.37.67,8.02,1.06,2.05.32,4.09.49,6.11.93.45.09.88.17,1.33.28,1.65.41,2.13.79,2.35,1.32.05.12.13.25.14.36.05.36-.67.45-1.9.37-1.8-.22-3.67-.3-5.53-.6-1.86-.26-3.74-.53-5.63-.8-2.8-.34-5.64-.75-8.37-.64v-.06Z"/><path class="cls-1" d="m74.33,366.2c-1.11.15-2.23.21-3.34.26-.41,0-.81.05-1.22.05-1.43-.04-2.85-.17-4.26-.37-.62-.09-1.25-.17-1.86-.29-.39-.08-.79-.14-1.18-.23-.38-.14-.75-.34-1.11-.52-.22-.12-.17-.18.06-.27.24-.08.67-.29,1.14-.35.78.06,1.56.12,2.35.19.77.13,1.55.23,2.34.36.94.14,1.94.07,2.9.03,1.07-.02,2.14-.12,3.2-.25.65-.1,1.31-.18,1.95-.33.98-.2,1.96-.45,2.89-.79.73-.26,1.37-.69,2.05-1.01l.45-.21c.56-.26.84-.16,1.09.04.06.05.13.09.18.14.15.16.02.47-.32.86-1.06,1.1-2.54,1.58-3.99,2.04-1.09.3-2.2.54-3.32.7v-.04Z"/><path class="cls-1" d="m80.73,364.73s3.57-2.05,3.95-3.66c.71-3.02-6.22-4.79-9.99-4.23l6.04,7.89Z"/><path class="cls-1" d="m74.1,358.65c-.61-1.01-1.19-2.03-1.77-3.06-.22-.37-.48-.71-.68-1.1-.7-1.35-1.34-2.74-1.92-4.14-.25-.63-.51-1.25-.79-1.86-.38-.77-.57-1.64-.61-2.53,0-.28.23-.31.58-.18.34.13.87.37,1.15.75.27.34.53.67.69,1.04.2.36.4.72.59,1.08.42.71.69,1.5.99,2.3.35.96,1,1.8,1.54,2.69.59.98,1.19,1.96,1.82,2.93l1.17,1.78c.6.89,1.2,1.8,1.88,2.63.53.65,1.17,1.19,1.72,1.8.12.13.26.25.38.4.39.56.39.84.06,1.28-.08.1-.14.21-.22.3-.27.3-.72.29-1.18.02-1.35-.82-2.38-1.99-3.36-3.23-.72-.92-1.42-1.88-2.08-2.86l.05-.04Z"/><path class="cls-1" d="m75.26,293.4s8.99,2.73,8.99,1.32-10.71-11.29-10.71-11.29c0,0,15.17,12.36,16.37,14.27,1.21,1.91-4.7.41-4.7.41l-9.96-4.71Z"/><path class="cls-1" d="m78.63,288.67c-.88-.82-1.85-1.55-2.77-2.34-.94-.76-1.93-1.47-2.89-2.2-.72-.51-1.5-.93-2.23-1.43-2.6-1.71-5.24-3.41-8.06-4.76-1.23-.66-2.56-1.07-3.85-1.55-.42-.13-.85-.23-1.27-.35-.42-.13-.83-.28-1.25-.43-.41-.18-.84-.23-1.25-.43-.41-.19-.82-.38-1.24-.57-.52-.26-.43-.34.08-.52.35-.12.72-.25,1.08-.37.23-.07.48-.17.74-.21.25-.03.52-.04.8-.02l1.42.21c.47.07.92.23,1.39.34.9.28,1.79.62,2.68.95,1.75.72,3.46,1.52,5.07,2.51.98.57,1.97,1.14,2.97,1.71,1.01.55,2.01,1.14,2.97,1.77,2.12,1.36,4.14,2.89,6.11,4.46,1.21.97,2.37,2,3.53,3.02,1.73,1.59,3.4,3.26,4.99,4.98.62.66,1.28,1.29,1.88,1.98.62.67,1.26,1.32,1.8,2.08.25.32.49.64.72.99.4.66.55,1.18.56,1.56.02.39-.11.67-.36.95-.11.13-.22.28-.34.37-.42.32-1.11-.01-1.8-.75-.41-.6-1.05-1.1-1.49-1.71-.44-.6-1.01-1.16-1.5-1.75-.48-.6-1.04-1.17-1.58-1.76l-.8-.89-.85-.86-1.26-1.29-1.32-1.24c-.86-.85-1.79-1.63-2.71-2.42l.04-.06Z"/><path class="cls-1" d="m96.07,286.72s-.61,4.73.66,5.18c1.33.47,6.68-5.18,6.68-5.18,0,0-10.17,13.02-10.66,12.37s3.32-12.37,3.32-12.37Z"/><path class="cls-1" d="m94.59,274.7s-1.72,12.11-.88,11.69,2.94-6.38,4.52-7.42-4.78,17.54-5.49,17.71-2-2.81-1.71-6.48,3.56-15.5,3.56-15.5Z"/><path class="cls-1" d="m97.74,278.22c.73-1.35,1.53-2.67,2.31-3.99.87-1.27,1.64-2.59,2.57-3.82.67-.89,1.24-1.86,1.95-2.73,2.46-3.08,5.25-5.89,8.25-8.42.68-.54,1.32-1.13,2.01-1.67.69-.53,1.38-1.06,2.07-1.59.43-.36.91-.64,1.36-.96.47-.3.91-.65,1.41-.91.97-.55,2.05-.92,3.13-1.22.68-.18.64-.04.27.51-.23.35-.48.74-.74,1.13-.31.44-.73.84-1.2,1.24-.21.18-.4.37-.62.54l-.66.46c-.44.31-.89.6-1.32.92l-2.55,1.99c-.81.72-1.64,1.42-2.47,2.11-.78.75-1.61,1.47-2.44,2.2-.94.91-1.85,1.91-2.72,2.95-.81,1.08-1.68,2.13-2.45,3.24-.85,1.21-1.75,2.4-2.51,3.68l-1.19,1.89-1.09,1.95c-.46.79-.9,1.6-1.28,2.43-.4.83-.82,1.64-1.19,2.48-.52,1.29-1.1,2.56-1.58,3.87-.44,1.32-.96,2.61-1.28,3.96-.25,1.04-.51,2.08-.72,3.11l-.53,3.13c-.09.46-.12.91-.2,1.37-.07.43-.15.78-.22,1.08-.09.29-.22.52-.33.71-.23.38-.45.58-.74.74-.13.07-.26.17-.37.21-.36.13-.62-.63-.8-1.99-.08-1.99.18-4,.46-6.05.35-2.03.93-4.05,1.64-6.01.98-2.95,2.32-5.78,3.71-8.55l.06.03Z"/><path class="cls-1" d="m91.47,279.4c.74-2.77,1.67-5.47,2.77-8.11.4-.96.75-1.94,1.22-2.88,1.64-3.29,3.63-6.42,6.05-9.2.52-.63,1.1-1.22,1.64-1.83.59-.57,1.16-1.16,1.8-1.69,1.56-1.37,3.37-2.73,5.57-2.93.69-.02.62.1.29.68-.32.65-.87,1.6-1.68,2.3-.18.16-.35.33-.54.47-.19.13-.38.27-.56.43-.36.31-.74.58-1.09.92-.72.63-1.37,1.33-2.05,2.02-1.36,1.37-2.64,2.89-3.87,4.48-1.47,1.92-2.51,4.24-3.51,6.51-1.11,2.5-2.06,5.08-2.82,7.73-.45,1.63-.88,3.28-1.18,4.94-.48,2.52-.84,5.09-.87,7.64-.03,1.98.29,3.91.49,5.82.06.42.12.83.18,1.26.1,1.59.05,2.12-.36,2.57-.09.1-.17.23-.26.3-.29.24-.77-.34-1.29-1.5-.17-.44-.37-.87-.51-1.33l-.38-1.38c-.23-.93-.44-1.88-.48-2.84-.17-1.93-.16-3.89-.01-5.83.2-2.89.7-5.76,1.4-8.57h.07Z"/><polygon class="cls-5" points="69.87 296.68 64.32 293.61 66.42 299.09 69.87 296.68"/><polygon class="cls-5" points="60.82 291.16 64.55 293.45 62.18 294.46 60.82 291.16"/><path class="cls-5" d="m59.25,290.34s-14.8-8.09-17.04-9.18,9.43,17.92,9.43,17.92l7.61-8.75Z"/><path class="cls-1" d="m392.39,155.99c0,2.24-6.25,5.74-7.7,2.02-.81-2.08,4.34-6.64,6.34-5.46,2.19,1.29,1.36,2.72,1.36,3.44Z"/><path class="cls-1" d="m329.62,259.73s4.03-.87,4.8.54c1.77,3.24-4.17,10.54-5.86,18.39-1.5,6.97,12.14-24.15,12.14-24.15,0,0-1.9-.98-3.97.11-2.07,1.1-7.11,5.11-7.11,5.11Z"/><path class="cls-1" d="m335.98,360.3c-.71-1.2-1.34-2.44-2.01-3.66-.67-1.22-1.2-2.51-1.81-3.76-1.18-2.52-2.19-5.08-3.16-7.68-.71-1.89-1.42-3.79-2.01-5.72-1.07-3.4-1.85-6.89-2.46-10.4-.61-3.51-1.06-7.05-1.26-10.6-.23-3.15-.28-6.32-.28-9.44.11-4.01.13-8.08,1.25-11.98.35-1.21.34-1.04.51.04.22,1.09.54,3.06.5,5.34-.31,4.02-.34,8.05-.22,12.07.12,4.03.48,8.05,1.07,12.07.66,4.82,2.08,9.7,3.61,14.43,1.69,5.2,3.74,10.34,6.2,15.22.78,1.49,1.55,2.99,2.46,4.41.44.72.86,1.45,1.33,2.15l1.44,2.07c2.97,4.14,6.42,8.02,10.4,11.15,3.12,2.38,6.51,4.33,10.14,5.51.81.21,1.57.56,2.39.73.76.16,1.37.39,1.91.45.53.09.96.16,1.31.26.71.17,1.13.26,1.48.43.16.07.38.14.47.2.17.11-.07.22-.67.37-.3.08-.69.17-1.17.25-.47.04-1.02.02-1.65,0-.92-.04-1.82-.23-2.75-.37-.89-.23-1.82-.42-2.68-.78-1.74-.67-3.43-1.51-5.05-2.48-3.25-1.92-6.16-4.39-8.91-7-4.07-3.9-7.55-8.42-10.43-13.26l.04-.03Z"/><path class="cls-1" d="m376.77,263.86c-3.22-.1-6.44-.33-9.64-.68-1.17-.12-2.34-.22-3.5-.39-4.09-.63-8.15-1.51-12.11-2.77-1.76-.54-3.51-1.16-5.2-1.89-1.09-.46-2.17-.96-3.18-1.6-.5-.33-1-.67-1.46-1.05-.47-.38-.85-.86-1.23-1.34-.45-.6-.28-.61.36-.42.32.09.76.23,1.31.34.51.16,1.06.37,1.62.66,2,1.01,4.09,1.94,6.27,2.67,2.16.79,4.4,1.46,6.67,2.09,2.72.74,5.65,1.1,8.51,1.45,3.15.39,6.33.65,9.52.78,1.96.06,3.92.11,5.89.06,2.97-.05,5.96-.2,8.89-.56,2.28-.29,4.48-.75,6.68-1.27.49-.1.95-.26,1.45-.33,1.83-.31,2.44-.27,2.95.08.11.08.26.15.33.23.26.27-.42.75-1.72,1.3-1.94.8-4.04,1.21-6.15,1.61-2.13.36-4.3.64-6.48.81-3.24.26-6.51.34-9.76.28v-.05Z"/><path class="cls-1" d="m353.82,259.91c-1.08-.39-2.15-.83-3.19-1.3-.38-.17-.78-.28-1.15-.47-1.31-.64-2.5-1.45-3.75-2.1-.56-.28-1.11-.57-1.68-.8-.74-.26-1.44-.64-2.15-1.06-.22-.14-.16-.25.1-.39.25-.13.73-.37,1.24-.39.45-.03.88.05,1.3.14.42.08.84.18,1.25.3.8.28,1.53.69,2.24,1.12.85.52,1.83.82,2.72,1.23.99.44,1.99.86,3.01,1.22.63.22,1.27.44,1.91.61.98.26,1.96.56,2.96.69.78.1,1.56.06,2.33.05.17,0,.34-.03.51-.02.63.09.82.25.94.73.03.11.07.22.08.32.05.36-.23.65-.72.82-1.47.4-3.04.32-4.59.14-1.16-.12-2.28-.44-3.39-.79v-.06Z"/><path class="cls-1" d="m391.19,290.75c-13.44,12.09-36.63,3.66-23.5-15.18,0,0-11.38-2.85-15.48-5.1,0,0-2.1-1.15-4.64,1.68-2.54,2.84-6.46,10.03-6.51,16.33-.06,6.3.87,8.04,3.44,9.77,2.57,1.73,11.5,7.85,21.03,8.35,9.53.5,15.64.95,20.36-2.14,4.73-3.09,4.6-2.38,5.08-5.49.49-3.11.22-8.23.22-8.23Z"/><path class="cls-1" d="m370.13,249.95c-4.13-.33-8.23-1.04-12.22-2.15-1.47-.37-2.91-.83-4.34-1.32-4.97-1.87-9.8-4.34-13.87-7.83-1.8-1.55-3.48-3.26-4.94-5.11-1.84-2.37-3.65-4.96-4.14-8-.19-.92-.11-.81.44-.19.5.65,1.77,1.61,2.58,3.02,1.47,2.5,3.29,4.77,5.37,6.78,1.03,1.02,2.15,1.95,3.3,2.85.57.46,1.17.89,1.75,1.34.61.42,1.21.85,1.83,1.25,2.98,1.94,6.48,3.33,9.96,4.47,3.82,1.27,7.79,2.13,11.81,2.62,2.47.32,4.97.45,7.46.47,3.78.02,7.59-.28,11.27-1.02,2.86-.59,5.6-1.43,8.25-2.5.59-.21,1.14-.51,1.72-.75,1.09-.44,1.79-.77,2.32-.91.55-.11.92-.08,1.26.02.16.05.34.08.45.14.19.11.09.33-.23.67-.32.34-.86.82-1.66,1.24-4.73,2.48-10.25,4.02-15.83,4.66-4.15.5-8.37.58-12.54.29v-.05Z"/><path class="cls-1" d="m323.48,236.25c-2.21-3.43-3.88-7.31-4.36-11.41l-.21-2.24c-.02-.75,0-1.5.03-2.24.19-2.62.77-5.17,1.55-7.64.78-2.46,1.78-4.85,2.92-7.15,1-2.05,2.16-4.03,3.41-5.92,1.63-2.39,3.39-4.82,5.82-6.49.77-.49.69-.39.27.29-.38.72-1.14,1.88-2.17,3.14-3.68,4.42-6.46,9.59-8.46,15.05-.62,1.63-1.03,3.37-1.38,5.11-.27,1.76-.48,3.54-.43,5.29.03,3.86,1.26,7.65,3.17,11.05l.91,1.56c.32.51.69.99,1.03,1.49.65,1.01,1.46,1.92,2.21,2.87,2.38,2.79,5.12,5.31,8.03,7.53,2.28,1.71,4.64,3.21,7.08,4.6.53.32,1.07.59,1.62.9,1.95,1.26,2.54,1.71,2.8,2.28.06.12.17.25.2.33.12.25-.87.1-2.48-.56-4.67-2.12-9.22-5.15-13.38-8.71-3.07-2.66-5.93-5.66-8.22-9.1l.03-.03Z"/><path class="cls-3" d="m377.74,187.66c-19.89-.08-47.54,22.35-40.83,41.21,0,0,1.75,10.88,20.31,16.19,18.56,5.31,31.68,1.56,33.95.84s13.13-3.57,16.8-10.07,2.87-12.06,2.54-14.87c-.33-2.79-4.95-12.91-9.87-19.7-5.07-7.01-22.89-13.6-22.89-13.6Z"/><path class="cls-1" d="m118.56,342.15c-2.12-2.98-4.27-5.93-6.46-8.86l-2.44-3.17c-2.82-3.77-5.67-7.52-8.57-11.23-1.31-1.63-2.62-3.27-3.91-4.89l-2.5-3.13c-.8-1.07-1.54-2.19-2.3-3.29-.46-.69-.33-.66.24-.21.56.45,1.63,1.25,2.73,2.33,1.81,2.03,3.62,4.06,5.34,6.18,1.72,2.12,3.42,4.26,5.07,6.45,1.98,2.62,4.2,5.22,6.29,7.86,2.29,2.9,4.51,5.87,6.68,8.86,1.35,1.83,2.66,3.7,3.98,5.55,1.98,2.82,3.91,5.7,5.82,8.54,1.48,2.21,3.03,4.32,4.45,6.53.32.49.63.96.92,1.47,1.07,1.88,1.25,2.58,1.13,3.19-.03.14-.04.31-.09.4-.16.33-.85-.28-1.84-1.53-1.41-1.88-2.83-3.81-4.15-5.86-1.36-2.02-2.74-4.06-4.12-6.11-2.05-3.04-4.16-6.07-6.32-9.06l.04-.03Z"/><path class="cls-1" d="m115.44,368.51c1.81.9,3.66,1.7,5.53,2.44.68.28,1.39.48,2.07.75,2.42.92,4.91,1.68,7.45,2.29,1.13.23,2.27.46,3.41.59,1.45.25,2.92.45,4.39.78.46.1.39.15,0,.25-.4.08-1.14.33-2.02.39-.77.04-1.54,0-2.32,0-.77-.02-1.53-.17-2.3-.28-.76-.12-1.52-.25-2.28-.44-.75-.17-1.51-.35-2.25-.6-.89-.29-1.8-.51-2.71-.8-.92-.26-1.83-.53-2.72-.86-1.97-.69-3.86-1.59-5.73-2.49-1.15-.57-2.28-1.15-3.4-1.76-1.7-.91-3.36-1.9-5.02-2.85-1.29-.72-2.57-1.43-3.85-2.15-.28-.16-.56-.32-.83-.49-1.02-.65-1.29-.94-1.36-1.32-.01-.09-.05-.18-.04-.26.02-.25.53-.15,1.34.23,2.39,1.1,4.76,2.49,7.2,3.76,1.8.96,3.61,1.92,5.45,2.77v.04Z"/><path class="cls-1" d="m155.74,361.78c2.03-1.33,4.09-2.6,6.14-3.87l2.22-1.43c2.63-1.63,5.26-3.27,7.79-5.04,1.12-.79,2.22-1.62,3.27-2.48.67-.55,1.33-1.13,2.02-1.67l1.02-.82c.33-.28.77-.45,1.14-.69.5-.26.43-.23.2.2-.12.22-.27.54-.44.95-.2.38-.5.75-.85,1.12-2.66,2.46-5.59,4.6-8.63,6.56-1.83,1.17-3.65,2.5-5.49,3.72l-6.1,3.98c-1.24.82-2.5,1.63-3.71,2.49-1.85,1.29-3.69,2.61-5.38,4.07-1.31,1.13-2.49,2.36-3.61,3.64-.24.28-.49.56-.73.84-.44.53-.75.87-1.04,1.05-.3.17-.55.2-.83.17-.12-.01-.26,0-.35-.02-.16-.04-.19-.21-.15-.51.04-.31.2-.71.51-1.15,1.85-2.6,4.35-4.86,6.95-6.9,1.95-1.5,3.97-2.91,6.01-4.27l.03.03Z"/><path class="cls-1" d="m174.74,342.42c-1.16-.18-2.32-.4-3.47-.67-.42-.1-.85-.15-1.27-.28-1.46-.45-2.9-1.08-4.22-1.93-.58-.39-1.17-.81-1.68-1.33-.33-.34-.62-.74-.8-1.2-.1-.23-.18-.46-.18-.71-.03-.25.03-.5.13-.73.13-.29.21-.23.48-.03.14.1.36.22.54.34.1.06.21.11.29.17.06.06.12.13.17.2.35.49.76.95,1.33,1.39.57.43,1.24.82,1.95,1.21.85.47,1.88.64,2.86.9,1.08.28,2.19.52,3.31.71.69.12,1.39.22,2.08.29,1.06.11,2.13.22,3.18.21.82,0,1.63-.13,2.43-.24.18-.02.35-.06.53-.08.66,0,.87.12,1.05.55.04.09.09.18.12.27.09.27-.16.65-.66.82-1.48.49-3.07.49-4.66.46-1.18-.04-2.36-.15-3.54-.29v-.05Z"/><path class="cls-1" d="m64.99,311.44c.49-1.16,1.19-2.28,1.92-3.23.26-.35.48-.72.73-1.05.89-1.19,1.79-2.35,2.44-3.66.3-.58.49-1.2.64-1.81l.3-1.19c.14-.39.28-.8.4-1.22.09-.26.13-.23.25,0,.1.23.43.67.55,1.21.06.24.09.49.07.72-.01.24,0,.48-.05.71-.11.46-.23.92-.39,1.36-.32.88-.75,1.72-1.27,2.48-.61.92-1.2,1.87-1.83,2.75-.72.97-1.39,1.84-1.87,2.86-.31.62-.57,1.27-.77,1.95-.31,1.02-.53,2.08-.58,3.14-.05.83.13,1.63.21,2.41l.08.51c.04.32.05.51,0,.67-.07.17-.15.28-.27.41-.05.06-.1.13-.15.17-.08.08-.19.07-.35-.02-.17-.09-.38-.26-.51-.53-.84-1.55-.79-3.3-.59-4.98.17-1.25.51-2.49.99-3.68h.04Z"/><path class="cls-1" d="m71.82,326.4c.31,1.26,1.24,2.75,1.86,4.31.25.57.49,1.15.65,1.77.56,2.17.5,4.53-.22,6.6-.31.92-.64,1.83-1.06,2.67-.54,1.08-1.06,2.21-2.07,2.97-.33.22-.34.15-.36-.25-.07-.43-.03-1.08.21-1.69,1.1-2.04,1.89-4.14,2.17-6.34.18-1.33-.15-2.72-.62-4.03-.48-1.47-1.23-2.87-1.9-4.45-.2-.49-.39-1.02-.47-1.61-.1-.58.03-1.31.31-1.81.68-1.38,1.43-2.74,2.23-4.05.62-1.02,1.2-2.05,1.86-3.03.15-.21.27-.44.46-.63.65-.72,1.01-.82,1.41-.76.09.01.17,0,.23.02.16.02.2.55-.09,1.21-.39,1-1.02,1.83-1.56,2.73-.56.89-1.1,1.78-1.61,2.71-.38.69-.74,1.39-1.1,2.11l-.27.54c-.04.11-.08.17-.09.26-.03.18-.02.43.05.72h-.04Z"/><path class="cls-1" d="m108.22,409.69c.84.16,1.69.31,2.55.35l1.29.11h1.29c.31-.02.63-.04.94-.06.31-.04.62-.09.93-.12,2.2-.18,4.41-.64,6.47-1.5.91-.39,1.78-.88,2.61-1.4.54-.33,1.03-.73,1.54-1.09.47-.42,1.03-.72,1.59-1.06.36-.2.45-.06.41.37-.02.22-.07.52-.15.89-.04.18-.1.37-.19.54-.1.16-.22.31-.37.45-1.03.97-2.14,1.89-3.41,2.5-.63.32-1.27.61-1.94.83-.33.12-.66.24-1,.34l-1.03.25c-1.63.4-3.32.81-5.01,1-.93.07-1.87.1-2.8.1-.93-.07-1.87-.07-2.79-.2-1.13-.18-2.27-.3-3.37-.59-1.69-.33-3.32-.93-4.94-1.45-.62-.23-1.24-.44-1.87-.63-.31-.1-.63-.19-.94-.3-.3-.12-.6-.27-.89-.4-.26-.12-.52-.23-.78-.36-.96-.5-1.19-.79-1.18-1.3,0-.12,0-.24.01-.34.07-.34.6-.43,1.36-.24,1.11.3,2.24.6,3.34.94.55.18,1.1.37,1.64.57.54.21,1.11.33,1.67.5.42.12.83.25,1.24.39.41.13.84.21,1.25.32.84.21,1.68.44,2.53.53v.05Z"/><path class="cls-1" d="m101.72,374.73c1.16.83,2.39,1.55,3.69,2.11.47.22.99.3,1.47.49,1.73.58,3.56.92,5.43.99.41,0,.83-.03,1.25-.05.42,0,.83-.05,1.24-.12.53-.07,1.05-.17,1.58-.21.27-.03.54-.05.81-.06.27-.03.57.08.85.11.36.06.34.15.11.45-.16.23-.33.46-.47.66-.2.25-.47.44-.78.58-.53.29-1.12.36-1.69.47-.57.11-1.16.22-1.75.21-1.18.04-2.37-.09-3.54-.33-.69-.18-1.41-.24-2.11-.42l-1.06-.23c-.35-.1-.69-.21-1.04-.33-1.51-.51-2.92-1.25-4.23-2.09-.4-.27-.8-.53-1.19-.81l-1.14-.87c-.56-.45-1.1-.94-1.64-1.41-.51-.5-1.04-.99-1.54-1.49-.77-.79-1.63-1.46-2.33-2.31-.16-.18-.31-.35-.46-.55-.51-.74-.54-1.08-.46-1.39.02-.07.03-.15.06-.21.08-.18.47-.02,1.05.32,1.65,1.09,3.04,2.49,4.55,3.74,1.07.99,2.18,1.91,3.36,2.72l-.03.04Z"/><path class="cls-1" d="m61.62,360.74c-.28.14-4.5,2.77-3.42,3.44,1.08.67,7.81,2.63,7.81,2.63l-4.39-6.07Z"/><path class="cls-1" d="m301.92,391.87c-.95.8-2.05,1.36-3.09,2.01-.53.31-1.1.53-1.65.8-.56.24-1.09.55-1.67.72-.84.28-1.64.66-2.5.89-3,.84-6.09,1.12-9.15,1.2-1.36-.05-2.72.05-4.06-.09-1.72-.11-3.47-.19-5.11-.81-.51-.18-.41-.3.07-.47.24-.09.58-.2.99-.32.4-.09.85-.1,1.33-.06,3.41.22,6.8.35,10.23.09,1.01-.14,2.06-.27,3.08-.52l1.52-.43c.51-.14,1.01-.28,1.5-.48l1.62-.6c.54-.19,1.04-.49,1.56-.73,1.06-.46,2-1.11,2.98-1.72.6-.37,1.11-.86,1.68-1.29.58-.42,1.06-.93,1.55-1.44,1.54-1.49,2.72-3.32,3.71-5.2.31-.77.58-1.54.85-2.31.21-.79.35-1.59.56-2.37.1-.34.14-.69.19-1.05.37-1.29.74-1.67,1.1-1.92.09-.06.17-.14.25-.17.23-.11.38.47.53,1.56.1.8.07,1.61-.12,2.4-.15.79-.31,1.61-.59,2.38-.3.77-.62,1.55-.95,2.32-.4.74-.84,1.46-1.26,2.19-1.42,2.06-3.09,3.99-5.11,5.47l-.03-.03Z"/><path class="cls-1" d="m258.42,344.69c1.48,1.12,2.94,2.26,4.36,3.42.52.42,1.08.8,1.59,1.23,1.81,1.51,3.57,3.06,5.4,4.5.81.65,1.67,1.23,2.51,1.81l1.67,1.05.42.26.38.32.38.33c.12.11.2.3.33.42.29.31.17.42-.27.48-.46.11-1.33.27-2.04-.07-1.2-.7-2.36-1.44-3.48-2.24-1.1-.82-2.16-1.71-3.17-2.64-1.22-1.11-2.62-2.07-3.93-3.11-1.44-1.13-2.87-2.27-4.35-3.34-.9-.68-1.83-1.3-2.75-1.93-1.43-.91-2.87-1.82-4.39-2.54-.59-.27-1.19-.52-1.8-.74-.61-.21-1.23-.37-1.82-.62-.26-.11-.53-.17-.8-.27-.99-.35-1.22-.72-1.3-1.21-.02-.12-.05-.23-.05-.34,0-.34.51-.49,1.35-.45,2.46.23,4.8,1.36,7.02,2.58,1.66.9,3.22,1.98,4.76,3.04l-.03.04Z"/><path class="cls-1" d="m217.49,345.84c-.5.91-.89,1.93-1.19,2.97-.11.38-.14.78-.24,1.17-.31,1.37-.52,2.79-.54,4.23,0,.63.03,1.27.1,1.9.16.79.14,1.62.16,2.46,0,.26-.17.28-.43.12-.25-.16-.69-.48-.92-.95-.8-1.66-.81-3.51-.52-5.28.18-1.06.2-2.16.42-3.24.25-1.18.6-2.33,1.08-3.44.3-.68.65-1.35,1.05-1.98.62-.96,1.42-1.83,2.41-2.49.75-.51,1.64-.96,2.61-.97.21,0,.42-.02.63,0,.77.14.94.44.99.78.01.08.03.17.03.24-.01.25-.35.39-.8.49-.67.11-1.22.32-1.7.59-.5.23-.96.57-1.4,1.01-.64.65-1.24,1.48-1.71,2.42l-.04-.02Z"/><path class="cls-1" d="m252.48,197.97c-6.08-3.03-7.91-12.14-9.37-18.77-1.46-6.63-1.3-13.5-.88-20.28-4.28-1.79-8.57-3.58-12.85-5.37,5.38,4.23,14.43,5.95,19.99,1.97,5.56-3.99,11.5-16.47,1.77-26.13-9.67-9.6-25.81-.87-30.07,5.17-5.08-9.13-16.55-14.62-26.52-12.76-9.97,1.86-18.41,10.85-20.57,20.76-14.18-10.63-34.32,1.12-37.68,15.12-5.07,21.1,4.38,21.49-3.19,33.22-3.07,4.76-5.27,7.06-9.17,11.16s-7.82,8.57-9.16,14.07.85,12.28,6.16,14.26c3.18,1.19,7.48.91,9.04,3.93.57,1.11.58,2.43.56,3.68-.07,4.28-.02,11.16,3.18,14,2.72,2.41,6.95,1.4,10.28-.07,3.33-1.46,4.97-3.11,7.52-5.7,3.17,5.64,6.14,11.38,9.3,17.02,10.66-1.01,22.39-5.46,32.47-9.07-3.49,2.06-6.65,4.69-9.32,7.75-.58.66-2.41,3.42-2.57,4.29-.38,2.09,1.82,3.7,3.84,4.37,5,1.67,14.12-.5,19.15-2.09,9.93-3.14,17.49-7.59,25.64-14.07,3.96,2.37,6.56,4.47,10.52,6.84,2.33-1.42,5.16-2.75,7.49-4.17-2.4-6.49,2.87-15.62,8.51-19.63,5.64-4.01,9.7-8.61,11.05-14.25.93-3.9,3.58-15.92-15.11-25.23Zm-10.69,28.69c-1,4.59-7.46,14.76-20.07,14.83-12.62.08-22.45-8.1-28.03-13.6-5.57-5.49-7.19-13.9-7.19-13.9,0,0-.96,1.72-7.12,1.6-8.1-.16-11.55-8.29-11.57-12.73-.02-3.89,3.86-5.57,6.85-6.14,2.99-.57,8.11,4.08,7.84,3.62-.26-.45.57-8.12-1.11-13.91-1.69-5.79-7.43-7.44-7.43-7.44,0,0,15.13,2.95,23.9-9.66,3.3-4.75,4.71-12.89,4.71-12.89,5.97,13.28,21.93,7.37,21.93,7.37,0,0,7.91,14.38,11.01,21.17,3.1,6.79,6.45,20.35,7.63,24.76,1.18,4.41-.36,12.32-1.35,16.92Z"/><path class="cls-1" d="m228.01,239.58c3.19-1.08,6.2-2.82,8.58-5.29,2.36-2.47,3.75-5.7,4.52-9.13.56-2.51.72-5.11.74-7.71,0-4.6-.59-9.24-1.6-13.79-1-4.56-2.37-9.05-3.98-13.46-1.44-3.91-3.16-7.74-5.01-11.45-1.2-2.37-2.46-4.73-3.76-7.05l-1.93-3.5c-.64-1.17-1.32-2.32-1.82-3.57-.54-1.62-.51-1.38.59-.4.54.49,1.36,1.17,2.12,2.14.77.96,1.64,2.1,2.42,3.44,2.77,4.75,5.32,9.64,7.52,14.71,2.2,5.07,4.1,10.3,5.41,15.73,1.53,6.48,2.86,13.39,2.39,20.34-.27,3.79-1.05,7.63-2.83,11.12-.87,1.75-2.08,3.33-3.38,4.76-1.32,1.43-2.83,2.68-4.48,3.72-4.09,2.5-8.93,3.64-13.66,3.42-7.14-.3-14.01-3.11-19.64-7.24l-1.63-1.22-1.54-1.32c-.53-.43-1.02-.89-1.49-1.36l-1.45-1.41c-1.81-1.98-3.59-4.01-5.06-6.28-.7-.96-1.3-1.96-1.86-3.02-.55-.97-.87-1.83-1.18-2.54-.29-.72-.54-1.28-.63-1.8-.19-1.03-.19-1.66-.12-2.19.03-.24.02-.54.05-.68.06-.25.32.02.84.65.53.62,1.22,1.65,2.02,2.98,2.45,3.9,5.03,7.81,8.33,11.16,3.29,3.32,7.08,6.26,11.36,8.21,3.16,1.48,6.54,2.45,9.99,2.85.86.07,1.74.18,2.59.22.84.02,1.69.01,2.54-.07,1.69-.15,3.37-.49,4.98-1.04l.03.07Z"/><path class="cls-1" d="m170.05,200.2c-.26.42-.38.92-.53,1.41-.07.55-.18,1.1-.24,1.66.03.55-.02,1.11.05,1.66l.15.81c.04.27.09.55.2.8.15.37.27.76.46,1.12.22.34.43.69.62,1.05.8,1.19,1.81,2.29,3.07,3.14,1.26.81,2.64,1.54,4.15,1.9,1.32.39,2.72.47,4.09.47,1.78-.11,3.42-.55,5.32-.54.6.01.59.15.24.64-.17.25-.43.6-.77,1.03-.34.4-.82.68-1.38.87-3.96,1.19-8.49.56-12.01-1.74-2.09-1.33-4.2-3.02-5.42-5.36l-.26-.47-.19-.5-.37-1.01c-.2-.68-.29-1.4-.42-2.09,0-.71-.05-1.42,0-2.11.11-.69.18-1.38.33-2.07.42-1.73,1.44-3.34,2.9-4.39.29-.18.55-.41.86-.55l.93-.42c.65-.18,1.3-.36,1.98-.38,1.33-.08,2.68.17,3.85.72,1.85.8,3.43,2.03,4.76,3.48.27.33.56.65.82,1,.51.63.66,1.15.71,1.55.02.2,0,.37-.04.53-.07.17-.17.33-.27.47-.09.13-.16.27-.23.36-.18.24-1.16.05-1.82-.75-.22-.32-.48-.6-.74-.88l-.75-.86c-.55-.51-1.05-1.07-1.64-1.48-1.13-.89-2.4-1.52-3.68-1.65-.95-.11-1.91.05-2.73.52-.81.47-1.49,1.19-1.92,2.07l-.06-.03Z"/><path class="cls-1" d="m182.7,186.83c.33.72.54,1.49.8,2.24.18.77.43,1.51.55,2.28.1.56.3,1.09.35,1.66.23,1.98.26,3.94.09,5.86-.04.85-.08,1.7-.07,2.55,0,.54,0,1.08-.07,1.62-.03.27-.07.54-.12.8l-.09.4c-.04.13-.14.26-.2.39-.21.32-.35.27-.7-.03-.42-.31-.91-.84-.98-1.46-.19-1.08-.15-2.15-.18-3.21,0-1.06-.04-2.11.07-3.18.12-1.28-.19-2.57-.4-3.83-.28-1.37-.58-2.75-1.1-4.06-.13-.41-.32-.8-.5-1.2-.18-.39-.35-.8-.59-1.16-.34-.56-.65-1.15-1.05-1.68l-.59-.8c-.21-.26-.44-.49-.67-.73-.69-.76-1.6-1.28-2.37-1.91-.19-.13-.38-.23-.56-.37-.65-.52-.6-1-.41-1.55.05-.13.08-.26.13-.37.09-.18.25-.28.5-.34.24-.06.59-.09.93.02,1.96.68,3.52,2.21,4.85,3.89.48.64.96,1.29,1.35,2,.43.68.77,1.41,1.12,2.14l-.06.03Z"/><path class="cls-1" d="m197.37,172.14c-.41.46-.88.86-1.32,1.29-.46.41-.86.87-1.36,1.23-.99.73-1.89,1.56-2.97,2.16-.38.24-.75.49-1.11.74l-.55.37-.6.29-2.14.98c-.74.26-1.49.49-2.23.73-.73.27-1.5.4-2.27.54l-1.14.22-.57.11-.58.04c-1.37.1-2.73.32-4.09.24h-1.31c-.22,0-.44.02-.66,0-.22-.03-.43-.08-.64-.12-.43-.1-.86-.18-1.27-.33-.41-.16-.81-.33-1.22-.5-.5-.23-.38-.42.13-.73.25-.15.6-.35,1.01-.55.2-.1.42-.22.64-.29.22-.06.45-.09.68-.1,3.25-.1,6.38-.1,9.63-.71.95-.23,1.9-.56,2.84-.93.89-.48,1.8-.92,2.67-1.42l1.41-.89.7-.45.65-.52,1.32-1.04c.43-.36.81-.77,1.21-1.16.5-.48,1-.96,1.42-1.51.43-.54.91-1.05,1.3-1.62l.87-1.31.44-.66.36-.7.71-1.4c.22-.47.37-.98.54-1.46.13-.38.26-.76.35-1.15l.18-1.18.16-1.17.06-1.17c.02-.34.02-.67.05-1.01-.04-.63.09-1.04.21-1.34.07-.15.16-.27.27-.38.13-.11.29-.2.43-.28.14-.08.25-.18.35-.22.25-.16.98.33,1.22,1.42.27.8.24,1.62.26,2.45,0,.42.02.84-.01,1.26-.05.41-.14.82-.21,1.24l-.25,1.24c-.12.4-.26.8-.4,1.2-.28.8-.55,1.61-.96,2.35l-.85,1.68-1.03,1.57c-.65,1.08-1.52,1.98-2.29,2.96l-.06-.04Z"/><path class="cls-1" d="m220.68,166.22c-2.19.33-4.41.36-6.6.07-.8-.13-1.6-.2-2.38-.43-2.75-.78-5.29-2.3-7.21-4.36-.45-.43-.8-.95-1.22-1.41-.37-.49-.73-.99-1.08-1.5l-.61-1c-.21-.33-.32-.71-.48-1.07-.13-.37-.3-.72-.37-1.11-.1-.38-.1-.79-.14-1.17-.02-.49.19-.48.66-.23.23.13.54.31.89.52.31.23.58.52.83.84.82,1.18,1.51,2.34,2.39,3.38.87,1.04,1.83,2,2.94,2.85,1.33,1.03,3.06,1.53,4.76,1.86,1.88.37,3.85.42,5.79.2,1.2-.15,2.4-.36,3.56-.73,1.76-.54,3.49-1.27,4.96-2.33,1.15-.82,2.03-1.91,2.69-3,.17-.23.27-.48.41-.71.15-.21.23-.39.33-.54.1-.14.23-.25.32-.34.19-.18.47-.24.83-.28.16-.02.32-.06.46-.07.24,0,.42.12.58.42.17.3.22.75.11,1.27-.07.4-.19.78-.34,1.15-.13.39-.31.74-.5,1.09-.41.68-.91,1.29-1.46,1.85-1.1,1.11-2.38,2-3.72,2.72-2.01,1.06-4.18,1.73-6.38,2.12l-.02-.07Z"/><path class="cls-1" d="m249.1,123.63c4.39,3.33,7.09,8.5,7.86,13.73.31,1.91.44,3.86.24,5.78-.32,3.39-1.44,6.7-3.28,9.58-.97,1.41-2.1,2.72-3.43,3.81-1.36,1.05-2.85,1.94-4.48,2.48-2.88,1.02-6,1.04-8.87.5-.46-.1-.93-.18-1.39-.28l-1.35-.4c-.92-.23-1.76-.65-2.61-1.02-1.68-.81-3.29-1.76-4.53-3.19-.79-.86-.65-.76.36-.6.5.1,1.29.09,2.09.28.41.08.88.11,1.32.23.44.13.89.29,1.33.49,1.63.57,3.22,1.2,4.85,1.55l1.22.26,1.22.12c.41.06.81.06,1.22.05.4-.02.81.03,1.21-.04,3.19-.27,6.2-1.76,8.41-4.29,1.33-1.49,2.32-3.38,2.93-5.4.61-2.02.86-4.16.83-6.28-.04-4.64-1.68-9.32-4.85-12.74-1.94-2.11-4.35-3.82-7.1-4.52-4.17-1.12-8.83-.1-12.61,2.15-2.96,1.75-5.36,4.26-7.17,7.06-.4.62-.73,1.26-1.1,1.89-.68,1.18-1.07,1.99-1.43,2.54-.42.53-.73.83-1.09,1.05-.17.1-.33.25-.47.31-.23.09-.34-.17-.41-.76-.07-.59-.09-1.52.27-2.61.91-3.3,2.99-6.27,5.51-8.75,2.56-2.47,5.7-4.46,9.23-5.61,2.62-.85,5.49-1.17,8.33-.76,2.82.4,5.6,1.59,7.79,3.32l-.04.07Z"/><path class="cls-1" d="m202.24,119.3c-.85-.09-1.71-.18-2.57-.17-.43,0-.86-.03-1.3-.02-.43.02-.87.06-1.3.07-1.74.06-3.43.35-5.12.76-1.21.36-2.38.82-3.52,1.36-4.08,1.79-7.58,4.94-9.9,8.86-.97,1.77-1.79,3.66-2.22,5.63l-.23.94-.14.96c-.08.64-.23,1.28-.25,1.93-.05.65-.15,1.29-.24,1.94l-.07.98c-.03.33-.12.66-.17.99-.18.83-.34.74-.73.05-.44-.69-1.1-2.03-1.07-3.66.13-2.86.74-5.73,1.85-8.41,1.14-2.67,2.78-5.14,4.84-7.19,2.44-2.45,5.33-4.7,8.6-6.1,3.6-1.5,7.51-2.14,11.33-2.05,2.36.07,4.73.34,7.02,1.01,3.48.91,6.71,2.78,9.36,5.19,2.05,1.89,3.8,4.08,5.03,6.6l.42.82c.12.28.23.57.33.86.19.54.33,1,.43,1.39.05.4.04.73.01,1.01-.05.55-.27.9-.59,1.2-.14.14-.27.3-.4.38-.41.27-1.23-.47-1.81-1.84-.86-2.04-1.9-3.99-3.23-5.74-1.32-1.75-2.94-3.28-4.82-4.48-2.81-1.73-6.07-2.89-9.52-3.17v-.08Z"/><path class="cls-1" d="m121.89,202.12c2.94-3.52,6.07-6.8,8.64-10.3,1.25-1.74,2.43-3.56,3.02-5.4.34-.94.46-1.8.48-2.76,0-.99-.11-2.05-.26-3.13-.46-3.15-1.3-6.38-1.82-9.69-.93-5.81-1.36-12.04.41-17.99.86-2.95,2.3-5.74,4.15-8.19,1.84-2.45,4.13-4.51,6.57-6.26l1.65-1.13,1.8-1.01c.62-.29,1.26-.55,1.88-.82.63-.26,1.29-.43,1.94-.64,2.61-.75,5.33-1.05,8-.94,3.43.15,6.89.93,10,2.57.4.18.77.41,1.14.66l1.1.73c.37.24.68.56,1.02.84.33.29.67.58.96.9,1.14,1.34,2.2,2.78,2.77,4.44.55,2.13.28,1.81-.99.53-.16-.16-.34-.32-.5-.52-.18-.19-.41-.36-.63-.56-.47-.37-.87-.86-1.48-1.23-.57-.4-1.14-.86-1.83-1.24-.33-.21-.64-.45-.98-.66-.36-.19-.72-.4-1.08-.62-2.59-1.52-5.64-2.29-8.7-2.47-.77-.03-1.53-.09-2.3-.02l-1.15.05c-.38.05-.76.11-1.14.14-1.53.14-3.01.51-4.45.97-.71.24-1.4.55-2.08.84l-.97.54c-.33.17-.65.35-.98.59-.65.45-1.34.86-1.95,1.36l-.94.72-.89.77c-2.38,2.06-4.32,4.56-5.73,7.36-1.67,3.38-2.33,7.32-2.26,11.31.05,4,.78,8.04,1.56,12.08.42,2.23.89,4.48,1.2,6.83.14,1.18.25,2.38.17,3.68-.06,1.33-.44,2.57-.88,3.74-.93,2.32-2.26,4.31-3.67,6.18-1.41,1.87-2.9,3.62-4.39,5.35-3.65,4.25-7.41,8.41-9.96,13.2-.95,1.81-1.72,3.7-2.11,5.67-.4,1.96-.41,3.97,0,5.91.22.98.46,1.92.92,2.71.45.8,1.06,1.48,1.81,2.02,1.53,1.07,3.55,1.5,5.61,2.02,1.6.41,3.36.93,4.84,2.09.73.57,1.41,1.3,1.85,2.14.46.84.75,1.74.91,2.62.31,1.77.26,3.45.27,5.05,0,1.63.04,3.08.45,4.44.36,1.19.96,2.22,1.74,3.03,1.49,1.48,3.02,1.61,4.07,1.83.53.13.98.18,1.37.29.39.13.72.24,1.03.37.28.12.65.2.84.3.31.18-.03.47-.98.99-.95.46-2.66.99-4.99.43-.86-.2-1.68-.59-2.46-1.06-.74-.52-1.45-1.13-2-1.86-1.12-1.43-1.77-3.13-2.06-4.82-.15-.83-.22-1.75-.23-2.51-.02-.79-.01-1.55,0-2.29,0-1.47,0-2.89-.26-4.01-.26-1.15-.74-1.9-1.59-2.51-.41-.32-.94-.57-1.48-.8-.58-.21-1.22-.41-1.92-.58-1.39-.36-3.01-.67-4.69-1.35-1.68-.63-3.48-1.9-4.6-3.6-.23-.3-.39-.63-.57-.96-.17-.33-.35-.65-.45-.99l-.36-1-.24-.95c-.18-.63-.27-1.28-.35-1.93-.11-.65-.1-1.31-.12-1.96-.03-2.63.58-5.2,1.51-7.52,1.89-4.66,4.83-8.48,7.77-12.06l.07.04Z"/><path class="cls-1" d="m271.34,220.2c.08-2.72-.64-5.55-2.11-7.91-.37-.59-.78-1.14-1.24-1.66-.47-.52-.99-1.06-1.53-1.55-1.08-1-2.26-1.9-3.52-2.75-1.83-1.25-3.85-2.34-5.79-3.65-1.71-1.15-3.39-2.42-4.94-3.83-1.54-1.41-3-2.91-4.26-4.7-2.38-3.53-3.91-7.4-5.07-11.34-1.02-3.5-1.79-7.08-2.14-10.69-.1-1.16-.2-2.32-.19-3.49-.06-1.17.04-2.34.11-3.51.02-.59.15-1.17.23-1.75.11-.58.15-1.17.33-1.74.27-1.15.78-2.24,1.36-3.27.71-1.29.74-1.02.7.24-.02.63-.05,1.49.07,2.55.05.52-.06,1.04-.06,1.61,0,.57-.04,1.17-.11,1.79-.35,4.42.25,8.92,1.19,13.31,1.05,4.37,2.47,8.73,4.61,12.65.3.6.66,1.16,1.02,1.71.34.58.77,1.07,1.17,1.58.85,1.02,1.88,2,2.91,2.91,2.09,1.82,4.44,3.35,6.86,4.85,2.66,1.65,5.46,3.39,7.89,5.67,1.19,1.11,2.35,2.46,3.22,3.91.88,1.46,1.54,3.04,1.97,4.67.52,2.02.7,4.13.47,6.21-.23,2.08-.91,4.12-1.96,5.94-.77,1.4-1.89,2.63-3.05,3.64-1.17,1.02-2.42,1.89-3.68,2.71-2.52,1.63-5.09,3.04-7.45,4.66-3.67,2.49-6.8,5.65-8.12,9.56-.3.85-.46,1.72-.69,2.61-.54,3.34-.68,4.52-1.25,5.35-.13.19-.25.44-.37.56-.21.2-.44-.06-.71-.73-.28-.67-.6-1.75-.7-3.21-.03-.54-.04-1.09,0-1.64.01-.55.06-1.11.15-1.66.13-1.12.5-2.21.89-3.29.84-2.15,2.18-4.11,3.72-5.8,3.14-3.37,7.02-5.65,10.57-7.86,2.64-1.62,5.22-3.25,6.89-5.25,1.64-1.98,2.49-4.7,2.52-7.41h.08Z"/><path class="cls-1" d="m189.42,269.56c3.51.12,7.15-.41,10.69-1.3,1.3-.31,2.56-.78,3.84-1.18,4.51-1.43,8.95-3.27,13.17-5.52.93-.51,1.87-1.01,2.76-1.59.9-.56,1.83-1.08,2.7-1.68,2.29-1.46,4.41-3.16,6.71-4.65.74-.44.76-.25.4.45-.35.7-1.08,1.94-2.3,2.97l-1.61,1.39-1.66,1.33c-1.11.89-2.26,1.74-3.46,2.51-2.43,1.49-4.93,2.87-7.57,4-3.13,1.39-6.37,2.89-9.73,3.94-3.69,1.16-7.5,2-11.41,2.26-.6.07-1.21.03-1.81.05-.61,0-1.21.02-1.82-.06l-1.82-.18c-.64-.09-1.27-.26-1.88-.48-.93-.33-1.82-.82-2.59-1.54-.76-.7-1.38-1.73-1.46-2.85-.12-1.11.22-2.15.66-3.01.45-.88,1.03-1.64,1.64-2.33,1.93-2.13,4.06-3.89,6.38-5.38.51-.32,1-.65,1.53-.96.98-.55,1.68-.83,2.2-.95.26-.06.48-.08.68-.06.21.04.4.11.57.18.16.07.34.11.44.17.32.15-.19,1.15-1.5,2.07-.95.73-1.93,1.41-2.88,2.15-.95.73-1.87,1.49-2.81,2.22-.91.75-1.78,1.53-2.52,2.35-.72.81-1.36,1.71-1.56,2.46-.17.57-.13.94.05,1.33.18.39.65.81,1.26,1.11.61.31,1.35.52,2.08.6.84.04,1.72.14,2.6.11v.07Z"/><path class="cls-1" d="m182.35,259.97l-4.97,1.57c-.61.19-1.2.44-1.82.6-2.19.59-4.42,1.08-6.68,1.42-1.01.11-1.99.36-3.05.38-.67.01-1.38.06-2.05-.2-.67-.23-1.31-.63-1.76-1.16-.27-.35-.13-.37.24-.32.38.06,1.04-.03,1.65-.13.27-.02.55-.12.81-.12.27-.01.54-.04.82-.08l1.74-.3c1.22-.18,2.45-.38,3.71-.59,1.51-.23,2.98-.87,4.47-1.36l4.95-1.66,3.08-1.02c1.56-.51,3.16-.96,4.74-1.41.61-.19,1.22-.38,1.83-.57.6-.21,1.22-.39,1.85-.54.28-.07.54-.15.83-.19,1.06-.09,1.42.12,1.68.68.06.13.14.26.17.38.12.43-.26.86-.95,1.17-.25.13-.51.19-.77.29-.26.1-.52.19-.78.27-.52.14-1.05.3-1.58.46-.53.14-1.07.29-1.61.45-.54.15-1.08.3-1.63.47-1.62.48-3.26.99-4.9,1.56l-.02-.06Z"/><path class="cls-1" d="m289.31,395.75c3.66-.46,7.23-1.42,10.31-3.15.77-.43,1.45-.98,2.19-1.46.63-.59,1.31-1.17,1.89-1.78,1.1-1.2,1.93-2.82,2.59-4.49,1.33-3.38,1.99-7.12,2.25-10.88.27-3.77.09-7.59-.35-11.38-.62-5.54-1.92-11-3.54-16.34-2.89-9.43-7.01-18.5-11.97-27.08-5.01-8.56-10.78-16.68-17.18-24.3-5.67-6.76-11.91-13.11-18.4-19.01-4.18-3.76-8.46-7.48-12.87-10.95-2.2-1.74-4.47-3.39-6.77-4.98-1.14-.8-2.31-1.57-3.49-2.31l-3.53-2.26c-2.91-1.99-2.59-1.67.4-.95,2.98.67,8.38,2.76,13.62,6.84,9.25,7.17,17.83,15,25.83,23.52l2.98,3.21,2.87,3.31c1.95,2.18,3.72,4.51,5.57,6.77,3.55,4.65,7.01,9.4,10.07,14.42,3.7,5.97,7.17,12.26,10.15,18.84,2.99,6.57,5.47,13.44,7.12,20.47.49,1.92.83,3.88,1.21,5.83.3,1.97.61,3.93.78,5.91.39,3.96.47,7.96.16,11.96-.09,1-.16,2-.33,2.99l-.22,1.49-.31,1.48c-.41,1.98-1.02,3.94-1.86,5.82-.23.47-.43.94-.68,1.4l-.82,1.35c-.3.44-.65.86-.98,1.28-.33.42-.74.74-1.11,1.12-.38.36-.75.73-1.14,1.07l-1.27.91c-.82.65-1.75,1.11-2.66,1.59l-.84.44-.88.35-1.76.69-1.81.5c-.61.16-1.21.35-1.82.43-1.23.21-2.45.47-3.68.55l-1.85.18c-.62.04-1.23.04-1.85.06-4.93.13-9.82-.41-14.61-1.32-3.63-.69-7.22-1.59-10.73-2.7-3.53-1.08-6.99-2.37-10.38-3.81-6.78-2.87-13.29-6.37-19.28-10.62-4.6-3.35-9.01-7.04-12.29-11.82-1.61-2.38-2.95-5.08-3.44-8.05-.48-2.89-.38-5.9.32-8.77.6-2.54,1.62-4.93,3.1-7.12,2.8-4.03,5.62-5.87,7.61-6.87,2.04-.97,3.38-1.12,4.47-1.02.5.05,1.11.05,1.4.14.49.16-.15.59-1.56,1.36-1.37.85-3.58,1.96-5.89,4.08-3.44,3.1-5.83,7.4-6.45,12.02-.31,2.28-.22,4.72.32,6.91.54,2.17,1.63,4.3,3.09,6.23l.52.74.59.7,1.18,1.41,1.3,1.33.65.67.7.63,1.39,1.26c.47.41.98.8,1.46,1.2.96.82,2,1.56,3.03,2.31,4.14,2.97,8.61,5.57,13.25,7.83,3.46,1.66,7,3.16,10.6,4.49,3.62,1.31,7.3,2.42,11.02,3.35,3.73.91,7.51,1.56,11.3,1.94,3.78.38,7.59.44,11.28-.04l.03.08Z"/><path class="cls-1" d="m251.57,340.8c1.03.65,2.08,1.25,3.07,1.95.97.72,1.99,1.36,2.92,2.13.68.55,1.43,1.01,2.09,1.58,2.35,1.99,4.51,4.15,6.66,6.28.94.96,1.93,1.87,2.91,2.75,1.31,1.08,2.52,2.22,3.63,3.47.35.4.22.54-.33.57-.28.02-.67.02-1.15-.01-.5-.01-.97-.17-1.41-.44-1.63-.91-2.85-2.18-4.16-3.33-1.29-1.17-2.46-2.46-3.66-3.73-1.43-1.52-3.16-2.82-4.81-4.12-.92-.7-1.82-1.45-2.78-2.08-.95-.67-1.9-1.34-2.9-1.91-.62-.36-1.21-.76-1.84-1.08l-1.91-.96c-1.95-.9-3.98-1.72-6.07-2.18-.4-.09-.8-.21-1.21-.26l-1.23-.11-2.44-.19c-.36-.01-.71,0-1.07-.03-.67-.02-1.1-.23-1.41-.37-.31-.16-.49-.37-.63-.63-.07-.12-.15-.23-.19-.34-.13-.32.43-.7,1.49-.96.79-.2,1.58-.23,2.4-.33.81,0,1.62.12,2.44.2l1.23.16c.41.07.81.19,1.21.28.8.21,1.61.43,2.42.64,1.16.42,2.32.88,3.47,1.34,1.1.55,2.22,1.08,3.3,1.66l-.03.06Z"/><path class="cls-1" d="m180.44,303.25c4.79,1.47,9.46,3.19,14.05,5.21,1.67.74,3.37,1.44,5,2.35.72.4,1.44.83,2.16,1.35.35.25.75.58,1.07.91.3.32.6.65.86.99,1.07,1.33,1.91,2.72,2.73,4.11,1.63,2.78,3.08,5.6,4.61,8.38,1.35,2.46,2.8,4.87,4.38,7.13,1.02,1.44,2.07,2.85,3.25,4.1.58.62,1.15,1.27,1.8,1.79.65.51,1.3,1.07,2.11,1.33,1,.28.95.33-.07.51-.5.03-1.28.07-2.19-.15-.91-.22-1.9-.7-2.79-1.39-1.53-1.28-2.75-2.77-3.9-4.28-1.09-1.55-2.08-3.13-3.03-4.74-1.88-3.21-3.56-6.49-5.29-9.72-1.04-1.91-2.19-3.84-3.55-5.46-.17-.2-.34-.4-.52-.57l-.26-.27-.25-.21c-.35-.29-.8-.57-1.25-.84-.92-.54-1.92-1.03-2.91-1.51-4.41-2.08-9.06-3.8-13.73-5.39-2.88-.95-5.79-1.85-8.73-2.51-.93-.21-1.87-.39-2.78-.52-.51-.07-1.05-.15-1.58-.01-.17.07-.32.22-.35.41-.02.18.04.37.16.52.21.31.51.55.82.78l.61.41c.26.18.55.35.82.52.56.34,1.15.62,1.74.92,3.18,1.51,6.51,2.57,9.86,3.53.74.19,1.47.38,2.22.57,1.38.37,2.28.58,2.89.85.6.29.93.57,1.2.89.12.14.3.28.37.39.12.19-.11.33-.69.49-.58.16-1.47.22-2.55.02-3.21-.54-6.38-1.44-9.55-2.56-1.58-.57-3.16-1.2-4.72-1.93l-2.36-1.17c-.2-.1-.4-.21-.6-.32-.21-.12-.34-.17-.75-.46-.72-.44-1.35-.98-1.85-1.54-.62-.72-.89-1.44-.94-2.18-.02-.18-.01-.37.04-.57.02-.19.1-.39.16-.58.06-.19.21-.35.31-.52.07-.18.23-.31.33-.46.56-.39,1.13-.74,2.02-.82.86-.07,1.85-.05,2.78.08,1.05.14,2.06.33,3.05.55,1.98.44,3.91.96,5.82,1.52v.07Z"/><path class="cls-1" d="m166.59,312.42c-.68.12-1.37.24-1.98.47-.32.1-.6.24-.88.36-.09.05-.08.04-.09.04,0,0-.02,0-.03,0l-.09.04c-.1.07-.31.15-.32.32.05.15.21.21.36.28.03.01.06.02.1.04l.25.06c.25.06.51.12.78.17l1.6.31c3.82.76,7.78,1.35,11.71,2.08,1.75.32,3.52.61,5.26,1.01,1.12.26,2.25.53,3.37.96,1.08.47,2.22,1.14,2.88,2.33.2.37.17.59.07.63-.12.05-.32-.05-.65-.12-.33-.08-.77-.13-1.28-.12-.5-.02-1.03-.06-1.6-.19-1.94-.65-4.15-1.03-6.35-1.44-2.23-.43-4.46-.86-6.72-1.29-2.71-.56-5.59-.73-8.46-1.29-1.01-.26-4.9-.78-5.03-2.96-.04-.55.3-.96.54-1.42.39-.42.79-.84,1.3-1.18.44-.36,1.14-.68,1.46-.81.41-.17.81-.31,1.22-.42,2.01-.56,4.01-.67,5.97-.67,2.98.04,5.91.43,8.78.89,2.23.36,4.44.68,6.64,1.18.48.11.96.2,1.45.34.9.25,1.47.51,1.82.82.36.29.51.58.58.94.03.16.09.33.08.47-.02.47-.84.56-2.14.39-3.77-.79-7.78-1.61-11.8-2.11-2.98-.37-6.02-.52-8.82-.07v-.06Z"/><path class="cls-1" d="m184.78,341.69s-.03,0-.04-.01h-.08s-.2,0-.2,0l-.7.03-1.4.03c-.93,0-1.86-.02-2.78-.08-1.85-.11-3.68-.33-5.49-.66-1.39-.25-2.78-.49-4.15-.91-1.33-.42-2.64-.9-3.94-1.61l-.49-.29c-.21-.13-.45-.31-.67-.47-.43-.33-.8-.71-1.07-1.12-.26-.41-.42-.86-.41-1.34-.02-.48.2-.95.47-1.31.5-.57,1.24-.9,2.1-1.04.97-.16,1.38-.12,1.98-.13,1.12,0,2.21.08,3.29.16,2.14.16,4.27.3,6.36.32,1.34.04,2.68.03,4-.05.33-.03.66-.04.98-.08.33,0,.65-.04.98-.06.65-.07,1.29-.16,1.91-.34.75-.25.79-.06.26.54-.28.28-.72.65-1.31,1-.29.18-.62.35-.98.5-.18.09-.37.14-.55.22-.19.04-.4.1-.6.13-1.45.25-2.88.36-4.31.42-1.42.04-2.83-.03-4.22-.09-1.37-.07-2.75-.14-4.12-.21-.67-.03-1.34-.05-1.98-.03-.84.04-.7-.01-.96,0-.07,0-.14.03-.2.06-.23.13-.17.43.02.58.1.09.15.14.33.24.3.17.62.33.95.48,1.34.59,2.84.99,4.33,1.35,3.54.82,7.24,1.19,10.89,1.06.31,0,.62-.03.93-.05l.48-.03.69-.07.45.03h.22s.01.01.01.01h0s0,0,0,0c-.01.03.03-.07-.02.07h0s.03.01.03.01l.05.02.1.05c.26.12.5.33.71.57l.91,1.02c.55.61,1.11,1.2,1.69,1.77,2.44,2.37,5.25,4.44,8.39,5.65,2.43.96,5.01,1.23,7.52,1.11.55-.06,1.09-.1,1.65-.17,2.05-.23,2.73-.23,3.35.33.14.12.32.23.42.36.17.21.06.47-.29.77-.35.3-.94.66-1.78.88-.61.2-1.25.31-1.89.45-.65.09-1.3.18-1.96.2-1.33.08-2.68-.03-4.02-.25-2.69-.44-5.28-1.49-7.62-2.85-1.74-1.02-3.35-2.23-4.84-3.57-.74-.66-1.45-1.36-2.13-2.08-.34-.36-.67-.72-.99-1.09l-.24-.27c-.05-.06-.06-.07-.05-.06h0s-.01-.03-.02-.04l.03-.07Z"/><path class="cls-1" d="m165.7,267.59l5.09,8c.62.98,1.31,1.91,1.93,2.89,2.16,3.47,4.19,7.02,6.17,10.61.85,1.61,1.81,3.16,2.65,4.76.53,1.03,1.09,2.05,1.59,3.1.44,1.08.8,2.2,1.15,3.31.2.7-.11.73-.72.34-.6-.39-1.6-1.15-2.36-2.23-2.46-3.94-4.59-8.03-6.85-12.18-1.34-2.48-3.03-4.88-4.6-7.31l-5.17-8.04-3.16-4.98c-.79-1.27-1.59-2.53-2.34-3.82l-1.15-1.92-1.12-1.93c-.59-.99-1.18-1.98-1.77-2.96-.61-.97-1.17-1.98-1.7-3-.24-.45-.46-.9-.66-1.37-.63-1.81-.71-2.43-.22-3.03.1-.13.17-.28.25-.37.23-.27,1.09.23,1.73,1.41.26.43.49.87.78,1.29.29.42.56.85.8,1.29l.73,1.33.78,1.33c.51.9,1.01,1.8,1.57,2.7.54.9,1.05,1.81,1.62,2.71,1.63,2.68,3.32,5.37,5.06,8.03l-.05.04Z"/><path class="cls-1" d="m127.85,265.82l-2.4,2.03-2.35,2.08c-1.58,1.38-3.1,2.82-4.63,4.26-1.12,1.04-2.14,2.19-3.25,3.25-3.87,3.77-7.67,7.62-11.37,11.58-1.64,1.75-3.21,3.59-4.75,5.42-.97,1.19-1.96,2.36-2.98,3.51-.51.57-1,1.17-1.56,1.7-.57.52-1.14,1.04-1.72,1.57-.73.63-.84.38-.64-.51.1-.44.27-1.05.51-1.76.12-.35.24-.74.43-1.11.2-.36.43-.72.69-1.08,1.85-2.55,3.89-4.95,5.99-7.3,1.04-1.19,2.11-2.34,3.2-3.49,1.08-1.16,2.18-2.29,3.33-3.39,1.36-1.33,2.69-2.73,4.04-4.14,1.33-1.42,2.69-2.84,4.07-4.2,3.03-3.01,6.18-5.91,9.37-8.75,1.99-1.73,3.98-3.44,6.02-5.1,3.06-2.55,6.29-4.92,9.44-7.32,1.24-.9,2.46-1.83,3.66-2.76,1.21-.93,2.45-1.8,3.68-2.7.54-.39,1.06-.8,1.64-1.16,1.06-.68,1.8-1.06,2.39-1.19.59-.15,1-.1,1.42.09.19.09.41.15.55.26.48.35-.14,1.32-1.53,2.5-4.3,3.22-8.92,6.39-13.39,9.85-1.67,1.27-3.32,2.58-4.97,3.89-1.62,1.35-3.28,2.65-4.85,4.06l-.05-.05Z"/><path class="cls-1" d="m156.33,362.45l6.17-4.62c.75-.57,1.45-1.2,2.21-1.75,2.67-1.97,5.4-3.86,8.17-5.7,1.21-.83,2.44-1.68,3.62-2.54.78-.53,1.53-1.11,2.33-1.61.41-.24.81-.49,1.26-.66.46-.15.91-.3,1.38-.46.58-.17.64.09.44.71-.1.31-.26.72-.46,1.19-.11.22-.21.49-.36.7-.16.2-.34.38-.56.54-3.05,2.19-6.14,4.32-9.35,6.41-1.94,1.23-3.73,2.8-5.59,4.23l-6.15,4.73-3.8,2.91c-1.91,1.48-3.88,2.9-5.77,4.39-.74.57-1.45,1.17-2.16,1.77l-2.16,1.74c-.32.26-.62.52-.98.73-1.31.8-1.83.89-2.44.55-.14-.08-.3-.14-.41-.24-.37-.31-.09-1,.69-1.81,2.29-2.41,5.01-4.45,7.75-6.56,2.04-1.56,4.09-3.13,6.14-4.7l.05.05Z"/><path class="cls-1" d="m122.97,346.92c-2.41-3.77-4.88-7.51-7.44-11.18-.92-1.35-1.94-2.63-2.87-3.97-3.3-4.72-6.67-9.41-10.11-14.04-1.51-2.07-3.11-4.09-4.69-6.08-1.03-1.27-2.07-2.53-3.03-3.86-.48-.66-.99-1.3-1.43-2-.43-.7-.85-1.41-1.28-2.12-.52-.89-.31-.88.49-.41.4.23.96.57,1.62.99.33.21.7.43,1.04.7.33.28.67.59.99.94,2.35,2.4,4.37,5.06,6.47,7.67,2.09,2.62,4.06,5.34,5.95,8.14,2.28,3.33,4.88,6.63,7.28,9.99,2.63,3.7,5.19,7.46,7.68,11.25l2.29,3.51,2.24,3.54c2.26,3.58,4.41,7.25,6.58,10.84.82,1.41,1.67,2.79,2.53,4.16.83,1.38,1.66,2.77,2.5,4.15.37.61.75,1.2,1.05,1.85,1.19,2.38,1.36,3.25,1.02,4.06-.07.18-.11.39-.18.51-.19.38-1.25-.3-2.3-1.93-1.62-2.39-3.1-4.92-4.61-7.48-1.53-2.55-3.08-5.14-4.63-7.74-1.15-1.93-2.36-3.83-3.53-5.76-1.22-1.9-2.4-3.82-3.66-5.7l.05-.04Z"/><path class="cls-1" d="m71.24,293.04c-2.48-1.41-4.95-2.84-7.41-4.28-.9-.53-1.83-.99-2.72-1.52l-9.35-5.75c-1.38-.86-2.79-1.66-4.2-2.44-1.8-1.02-3.72-1.84-5.22-3.37-.47-.48-.29-.61.38-.7.33-.03.86-.18,1.36-.11.52.04,1.09.15,1.64.38,1.88.97,3.72,2.01,5.54,3.07,1.83,1.06,3.62,2.19,5.37,3.4,2.11,1.44,4.46,2.65,6.7,3.96,2.47,1.44,4.93,2.89,7.42,4.3,1.53.87,3.06,1.72,4.61,2.55,2.35,1.25,4.71,2.5,7.11,3.57.94.4,1.88.78,2.83,1.12l2.85.95c.42.13.83.24,1.25.38,1.55.48,1.95.88,2.19,1.46.05.13.13.27.16.39.08.39-.66.56-1.98.5-3.8-.55-7.37-2.19-10.88-3.84-2.61-1.24-5.15-2.62-7.69-3.98l.03-.06Z"/><path class="cls-1" d="m45.44,291.32c-.45-.91-.93-1.82-1.44-2.71-.19-.33-.43-.61-.61-.95-.64-1.18-1.28-2.36-1.92-3.54-.3-.52-.6-1.04-.93-1.53-.2-.33-.42-.64-.62-.98-.17-.35-.26-.75-.33-1.15-.03-.25.27-.37.7-.38.42,0,1.04.07,1.36.35.48.58.91,1.18,1.34,1.8.43.62.74,1.33,1.06,2.04.37.86,1.01,1.59,1.52,2.4.56.89,1.09,1.79,1.62,2.71l.96,1.71c.47.88.92,1.77,1.34,2.68.34.7.78,1.36,1.07,2.15.06.17.12.35.16.53.09.71-.1.98-.65,1.12-.13.03-.25.07-.37.09-.42.05-.81-.18-1.03-.5-.37-.49-.67-.98-.98-1.51-.31-.53-.63-1.07-.94-1.65-.42-.87-.88-1.77-1.37-2.66l.05-.03Z"/><path class="cls-1" d="m98.95,358.86l4.64,2.93,4.71,2.8c1.16.65,2.36,1.23,3.52,1.89,4.12,2.24,8.29,4.41,12.62,6.16,1.94.7,3.91,1.43,5.91,1.85l1.91.48,1.92.35c1.27.36,2.54.52,3.85.78.81.17.72.44,0,.79-.36.17-.87.38-1.52.57-.64.2-1.42.39-2.22.34-2.86-.18-5.63-.89-8.25-1.88-1.32-.47-2.64-.95-3.9-1.55-1.27-.57-2.55-1.13-3.78-1.8-1.48-.78-3.02-1.47-4.54-2.25-1.53-.75-3.07-1.49-4.55-2.32l-2.45-1.35-2.41-1.41c-1.61-.93-3.2-1.91-4.78-2.89-1.96-1.18-3.86-2.46-5.8-3.67-2.89-1.9-5.79-3.82-8.66-5.71-2.23-1.46-4.51-2.77-6.73-4.2-.49-.31-.99-.6-1.47-.93-1.77-1.26-2.18-1.88-2.21-2.64,0-.18-.04-.37-.01-.51.09-.48,1.05-.31,2.49.39,4.18,2.21,8.27,4.98,12.43,7.69,3.08,2.03,6.17,4.06,9.29,6.02l-.03.06Z"/><path class="cls-1" d="m48.2,334.21c-1.37-4.62-2.57-9.25-3.32-14.07-.07-.44-.13-.89-.18-1.35l-.08-.69-.03-.75c0-.99.1-1.93.28-2.84.65-3.19,1.82-6.09,3.1-8.92,1.29-2.83,2.75-5.55,4.37-8.19.72-1.17,1.45-2.34,2.24-3.48.4-.57.8-1.14,1.25-1.69.22-.28.45-.55.71-.83.14-.14.25-.27.41-.41.2-.19.4-.36.62-.47.54-.42,1.24-.37,1.87-.2.65.12,1.25.6,1.64,1.06.76.99.92,2.15.84,3.16-.25,2.06-1.43,3.7-2.8,4.89-.9.72-.94.37-.61-.54.16-.46.36-1.09.51-1.81.14-.72.23-1.53.22-2.27.03-.64-.05-1.23-.25-1.52-.04-.08-.1-.11-.13-.16-.07-.02-.02-.03-.03-.03h0s0,0,0,0c0,0,0,0,.02-.02,0,0-.09.08-.15.14-.24.24-.5.53-.75.84-.5.62-1,1.29-1.48,1.99-1.91,2.8-3.65,5.83-5.3,8.9-.98,1.84-1.82,3.8-2.5,5.81-.67,2-1.22,4.07-1.36,6.03-.07,1.03.07,2.13.26,3.3.17,1.15.39,2.31.63,3.46.47,2.31,1.06,4.61,1.68,6.9.79,2.81,1.64,5.61,2.64,8.35,1.48,4.17,3.18,8.29,5.12,12.23.75,1.53,1.59,3,2.42,4.46.9,1.42,1.72,2.89,2.69,4.26.42.61.82,1.21,1.24,1.83,1.61,2.24,1.9,3.13,1.94,3.85,0,.17.04.37.02.49-.06.39-.98-.34-2.44-1.85-3.94-4.74-7.44-10.31-10.22-16.22-2.01-4.42-3.69-8.99-5.15-13.62l.06-.03Z"/><path class="cls-1" d="m61.51,297.51c-1.26,1.47-2.45,3.08-3.55,4.73-.4.6-.74,1.25-1.12,1.86-.68,1.08-1.35,2.17-1.98,3.26-.31.55-.6,1.11-.82,1.65l-.15.4c-.01.09-.04.19-.06.28-.02.29-.02.64-.03.96-.02,1.16.01,2.32.06,3.47.03.74.05,1.48.05,2.22.01.74-.02,1.48-.21,2.22-.11.46-.31.39-.64,0-.17-.19-.38-.47-.6-.8-.19-.33-.31-.72-.36-1.14-.07-.75-.15-1.49-.2-2.23l-.06-2.24c-.01-.75-.01-1.49,0-2.24,0-.07.01-.25.03-.4.02-.15.04-.31.07-.46.06-.28.14-.44.21-.66.14-.44.32-.76.49-1.15.83-1.71,1.65-3.43,2.64-5.04,1.09-1.76,2.26-3.46,3.53-5.11.79-1.01,1.59-2,2.54-2.93.18-.18.35-.36.56-.52.28-.23.55-.47.84-.61.3-.12.58-.29.88-.37.31-.05.64.04.91.21.53.34.9.92,1.14,1.55.13.34.21.56.27.82.07.25.12.51.16.76.25,1.57.29,3.2-.27,4.82-.13.35-.25.71-.45,1.04-.36.62-.73.96-1.08,1.07-.33.13-.63.07-.95-.11-.15-.08-.3-.15-.42-.25-.39-.35-.29-.97-.04-1.62.48-.9.73-1.9.82-2.97.03-.53.03-1.08-.04-1.61-.03-.27-.09-.52-.15-.76-.05-.17-.04-.13-.04-.13h0s.03-.05-.05,0c-.63.56-1.29,1.28-1.9,2.04l-.05-.04Z"/><path class="cls-1" d="m68.66,302.25c.58-1.15,1.05-2.38.84-3.36-.01-.06-.03-.12-.05-.18-.02-.05,0-.05,0-.07l-.02-.1c-.02-.07-.05-.14-.1-.2-.06-.06-.14-.02-.21,0-.03.02-.07.03-.1.05l-.05.03-.16.13c-.74.59-1.41,1.36-2.12,2.08-1.25,1.29-2.44,2.66-3.61,4.04-.58.7-1.15,1.4-1.68,2.13-.52.71-1.08,1.5-1.38,2.15-.55,1.47-.99,3.07-1.26,4.57-.35,1.95,0,3.9-.09,6.04-.07.67-.06.59-.43.1-.43-.47-1.13-1.38-1.46-2.64-.44-2.24-.24-4.76.47-6.83.16-.53.33-1.05.5-1.56.05-.14.07-.22.15-.42.07-.2.15-.36.22-.5.15-.3.3-.55.46-.8.62-.98,1.29-1.84,1.99-2.69,1.67-2.02,3.3-4.18,5.23-6.09.54-.53,1.08-1.03,1.72-1.53.47-.33.96-.69,1.47-.84.48-.16,1.1-.17,1.46.24.4.31.69.84.9,1.37l.16.4.08.41c.05.22.07.44.08.65.03.87-.08,1.69-.32,2.45-.58,1.87-1.59,3.41-2.57,4.91l-2.29,3.33c-.73,1.1-1.44,2.24-1.81,3.38-.26.82-.24,1.91-.27,2.9,0,1.01.03,2.01.09,3.01.04.44.08.86.13,1.3.18,1.61.05,2.11-.39,2.57-.09.1-.17.24-.26.31-.22.24-.91-.34-1.26-1.63-.42-1.9-.52-3.85-.48-5.83.01-.49.03-.99.07-1.5.02-.26.04-.5.08-.8.05-.29.11-.64.2-.91.35-1.16.88-2.06,1.41-2.95,1.58-2.57,3.42-4.79,4.61-7.17l.05.02Z"/><path class="cls-1" d="m68.83,328.23c-.18-.4-.32-.82-.42-1.28-.08-.46-.09-.92-.14-1.38-.04-.9.07-1.77.34-2.56.58-1.55,1.33-2.92,2.22-4.15.66-.88,1.27-1.78,1.92-2.6l.83-1.08.52-.72c.08-.12.17-.27.18-.43.02-.18-.14-.29-.28-.34-.33-.1-.56-.11-1.44.25-.73.33-1.45.81-2.1,1.39-1.17,1.02-2.14,2.34-2.94,3.71-.52.89-.96,1.82-1.42,2.74-.45.93-.85,1.88-1.58,2.72-.69.44-.58.39-.91-.34-.18-.37-.28-.85-.39-1.43-.06-.56.06-1.16.29-1.76.84-2.12,2.05-4.11,3.6-5.92.77-.9,1.65-1.75,2.69-2.46.51-.36,1.07-.68,1.68-.94.29-.14.63-.24.96-.34.13-.05.42-.09.64-.12.24-.03.47-.1.7-.09,1.12-.05,2.16.25,2.81.99.66.82.51,1.87.1,2.87-.25.52-.5.97-.71,1.29-.19.31-.39.6-.59.89-.4.57-.8,1.12-1.2,1.65-.87,1.18-1.72,2.32-2.52,3.47-.38.58-.73,1.17-1,1.78-.3.59-.55,1.22-.61,1.84-.08,1.52,1.28,2.91,2.13,4.61.68,1.28,1.07,2.72,1.24,4.15.17,1.42.18,2.88-.03,4.28-.3,2.17-.75,4.33-1.83,6.38-.25.44-.49.89-.82,1.3-.59.79-1.21,1.11-1.64,1.29-.43.18-.8.08-1.12-.08-.15-.08-.31-.13-.4-.21-.17-.14-.14-.38-.02-.73.05-.19.16-.34.28-.53.11-.2.25-.4.41-.62.94-1.29,1.7-2.78,2.17-4.49.49-1.68.79-3.53.84-5.26.03-1.34-.11-2.63-.51-3.87-.21-.61-.48-1.22-.81-1.84-.32-.63-.76-1.25-1.13-2.04l.04-.02Z"/><path class="cls-1" d="m98.8,371.54l1.07.8,1.14.7c.75.5,1.59.85,2.39,1.27.6.28,1.25.44,1.86.7,2.19.83,4.49,1.51,6.85,1.93,1.05.17,2.12.27,3.17.32l2.04.06c.68,0,1.36.04,2.04.28.42.13.37.49,0,.93-.18.22-.45.48-.77.72-.32.21-.7.33-1.1.34-2.88.05-5.78-.31-8.59-1.15-.84-.27-1.7-.44-2.57-.7l-1.3-.35c-.43-.13-.85-.29-1.27-.44-1.86-.66-3.62-1.6-5.3-2.64l-1.5-1.05c-.49-.36-.94-.78-1.41-1.17-.73-.56-1.31-1.31-1.97-1.95-.58-.71-1.17-1.42-1.72-2.15-.4-.59-.83-1.14-1.26-1.71-.36-.6-.78-1.18-1.1-1.81-.16-.27-.28-.55-.39-.84-.21-.54-.28-.93-.24-1.23.03-.3.14-.5.33-.69.09-.09.16-.19.25-.25.28-.21.78.1,1.33.73.65,1,1.45,1.9,2.01,2.92.36.47.7.94,1.04,1.43.33.48.75.9,1.12,1.37.27.35.57.66.89.97l.92.94,1,.87.5.44.55.38-.03.05Z"/><path class="cls-1" d="m80.07,393.87c3.57,3.21,7.34,6.22,11.31,8.9,1.45.97,2.98,1.82,4.48,2.69,2.66,1.53,5.42,2.89,8.29,3.88,2.87.99,5.87,1.62,8.85,1.53,2.63,0,5.25-.93,7.66-2.05,1.54-.75,3.03-1.62,4.39-2.62.69-.5,1.32-1.04,1.94-1.61.29-.3.59-.58.91-.86.28-.3.57-.61.87-.91.89-.69.76-.68.74.41.03.3-.06.59-.14.96-.08.37-.2.78-.38,1.2-.17.44-.44.84-.75,1.25-.3.42-.68.8-1.09,1.18-2.96,2.62-6.5,4.24-10.28,5.21-.94.22-1.96.42-2.95.46l-1.48.06c-.49,0-.98-.05-1.47-.07-1.96-.11-3.84-.54-5.68-1.06-4.35-1.34-8.66-3.16-12.59-5.49-4.33-2.52-8.31-5.55-12.11-8.74-2.33-1.98-4.57-4.06-6.76-6.18-3.29-3.24-6.43-6.67-9.35-10.2-2.27-2.75-4.51-5.45-6.48-8.44-.43-.66-.85-1.31-1.25-2-1.31-2.67-1.36-3.72-1.04-4.49.08-.18.13-.39.22-.51.33-.39,1.01.59,2.13,2.29,3.31,5.07,7.36,10.13,11.73,14.93,3.23,3.59,6.68,7.03,10.3,10.25l-.04.06Z"/><path class="cls-1" d="m192.91,280.02c-1.93.19-3.87.27-5.82.2-.71-.02-1.42,0-2.14-.08-2.49-.31-5.06-.91-7.25-2.45-.95-.68-1.84-1.55-2.42-2.62-.18-.34-.32-.7-.42-1.08-.14-.36-.17-.75-.22-1.12-.12-.75.15-1.5.37-2.18.16-.43.28-.33.51.05.15.25.3.51.45.74.09.15.21.29.31.45.06.08.09.15.16.23.02.08.05.16.06.24.1.27.18.55.29.8.15.24.21.5.39.71.26.45.54.88.93,1.26.75.78,1.82,1.39,3,1.89,1.43.6,3.12.71,4.76.79,1.81.1,3.66.05,5.49-.13,1.13-.12,2.27-.25,3.39-.47,1.7-.31,3.41-.68,5.03-1.25,1.26-.45,2.44-1.04,3.61-1.61l.76-.39c1-.39,1.42-.29,1.86.04.1.08.22.15.3.23.26.27.02.78-.6,1.43-.97.84-2.12,1.44-3.28,2.03-1.19.53-2.45.92-3.72,1.26-1.89.5-3.82.84-5.76,1.09v-.06Z"/><path class="cls-1" d="m391.44,247.63c-2.79.69-5.63,1.16-8.47,1.43-2.85.24-5.7.29-8.54.16-5.68-.25-11.34-1.33-16.71-3.11-3.93-1.29-7.76-2.89-11.36-4.94-3.16-1.83-6.2-3.94-8.84-6.54-2.62-2.6-4.87-5.73-6.04-9.36-1.21-3.62-1.06-7.61.07-11.17,1.2-3.51,2.83-6.79,4.97-9.78,1.89-2.64,4.1-5.07,6.59-7.16,2.5-2.07,5.23-3.85,8.09-5.29,3.68-1.86,7.6-3.24,11.63-4.12,2.02-.43,4.06-.77,6.12-.89,1.03-.05,2.06-.09,3.09-.06,1.03.03,2.06.17,3.08.36,1.27.28,1.79.51,1.74.56-.05.08-.67.04-1.75.22-2.16.35-5.92,1.26-10.34,2.07-7.82,1.55-15.34,4.91-21.17,10.23-1.46,1.32-2.82,2.75-4.05,4.3-1.21,1.56-2.32,3.2-3.28,4.94-.92,1.73-1.82,3.59-2.41,5.41-.6,1.83-.91,3.75-.86,5.66.05,2.29.71,4.58,1.78,6.69,1.11,2.1,2.61,4.04,4.38,5.75,3.53,3.44,7.9,6.06,12.44,8.1,5,2.25,10.31,3.89,15.72,4.76,5.42.87,10.97,1.02,16.42.37,3.35-.39,6.67-1.09,9.87-2.15,3.17-1.06,6.3-2.48,8.99-4.35,2.01-1.45,3.71-3.3,4.94-5.44,1.23-2.14,1.99-4.56,2.27-7.03.56-4.98-.75-10.06-3.33-14.39-3.83-6.93-8.85-13.11-15.23-17.43-.7-.48-1.43-.89-2.14-1.33-.73-.41-1.46-.82-2.2-1.24-2.78-1.48-4.76-2.17-6.11-2.77-1.36-.61-2.15-1.04-2.74-1.56-.27-.23-.64-.5-.77-.69-.21-.32.31-.38,1.51-.3,1.19.1,3.11.33,5.49,1.09.87.31,1.76.58,2.61.95l1.3.53,1.27.61c.87.38,1.66.89,2.47,1.39.82.47,1.59,1.04,2.36,1.59,3.08,2.24,5.86,4.93,8.33,7.87.6.75,1.17,1.52,1.76,2.28.29.38.59.76.87,1.15l.8,1.2,1.58,2.42,1.43,2.51c.97,1.61,1.85,3.53,2.52,5.44.61,1.94,1.1,3.93,1.27,5.99.29,3.03.04,6.16-.92,9.12-.94,2.96-2.57,5.72-4.74,7.95-.27.28-.53.57-.82.83l-.89.75c-.3.24-.59.51-.9.73l-.96.64c-.32.21-.64.44-.96.62l-.97.53c-.65.36-1.29.71-1.97,1.01-2.65,1.28-5.42,2.25-8.24,2.96l-.03-.06Z"/><path class="cls-1" d="m403.2,260.71c-4,.99-8.09,1.49-12.17,1.89-2.05.09-4.09.24-6.13.27l-3.07-.02c-1.02,0-2.04,0-3.06-.09-4.08-.2-8.14-.63-12.17-1.26-2.01-.37-4.01-.65-6.03-1.09-2.01-.45-3.99-1-5.95-1.62-5.69-1.83-11.21-4.17-16.38-7.19-4.55-2.67-8.85-5.82-12.56-9.66-3.7-3.81-6.78-8.42-8.35-13.63-.83-2.63-1.02-5.47-.77-8.14.24-2.7.86-5.31,1.7-7.84,1.71-5.04,4.33-9.7,7.47-13.93,5.62-7.47,12.98-13.68,21.26-17.87,5.33-2.67,11.03-4.66,16.91-5.74,1.48-.21,2.95-.49,4.44-.63,1.49-.11,2.97-.32,4.46-.31,2.98-.12,5.97-.04,8.9.45,3.66.61,3.08.95-.04,1.43-3.13.57-8.69,1.08-15.13,2.07-11.43,1.67-22.35,6.61-30.98,14.33-2.14,1.95-4.16,4.03-6.02,6.25-1.83,2.24-3.5,4.62-4.96,7.12-1.47,2.49-2.71,5.12-3.64,7.85-.93,2.72-1.57,5.54-1.72,8.36-.04,1.68.06,3.36.45,4.96.44,1.66,1.05,3.29,1.8,4.86,1.55,3.13,3.69,6.01,6.19,8.58,5.02,5.14,11.29,9.1,17.83,12.21,3.61,1.69,7.34,3.14,11.16,4.29,1.91.57,3.84,1.07,5.78,1.44l5.93,1.02c7.93,1.16,16.01,1.45,23.97.64,4.91-.43,9.76-1.41,14.46-2.82,4.69-1.43,9.25-3.36,13.32-6.04,3.07-2.02,5.91-4.46,7.9-7.48,1.97-3.03,3.16-6.57,3.52-10.21.74-7.32-1.1-14.77-4.11-21.47-.56-1.32-1.25-2.58-1.9-3.85-.72-1.24-1.4-2.49-2.19-3.67-1.51-2.41-3.22-4.68-5.03-6.85-1.8-2.18-3.8-4.18-5.85-6.12-2.11-1.86-4.26-3.69-6.6-5.27-.99-.75-2.07-1.34-3.1-2.01-1.05-.63-2.14-1.21-3.22-1.82-4.09-2.16-6.98-3.13-8.96-3.96-1-.37-1.79-.71-2.43-1.04-.65-.29-1.16-.59-1.61-.9-.41-.29-.97-.6-1.2-.84-.39-.4.38-.52,2.16-.4,1.78.1,4.5.72,7.87,1.92,4.96,1.87,9.71,4.49,14.08,7.71,4.35,3.25,8.32,7.09,11.83,11.36,3.45,4.31,6.5,9.03,8.78,14.17,2.31,5.11,3.96,10.62,4.47,16.34.33,4.24.09,8.65-1.33,12.83-.37,1.04-.74,2.08-1.26,3.06-.44,1.02-1.07,1.94-1.66,2.88-.63.91-1.36,1.74-2.05,2.6-.78.76-1.54,1.54-2.34,2.27-3.25,2.85-6.96,4.98-10.78,6.71l-1.43.66-1.47.56c-.98.36-1.95.77-2.95,1.08-2,.6-3.98,1.26-6.02,1.68l-.04-.06Z"/><path class="cls-1" d="m397.87,375.93c-6.28,5.09-13.47,9.17-21.43,11.2-2,.47-4.03.85-6.15.91-1.05.09-2.11-.03-3.17-.08-1.04-.17-2.09-.27-3.1-.56-4.08-.96-7.79-2.9-11.13-5.21-2.44-1.7-4.71-3.6-6.82-5.66-2.09-2.08-4.03-4.29-5.81-6.61-6.21-8.26-10.73-17.66-13.71-27.46-2.96-9.82-4.43-20.06-4.39-30.29-.02-9.09,1.36-18.21,3.71-26.88,3.06-11.11,7.43-22.13,14.39-31.4,2.35-2.76,2.09-2.32.95.53-.59,1.43-1.4,3.42-2.38,5.81-1.03,2.37-2.03,5.21-3.43,8.13-2.42,5.21-4.46,10.6-6.07,16.12-1.62,5.51-2.85,11.14-3.57,16.83-.7,5.68-.82,11.46-.53,17.23.29,5.76,1.02,11.53,2.3,17.2,2.99,13.53,9.4,27.1,19.07,37.46,2.66,2.83,5.59,5.39,8.81,7.5,3.22,2.09,6.76,3.7,10.47,4.38,1.85.36,3.73.37,5.61.21.94-.12,1.89-.22,2.83-.44.94-.16,1.87-.43,2.8-.68,3.71-1.06,7.29-2.65,10.66-4.59,8.33-4.76,15.4-11.68,20.68-19.7,4.07-6.05,7.07-12.81,9.18-19.8,2.1-7.01,3.25-14.28,3.64-21.54.38-5.65.04-11.26-.38-16.83l-.5-4.16c-.18-1.38-.3-2.77-.56-4.15l-.7-4.13-.35-2.07-.44-2.05c-.26-1.2-.53-2.4-.79-3.59-.26-1.19-.52-2.39-.85-3.59-.57-2.23-1.03-4.09-1.39-5.65-.35-1.56-.72-2.8-.94-3.85-.47-2.09-.54-3.35-.42-4.43.05-.49.06-1.12.15-1.42.28-1.03,2.01,2.41,4.01,8.96,2.89,9.73,5.03,20.04,5.9,30.67.08,1.33.17,2.66.25,4l.12,2,.02,2.01c.01,1.34.02,2.69.03,4.04,0,1.35-.11,2.7-.16,4.05-.07,2.71-.42,5.4-.7,8.11-.14,1.35-.42,2.69-.63,4.04l-.34,2.02c-.12.67-.29,1.33-.44,2-1.75,7.91-4.5,15.69-8.59,22.79-2.03,3.56-4.42,6.89-7,10.06-2.66,3.12-5.56,6.02-8.7,8.63l-.06-.04Z"/><path class="cls-1" d="m275.48,265.97c5.27,3.91,10.39,8,16.31,10.1,2.15.75,4.39,1.14,6.64,1.23.5.02.99.05,1.49.01.5-.03,1-.01,1.49-.09.49-.06,1-.11,1.48-.19.47-.11.94-.16,1.41-.33,1.88-.54,3.71-1.44,5.47-2.48,3.52-2.11,6.79-4.77,9.99-7.48,2.84-2.42,5.6-4.98,8.46-7.41,1.84-1.55,3.71-3.11,5.83-4.41,1.06-.65,2.21-1.2,3.44-1.6,1.21-.4,2.67-.61,3.96-.04.75.45.98.73.93.79-.06.09-.46,0-1.1.15-.66.19-1.4.51-2.25.93-.85.44-1.81,1.01-2.9,1.65-1.95,1.14-3.85,2.56-5.69,4.08-1.85,1.52-3.67,3.11-5.52,4.71-3.69,3.19-7.43,6.45-11.63,9.23-2.53,1.63-5.2,3.27-8.3,4.23-.38.14-.78.22-1.18.31-.4.1-.8.18-1.19.22-.79.12-1.57.23-2.37.25-1.59.12-3.19,0-4.75-.22-1.72-.27-3.39-.74-5.01-1.31-1.61-.6-3.16-1.33-4.65-2.13-2.97-1.64-5.73-3.56-8.4-5.53-3.3-2.41-6.5-4.91-9.91-7.01-2.57-1.6-5.29-2.97-8.15-3.82-1.43-.42-2.9-.69-4.37-.83-1.47-.09-2.97-.08-4.46.09-.71.07-1.43.18-2.12.31-.4.08-.78.17-1.13.28-.35.11-.68.23-.96.38-.13.08-.3.15-.34.31.1.15.3.26.42.35.49.19.9.24,1.31.26.2.01.4.01.58.01h.91c1.02-.01,2.04-.06,3.1-.04,3.95.05,5.43.86,5.9,1.79.12.2.26.45.29.6.03.27-.3.2-.94.11-.65-.07-1.6-.27-2.95-.33-1.68-.1-3.44,0-5.28.05h-.69c-.07.01-.34.01-.54,0l-.64-.02c-.84-.04-1.67-.12-2.44-.25-.77-.12-1.35-.36-1.83-.61-.49-.26-.88-.55-1.17-.92-.22-.25-.35-.54-.4-.87-.04-.41.05-.63.14-.87.11-.23.27-.46.49-.69.23-.23.59-.44.96-.66.82-.41,1.84-.83,3.06-1.1.58-.14,1.27-.27,1.78-.36l1-.16c1.34-.19,2.69-.29,4.04-.31.69.02,1.39.02,2.09.07.69.09,1.39.12,2.07.26,3.54.59,6.83,1.98,9.83,3.66,3,1.69,5.76,3.67,8.45,5.63l-.03.06Z"/><path class="cls-1" d="m309.27,286.68c-2.73.92-5.64,1.38-8.53,1.32l-1.58-.06c-.52-.03-1.05-.11-1.57-.18-3.67-.58-7.06-2.14-10.09-4.06-1.34-.87-2.66-1.78-3.9-2.75-.81-.61-1.54-1.32-2.3-1.99-.19-.17-.37-.34-.54-.53l-.47-.61c-.3-.41-.6-.81-.91-1.22-.36-.52-.21-.55.35-.36.28.09.66.24,1.11.42.22.09.46.19.7.31.12.05.24.13.37.18.11.08.21.17.32.26,1.57,1.22,3.13,2.43,4.73,3.56,1.59,1.16,3.3,2.1,5.05,3.02,2.12,1.04,4.56,1.54,6.93,1.73,2.62.23,5.28-.08,7.85-.77,1.58-.43,3.14-.98,4.63-1.71,2.27-1.07,4.44-2.42,6.43-3.96,1.55-1.2,2.89-2.59,4.27-3.96.31-.3.6-.61.92-.9.3-.27.56-.49.78-.66.23-.16.46-.26.65-.33.38-.14.68-.14.97-.06.13.04.28.06.38.11.32.17.06.85-.6,1.85-2.19,2.75-5.06,5.3-8.23,7.47-2.38,1.59-4.96,2.96-7.71,3.92l-.02-.05Z"/><path class="cls-1" d="m256.18,269.89c.67.15,1.54.13,2.41.05.87-.08,1.77-.24,2.67-.44.66-.14,1.3-.39,1.97-.55l.97-.24c.15-.05.5-.09.75-.11.13-.02.27,0,.4,0,.14-.06.26.04.39.06.78.35,1.14.62,1.57.97.41.34.74.7,1.05,1.02.61.64,1.18,1.15,1.89,1.54.85.47,1.87.71,2.88.86.66.07,1.32.16,1.99.21.67.04,1.34.26,2.03.43.42.13.37.39,0,.75-.19.18-.45.4-.78.61-.16.11-.34.21-.53.3-.1.05-.19.08-.3.13-.1.01-.2.02-.31.03-.74.03-1.5.03-2.26-.06-.76-.12-1.53-.28-2.3-.54-1.53-.45-3.09-1.62-3.99-2.74-.27-.3-.52-.58-.79-.78-.25-.22-.6-.4-.66-.42-.06-.05-.14-.03-.21,0l-.51.16-1.31.41c-1.89.52-3.83,1-5.93,1.05-.33-.01-.65.02-.99-.04-.34-.05-.65-.05-1.08-.19-.2-.06-.4-.12-.59-.19l-.55-.32c-.4-.18-.63-.54-.93-.81-.37-.48-.58-1.1-.42-1.69.16-.58.6-1.03,1.11-1.38.52-.35,1.18-.63,1.55-.77.48-.06.88-.29,1.32-.41,1.33-.45,2.6-.95,3.83-1.46l.78-.35c.96-.42,1.18-.44,1.71-.1.12.07.26.13.37.21.41.23.2.97-.61,1.49-1.16.76-2.36,1.25-3.56,1.71-.59.22-1.18.44-1.77.65l-.84.33c-.13.07-.22.24-.35.3l-.33.15s-.02-.02-.04,0c0,.01-.01.03,0,.05,0,0,0,.01.06.04.07.02.03.03.26.05v.07Z"/><path class="cls-1" d="m451.75,300.26c3.02,5.86,5.75,11.85,8.31,17.9.92,2.21,1.91,4.4,2.77,6.63.76,1.97,1.5,3.95,2.21,5.94l1.04,2.98c.04.15.32.56.62.91.31.36.65.73,1.01,1.1,2.88,2.95,6.13,6.13,7.72,10.39.52,1.4.84,2.9.85,4.42v.58c0,.24-.06.51-.08.76-.06.51-.1,1.04-.25,1.48-.22.97-.53,1.77-.87,2.62l-.39.67-.42.45c-.16.13-.22.34-.48.38-.25-.04-.32-.17-.45-.27-.28-.29-.56-.6-.9-1.17-.34-.59-.62-1.61-.91-2.51l-.44-1.36-.33-.93c-.2-.54-.42-1.08-.64-1.61-.92-2.11-2.01-4.06-3.59-5.58-.51-.48-.8-.65-.75-.72.04-.06.41-.05,1.08.08.66.13,1.7.45,2.64,1.23.47.38.97.82,1.39,1.36.42.54.8,1.14,1.13,1.79.44.86.82,1.73,1.16,2.6l.24.63h0s0,0,0,0c0,0,0,.07.02.04.02.03.02,0,.04,0,0,0,.01-.02.02-.03v-.31c0-.16.02-.32,0-.48-.07-1.28-.36-2.56-.9-3.8-1.07-2.5-2.93-4.77-4.98-6.97-.98-1.07-2.03-2.05-3.12-3.31-.27-.33-.55-.67-.81-1.2-.06-.12-.14-.31-.17-.39l-.09-.26-.19-.52-.78-2.09c-1.07-2.79-2.2-5.57-3.33-8.33-2.48-6.06-5.14-12.06-8.06-17.92-1.8-3.61-3.68-7.17-5.71-10.65-3.07-5.26-6.4-10.43-10.22-15.1-2.98-3.61-6.29-6.82-9.87-9.64-.81-.59-1.58-1.2-2.42-1.74-.77-.53-1.39-.98-1.94-1.32-.53-.36-.94-.71-1.27-1-.69-.53-1.03-.97-1.25-1.45-.1-.22-.27-.45-.31-.62-.07-.29.27-.34,1.02-.24.75.09,1.87.41,3.2,1.04,3.88,1.99,7.45,4.76,10.59,7.95,3.16,3.19,5.99,6.72,8.6,10.4,3.86,5.47,7.23,11.26,10.33,17.15l-.06.04Z"/><path class="cls-1" d="m449.33,315.22c.88,1.86,1.76,3.72,2.57,5.61.85,1.87,1.6,3.79,2.28,5.74l.78,2.12c.29.69.57,1.39.82,2.11.23.62.44,1.26.63,1.93.19.58.45,1.59.28,2.43-.28,1.58-.9,2.77-1.48,4-1.22,2.4-2.61,4.63-3.89,6.89-.28.5-.56,1-.81,1.51-.18.36-.26.54-.34.83-.03.13-.07.29.04.39.13.06.25.12.4.12.28,0,.55-.09.77-.24.09-.05.42-.28.67-.48.26-.22.52-.44.77-.69.5-.48.97-1.02,1.43-1.57.45-.55.93-1.09,1.37-1.66l.66-.85c.22-.28.49-.54.72-.82.6-.69.75-.5.74.41.03.92-.27,2.53-1.32,4.01-.98,1.27-2.05,2.48-3.56,3.51-.22.18-.61.34-.93.49l-.5.23c-.17.07-.33.07-.5.11-.33.06-.67.15-.97.09l-.46-.04c-.15-.01-.28-.1-.42-.15-.57-.17-1.04-.6-1.34-1.06-.22-.48-.23-1.05-.07-1.72.1-.33.2-.67.35-1l.23-.5c.08-.18.15-.33.19-.4.18-.36.36-.71.55-1.05.37-.68.76-1.35,1.14-2,.76-1.3,1.53-2.6,2.3-3.9.44-.78.86-1.57,1.21-2.38.35-.8.64-1.64.74-2.36.02-.17.02-.33.01-.45l-.12-.51c-.1-.38-.26-.84-.38-1.26-.3-.86-.59-1.74-.92-2.6-.35-.95-.76-1.88-1.17-2.82-.4-.94-.82-1.86-1.24-2.79-.78-1.88-1.62-3.74-2.49-5.58-1.06-2.27-2.18-4.52-3.37-6.73-1.77-3.36-3.74-6.64-5.88-9.74-1.71-2.37-3.56-4.57-5.53-6.64-.44-.45-.88-.88-1.31-1.35-.38-.45-.75-.76-1.02-1.06-.27-.3-.45-.59-.6-.83-.14-.24-.24-.46-.29-.66-.04-.22-.05-.42-.05-.62,0-.18-.03-.37-.02-.49,0-.36,1.14-.17,2.62.91,2.1,1.69,4.01,3.69,5.81,5.81,1.77,2.15,3.36,4.47,4.88,6.83,2.22,3.53,4.22,7.2,6.09,10.91l-.06.04Z"/><path class="cls-1" d="m473,356.8c-.24.89-.56,1.77-1.06,2.6-.25.44-.52.79-1,1.27-.52.51-1.18.81-1.85.82-.49,0-.96-.21-1.32-.54-.21-.16-.31-.35-.44-.54l-.37-.57c-1.12-2.21-1.06-4.38-1.56-6.34-.22-.87-.51-1.71-.9-2.47l-.43-.7c-.16-.22-.35-.42-.49-.67-.32-.46-.65-.93-1.05-1.37-.23-.29-.15-.34.2-.29.35.05,1.06.13,1.74.54.61.35.99.94,1.41,1.47.39.56.71,1.16.98,1.78.45,1.26.66,2.51.82,3.71.09.72.28,1.4.48,2.07.2.62.56,1.35.71,1.59.07.14.2.23.35.22.15-.01.28-.11.39-.21.4-.45.75-1.15.98-1.85.3-.87.45-1.82.49-2.77.07-1.44-.12-2.91-.56-4.29-.35-1.08-.95-2.02-1.56-2.94-.12-.21-.27-.4-.39-.61-.41-.81-.39-1.18-.1-1.64.07-.1.12-.22.19-.3.23-.28.73-.16,1.39.3.46.36.82.8,1.19,1.26.34.48.63.99.89,1.53.52,1.07.92,2.24,1.12,3.46.3,1.81.22,3.68-.2,5.49h-.05Z"/><path class="cls-1" d="m342.57,286.42c-.42,1.65-.66,3.33-.64,4.89,0,.19,0,.39,0,.58l.08.54c.03.17.04.38.07.53.04.11.08.22.11.34.24.52.67,1.15,1.17,1.73,1.06,1.18,2.41,2.25,3.83,3.22,1.43.97,2.94,1.85,4.52,2.62,2.3,1.14,4.72,2.02,7.17,2.81,4.31,1.4,8.81,2.27,13.33,2.42,4.51.15,9.08-.52,13.17-2.35.46-.19.91-.4,1.34-.65l.66-.36.33-.18c.11-.06.13-.1.2-.14.5-.42.91-1.36,1.17-2.26.54-1.87.75-3.9.88-5.91.31-5.17,0-10.45-.44-15.58-.02-1.61-.14-1.44.68-.2.4.63.79,1.59,1.21,2.76.38,1.18.68,2.59.85,4.13.29,2.73.35,5.47.28,8.23-.04,1.38-.17,2.77-.36,4.17-.21,1.41-.46,2.82-1.07,4.31-.33.74-.68,1.54-1.57,2.32l-.36.27c-.14.1-.17.1-.26.16l-.47.26-.95.52c-.64.33-1.3.6-1.96.9-.67.26-1.35.49-2.02.73-2.73.85-5.56,1.28-8.37,1.38-6.72.22-13.65-.91-20.03-3.26-3.5-1.29-6.88-2.93-10.04-5.02-1.57-1.07-3.08-2.25-4.4-3.79-.63-.79-1.28-1.64-1.57-2.86-.1-.52-.15-1.02-.22-1.54l-.02-1.49c.08-2.41.61-4.69,1.28-6.9.68-2.21,1.53-4.34,2.55-6.41.75-1.57,1.65-3.08,2.68-4.53.51-.72,1.1-1.41,1.74-2.07.36-.31.66-.65,1.08-.92.42-.26.79-.57,1.45-.73,1.17-.21,2.08.07,2.94.31.86.26,1.67.57,2.47.87,1.59.62,3.15,1.26,4.72,1.82,4.87,1.78,9.89,2.74,14.91,2.61,1.11-.02,2.18-.13,3.29-.24,2.05-.23,3.38-.46,4.35-.52.98,0,1.58.1,2.11.31.24.09.54.15.69.23.25.14-.01.4-.7.87-.68.49-1.85,1.03-3.44,1.35-4.69,1.06-9.8,1.07-14.74.07-2.47-.49-4.9-1.21-7.25-2.05-2.35-.82-4.67-1.86-6.8-2.53-.39-.12-.77-.21-1.11-.27-.34-.07-.62-.07-.74-.04-.02,0-.05,0-.05,0,.01.03,0-.04-.02-.09-.02-.05-.04-.11-.07-.16v-.02s-.02-.01-.02-.01c-.03-.06.27.53.14.28h0s-.02.02-.02.02l-.04.03-.09.06-.17.12c-.23.11-.49.44-.75.65-1.05,1.05-2.01,2.51-2.85,3.99-1.68,2.99-2.98,6.32-3.76,9.65h-.08Z"/><path class="cls-1" d="m385.06,166.42c-.38,1.01-.67,2.09-.94,3.18-.09.4-.12.81-.22,1.21-.34,1.42-.67,2.87-1.06,4.3-.17.63-.28,1.28-.43,1.91-.1.41-.14.82-.28,1.22-.15.4-.33.78-.51,1.17-.12.24-.2.18-.3-.06-.1-.25-.3-.7-.35-1.19-.03-.86.09-1.67.14-2.51.08-.83.16-1.66.35-2.48.25-.99.24-2.05.37-3.09.14-1.14.35-2.29.58-3.44.16-.71.34-1.41.54-2.11.3-1.07.75-2.09,1.14-3.12.17-.39.29-.81.41-1.22l.43-1.23c.06-.18.12-.36.21-.53.2-.29.38-.46.6-.5.24-.03.49.02.81.16.15.06.29.11.42.18.22.12.38.29.49.52.12.22.21.51.17.75-.02.39-.16.71-.25,1.05-.1.33-.23.66-.37.97-.24.65-.54,1.27-.79,1.92-.38.96-.78,1.94-1.1,2.98h-.06Z"/><path class="cls-1" d="m389.84,160.31c-.95.33-1.94.48-2.95.43-1-.06-2.08-.34-2.99-1l-.87-.72c-.26-.28-.5-.61-.71-.93-.68-1.24-.73-2.68-.39-3.86.34-1.19.99-2.2,1.8-3.02.74-.7,1.57-1.34,2.55-1.68.32-.08.64-.18.96-.25.33-.03.67-.05,1-.06.33.04.66.11.97.21.31.11.58.3.86.46.34.22.15.44-.25.67-.2.12-.45.25-.7.36-.25.09-.52.34-.75.32-.43.06-.82.19-1.19.38-.19.06-.35.23-.53.32-.19.07-.35.22-.53.33-.69.49-1.3,1.18-1.72,1.97-.16.23-.17.49-.26.75,0,.25-.05.52.02.75l.08.36c.03.12.11.21.16.32.07.23.27.39.4.59.17.2.42.38.62.57.2.15.45.27.72.35.55.17,1.21.2,1.86.09.81-.12,1.56-.47,2.14-.97.46-.36.75-.88.95-1.43.21-.56.19-1.21.08-1.82-.2-.97-.87-1.77-1.49-2.28-.15-.08-.29-.21-.43-.26-.25-.15-.39-.24-.53-.4-.13-.1-.24-.25-.37-.46-.06-.1-.14-.19-.19-.27-.09-.15-.06-.3.13-.48.09-.09.23-.18.4-.26.17-.07.39-.1.64-.12,1.54,0,2.75,1.01,3.45,2.13.72,1.14,1.11,2.53,1,4-.1,1.09-.52,2.22-1.26,3.12-.4.4-.79.83-1.26,1.1-.45.31-.92.57-1.4.75l-.03-.06Z"/><path class="cls-1" d="m383.01,180.48c-.48-.08-.96-.17-1.44-.28-.17-.05-.35-.04-.53-.11-.61-.22-1.2-.48-1.78-.76-.25-.13-.51-.25-.76-.36-.32-.15-.66-.31-.88-.63-.07-.1.07-.27.27-.43.2-.15.47-.33.63-.31.61.09,1.2.04,1.76.39.34.18.76.12,1.14.17.43.03.86.15,1.3.2.27.04.54.08.82.09.42.03.84.05,1.25.02.32-.02.63-.2.94-.26.07-.01.14-.04.21-.04.26,0,.36.13.47.55l.07.28c.06.32-.02.61-.2.78-.54.56-1.17.71-1.82.8-.48.02-.97-.02-1.46-.06v-.05Z"/><path class="cls-1" d="m219.7,183.14c1.93,2.5,4.15,4.88,6.38,7.31.82.88,1.69,1.72,2.49,2.64,1.39,1.63,2.84,3.26,4.01,5.18.58.96,1.1,1.99,1.43,3.15.09.29.16.58.2.88.06.3.08.6.08.92.04.6-.07,1.39-.41,2.01-.63,1.13-1.7,1.78-2.69,2.13-1.01.35-2.01.49-2.99.6-2.51.16-5.02.1-7.31-.88-.71-.34-.56-.53.14-.89.71-.41,1.93-.87,3.25-.86,1.16.04,2.32.14,3.41.05,1.09-.06,2.16-.22,2.95-.56.38-.17.68-.37.84-.56.16-.2.25-.38.27-.73.02-.88-.19-1.89-.62-2.91-1.06-2.48-3.23-4.69-5.28-6.82-2.26-2.38-4.65-4.71-6.82-7.29-1.34-1.59-2.61-3.26-3.68-5.08-.81-1.38-1.5-2.87-1.88-4.49-.4-1.62-.36-3.44.36-5.04,1.12-2.51,3.62-4.06,6.15-4.57.56-.09,1.12-.23,1.7-.22,2.14,0,2.75.56,3.03,1.2.07.15.16.31.18.44.07.48-.78.65-2.08.8-.47.05-.94.11-1.42.16-.46.1-.92.15-1.35.31-.88.24-1.7.61-2.36,1.12-1.33,1-2.05,2.42-1.85,4.13.11,1.23.63,2.67,1.33,3.98.7,1.33,1.59,2.63,2.57,3.87l-.05.04Z"/><path class="cls-1" d="m198.6,192.65c1.03,1.78,2.24,3.48,3.61,5.01,1.45,1.63,3.24,3.21,5.38,3.84s4.49-.05,5.93-1.76,1.63-4.08,1.23-6.28-1.41-4.45-2.47-6.49c-.79-1.51-3.07-.18-2.29,1.34.83,1.6,1.46,2.95,1.94,4.69.12.43.22.87.29,1.31.05.3.09.7.09,1.16,0,.21,0,.42-.02.63-.02.27,0,.12,0,.06-.01.11-.04.22-.06.33-.04.2-.09.39-.16.58-.03.08-.06.17-.09.25.09-.21-.07.12-.09.16-.23.41-.27.47-.63.8-.2.18-.2.19-.43.33-.08.05-.17.11-.26.15,0,0-.38.19-.19.1-.2.09-.42.14-.63.19-.04,0-.26.05-.03.02-.08.01-.17.02-.25.02-.21.01-.43,0-.64-.02.24.02-.32-.07-.41-.09-.19-.05-.38-.11-.57-.19,0,0-.2-.09-.37-.18-.43-.22-.84-.48-1.22-.77-.61-.45-1.37-1.18-1.96-1.83-1.32-1.44-2.4-2.99-3.41-4.71-.86-1.47-3.15-.14-2.29,1.34h0Z"/><path class="cls-1" d="m207.4,173.38c-7.15-3.83-15.13,1.26-19.5,6.95-.46.59-.09,1.53.49,1.88.7.42,1.43.09,1.88-.49,3.41-4.44,10.08-8.99,15.74-5.96,1.56.84,2.95-1.54,1.39-2.37h0Z"/><path class="cls-1" d="m216.66,222.12c1.46,1.69,3.58,2.85,5.85,2.82,2.24-.03,4.15-1.16,5.48-2.91.43-.57.09-1.48-.48-1.81-.68-.4-1.38-.1-1.81.48.14-.18-.03.04-.06.07-.07.08-.13.15-.2.23-.14.14-.29.27-.43.41-.27.25.2-.12-.1.08-.06.04-.13.09-.19.13-.16.1-.33.2-.5.29-.03.02-.37.17-.1.06-.07.03-.14.06-.21.08-.18.06-.36.12-.54.16-.11.03-.22.05-.33.07-.14.03-.11.01.01,0-.21.02-.42.03-.63.03-.1,0-.19,0-.29-.01-.03,0-.35-.03-.17-.01s-.17-.03-.17-.03c-.1-.02-.19-.04-.29-.06-.2-.05-.39-.11-.58-.17-.04-.01-.3-.12-.08-.02-.1-.04-.19-.09-.28-.13-.88-.44-1.34-.84-2-1.6-.47-.54-1.39-.48-1.87,0-.54.54-.47,1.33,0,1.87h0Z"/><path class="cls-1" d="m235.87,157.42c-3.55-.88-6.38-2.48-6.61-2.61l6.61,2.61Z"/><path class="cls-1" d="m124.48,301.65c-.95.85-1.88,1.73-2.76,2.67-.33.34-.59.72-.9,1.07-1.09,1.23-2.24,2.45-3.2,3.81-.45.59-.82,1.23-1.19,1.86-.48.81-.92,1.64-1.49,2.41-.18.24-.37.1-.48-.23-.11-.33-.17-.89.02-1.42.67-1.88,1.74-3.57,2.99-5.13.75-.93,1.41-1.98,2.2-2.91.86-1.03,1.78-2.01,2.73-2.95.58-.58,1.18-1.14,1.79-1.7.91-.85,1.89-1.62,2.82-2.44.73-.63,1.38-1.32,2.11-1.93.16-.14.3-.29.49-.39.67-.41.96-.42,1.35-.15.09.06.18.11.26.18.24.23.15.65-.2,1.12-1.02,1.39-2.34,2.46-3.62,3.62-.48.43-.95.86-1.44,1.26-.47.43-.96.85-1.42,1.29l-.04-.04Z"/><path class="cls-1" d="m128.94,311.6c-.53.44-1.05.91-1.55,1.39-.19.17-.34.38-.52.55-.65.62-1.3,1.26-1.88,1.96-.26.31-.48.65-.69.98-.26.44-.48.9-.85,1.28-.23.24-.92-.63-.66-1.19.5-.96,1.09-1.88,1.86-2.66.46-.47.81-1.05,1.25-1.56.47-.56,1-1.07,1.53-1.57l.99-.91c.5-.46,1.04-.88,1.53-1.34.38-.36.71-.77,1.07-1.15.08-.08.15-.18.25-.24.36-.23.55-.21.85.05.07.06.14.12.21.18.21.21.23.53.07.82-.46.87-1.17,1.45-1.86,2.07-.52.45-1.06.89-1.57,1.37l-.03-.03Z"/><path class="cls-1" d="m71.29,365.68c1.9-.13,3.8-.48,5.66-.97.68-.19,1.33-.47,2-.69,1.19-.4,2.31-.84,3.23-1.43.91-.59,1.57-1.32,1.55-2.34.03-.91-.44-1.9-.95-2.84-.34-.61-.75-1.19-1.15-1.78-.38-.61-.7-1.27-1.05-1.93-.2-.42,0-.5.47-.39.47.12,1.31.36,2.02.92.55.55,1.05,1.17,1.54,1.83.46.68.95,1.38,1.21,2.28.28.86.47,1.9.21,2.98-.24,1.06-.88,2-1.6,2.6-.86.71-1.77,1.26-2.68,1.67-.91.45-1.78.78-2.7,1.09-2,.64-4.07,1.06-6.16,1.28-.64.06-1.28.13-1.93.14-.64.03-1.29.04-1.93,0-.98,0-1.95-.14-2.92-.24-.96-.19-1.93-.33-2.86-.62-.36-.1-.74-.17-1.1-.28l-1.07-.35c-.73-.2-1.42-.52-2.11-.84-.3-.15-.62-.26-.89-.47-.5-.38-.82-.64-.98-.92-.13-.31-.14-.56-.1-.81.02-.12.02-.24.04-.32.05-.15.21-.2.49-.22.28-.02.7-.04,1.06.16l.85.37c.3.09.6.19.88.31l.84.36c.29.11.59.19.88.29l.87.3c.3.09.6.15.9.23l.9.23.93.15c1.84.31,3.74.4,5.65.2v.06Z"/><path class="cls-1" d="m359.32,214.1c-.41,1.41-.91,1.75-1.36,2.08-.17.12-.31.29-.53.36-.19.06-.45.1-.76.03-.31-.06-.54-.29-.68-.46-.29-.39-.28-.88-.36-1.34,0-.49-.1-.86.02-1.54.08-.42.13-.86.45-1.43l.17-.37c.08-.12.18-.23.27-.35.16-.2.27-.4.37-.49.13-.13.25-.03.35.18.07.3.26.37.28.33.03.01-.05-.11-.31.87-.07.29-.03.5.09.52.12.02.2-.12.25-.16.1-.1.2-.27.24-.56.02-.17.02-.39-.01-.63-.03-.18-.06-.38-.16-.56-.03-.04-.06-.09-.11-.1-.01,0-.02,0-.04,0h0s0,0,0,0h0s0,0,0,0c-.07-.51-.02-.14-.04-.26h0s0,0,0,0h0s0,.04.07.1c.12.11.07.06.07.09l-.06.09c-.04.07-.08.15-.11.22-.22.47-.31.99-.38,1.49-.02.11-.01.22-.05.33-.11.4-.23.51-.61.55-.08,0-.17.03-.25.03-.27,0-.49-.21-.54-.59-.1-.56.01-1.11.16-1.66.08-.27.18-.54.3-.81l.19-.41c.05-.1.13-.26.35-.46.11-.1.27-.2.45-.26.2-.06.31-.07.36-.07.38,0,.65.08.94.33.16.17.31.29.43.55.12.3.27.54.36.88.42,1.35.42,2.8.23,3.54l-.05-.08Z"/><path class="cls-1" d="m373.42,215.71c-.41,1.41-.91,1.75-1.36,2.08-.17.12-.31.29-.53.36-.19.06-.45.1-.76.03-.31-.06-.54-.29-.68-.46-.28-.39-.28-.88-.36-1.34,0-.49-.1-.86.02-1.54.08-.42.13-.86.45-1.43l.17-.37c.08-.12.18-.23.27-.35.16-.2.27-.4.37-.49.13-.13.25-.03.35.18.07.3.26.37.28.33.03.01-.05-.11-.31.87-.07.29-.03.5.09.52.12.02.2-.12.25-.16.1-.1.2-.27.24-.56.02-.17.02-.39-.01-.63-.03-.18-.06-.38-.16-.56-.03-.04-.06-.09-.11-.1-.01,0-.02,0-.04,0h0s0,0,0,0h0s0,0,0,0c-.07-.51-.02-.14-.04-.26h0s0,0,0,0h0s0,.04.07.1c.12.11.07.06.07.09l-.06.09c-.04.07-.08.15-.11.22-.22.47-.31.99-.38,1.49-.02.11-.01.22-.05.33-.11.4-.23.51-.61.55-.08,0-.17.03-.25.03-.27,0-.49-.21-.54-.59-.1-.56.01-1.11.16-1.66.08-.27.18-.54.3-.81l.19-.41c.05-.1.13-.26.35-.46.11-.1.27-.2.45-.26.2-.06.31-.07.36-.07.38,0,.65.08.94.33.16.17.31.29.43.55.12.3.27.54.36.88.42,1.35.42,2.8.23,3.54l-.05-.08Z"/><path class="cls-1" d="m356.22,226.57c1.86,1.77,4.51,2.49,6.99,2.73,2.72.27,5.66-.15,8.02-1.59,1.37-.84.12-3-1.26-2.16-1.96,1.2-4.33,1.46-6.58,1.26-1.88-.16-4.09-.76-5.41-2.02-1.16-1.11-2.94.66-1.77,1.77h0Z"/><g class="cls-7"><path class="cls-1" d="m246.88,369.1c.39-.37.8-.73,1.22-1.08.11-.09.22-.18.34-.27.04-.03.21-.17.04-.03s0,0,.04-.03c.23-.17.46-.34.7-.51.9-.63,1.85-1.19,2.84-1.68.7-.35.96-1.4.54-2.05-.46-.72-1.3-.91-2.05-.54-2.11,1.06-4.06,2.44-5.77,4.06-.57.54-.59,1.58,0,2.12s1.51.58,2.12,0h0Z"/></g><g class="cls-6"><path class="cls-1" d="m279.96,377.27c.74.74,1.43,1.53,2.07,2.36l-.27-.35c.47.61.91,1.23,1.32,1.88.24.38.6.68,1.05.8s.98.06,1.35-.18.7-.6.8-1.05.08-.95-.18-1.35c-1.05-1.65-2.28-3.2-3.66-4.59-.65-.65-1.84-.69-2.47,0s-.69,1.78,0,2.47h0Z"/></g><g class="cls-7"><path class="cls-1" d="m291.72,346.28c1.21-.58,2.43-1.17,3.64-1.75.38-.18.7-.66.8-1.05.12-.42.06-.98-.18-1.35s-.6-.7-1.05-.8l-.47-.06c-.32,0-.61.08-.88.24-1.21.58-2.43,1.17-3.64,1.75-.38.18-.7.66-.8,1.05-.12.42-.06.98.18,1.35s.6.7,1.05.8l.47.06c.32,0,.61-.08.88-.24h0Z"/></g><g class="cls-7"><path class="cls-1" d="m241.85,321.21c1.26.99,2.51,1.98,3.77,2.98.32.26.63.44,1.06.44.37,0,.81-.16,1.06-.44s.46-.66.44-1.06c-.02-.37-.13-.82-.44-1.06-1.26-.99-2.51-1.98-3.77-2.98-.32-.26-.63-.44-1.06-.44-.37,0-.81.16-1.06.44s-.46.66-.44,1.06c.02.37.13.82.44,1.06h0Z"/></g><g class="cls-6"><path class="cls-1" d="m253.02,292.19c1.25.2,2.49.48,3.66.96l-.42-.18c.26.11.51.23.75.35.42.21.89.3,1.35.18.41-.11.85-.43,1.05-.8.42-.8.24-1.95-.63-2.39-1.52-.78-3.15-1.22-4.83-1.49-.48-.08-.91-.08-1.35.18-.36.21-.71.63-.8,1.05-.1.45-.08.95.18,1.35.23.36.61.73,1.05.8h0Z"/></g><g class="cls-7"><path class="cls-1" d="m195.76,295.41c1.12.86,2.24,1.72,3.36,2.57.29.22.83.24,1.16.15.35-.1.73-.36.9-.69.18-.35.28-.77.15-1.16l-.15-.36c-.13-.23-.31-.4-.54-.54-1.12-.86-2.24-1.72-3.36-2.57-.29-.22-.83-.24-1.16-.15-.35.1-.73.36-.9.69-.18.35-.28.77-.15,1.16l.15.36c.13.23.31.4.54.54h0Z"/></g><g class="cls-6"><path class="cls-1" d="m82.13,379.58l3.95.27c.37.02.81-.18,1.06-.44s.46-.69.44-1.06c-.04-.86-.66-1.44-1.5-1.5l-3.95-.27c-.37-.02-.81.18-1.06.44s-.46.69-.44,1.06c.04.86.66,1.44,1.5,1.5h0Z"/></g><g class="cls-7"><path class="cls-1" d="m99.31,394c.13-.5.29-1,.49-1.48l-.18.42c.33-.77.75-1.49,1.26-2.16l-.27.35c.08-.11.17-.21.25-.32.3-.37.51-.75.51-1.24,0-.43-.19-.94-.51-1.24s-.77-.53-1.24-.51c-.44.02-.94.16-1.24.51-1.15,1.38-2.02,2.97-2.46,4.73-.11.45-.06.95.18,1.35.21.36.63.71,1.05.8.45.1.95.08,1.35-.18s.69-.6.8-1.05h0Z"/></g><g class="cls-6"><path class="cls-1" d="m120.7,390.77c1.43.31,2.9.43,4.35.31.4-.03.77-.14,1.06-.44.26-.26.46-.69.44-1.06s-.14-.79-.44-1.06c-.28-.26-.67-.47-1.06-.44-.97.08-1.94.06-2.9-.07l.4.05c-.35-.05-.71-.11-1.05-.19-.39-.09-.8-.06-1.16.15-.31.18-.61.54-.69.9-.17.76.23,1.67,1.05,1.85h0Z"/></g><path class="cls-1" d="m74.68,137.36c.21-.7.44-1.4.69-2.09.09-.25.14-.52.23-.77.32-.89.65-1.79.97-2.67.14-.4.26-.8.37-1.2.08-.26.12-.52.22-.77.11-.25.24-.49.38-.73.09-.15.19-.1.31.07.11.17.28.48.29.81-.1,1.1-.4,2.16-.85,3.18-.26.61-.39,1.29-.58,1.94-.22.71-.44,1.42-.69,2.12-.15.43-.3.87-.44,1.3-.21.66-.44,1.31-.62,1.98-.14.52-.21,1.04-.35,1.55-.03.11-.05.22-.09.34-.13.42-.25.52-.47.55-.05,0-.1.02-.15.02-.14,0-.25-.22-.24-.55.02-.48.03-.99.11-1.47.09-.48.19-.97.31-1.45.17-.72.38-1.43.57-2.15h.03Z"/><path class="cls-1" d="m78.76,140.15c.18-.55.39-1.09.59-1.64.07-.2.1-.41.17-.61.26-.7.53-1.41.74-2.13.09-.32.16-.65.23-.97.06-.42.18-.83.42-1.22.07-.12.23-.08.41.07.17.14.41.39.46.65.09.46.02.89-.02,1.34-.1.43-.24.85-.42,1.26-.21.49-.26,1.05-.4,1.57-.16.57-.32,1.15-.53,1.7-.12.35-.24.69-.36,1.04-.18.52-.38,1.04-.52,1.57-.13.41-.1.85-.24,1.25-.03.09-.04.18-.08.27-.13.32-.31.38-.59.37-.07,0-.13,0-.19-.01-.2-.03-.34-.22-.41-.51-.17-.83.02-1.59.21-2.34.14-.56.32-1.12.48-1.68h.04Z"/><path class="cls-1" d="m82.12,140.88c.15-.46.31-.92.44-1.39.05-.17.05-.35.11-.52.19-.61.42-1.21.65-1.81.1-.27.16-.54.21-.82.03-.36.2-.69.44-1,.08-.09.27-.02.48.13.2.15.45.39.49.61.1.39-.03.71-.09,1.06-.08.34-.18.68-.33,1.02-.2.4-.2.85-.3,1.29-.12.47-.24.95-.36,1.43-.08.3-.16.59-.23.89-.11.45-.27.89-.35,1.34-.07.35-.03.72-.09,1.08-.01.08-.02.16-.04.23-.05.14-.1.22-.21.26-.12.03-.26.04-.43.02l-.23-.03c-.12-.02-.22-.07-.32-.16-.1-.08-.22-.2-.24-.31-.25-.7-.11-1.3,0-1.93.07-.47.24-.92.35-1.39h.04Z"/><path class="cls-4" d="m78.66,128.23c-.06.46-.36,2.97-.36,2.97l9.62,5.28.53-4.79-8.73-4.69-1.06,1.22Z"/><path class="cls-1" d="m83.22,135.26c-1.3-.8-2.6-1.58-3.94-2.28l-.5-.26c-.22-.11-.61-.29-.88-.45-.31-.17-.39-.44-.61-.67-.06-.13-.05-.3-.05-.46,0-.16,0-.32,0-.49l.09-1.38c.01-.39.08-.77.14-1.16.17-1.12.28-2.25.47-3.36l.42-2.37.23-1.19c.05-.2.07-.36.16-.73.11-.3.2-.62.37-.88.19-.15.38-.3.59-.42l.51-.28.81-.42,1.61-.81c1.08-.53,2.15-1.05,3.25-1.56.42-.2.79-.35,1.29-.55.31-.08.63-.24.94-.21.31.09.61.2.89.38.32.18.43.26.65.39l.56.36,1.11.71c1.88,1.23,3.85,2.24,5.59,3.56.49.59.47.49-.25.68-.75.26-2.06.21-3.25-.41-1.07-.52-2.04-1.18-3.02-1.79l-1.44-.94-.7-.45-.17-.11-.02-.02s-.03-.03-.03-.03c-1.79.81-3.58,1.62-5.38,2.43-.36.16-.71.33-1.06.51-.22.11-.44.23-.67.34-.05.05-.05.14-.08.22l-.13.69-.24,1.49c-.16,1-.31,2-.47,3l-.37,2.3c-.05.38-.14.76-.23,1.14l-.12.57c0,.12-.03.16-.04.25-.09.19.12.24.24.31l.92.48c.7.37,1.39.76,2.07,1.16.83.49,1.66,1,2.47,1.52l2.34,1.53.07.05c.15.18.33.04.49-.04l.9-.47,1.87-1.02c1.24-.7,2.49-1.39,3.72-2.09l.73-.42.44-.27c.09-.02.04-.13.05-.19v-.22s-.04-.82-.04-.82c-.04-1.12-.05-2.25.02-3.4.03-.5.05-1,.13-1.51.33-1.87.65-2.4,1.33-2.63.15-.05.3-.13.42-.15.4-.07.65.77.47,2.05-.19,1.91-.34,3.8-.37,5.84l-.02.9-.02.75v.38c-.03.11-.2.14-.29.22l-.65.39c-.2.12-.51.26-.56.3l-.67.38c-.9.51-1.81,1.03-2.72,1.54l-2.39,1.34-1.22.66-.43.22c-.2.09-.41.18-.61.24l-.3-.02h-.15s-.07-.02-.07-.02h-.02s0,0,0,0h0s0,0,0,0c0,.06,0-.14-.01.14h-.04c-.19-.07-.39-.13-.58-.2l-1.91-1.23-1.63-1.01.02-.04Z"/><path class="cls-1" d="m76.48,145.02c-1.21-.77-2.44-1.5-3.69-2.13-.31-.15-.62-.3-.94-.44l-.26-.11c-.15-.06-.3-.13-.47-.16-.16-.05-.34-.08-.49-.14-.12-.08-.28-.15-.36-.25l-.24-.28c-.05-.03-.04-.12-.16-.14-.02-.07-.05-.12-.06-.19-.03-.28-.05-.58-.01-.9,0-.16.04-.31,0-.47-.02-.18,0-.21.02-.32l.08-.55c.17-1.06.27-2.13.46-3.18l.45-2.43.25-1.22.16-.72c.1-.32.2-.64.37-.91.16-.14.34-.26.51-.39l.48-.28.71-.38,1.42-.75,2.85-1.45c.38-.19.77-.36,1.16-.54.2-.08.36-.18.69-.28.29-.08.59-.25.89-.12.3.07.58.21.85.35l.57.3,1.1.6c1.85,1.05,3.77,1.88,5.47,3.1.47.56.45.46-.23.69-.71.3-1.94.33-3.1-.18-1.04-.43-1.99-1-2.95-1.51-.85-.48-2.28-1.26-1.92-1.08-.01,0,0,0-.03,0l-.33.17-.69.37-1.45.69c-.97.47-1.95.93-2.93,1.4-.27.14-.54.27-.82.41l-.43.22c-.05.05-.06.14-.08.21l-.14.72-.25,1.5c-.16,1.01-.33,2.02-.49,3.03l-.36,2.17c-.03.17-.05.38-.09.52-.02.07-.03.13-.04.2,0,.06-.05.15,0,.2.06.03.13.05.19.07l.7.3c.35.16.69.33,1.03.5.68.35,1.33.72,1.97,1.1.79.47,1.57.96,2.33,1.46l1.14.76.36.25c.05.02.09.1.15.07l.16-.07.73-.39.89-.5,1.79-1.02c1.19-.69,2.38-1.38,3.55-2.07l.4-.24c.07-.11,0-.28,0-.42l-.11-1.54c-.08-1.05-.17-2.11-.18-3.19,0-.48-.03-.95.02-1.43.18-1.8.49-2.35,1.16-2.57.14-.05.29-.13.41-.15.4-.06.66.72.58,1.9-.05,1.78-.04,3.6.02,5.54l.02,1.56v.72s0,.36,0,.36c0,.12.04.26-.11.3-.41.25-.8.51-1.23.75-.84.5-1.69,1-2.54,1.5-1.28.74-2.55,1.49-3.83,2.23l-.54.3c-.16.1-.32.16-.49.22-.16.05-.33.16-.49.11l-.24-.02h-.12s-.01,0-.01,0h0c-.02.3,0,.08-.01.15h0s-.03-.01-.03-.01l-.06-.02-.47-.15c-.15-.05-.3-.19-.46-.27l-.34-.22c-.61-.4-1.22-.79-1.84-1.17l.02-.04Z"/><path class="cls-1" d="m467.2,186.07c-.48-.61-.95-1.23-1.43-1.84-.18-.22-.39-.41-.56-.63-.62-.78-1.18-1.62-1.8-2.4-.27-.35-.58-.67-.88-.99-.19-.21-.4-.39-.58-.62-.17-.23-.32-.47-.46-.73-.08-.16.02-.23.25-.24.22,0,.59.02.88.19.92.7,1.73,1.52,2.46,2.42.43.54.99,1.01,1.47,1.53l1.55,1.74.95,1.08c.49.54.96,1.09,1.48,1.59.4.4.92.66,1.32,1.04.09.08.19.15.28.24.33.32.24.6.03.93-.05.08-.1.16-.15.23-.18.23-.51.29-.9.2-1.03-.39-1.73-1.15-2.43-1.94-.52-.58-1.01-1.19-1.51-1.79l.03-.03Z"/><path class="cls-1" d="m469.57,183.85c-.47-.56-.95-1.12-1.4-1.7-.17-.21-.38-.38-.54-.59-.59-.75-1.18-1.5-1.79-2.22-.27-.32-.55-.64-.83-.94-.36-.39-.73-.78-1.02-1.24-.09-.15.02-.22.24-.24.21,0,.54.02.8.19.45.3.9.61,1.34.93.43.32.79.72,1.16,1.13.42.5.99.87,1.49,1.31.55.48,1.08.99,1.59,1.52l.96.96c.49.48.96.99,1.49,1.43.41.34.87.61,1.3.93.1.07.19.13.27.22.31.31.22.59-.03.97-.06.09-.12.18-.18.26-.21.26-.56.36-.94.3-1.01-.29-1.77-.87-2.44-1.59-.51-.52-.98-1.07-1.49-1.61l.03-.04Z"/><path class="cls-1" d="m472.94,182.5c-.42-.52-.86-1.04-1.3-1.55-.16-.19-.36-.33-.51-.53-.54-.7-1.07-1.4-1.63-2.07-.25-.3-.5-.59-.75-.89-.32-.37-.63-.76-.88-1.2-.08-.14-.01-.16.15-.14.16.03.44.09.68.24.43.27.85.53,1.26.82.41.28.75.64,1.09,1,.4.45.94.77,1.41,1.17l1.47,1.39.9.87c.46.44.91.89,1.38,1.31.37.33.81.57,1.21.87.09.07.19.11.27.19.24.34.21.54-.09.93-.07.09-.13.18-.21.26-.24.27-.59.36-.92.29-.49-.1-.83-.36-1.2-.59-.35-.26-.73-.5-1.02-.83-.45-.48-.88-1-1.34-1.49l.03-.04Z"/><path class="cls-4" d="m462.97,165.4s3.85-2.32,3.85-2.11,2.14,9.1,2.14,9.1l6.3,2.15-1.6,2.38-7.66-1.72-3.03-9.81Z"/><path class="cls-1" d="m462.95,171.13c-.31-1.25-.65-2.48-1.05-3.68l-.24-.69c-.11-.28-.2-.56-.23-.83,0-.27.08-.46.07-.74.11-.22.31-.41.51-.61.2-.21.44-.35.6-.6l.37-.36c.23-.24.5-.44.76-.63.77-.58,1.49-1.22,2.26-1.79l1.67-1.2.85-.59c.23-.15.44-.31.68-.44.25-.1.49-.23.75-.28.4.03.81.13,1.2.23l.75.23,1.45.46,2.89.97c.39.13.64.24,1.21.48.24.12.5.24.68.43.14.23.27.46.34.74.05.13.09.27.12.4l.09.35.14.55.27,1.09c.43,1.86,1.12,3.59,1.24,5.45-.16.68-.08.62-.76.37-.33-.13-.85-.34-1.18-.71-.37-.36-.7-.82-.9-1.36-.38-.95-.58-1.93-.84-2.88l-.34-1.42-.14-.59s0-.02.01-.03c0-.02,0-.03-.01-.04-.02-.01,0-.01-.07-.03l-.33-.1-1.34-.49c-.91-.34-1.81-.68-2.73-1.01-.31-.12-.62-.22-.93-.32l-.23-.07-.07-.03s-.1-.04-.15-.05c-.07,0-.11.04-.18.08l-.11.07-.23.17-1.02.77c-.69.52-1.37,1.04-2.05,1.56l-1.58,1.18c-.25.21-.54.37-.82.55l-.21.13s-.06.03-.08.06l-.16.11c-.17.06-.07.21-.04.33l.2.64c.21.64.4,1.29.58,1.94.22.8.42,1.59.61,2.39l.5,2.2s0,0,0,.01c.02.07.02.17.06.23.07.04.15.06.22.08l.25.08.43.12,1.77.48c1.19.31,2.38.61,3.56.92l.64.15.37.07c.12,0,.18-.17.26-.24.04-.06.23-.27.38-.45.62-.72,1.26-1.45,1.97-2.13.31-.3.61-.61.96-.88,1.31-.97,1.84-1.08,2.49-.66.14.09.3.16.4.25.34.29.08,1.07-.75,1.77-1.18,1.1-2.34,2.15-3.54,3.38l-.23.23c-.15.16-.31.3-.46.45l-.45.44-.23.22c-.08.06-.2-.02-.3-.02-.41-.06-.82-.14-1.24-.29l-.77-.2c-.85-.21-1.71-.43-2.57-.64l-2.31-.6-1.34-.37c-.18-.05-.36-.09-.51-.21-.15-.1-.32-.18-.42-.32l-.17-.19-.02-.02c-.05.05.12-.11-.12.11h0s0,0,0,0h0s0-.02,0-.02l-.03-.06-.06-.12-.25-.47-.46-1.92-.39-1.51.05-.02Z"/><path class="cls-1" d="m461.29,183.64c-.32-1.24-.67-2.48-1.07-3.67l-.25-.69c-.11-.28-.2-.56-.24-.83,0-.27.08-.46.07-.74.11-.22.31-.41.5-.61.2-.21.44-.35.6-.61l.37-.36c.23-.24.49-.44.76-.64.76-.59,1.48-1.23,2.25-1.8l1.66-1.21.85-.6c.23-.15.44-.31.67-.44.25-.1.49-.23.75-.28.4.02.81.12,1.2.23l.75.22,1.46.45,2.9.95c.39.13.64.23,1.22.47.24.12.5.24.69.43.14.23.27.46.35.74.05.13.09.26.12.4l.09.35.14.55.27,1.08c.45,1.85,1.14,3.58,1.28,5.44-.15.69-.07.62-.76.37-.33-.13-.85-.33-1.19-.7-.37-.36-.7-.82-.91-1.36-.39-.95-.6-1.93-.85-2.88l-.35-1.42-.14-.59s0-.02.01-.03c0-.02,0-.03-.01-.04-.02-.01,0-.01-.07-.03l-.33-.09-1.34-.49c-.91-.33-1.82-.66-2.73-1-.31-.11-.62-.22-.93-.32l-.23-.07-.07-.03s-.1-.04-.15-.05c-.07,0-.11.04-.18.08l-.11.07-.23.17-1.01.78c-.68.52-1.36,1.05-2.04,1.57l-1.57,1.19c-.25.21-.54.38-.82.55l-.21.13s-.06.03-.08.06l-.16.11c-.17.06-.07.21-.04.33l.21.63c.21.64.41,1.29.59,1.93.22.79.43,1.59.63,2.39l.52,2.2s0,0,0,.01c.03.07.02.17.06.23.07.04.15.06.22.08l.25.08.43.12,1.77.47c1.19.3,2.38.6,3.57.89l.64.15.37.07c.12,0,.18-.17.26-.25.04-.06.23-.27.38-.45.62-.73,1.25-1.46,1.96-2.15.31-.3.61-.61.96-.88,1.3-.98,1.84-1.09,2.48-.68.14.09.3.16.41.25.34.29.08,1.07-.74,1.77-1.17,1.11-2.33,2.17-3.51,3.4l-.23.23c-.14.16-.3.3-.45.45l-.45.45-.23.22c-.08.06-.2-.01-.3-.01-.41-.06-.82-.13-1.25-.28l-.78-.19c-.85-.21-1.71-.41-2.57-.62l-2.31-.58-1.34-.36c-.18-.05-.37-.09-.51-.2-.15-.1-.33-.18-.42-.32l-.17-.19-.02-.02c-.05.05.12-.11-.12.11h0s0,0,0,0h0s0-.02,0-.02l-.03-.06-.06-.12c-.08-.16-.18-.31-.25-.47l-.48-1.92-.4-1.51.05-.02Z"/><path class="cls-1" d="m450.28,170.83c-.17-1.44-.38-2.87-.67-4.24-.08-.34-.16-.68-.25-1.02,0-.05-.08-.26-.13-.41-.06-.16-.1-.32-.17-.48-.06-.16-.15-.32-.19-.48,0-.14-.01-.3.01-.42l.07-.36c-.01-.06.07-.1,0-.21.04-.06.07-.12.12-.17.2-.2.41-.4.67-.59l.37-.29c.09-.11.3-.23.35-.26l.48-.28c.94-.55,1.84-1.15,2.79-1.68l2.21-1.2,1.12-.58.73-.37c.31-.12.63-.23.95-.27.21.04.42.09.62.15l.58.22.76.32,1.49.64,2.95,1.32c.39.17.77.38,1.16.57l.3.15c.14.07.28.15.41.23.24.18.57.31.66.62.14.27.21.58.29.89l.13.69.23,1.25c.21,1.04.42,2.09.62,3.14l.27,1.55c.1.51.21,1.01.13,1.57-.19.75-.11.67-.79.3-.33-.19-.84-.48-1.16-.92-.35-.44-.66-.98-.84-1.6-.34-1.09-.5-2.2-.71-3.29l-.28-1.61-.07-.38c-.02-.09,0-.03,0-.06,0,0,.01-.03,0-.04,0,0,0,0-.01-.01.02,0-.03-.02-.09-.05l-.18-.07-.73-.3-1.46-.7c-.98-.47-1.97-.95-2.96-1.43-.4-.18-.8-.37-1.22-.56-.08-.01-.15.04-.22.07l-.59.31-1.34.76c-.9.52-1.8,1.04-2.69,1.55l-1.93,1.1c-.4.24-.44.23-.58.31-.05.04-.15.06-.16.12.02.07.04.13.06.2.02.07.3,1.05.44,1.77.16.75.28,1.5.4,2.25.11.78.21,1.55.29,2.33l.12,1.16.08.95.02.22c.05.05.13.07.19.1l.72.3.96.38,1.94.75c1.3.49,2.59.97,3.88,1.46l.42.15c.13-.02.23-.18.33-.26l1.09-1.05c.76-.74,1.53-1.49,2.37-2.21.37-.31.72-.64,1.14-.91,1.53-1.02,2.18-1.11,2.81-.65.14.1.3.18.4.28.32.32-.09,1.09-1.05,1.79-1.4,1.12-2.8,2.29-4.29,3.57l-1.29,1.08-.56.45-.28.23c-.1.07-.18.19-.3.11-.46-.16-.91-.28-1.37-.47-.96-.36-1.93-.71-2.9-1.07l-2.93-1.09-1.48-.57-.57-.23c-.25-.09-.41-.26-.62-.39-.1-.07-.14-.17-.21-.26l-.09-.13-.05-.07h0c-.06.04.14-.1-.14.1h0s0-.02,0-.02v-.02s-.02-.04-.02-.04l-.25-.64-.19-1.73-.16-1.31h.05Z"/><path class="cls-1" d="m385.58,125.62c.23.18.15.49-.08.87-.07.12-.4.31-.49.27-.17-.07-.35-.14-.5-.22-.08-.06-1.13-1.11-1.55-1.43-.38-.32-.73-.66-1.02-1.07-.61-.8-1.27-1.71-1.79-2.67-.12-.21-.2-.43-.26-.67-.19-.8-.49-1.52-.84-2.22-.06-.12-.09-.25-.22-.33-.23-.14-.95-2.11-.95-2.38-.03-.69-.16-1.35-.17-2.04,0-.1-.06-.19.03-.3.21-.27.11-.46.08-.66-.04-.29-.09-.57-.05-.87.02-.15.12-.33.19-.49.06-.15.39-.18.45-.15.14.09.26-.06.39-.11.04-.02.1-.04.14-.05.09-.01,1.34,1.29,1.39,1.46.07.02.97,2.2,1.1,2.43.07.12.05.28.06.42,0,.08.8,1.75.82,1.82.1.36.3.69.21,1.13-.02.09.02.15.05.22.25.59.4,1.21.62,1.79.11.3.28.56.43.84.03.05.03.12.04.17.02.07.03.15.07.21.4.65.78,1.38,1.24,2.07.11.16.37,1.08.5,1.26.07.1.02.61.11.68Z"/><path class="cls-1" d="m402.53,124.44c.06.25-.29.29-.89.2-.19-.03-.7-.25-.75-.34-.1-.17-.19-.34-.25-.49-.03-.09.14-1.29.17-1.71.03-.41.17-.78.33-1.14.32-.73.65-1.48,1.03-2.21.09-.16.2-.31.34-.44.48-.45.81-.98,1.11-1.52.05-.09.12-.17.1-.31-.04-.23.92-1.63,1.14-1.71.5-.29.93-.61,1.39-.91.07-.04.09-.13.22-.1.31.05.38-.1.5-.2.17-.15.35-.28.57-.39.11-.05.29-.04.45-.04.15,0,.4.28.41.33.03.15.22.21.34.3.04.03.1.07.13.11.06.07-.18,1.51-.26,1.61,0,.01-.24.41-.49.84-.24.42-.47.87-.51.97-.04.1-.16.14-.26.2-.05.03-.7,1.28-.72,1.32-.19.21-.26.5-.62.61-.07.02-.09.08-.12.13-.23.43-.56.81-.85,1.21-.15.21-.24.45-.36.67-.02.04-.08.07-.11.1-.04.04-.1.08-.12.13-.26.55-.63,1.06-.81,1.67-.04.14-.6.65-.63.81-.02.09-.51.21-.49.32Z"/><path class="cls-1" d="m61.19,241.11c.28-.09.38.27.38.91,0,.2-.18.76-.27.82-.18.11-.36.22-.54.28-.1.04-1.54-.13-2.04-.19-.48-.05-.93-.2-1.37-.37-.89-.35-1.79-.7-2.66-1.11-.19-.09-.38-.2-.54-.35-.57-.49-1.2-.84-1.86-1.15-.11-.05-.21-.13-.36-.1-.26.06-1.95-.98-2.12-1.2-.43-.51-.89-.96-1.31-1.45-.06-.07-.16-.1-.15-.24.01-.34-.16-.42-.3-.56-.19-.19-.37-.4-.52-.64-.06-.14-.06-.34-.09-.52-.02-.16.23-.37.29-.38.16-.01.19-.2.27-.31.03-.04.06-.09.09-.12.1-.09,1.72.22,1.84.3.02,0,.48.28.98.56.5.27,1.02.55,1.14.59.12.05.19.17.28.27.03.06,1.59.74,1.65.77.28.2.64.28.83.65.04.07.11.1.17.13.55.25,1.04.6,1.56.91.26.16.56.26.84.39.05.02.09.08.13.12.06.05.11.1.17.13.68.26,1.31.66,2.04.82.16.04.83.57,1.03.59.11.02.32.51.44.47Z"/><path class="cls-1" d="m72.37,241.72c.26.33,0,.71-.55,1.16-.18.14-.79.29-.9.2-.22-.17-.44-.35-.61-.55-.12-.11-.92-2.24-1.14-3-.26-.72-.37-1.46-.45-2.21-.15-1.52-.28-3.04-.24-4.57,0-.34.03-.68.12-1.01.28-1.14.38-2.29.5-3.44.02-.19.07-.38,0-.59-.08-.17.04-1.03.22-1.89.18-.86.43-1.72.53-1.91.25-.46.48-.92.7-1.38.24-.45.48-.9.72-1.35.07-.13.09-.28.26-.36.4-.17.49-.46.64-.73.2-.38.53-.7.82-1.03.15-.16.38-.28.57-.42.17-.12.39.1.4.17.02.21.21.14.34.18.04.01.1.03.13.06.03.03,0,.66.04,1.34.07.69.01,1.34,0,1.46,0,.02-.08.22-.16.53-.08.31-.19.73-.3,1.15-.19.86-.38,1.75-.38,1.94-.02.2-.13.37-.22.55-.09.08-.32,2.7-.32,2.8-.12.53-.07,1.08-.41,1.58-.07.1-.07.21-.07.32-.05.93-.22,1.86-.31,2.79-.05.48,0,.96,0,1.44,0,.09-.04.17-.06.26-.02.11-.05.22-.04.33.08,1.13.02,2.29.3,3.4.04.26-.04,1.54.07,1.84.04.16-.26.8-.15.94Z"/><path class="cls-5" d="m441.75,402.58c-.17-.69-.22-7.64-.22-7.64,0,0-4.24-3.92-4.83-3.71s-5.61,2.06-5.95,2.64-1.09,7.54-1.09,7.54l6.4,3.73,5.69-2.56Z"/><path class="cls-1" d="m434.35,401.31c-.43-.51-.83-1.06-1.22-1.6-.15-.2-.32-.37-.46-.57-.51-.7-1.01-1.41-1.53-2.1-.24-.3-.47-.6-.71-.9-.3-.38-.6-.77-.84-1.2-.07-.14,0-.18.18-.15.17.03.44.11.66.28.39.32.79.62,1.14.97.33.36.65.74.95,1.14.35.48.83.89,1.25,1.33.45.5.92.98,1.34,1.51l.8.95c.41.47.81.96,1.25,1.4.34.31.71.64,1.07.97.08.07.15.15.21.24.23.33.24.49.12.72-.03.05-.05.11-.08.15-.11.15-.34.15-.63.02-.88-.35-1.54-.95-2.16-1.62-.46-.49-.9-1.01-1.35-1.51l.03-.02Z"/><path class="cls-1" d="m436.35,399.9c-.39-.56-.77-1.12-1.16-1.67-.14-.2-.33-.36-.47-.57-.49-.72-.98-1.45-1.44-2.19-.21-.33-.48-.6-.7-.92-.3-.39-.59-.79-.8-1.26-.06-.15.06-.23.28-.26.22-.02.57-.02.83.12.95.48,1.66,1.19,2.22,2.04.3.54.79.94,1.19,1.41.42.53.85,1.06,1.27,1.59l.78.98c.39.49.77,1.01,1.21,1.46.34.35.76.61,1.14.91.09.07.17.13.24.21.24.31.18.54-.08.89-.06.08-.12.17-.18.24-.21.24-.53.32-.88.24-.49-.13-.85-.41-1.2-.69-.35-.29-.67-.61-.98-.94-.46-.5-.9-1.01-1.32-1.55l.04-.04Z"/><path class="cls-1" d="m439.02,397.47c-.3-.46-.6-.93-.9-1.39-.11-.17-.25-.31-.35-.48-.37-.61-.73-1.22-1.11-1.81-.17-.26-.37-.5-.57-.74-.24-.31-.51-.61-.66-.99-.05-.12.11-.23.33-.28.22-.05.53-.05.71.1.66.5,1.14,1.16,1.57,1.85.25.43.63.76.95,1.15.35.42.67.86,1,1.3.21.27.41.53.62.8.32.4.63.81.99,1.16.29.27.63.47.93.72.07.05.14.1.2.15.19.25.16.42-.06.73-.05.07-.1.15-.15.21-.18.22-.45.3-.72.23-.41-.1-.71-.32-1.02-.53-.28-.25-.53-.53-.77-.82-.35-.43-.67-.89-1-1.33l.03-.03Z"/><path class="cls-1" d="m428.49,398.37c.05-1.07.09-2.12.06-3.19,0-.45-.1-.99.01-1.41.08-.2.19-.33.24-.56.14-.15.34-.25.54-.37.96-.54,1.27-.71,1.83-.9.75-.28,1.48-.62,2.23-.88l1.63-.55.86-.27c.23-.06.46-.15.68-.18.22-.01.45-.05.66-.03.31.12.61.29.9.47l.58.39,1.04.72,2.07,1.48c.27.17.46.38.88.7.16.16.33.32.44.51.06.22.1.43.1.67.02.23,0,.46,0,.7l-.03.49-.05.93c-.1,1.58.06,3.13-.36,4.63-.33.51-.24.48-.78.12-.26-.18-.66-.47-.86-.85-.23-.38-.4-.83-.43-1.31-.08-.86,0-1.69.02-2.51l.07-1.21c.03-.56.03-.34.05-.42,0-.01,0-.02,0-.04,0,0,0-.02,0-.02-.03-.03-.15-.1-.22-.14l-.94-.72c-.63-.49-1.27-.99-1.91-1.48-.31-.23-.61-.46-.93-.69-.05-.03-.11,0-.16.01-.07.02-.06.01-.27.09l-1,.37c-.67.25-1.35.5-2.02.75l-1.55.55c-.25.1-.52.16-.79.23l-.1.03-.03.02s-.06,0-.08.02l-.15.05c-.15,0-.11.15-.11.25v.47c.01.56,0,1.13-.01,1.69-.02.68-.05,1.36-.1,2.04l-.13,1.84h0c0,.08-.02.15-.01.21.05.05.1.08.16.12l.45.3,1.3.82c.88.53,1.75,1.07,2.62,1.59l.43.25c.11.06.2.1.29.15.14,0,.26-.16.4-.23l.75-.49c.51-.32,1.03-.64,1.57-.92.32-.17.63-.35.98-.48,1.28-.46,1.74-.41,2.17.15.1.12.21.23.27.34.21.36-.18.97-.99,1.34-.73.37-1.47.74-2.21,1.12-1,.53-2.01,1.06-3.03,1.6-.48-.34-.92-.63-1.36-.92l-.74-.44-1.44-.86-1.71-1.04-1.08-.69-.2-.14-.13-.18c-.1-.12-.17-.25-.22-.37l-.04-.1-.02-.05h0s0,0,0,0c-.06.03.14-.07-.14.07h0s0-.02,0-.02v-.03s-.05-.22-.05-.22l-.09-.44.09-1.66.05-1.28h.05Z"/><path class="cls-5" d="m321.62,92.47c.07-.7,2.29-7.3,2.29-7.3,0,0-2.73-5.09-3.36-5.09s-5.98.12-6.49.56-3.49,6.77-3.49,6.77l4.83,5.62,6.21-.56Z"/><path class="cls-1" d="m315.04,88.86c-.24-.62-.44-1.27-.63-1.92-.07-.23-.18-.45-.25-.69-.25-.83-.49-1.66-.76-2.49-.13-.37-.25-.72-.38-1.08-.16-.46-.32-.92-.4-1.41-.03-.15.06-.16.21-.09.15.08.38.24.53.48.26.43.54.84.76,1.29.2.45.38.91.53,1.39.18.57.5,1.11.74,1.67.26.62.55,1.23.77,1.86.15.39.3.78.45,1.16.24.58.45,1.17.73,1.73.22.41.46.84.69,1.26.05.09.09.19.12.29.11.38.07.54-.12.72-.04.04-.08.09-.13.12-.15.11-.37.03-.6-.18-.71-.62-1.15-1.41-1.51-2.23-.28-.61-.52-1.24-.78-1.87l.03-.02Z"/><path class="cls-1" d="m317.39,88.17c-.18-.65-.37-1.31-.55-1.96-.07-.24-.19-.45-.26-.69-.23-.84-.45-1.69-.65-2.54-.09-.38-.26-.72-.36-1.1-.15-.47-.3-.94-.35-1.45-.01-.16.13-.2.35-.15.21.05.55.16.75.38.74.77,1.18,1.67,1.44,2.65.11.61.44,1.15.66,1.72.23.64.46,1.28.69,1.92.14.39.28.79.41,1.18.21.6.4,1.21.67,1.77.21.44.52.83.78,1.24.06.09.12.18.16.28.13.38,0,.57-.36.82-.08.06-.16.12-.25.17-.28.16-.61.13-.91-.06-.42-.29-.67-.66-.91-1.05-.24-.39-.43-.8-.62-1.21-.27-.62-.52-1.25-.74-1.9l.05-.02Z"/><path class="cls-1" d="m320.71,86.75c-.13-.54-.27-1.07-.4-1.61-.05-.2-.13-.38-.18-.57-.15-.69-.29-1.39-.46-2.07-.08-.3-.19-.6-.3-.88-.13-.37-.28-.74-.3-1.16,0-.13.18-.18.4-.15.22.03.51.12.64.32.46.69.7,1.46.88,2.26.1.48.35.93.53,1.39.19.51.35,1.03.53,1.55.11.32.22.64.32.96.17.48.33.97.55,1.42.18.35.44.65.64.98.05.07.1.14.14.21.1.3.02.45-.3.67-.07.05-.14.11-.21.15-.24.15-.52.14-.76-.02-.36-.23-.57-.53-.79-.84-.18-.32-.33-.67-.46-1.02-.19-.52-.35-1.06-.51-1.59l.04-.02Z"/><path class="cls-1" d="m310.45,84.16c.4-1,.77-1.97,1.1-3,.14-.42.23-.97.47-1.33.14-.16.29-.25.41-.45.18-.09.41-.13.63-.17,1.09-.19,1.43-.25,2.02-.25.8-.02,1.6-.1,2.4-.1h1.72s.9.04.9.04c.24.02.48.01.7.05.21.06.44.09.64.19.25.21.48.47.7.74l.42.56.75,1.03,1.47,2.07c.2.25.31.51.6.95.1.2.2.41.25.63-.02.23-.05.44-.12.66-.05.22-.16.44-.24.66l-.18.46-.35.86c-.61,1.46-.97,2.97-1.85,4.26-.48.37-.39.37-.77-.14-.18-.25-.47-.66-.53-1.08-.09-.43-.1-.91.02-1.38.2-.84.54-1.6.84-2.36l.46-1.12c.21-.52.14-.31.18-.38.01,0,.01-.02.02-.03,0,0,0-.02,0-.02-.02-.04-.11-.14-.16-.21l-.65-.99c-.44-.67-.88-1.35-1.32-2.03-.21-.32-.43-.63-.65-.96-.04-.04-.1-.03-.15-.04-.07,0-.06,0-.28,0l-1.06.02c-.72.02-1.44.03-2.15.05l-1.64.02c-.27.02-.55-.02-.82-.04h-.1s-.04,0-.04,0c-.03,0-.05-.02-.08-.01h-.16c-.14-.04-.15.11-.19.2l-.15.45c-.18.54-.36,1.07-.56,1.59-.24.64-.5,1.28-.76,1.91l-.71,1.65c-.03.07-.07.15-.09.23.03.06.07.11.11.17l.33.43.96,1.2c.66.79,1.31,1.58,1.96,2.36l.32.37c.08.09.15.16.23.23.13.05.3-.07.45-.08l.87-.21c.58-.14,1.18-.27,1.79-.36.36-.06.71-.12,1.08-.13,1.36-.02,1.78.18,2,.85.05.14.12.28.15.41.08.41-.48.86-1.37.94-.81.11-1.63.23-2.45.34-1.12.17-2.25.35-3.39.53-.34-.48-.66-.9-.99-1.31l-.55-.65-1.08-1.28-1.06-1.27-.53-.65-.35-.45-.25-.32c-.08-.11-.08-.24-.13-.35-.05-.12-.05-.23-.06-.35v-.09s-.01-.04-.01-.04v-.02s0,0,0,0h0s-.29.03-.15.01h0s.05-.17.05-.17l.19-.65.19-.65.05-.16.04-.1.08-.19.6-1.51.05.02Z"/><path class="cls-1" d="m138.36,437.46c-.5-.26-.97-.55-1.45-.84-.18-.1-.36-.18-.54-.29-.61-.38-1.23-.76-1.84-1.13-.28-.16-.55-.31-.83-.46-.35-.2-.71-.4-1.03-.66-.1-.08-.05-.14.09-.18.14-.03.37-.07.6,0,.4.12.81.22,1.19.37.37.17.74.36,1.1.57.43.26.92.41,1.39.62.51.24,1.02.46,1.51.73.31.16.61.32.92.47.47.23.93.48,1.41.67.36.13.75.26,1.13.4.08.03.16.07.24.11.28.18.34.3.31.53,0,.05,0,.1-.02.15-.04.16-.22.23-.48.23-.79.03-1.5-.22-2.18-.53-.51-.23-1.01-.48-1.52-.73v-.03Z"/><path class="cls-1" d="m139.46,435.7c-.48-.3-.95-.61-1.42-.91-.17-.11-.37-.17-.54-.28-.61-.39-1.21-.79-1.81-1.22-.26-.19-.56-.3-.83-.48-.35-.2-.71-.41-1.02-.71-.1-.09-.03-.19.13-.28.16-.09.43-.2.68-.17.89.07,1.66.38,2.36.85.41.31.91.47,1.36.7.49.27.99.54,1.49.81.3.17.61.34.91.51.46.25.91.53,1.39.73.37.16.78.23,1.17.33.09.02.17.05.25.08.29.16.31.35.23.7-.02.08-.04.16-.06.24-.08.25-.31.41-.6.46-.82.07-1.5-.27-2.2-.56-.51-.24-1.02-.49-1.51-.77l.02-.04Z"/><path class="cls-1" d="m140.69,433.05c-.38-.26-.76-.53-1.13-.79-.14-.1-.29-.16-.42-.26-.47-.35-.94-.72-1.42-1.05-.21-.15-.44-.27-.67-.38-.29-.16-.59-.3-.82-.56-.07-.08.02-.22.18-.35.16-.12.4-.24.59-.19.68.16,1.25.51,1.8.91.32.25.73.38,1.1.57.4.21.79.45,1.18.68.24.14.49.28.73.42.37.2.74.42,1.13.57.31.11.64.15.95.24.07.02.14.02.21.05.22.14.25.28.17.62l-.06.23c-.08.25-.26.41-.5.46-.36.08-.66,0-.97-.05-.29-.1-.57-.23-.85-.38-.41-.22-.8-.47-1.2-.71l.02-.03Z"/><path class="cls-1" d="m132.9,437.07c-.3-.84-.61-1.65-.98-2.47-.37-.75-.77-1.51-.14-2.07.12-.16.24-.29.36-.46l.29-.34c.14-.19.31-.34.48-.49.49-.45.93-.95,1.43-1.39l1.07-.94.58-.49c.3-.26.62-.48.96-.59.28,0,.56.03.84.07l.58.11,1.03.22,2.06.47c.13.03.26.06.39.1.11.03.35.12.52.16.18.07.35.15.5.25.11.15.21.3.29.48.09.17.15.36.22.54l.14.4.26.73c.43,1.25,1.05,2.38,1.2,3.67-.1.5-.04.45-.57.35-.59-.06-1.35-.51-1.71-1.23-.34-.63-.55-1.29-.79-1.93l-.33-.95-.08-.23c-.03-.09,0-.03-.01-.05,0,0,0-.02,0-.03,0-.01,0-.02,0-.03,0,0,0-.01-.01-.01,0,0-.13-.03-.19-.04l-.95-.25c-.64-.18-1.29-.35-1.94-.53-.3-.08-.61-.15-.92-.23-.05,0-.08.04-.12.06-.06.05-.02.01-.17.14l-.65.6-1.31,1.22-1.01.92c-.16.16-.35.29-.53.43-.11.12-.16.11-.23.2-.11.05-.03.15,0,.23l.14.34c.19.43.36.86.53,1.3.2.53.4,1.06.58,1.59l.48,1.44v.02c.02.05.04.11.06.16.05.02.1.03.16.04l.43.08,1.26.21c.84.13,1.69.25,2.52.38l.4.05.26.02c.11-.04.15-.2.25-.32l.4-.59c.28-.41.58-.82.91-1.22.19-.23.37-.47.6-.68.84-.77,1.21-.87,1.73-.57.11.06.24.11.32.18.28.21.19.82-.31,1.36-.44.52-.88,1.05-1.33,1.57-.6.74-1.21,1.47-1.82,2.22-.47-.11-.92-.19-1.36-.27l-.7-.1-1.38-.2-1.66-.25-.42-.07-.66-.12c-.15,0-.26-.07-.36-.15-.11-.06-.2-.14-.29-.22l-.06-.06h-.02s0-.02,0-.02h0s0,0,0,0c-.18.2-.05.05-.09.1h0s-.03-.04-.03-.04l-.1-.15-.21-.31-.46-1.31-.37-.99.04-.02Z"/><path class="cls-1" d="m410.49,424.96c-.47-.3-.91-.64-1.36-.98-.16-.12-.34-.22-.51-.34-.57-.43-1.15-.88-1.72-1.31-.27-.19-.52-.36-.78-.54-.33-.23-.67-.47-.96-.76-.09-.09-.04-.15.11-.17.14-.02.38-.03.6.05.39.16.78.3,1.15.49.35.21.7.43,1.04.68.4.3.88.5,1.32.76.48.29.97.56,1.43.87.29.19.58.38.87.56.44.28.88.57,1.34.81.34.16.72.34,1.09.51.08.04.15.08.22.14.26.21.31.33.26.55-.01.05-.02.1-.03.15-.05.15-.24.21-.5.18-.79-.05-1.47-.37-2.12-.75-.49-.28-.96-.58-1.44-.87v-.03Z"/><path class="cls-1" d="m411.76,423.31c-.44-.35-.89-.7-1.33-1.05-.16-.12-.35-.21-.51-.34-.57-.45-1.13-.91-1.68-1.39-.24-.21-.53-.36-.78-.56-.33-.24-.66-.48-.94-.8-.09-.1-.01-.19.16-.27.17-.07.45-.16.69-.11.88.15,1.61.54,2.26,1.08.37.35.86.55,1.29.83.46.32.93.63,1.4.95.29.2.57.4.86.59.43.3.86.61,1.32.87.36.19.75.3,1.13.45.08.03.17.06.24.11.27.19.28.38.16.72-.03.08-.05.16-.08.23-.11.24-.35.38-.64.4-.83,0-1.46-.42-2.13-.77-.49-.29-.97-.58-1.43-.91l.02-.04Z"/><path class="cls-1" d="m413.24,420.8c-.35-.3-.7-.6-1.05-.9-.13-.11-.27-.19-.4-.3-.44-.4-.87-.81-1.31-1.19-.2-.17-.42-.31-.63-.45-.27-.19-.55-.36-.76-.64-.07-.09.04-.22.21-.33.17-.1.43-.2.61-.13.66.23,1.19.63,1.7,1.09.3.28.69.45,1.04.68.38.25.74.52,1.11.79.23.16.46.33.68.49.35.24.69.49,1.07.68.29.14.62.21.92.33.07.03.14.04.2.07.21.16.23.3.11.63l-.08.22c-.1.24-.3.38-.55.41-.36.04-.65-.06-.96-.15-.28-.13-.55-.29-.81-.46-.39-.26-.75-.55-1.12-.82l.02-.03Z"/><path class="cls-1" d="m405.09,424.03c-.22-.87-.44-1.7-.73-2.55-.29-.78-.61-1.58.06-2.07.13-.14.27-.26.4-.42l.32-.31c.16-.17.34-.31.52-.44.53-.4,1.02-.85,1.56-1.24l1.16-.83.63-.43c.33-.23.66-.41,1.02-.49.27.02.55.08.83.15l.57.17,1.01.32,2,.68c.12.04.25.09.38.14.11.04.33.15.5.21.17.08.33.18.47.3.1.16.18.32.25.5.08.17.11.37.17.56l.1.41.19.75c.3,1.28.81,2.47.84,3.77-.15.49-.08.44-.61.29-.59-.12-1.29-.64-1.58-1.39-.28-.66-.42-1.34-.6-2l-.24-.98-.06-.24c-.02-.09,0-.03,0-.05,0,0,0-.01.01-.03,0-.01,0-.02,0-.03,0,0,0-.01,0-.01,0,0-.13-.04-.19-.06l-.92-.35c-.62-.24-1.25-.48-1.88-.72-.29-.11-.59-.21-.89-.32-.05-.01-.08.03-.12.05-.06.04-.03.01-.18.13l-.7.54-1.42,1.08-1.1.81c-.18.14-.38.26-.57.37-.12.1-.17.1-.25.17-.12.04-.05.15-.03.23l.11.35c.14.45.28.9.4,1.34.15.55.29,1.09.42,1.64l.34,1.48v.02c.02.05.02.11.04.16.05.03.1.04.15.06l.42.13,1.23.33c.83.21,1.65.42,2.47.63l.39.09.26.04c.11-.03.17-.19.28-.29l.46-.55c.32-.38.66-.76,1.03-1.12.21-.21.42-.43.66-.62.91-.68,1.29-.75,1.77-.4.11.07.22.13.3.21.26.24.11.83-.45,1.32-.49.48-.98.95-1.48,1.43-.67.67-1.35,1.35-2.03,2.03-.46-.15-.89-.28-1.32-.4l-.69-.17-1.35-.33-1.62-.41-.41-.11-.65-.18c-.14-.02-.25-.1-.34-.18-.11-.07-.19-.16-.26-.25l-.06-.07v-.02s-.02,0-.02,0h0s0,0,0,0c-.2.18-.05.05-.1.09h0s-.02-.05-.02-.05l-.09-.16-.18-.33-.33-1.35-.27-1.02h.04Z"/></svg>