<svg width="233" height="69" viewBox="0 0 233 69" fill="none" xmlns="http://www.w3.org/2000/svg">
<g clip-path="url(#clip0_509_2685)">
<path d="M6.48423 57.9682L6.00909 58.4823L6.01336 58.4862L6.48423 57.9682ZM0.940234 43.9402V43.2402H0.240234V43.9402H0.940234ZM13.5402 43.9402H14.2402V43.2402H13.5402V43.9402ZM15.7242 50.3242L15.2389 50.8289L15.2486 50.8378L15.7242 50.3242ZM29.6682 50.4082L30.1333 50.9314L30.1344 50.9304L29.6682 50.4082ZM17.3202 36.6322H16.6202V37.3322H17.3202V36.6322ZM17.3202 26.8882V26.1882H16.6202V26.8882H17.3202ZM14.3802 20.4202V21.1202H15.0802V20.4202H14.3802ZM1.78023 20.4202H1.08023V21.1202H1.78023V20.4202ZM6.98823 6.98019L6.51858 6.4611L6.51447 6.46487L6.98823 6.98019ZM32.0202 3.45219L31.8073 4.11918L31.8204 4.12306L32.0202 3.45219ZM38.5722 6.81219L38.1223 7.34862L38.1328 7.35708L38.5722 6.81219ZM42.4362 11.8522L41.7928 12.1279L41.7961 12.1356L41.7996 12.1432L42.4362 11.8522ZM41.0082 26.5522L40.4629 26.1133L40.4616 26.1149L41.0082 26.5522ZM33.7842 31.3402L33.574 30.6725L31.306 31.3865L33.5991 32.0153L33.7842 31.3402ZM41.7642 36.2962L41.2137 36.7287L41.2201 36.7366L41.7642 36.2962ZM38.7402 58.1362L39.1835 58.678L39.1852 58.6766L38.7402 58.1362ZM31.8522 61.7482L32.061 62.4164L32.0695 62.4136L31.8522 61.7482ZM22.7802 62.3082C15.7112 62.3082 10.4758 60.6509 6.9551 57.4502L6.01336 58.4862C9.88468 62.0055 15.5132 63.7082 22.7802 63.7082V62.3082ZM6.95935 57.4541C3.43253 54.1945 1.64023 49.7192 1.64023 43.9402H0.240234C0.240234 50.0332 2.14391 54.9099 6.00909 58.4823L6.95935 57.4541ZM0.940234 44.6402H13.5402V43.2402H0.940234V44.6402ZM12.8402 43.9402C12.8402 46.9064 13.597 49.2501 15.2389 50.8289L16.2094 49.8196C14.9393 48.5984 14.2402 46.686 14.2402 43.9402H12.8402ZM15.2486 50.8378C16.9452 52.4088 19.5052 53.1242 22.7802 53.1242V51.7242C19.6712 51.7242 17.5272 51.0396 16.1998 49.8106L15.2486 50.8378ZM22.7802 53.1242C25.9451 53.1242 28.4406 52.436 30.1333 50.9314L29.2031 49.885C27.8718 51.0684 25.7753 51.7242 22.7802 51.7242V53.1242ZM30.1344 50.9304C31.8806 49.3712 32.7202 47.2044 32.7202 44.5282H31.3202C31.3202 46.892 30.5918 48.6452 29.202 49.886L30.1344 50.9304ZM32.7202 44.5282C32.7202 41.757 31.9043 39.5604 30.165 38.074C28.4467 36.6057 25.9435 35.9322 22.7802 35.9322V37.3322C25.7769 37.3322 27.8938 37.9747 29.2554 39.1384C30.5961 40.284 31.3202 42.0354 31.3202 44.5282H32.7202ZM22.7802 35.9322H17.3202V37.3322H22.7802V35.9322ZM18.0202 36.6322V26.8882H16.6202V36.6322H18.0202ZM17.3202 27.5882H22.7802V26.1882H17.3202V27.5882ZM22.7802 27.5882C25.5537 27.5882 27.7994 27.0119 29.423 25.763L28.5694 24.6534C27.281 25.6445 25.3827 26.1882 22.7802 26.1882V27.5882ZM29.423 25.763C31.098 24.4745 31.8802 22.5028 31.8802 20.0002H30.4802C30.4802 22.2016 29.8064 23.7018 28.5694 24.6534L29.423 25.763ZM31.8802 20.0002C31.8802 17.702 31.1165 15.7767 29.565 14.2872L28.5954 15.2972C29.8439 16.4957 30.4802 18.0424 30.4802 20.0002H31.8802ZM29.565 14.2872C27.9866 12.772 25.6811 12.0762 22.7802 12.0762V13.4762C25.4793 13.4762 27.3738 14.1244 28.5954 15.2972L29.565 14.2872ZM22.7802 12.0762C19.8278 12.0762 17.492 12.7698 15.9114 14.2872L16.8805 15.2976C18.0999 14.127 20.0206 13.4762 22.7802 13.4762V12.0762ZM15.9114 14.2872C14.3892 15.746 13.6802 17.8298 13.6802 20.4202H15.0802C15.0802 18.0826 15.7147 16.4148 16.8805 15.2976L15.9114 14.2872ZM14.3802 19.7202H1.78023V21.1202H14.3802V19.7202ZM2.48023 20.4202C2.48023 14.801 4.16553 10.5261 7.46199 7.4955L6.51447 6.46487C2.86693 9.81826 1.08023 14.5034 1.08023 20.4202H2.48023ZM7.45787 7.49926C10.808 4.4682 15.8735 2.89219 22.7802 2.89219V1.49219C15.6869 1.49219 10.2244 3.10817 6.51858 6.4611L7.45787 7.49926ZM22.7802 2.89219C26.2549 2.89219 29.2601 3.30625 31.8073 4.11918L32.233 2.78532C29.5162 1.91826 26.3615 1.49219 22.7802 1.49219V2.89219ZM31.8204 4.12306C34.3797 4.88542 36.4733 5.96565 38.1223 7.34862L39.022 6.27586C37.199 4.74683 34.9247 3.58696 32.22 2.78132L31.8204 4.12306ZM38.1328 7.35708C39.7841 8.68875 40.9999 10.2778 41.7928 12.1279L43.0796 11.5764C42.1925 9.50656 40.8323 7.73562 39.0116 6.2673L38.1328 7.35708ZM41.7996 12.1432C42.6511 14.006 43.0802 16.0339 43.0802 18.2362H44.4802C44.4802 15.8465 44.0133 13.6184 43.0728 11.5612L41.7996 12.1432ZM43.0802 18.2362C43.0802 21.3419 42.2004 23.9545 40.4629 26.1133L41.5535 26.9911C43.512 24.5579 44.4802 21.6265 44.4802 18.2362H43.0802ZM40.4616 26.1149C38.7654 28.2351 36.48 29.7577 33.574 30.6725L33.9944 32.0079C37.1364 31.0187 39.667 29.3493 41.5548 26.9895L40.4616 26.1149ZM33.5991 32.0153C36.9567 32.9359 39.476 34.517 41.2137 36.7287L42.3146 35.8637C40.3563 33.3714 37.5557 31.6485 33.9693 30.6651L33.5991 32.0153ZM41.2201 36.7366C42.9981 38.9329 43.9202 41.8714 43.9202 45.6202H45.3202C45.3202 41.641 44.3383 38.3635 42.3083 35.8558L41.2201 36.7366ZM43.9202 45.6202C43.9202 48.044 43.4361 50.2647 42.4756 52.2925L43.7408 52.8919C44.7963 50.6637 45.3202 48.2364 45.3202 45.6202H43.9202ZM42.4756 52.2925C41.5138 54.3231 40.1236 56.0901 38.2952 57.5958L39.1852 58.6766C41.1648 57.0463 42.6866 55.1173 43.7408 52.8919L42.4756 52.2925ZM38.2969 57.5944C36.5284 59.0414 34.3133 60.2082 31.6349 61.0828L32.0695 62.4136C34.8791 61.4962 37.256 60.255 39.1835 58.678L38.2969 57.5944ZM31.6434 61.0801C29.0346 61.8953 26.0826 62.3082 22.7802 62.3082V63.7082C26.1978 63.7082 29.2938 63.2812 32.061 62.4164L31.6434 61.0801ZM66.7516 61.4962L66.4985 62.1489L66.5065 62.1519L66.5145 62.1548L66.7516 61.4962ZM59.6116 56.3722L59.0748 56.8216L59.0801 56.8278L59.6116 56.3722ZM54.8236 46.9642L54.1531 47.1653L54.1539 47.168L54.8236 46.9642ZM59.6116 8.74419L60.1319 9.2125L60.1376 9.20605L59.6116 8.74419ZM66.7516 3.78819L66.993 4.4453L67.0002 4.44254L66.7516 3.78819ZM84.6436 3.78819L84.3905 4.44084L84.3985 4.44392L84.4065 4.44681L84.6436 3.78819ZM91.8676 8.74419L91.3415 9.20609L91.3473 9.21247L91.8676 8.74419ZM96.6556 46.9642L97.3253 47.168L97.3261 47.1653L96.6556 46.9642ZM91.8676 56.3722L92.3991 56.8278L92.4043 56.8216L91.8676 56.3722ZM84.6436 61.4962L84.885 62.1533L84.8922 62.1505L84.6436 61.4962ZM82.8796 48.5602L82.2872 48.1872L82.2834 48.1933L82.8796 48.5602ZM85.0636 22.1002L84.3791 22.2469L84.3799 22.2503L85.0636 22.1002ZM82.8796 16.5562L82.29 16.9335L82.2989 16.9474L82.3084 16.9608L82.8796 16.5562ZM71.7076 13.6162L71.4179 12.9788L71.4066 12.9842L71.7076 13.6162ZM68.5156 16.5562L67.9367 16.1626L67.9331 16.1679L68.5156 16.5562ZM66.4156 22.1002L67.0993 22.2503L67.1 22.2469L66.4156 22.1002ZM68.5156 48.5602L67.9134 48.9171L67.9212 48.9303L67.9297 48.9433L68.5156 48.5602ZM71.7076 51.5842L71.4066 52.2163L71.4179 52.2215L71.7076 51.5842ZM75.7396 62.3082C72.6225 62.3082 69.7073 61.8163 66.9887 60.8376L66.5145 62.1548C69.3959 63.1921 72.4726 63.7082 75.7396 63.7082V62.3082ZM67.0046 60.8435C64.374 59.8235 62.088 58.1858 60.1431 55.9166L59.0801 56.8278C61.1671 59.2626 63.6412 61.0409 66.4985 62.1489L67.0046 60.8435ZM60.1483 55.9228C58.2073 53.6044 56.6494 50.5591 55.4932 46.7604L54.1539 47.168C55.3498 51.0973 56.9839 54.324 59.0748 56.8216L60.1483 55.9228ZM55.4941 46.7631C54.3435 42.9279 53.7596 38.212 53.7596 32.6002H52.3596C52.3596 38.3003 52.9517 43.1605 54.1531 47.1653L55.4941 46.7631ZM53.7596 32.6002V30.9202H52.3596V32.6002H53.7596ZM53.7596 30.9202C53.7596 25.7038 54.3428 21.3292 55.4897 17.7794L54.1575 17.349C52.9523 21.0792 52.3596 25.6086 52.3596 30.9202H53.7596ZM55.4897 17.7794C56.6433 14.2087 58.1969 11.3624 60.1319 9.2125L59.0913 8.27591C56.9942 10.606 55.3559 13.6397 54.1575 17.349L55.4897 17.7794ZM60.1376 9.20605C62.0801 6.99374 64.3638 5.41116 66.993 4.4453L66.5102 3.13112C63.6515 4.18126 61.1751 5.90264 59.0856 8.28233L60.1376 9.20605ZM67.0002 4.44254C69.7157 3.41066 72.6269 2.89219 75.7396 2.89219V1.49219C72.4682 1.49219 69.3874 2.03772 66.5029 3.13384L67.0002 4.44254ZM75.7396 2.89219C78.8524 2.89219 81.7338 3.41069 84.3905 4.44084L84.8966 3.13554C82.0654 2.03769 79.0108 1.49219 75.7396 1.49219V2.89219ZM84.4065 4.44681C87.092 5.41361 89.4014 6.99657 91.3415 9.20609L92.3936 8.28233C90.3016 5.89985 87.7951 4.17877 84.8807 3.12957L84.4065 4.44681ZM91.3473 9.21247C93.2822 11.3624 94.8359 14.2087 95.9895 17.7794L97.3217 17.349C96.1233 13.6397 94.4849 10.606 92.3879 8.27591L91.3473 9.21247ZM95.9895 17.7794C97.1363 21.3292 97.7196 25.7038 97.7196 30.9202H99.1196C99.1196 25.6086 98.5268 21.0792 97.3217 17.349L95.9895 17.7794ZM97.7196 30.9202V32.6002H99.1196V30.9202H97.7196ZM97.7196 32.6002C97.7196 38.212 97.1357 42.9279 95.9851 46.7631L97.3261 47.1653C98.5275 43.1605 99.1196 38.3003 99.1196 32.6002H97.7196ZM95.9859 46.7604C94.8298 50.5591 93.2719 53.6044 91.3308 55.9228L92.4043 56.8216C94.4953 54.324 96.1295 51.0973 97.3253 47.168L95.9859 46.7604ZM91.3361 55.9166C89.3936 58.1829 87.0817 59.8209 84.3949 60.8419L84.8922 62.1505C87.8055 61.0435 90.3096 59.2655 92.3991 56.8278L91.3361 55.9166ZM84.4022 60.8391C81.7423 61.8162 78.8568 62.3082 75.7396 62.3082V63.7082C79.0064 63.7082 82.0569 63.1922 84.885 62.1533L84.4022 60.8391ZM75.7396 53.1242C77.236 53.1242 78.6511 52.8242 79.9772 52.2215L79.3979 50.9469C78.2601 51.4642 77.0432 51.7242 75.7396 51.7242V53.1242ZM79.9772 52.2215C81.3657 51.5903 82.5259 50.4705 83.4757 48.9271L82.2834 48.1933C81.4412 49.5619 80.4734 50.4581 79.3979 50.9469L79.9772 52.2215ZM83.4719 48.9332C84.4861 47.3224 85.2371 45.1872 85.7506 42.5626L84.3766 42.2938C83.8821 44.8212 83.177 46.774 82.2872 48.1872L83.4719 48.9332ZM85.7506 42.5626C86.2664 39.9259 86.5196 36.6008 86.5196 32.6002H85.1196C85.1196 36.5516 84.8687 39.7785 84.3766 42.2938L85.7506 42.5626ZM86.5196 32.6002V30.9202H85.1196V32.6002H86.5196ZM86.5196 30.9202C86.5196 27.3091 86.2662 24.3139 85.7473 21.9501L84.3799 22.2503C84.869 24.4785 85.1196 27.3633 85.1196 30.9202H86.5196ZM85.748 21.9535C85.2325 19.5479 84.4768 17.6001 83.4508 16.1516L82.3084 16.9608C83.1863 18.2003 83.8866 19.9485 84.3791 22.2469L85.748 21.9535ZM83.4692 16.1789C82.5171 14.6912 81.3576 13.6064 79.9772 12.9789L79.3979 14.2535C80.4815 14.746 81.4501 15.6212 82.29 16.9335L83.4692 16.1789ZM79.9772 12.9789C78.6511 12.3762 77.236 12.0762 75.7396 12.0762V13.4762C77.0432 13.4762 78.2601 13.7362 79.3979 14.2535L79.9772 12.9789ZM75.7396 12.0762C74.1914 12.0762 72.7476 12.3744 71.4179 12.9788L71.9972 14.2535C73.1315 13.7379 74.3758 13.4762 75.7396 13.4762V12.0762ZM71.4066 12.9842C70.0897 13.6113 68.9381 14.6899 67.9367 16.1626L69.0944 16.9498C69.997 15.6225 70.9735 14.7411 72.0085 14.2482L71.4066 12.9842ZM67.9331 16.1679C66.9704 17.612 66.2454 19.5535 65.7311 21.9535L67.1 22.2469C67.5937 19.9429 68.2687 18.1884 69.098 16.9445L67.9331 16.1679ZM65.7319 21.9501C65.213 24.3139 64.9596 27.3091 64.9596 30.9202H66.3596C66.3596 27.3633 66.6102 24.4785 67.0993 22.2503L65.7319 21.9501ZM64.9596 30.9202V32.6002H66.3596V30.9202H64.9596ZM64.9596 32.6002C64.9596 36.6008 65.2127 39.9259 65.7286 42.5626L67.1026 42.2938C66.6104 39.7785 66.3596 36.5516 66.3596 32.6002H64.9596ZM65.7286 42.5626C66.2411 45.1822 66.9618 47.3112 67.9134 48.9171L69.1178 48.2033C68.2774 46.7852 67.598 44.8262 67.1026 42.2938L65.7286 42.5626ZM67.9297 48.9433C68.9291 50.4718 70.0819 51.5855 71.4066 52.2163L72.0085 50.9522C70.9813 50.463 70.006 49.5606 69.1015 48.1771L67.9297 48.9433ZM71.4179 52.2215C72.7476 52.8259 74.1914 53.1242 75.7396 53.1242V51.7242C74.3758 51.7242 73.1315 51.4625 71.9972 50.9469L71.4179 52.2215ZM115.113 56.5002V55.8002H114.413V56.5002H115.113ZM118.113 56.5002V57.2002H118.488L118.696 56.8885L118.113 56.5002ZM119.013 54.3502L119.686 54.5425L119.688 54.5363L119.013 54.3502ZM119.613 51.1502L118.92 51.0539L118.919 51.0623L118.918 51.0707L119.613 51.1502ZM119.963 47.4002L119.265 47.3478V47.3561L119.264 47.3643L119.963 47.4002ZM120.113 35.5002V34.8002H119.413V35.5002H120.113ZM140.863 35.5002H141.563V34.8002H140.863V35.5002ZM140.863 56.5002H140.163V57.2002H140.863V56.5002ZM144.113 56.5002H144.813V55.8002H144.113V56.5002ZM144.113 68.2502V68.9502H144.813V68.2502H144.113ZM138.313 68.2502H137.613V68.9502H138.313V68.2502ZM138.313 62.0002H139.013V61.3002H138.313V62.0002ZM120.913 62.0002V61.3002H120.213V62.0002H120.913ZM120.913 68.2502V68.9502H121.613V68.2502H120.913ZM115.113 68.2502H114.413V68.9502H115.113V68.2502ZM134.263 56.5002V57.2002H134.963V56.5002H134.263ZM134.263 41.0002H134.963V40.3002H134.263V41.0002ZM126.163 41.0002V40.3002H125.463V41.0002H126.163ZM125.763 51.2502L125.069 51.1634L125.067 51.1731V51.1828L125.763 51.2502ZM124.563 56.5002L123.925 56.2129L123.481 57.2002H124.563V56.5002ZM115.113 57.2002H118.113V55.8002H115.113V57.2002ZM118.696 56.8885C119.086 56.3028 119.41 55.5082 119.686 54.5425L118.34 54.1579C118.083 55.0589 117.807 55.6976 117.531 56.1119L118.696 56.8885ZM119.688 54.5363C119.966 53.5294 120.172 52.4265 120.309 51.2297L118.918 51.0707C118.788 52.2073 118.594 53.2377 118.338 54.164L119.688 54.5363ZM120.307 51.2465C120.476 50.025 120.595 48.7548 120.662 47.436L119.264 47.3643C119.198 48.6456 119.084 49.8754 118.92 51.0539L120.307 51.2465ZM120.661 47.4526C120.763 46.1028 120.813 44.7853 120.813 43.5002H119.413C119.413 44.7485 119.364 46.031 119.265 47.3478L120.661 47.4526ZM120.813 43.5002V35.5002H119.413V43.5002H120.813ZM120.113 36.2002H140.863V34.8002H120.113V36.2002ZM140.163 35.5002V56.5002H141.563V35.5002H140.163ZM140.863 57.2002H144.113V55.8002H140.863V57.2002ZM143.413 56.5002V68.2502H144.813V56.5002H143.413ZM144.113 67.5502H138.313V68.9502H144.113V67.5502ZM139.013 68.2502V62.0002H137.613V68.2502H139.013ZM138.313 61.3002H120.913V62.7002H138.313V61.3002ZM120.213 62.0002V68.2502H121.613V62.0002H120.213ZM120.913 67.5502H115.113V68.9502H120.913V67.5502ZM115.813 68.2502V56.5002H114.413V68.2502H115.813ZM134.963 56.5002V41.0002H133.563V56.5002H134.963ZM134.263 40.3002H126.163V41.7002H134.263V40.3002ZM125.463 41.0002V44.5002H126.863V41.0002H125.463ZM125.463 44.5002C125.463 45.6535 125.43 46.7898 125.364 47.9091L126.762 47.9913C126.83 46.8439 126.863 45.6802 126.863 44.5002H125.463ZM125.364 47.9091C125.299 49.028 125.2 50.1127 125.069 51.1634L126.458 51.337C126.593 50.2543 126.695 49.1391 126.762 47.9913L125.364 47.9091ZM125.067 51.1828C124.969 52.1912 124.823 53.1294 124.63 53.9983L125.997 54.3021C126.204 53.371 126.358 52.3759 126.46 51.3176L125.067 51.1828ZM124.63 53.9983C124.438 54.8633 124.201 55.5993 123.925 56.2129L125.202 56.7875C125.525 56.0678 125.789 55.2371 125.997 54.3021L124.63 53.9983ZM124.563 57.2002H134.263V55.8002H124.563V57.2002ZM148.363 35.5002V34.8002H147.663V35.5002H148.363ZM154.963 35.5002H155.663V34.8002H154.963V35.5002ZM154.963 45.7502H154.263V46.4502H154.963V45.7502ZM166.263 45.7502V46.4502H166.963V45.7502H166.263ZM166.263 35.5002V34.8002H165.563V35.5002H166.263ZM172.863 35.5002H173.563V34.8002H172.863V35.5002ZM172.863 62.0002V62.7002H173.563V62.0002H172.863ZM166.263 62.0002H165.563V62.7002H166.263V62.0002ZM166.263 51.2502H166.963V50.5502H166.263V51.2502ZM154.963 51.2502V50.5502H154.263V51.2502H154.963ZM154.963 62.0002V62.7002H155.663V62.0002H154.963ZM148.363 62.0002H147.663V62.7002H148.363V62.0002ZM148.363 36.2002H154.963V34.8002H148.363V36.2002ZM154.263 35.5002V45.7502H155.663V35.5002H154.263ZM154.963 46.4502H166.263V45.0502H154.963V46.4502ZM166.963 45.7502V35.5002H165.563V45.7502H166.963ZM166.263 36.2002H172.863V34.8002H166.263V36.2002ZM172.163 35.5002V62.0002H173.563V35.5002H172.163ZM172.863 61.3002H166.263V62.7002H172.863V61.3002ZM166.963 62.0002V51.2502H165.563V62.0002H166.963ZM166.263 50.5502H154.963V51.9502H166.263V50.5502ZM154.263 51.2502V62.0002H155.663V51.2502H154.263ZM154.963 61.3002H148.363V62.7002H154.963V61.3002ZM149.063 62.0002V35.5002H147.663V62.0002H149.063ZM185.731 61.8002L185.497 62.46L185.505 62.4629L185.514 62.4656L185.731 61.8002ZM181.531 59.3002L181.05 59.8092L181.058 59.8162L181.531 59.3002ZM178.681 55.0502L178.032 55.3123L178.034 55.3167L178.681 55.0502ZM181.381 38.2002L181.853 38.7169L181.861 38.7095L181.381 38.2002ZM185.431 35.7502L185.661 36.4115L185.674 36.4068L185.431 35.7502ZM203.131 50.5502V51.2502H203.831V50.5502H203.131ZM184.381 50.5502V49.8502H183.661L183.681 50.5702L184.381 50.5502ZM184.981 53.6002L184.336 53.873L184.34 53.8821L184.981 53.6002ZM188.481 56.8502L188.251 57.5113L188.268 57.5172L188.285 57.5222L188.481 56.8502ZM196.581 54.2502V53.5502H196.098L195.926 54.0019L196.581 54.2502ZM202.631 54.2502L203.318 54.3827L203.479 53.5502H202.631V54.2502ZM188.331 40.6002L188.154 39.9228L188.147 39.9249L188.331 40.6002ZM184.381 45.9502L183.681 45.9276L183.658 46.6502H184.381V45.9502ZM196.731 45.9502V46.6502H197.452L197.431 45.929L196.731 45.9502ZM196.181 43.2002L195.533 43.4652L195.538 43.4777L195.544 43.4899L196.181 43.2002ZM194.881 41.4502L194.439 41.9935L194.447 42L194.456 42.0062L194.881 41.4502ZM190.881 61.9002C189.151 61.9002 187.508 61.6441 185.948 61.1348L185.514 62.4656C187.22 63.0229 189.011 63.3002 190.881 63.3002V61.9002ZM185.965 61.1404C184.449 60.6037 183.132 59.818 182.004 58.7842L181.058 59.8162C182.33 60.9824 183.812 61.8634 185.497 62.46L185.965 61.1404ZM182.011 58.7913C180.891 57.7334 179.995 56.4025 179.328 54.7837L178.034 55.3167C178.767 57.0979 179.77 58.6004 181.05 59.8092L182.011 58.7913ZM179.33 54.7881C178.67 53.1548 178.331 51.2304 178.331 49.0002H176.931C176.931 51.37 177.291 53.4789 178.032 55.3123L179.33 54.7881ZM178.331 49.0002V48.0002H176.931V49.0002H178.331ZM178.331 48.0002C178.331 45.8693 178.654 44.0461 179.279 42.5147L177.983 41.9857C177.274 43.7209 176.931 45.7311 176.931 48.0002H178.331ZM179.279 42.5147C179.911 40.9662 180.772 39.7059 181.853 38.7169L180.909 37.6836C179.657 38.828 178.684 40.2675 177.983 41.9857L179.279 42.5147ZM181.861 38.7095C182.955 37.6781 184.219 36.9129 185.661 36.4115L185.201 35.0891C183.576 35.6544 182.14 36.5223 180.901 37.6909L181.861 38.7095ZM185.674 36.4068C187.123 35.8711 188.69 35.6002 190.381 35.6002V34.2002C188.538 34.2002 186.805 34.496 185.188 35.0936L185.674 36.4068ZM190.381 35.6002C194.428 35.6002 197.388 36.6664 199.382 38.6914L200.38 37.709C198.041 35.3339 194.667 34.2002 190.381 34.2002V35.6002ZM199.382 38.6914C201.38 40.72 202.431 43.7014 202.431 47.7502H203.831C203.831 43.4656 202.715 40.0804 200.38 37.709L199.382 38.6914ZM202.431 47.7502V50.5502H203.831V47.7502H202.431ZM203.131 49.8502H184.381V51.2502H203.131V49.8502ZM183.681 50.5702C183.716 51.8036 183.929 52.9096 184.336 53.873L185.626 53.3275C185.3 52.5576 185.112 51.6301 185.081 50.5302L183.681 50.5702ZM184.34 53.8821C184.742 54.7952 185.281 55.5648 185.966 56.1734L186.896 55.127C186.381 54.669 185.953 54.0719 185.622 53.3183L184.34 53.8821ZM185.966 56.1734C186.635 56.7684 187.399 57.2149 188.251 57.5113L188.711 56.1891C188.03 55.9522 187.427 55.5987 186.896 55.127L185.966 56.1734ZM188.285 57.5222C189.146 57.7733 190.012 57.9002 190.881 57.9002V56.5002C190.15 56.5002 189.416 56.3937 188.677 56.1782L188.285 57.5222ZM190.881 57.9002C192.628 57.9002 194.057 57.647 195.081 57.0565L194.381 55.8439C193.671 56.2534 192.534 56.5002 190.881 56.5002V57.9002ZM195.081 57.0565C196.092 56.473 196.814 55.6106 197.235 54.4985L195.926 54.0019C195.615 54.8231 195.103 55.4274 194.381 55.8439L195.081 57.0565ZM196.581 54.9502H202.631V53.5502H196.581V54.9502ZM201.944 54.1177C201.441 56.7239 200.218 58.6342 198.293 59.9178L199.069 61.0826C201.344 59.5662 202.754 57.3098 203.318 54.3827L201.944 54.1177ZM198.293 59.9178C196.331 61.2252 193.874 61.9002 190.881 61.9002V63.3002C194.087 63.3002 196.83 62.5752 199.069 61.0826L198.293 59.9178ZM190.631 39.6002C189.803 39.6002 188.977 39.7082 188.154 39.9228L188.508 41.2775C189.218 41.0921 189.926 41.0002 190.631 41.0002V39.6002ZM188.147 39.9249C187.332 40.1471 186.599 40.5023 185.956 40.9941L186.806 42.1063C187.296 41.7315 187.863 41.4533 188.515 41.2755L188.147 39.9249ZM185.956 40.9941C185.293 41.5012 184.762 42.1728 184.355 42.9872L185.607 43.6132C185.933 42.9609 186.336 42.4659 186.806 42.1063L185.956 40.9941ZM184.355 42.9872C183.933 43.8313 183.717 44.8188 183.681 45.9276L185.08 45.9728C185.111 45.0149 185.296 44.2358 185.607 43.6132L184.355 42.9872ZM184.381 46.6502H196.731V45.2502H184.381V46.6502ZM197.431 45.929C197.395 44.7681 197.201 43.7532 196.818 42.9105L195.544 43.4899C195.827 44.1139 196 44.9323 196.031 45.9714L197.431 45.929ZM196.829 42.9352C196.487 42.0998 195.982 41.4111 195.306 40.8941L194.456 42.0062C194.913 42.3559 195.275 42.8339 195.533 43.4652L196.829 42.9352ZM195.322 40.9069C194.698 40.3996 193.964 40.0558 193.136 39.8676L192.826 41.2328C193.464 41.3779 193.997 41.6342 194.439 41.9935L195.322 40.9069ZM193.136 39.8676C192.347 39.6882 191.511 39.6002 190.631 39.6002V41.0002C191.418 41.0002 192.148 41.0789 192.826 41.2328L193.136 39.8676ZM207.885 35.5002V34.8002H207.185V35.5002H207.885ZM214.485 35.5002H215.185V34.8002H214.485V35.5002ZM214.485 52.5002H213.785V54.7363L215.06 52.8993L214.485 52.5002ZM226.285 35.5002V34.8002H225.919L225.71 35.101L226.285 35.5002ZM232.385 35.5002H233.085V34.8002H232.385V35.5002ZM232.385 62.0002V62.7002H233.085V62.0002H232.385ZM225.785 62.0002H225.085V62.7002H225.785V62.0002ZM225.785 45.0002H226.485V42.7641L225.21 44.601L225.785 45.0002ZM213.985 62.0002V62.7002H214.351L214.56 62.3994L213.985 62.0002ZM207.885 62.0002H207.185V62.7002H207.885V62.0002ZM213.635 30.8502L213.153 31.3577L213.159 31.3636L213.635 30.8502ZM211.635 25.2502V24.5502H210.935V25.2502H211.635ZM217.485 25.2502H218.185V24.5502H217.485V25.2502ZM218.135 28.0002L217.591 28.4416L217.607 28.4603L217.623 28.4778L218.135 28.0002ZM222.185 28.0002L221.658 27.5392L221.656 27.5417L222.185 28.0002ZM222.885 25.2502V24.5502H222.185V25.2502H222.885ZM228.635 25.2502H229.335V24.5502H228.635V25.2502ZM226.585 30.8502L226.109 30.3368L226.103 30.3427L226.585 30.8502ZM207.885 36.2002H214.485V34.8002H207.885V36.2002ZM213.785 35.5002V52.5002H215.185V35.5002H213.785ZM215.06 52.8993L226.86 35.8993L225.71 35.101L213.91 52.101L215.06 52.8993ZM226.285 36.2002H232.385V34.8002H226.285V36.2002ZM231.685 35.5002V62.0002H233.085V35.5002H231.685ZM232.385 61.3002H225.785V62.7002H232.385V61.3002ZM226.485 62.0002V45.0002H225.085V62.0002H226.485ZM225.21 44.601L213.41 61.601L214.56 62.3994L226.36 45.3994L225.21 44.601ZM213.985 61.3002H207.885V62.7002H213.985V61.3002ZM208.585 62.0002V35.5002H207.185V62.0002H208.585ZM220.135 32.0502C217.245 32.0502 215.29 31.4296 214.111 30.3368L213.159 31.3636C214.713 32.8041 217.091 33.4502 220.135 33.4502V32.0502ZM214.117 30.3427C212.965 29.2487 212.335 27.593 212.335 25.2502H210.935C210.935 27.8407 211.638 29.9184 213.153 31.3577L214.117 30.3427ZM211.635 25.9502H217.485V24.5502H211.635V25.9502ZM216.785 25.2502C216.785 26.5866 216.999 27.7127 217.591 28.4416L218.678 27.5588C218.404 27.221 218.185 26.5138 218.185 25.2502H216.785ZM217.623 28.4778C218.256 29.1555 219.129 29.4502 220.135 29.4502V28.0502C219.407 28.0502 218.947 27.8449 218.647 27.5226L217.623 28.4778ZM220.135 29.4502C221.185 29.4502 222.1 29.1671 222.714 28.4587L221.656 27.5417C221.403 27.8333 220.951 28.0502 220.135 28.0502V29.4502ZM222.712 28.4612C223.351 27.7298 223.585 26.5941 223.585 25.2502H222.185C222.185 26.5063 221.951 27.2039 221.658 27.5392L222.712 28.4612ZM222.885 25.9502H228.635V24.5502H222.885V25.9502ZM227.935 25.2502C227.935 27.5881 227.29 29.2417 226.109 30.3368L227.061 31.3636C228.612 29.9254 229.335 27.8456 229.335 25.2502H227.935ZM226.103 30.3427C224.959 31.4288 223.027 32.0502 220.135 32.0502V33.4502C223.176 33.4502 225.543 32.805 227.067 31.3577L226.103 30.3427Z" fill="#F19900"/>
</g>
<defs>
<clipPath id="clip0_509_2685">
<rect width="233" height="69" fill="white"/>
</clipPath>
</defs>
</svg>
