<svg width="233" height="67" viewBox="0 0 233 67" fill="none" xmlns="http://www.w3.org/2000/svg">
<path d="M6.484 55.968L5.46585 57.0696L5.47499 57.0779L6.484 55.968ZM0.94 41.94V40.44H-0.56V41.94H0.94ZM13.54 41.94H15.04V40.44H13.54V41.94ZM15.724 48.324L14.6843 49.4053L14.6945 49.415L14.7049 49.4246L15.724 48.324ZM29.668 48.408L30.6646 49.5291L30.667 49.5269L29.668 48.408ZM17.32 34.632H15.82V36.132H17.32V34.632ZM17.32 24.888V23.388H15.82V24.888H17.32ZM29.08 12.792L28.0412 13.8741L29.08 12.792ZM16.396 12.792L17.4339 13.875L17.4348 13.8741L16.396 12.792ZM14.38 18.42V19.92H15.88V18.42H14.38ZM1.78 18.42H0.28V19.92H1.78V18.42ZM6.988 4.98L5.9816 3.86766L5.9728 3.87575L6.988 4.98ZM32.02 1.452L31.5639 2.88099L31.5778 2.88542L31.5918 2.88958L32.02 1.452ZM38.572 4.812L37.6081 5.96129L37.6191 5.97056L37.6304 5.97962L38.572 4.812ZM42.436 9.852L41.0573 10.4429L41.0643 10.4593L41.0718 10.4756L42.436 9.852ZM41.008 24.552L39.8395 23.6115L39.8367 23.615L41.008 24.552ZM33.784 29.34L33.3336 27.9092L28.4735 29.4393L33.3874 30.7866L33.784 29.34ZM41.764 34.296L40.5845 35.2227L40.5913 35.2313L40.5981 35.2398L41.764 34.296ZM43.108 50.592L41.7524 49.9499V49.9499L43.108 50.592ZM38.74 56.136L39.6899 57.2969L39.6936 57.2939L38.74 56.136ZM31.852 59.748L32.2994 61.1797L32.3085 61.1769L32.3176 61.1739L31.852 59.748ZM22.78 59.508C15.8242 59.508 10.8133 57.8766 7.49301 54.8581L5.47499 57.0779C9.54667 60.7794 15.3998 62.508 22.78 62.508V59.508ZM7.50211 54.8664C4.16865 51.7855 2.44 47.5395 2.44 41.94H-0.56C-0.56 48.2125 1.40735 53.3185 5.46589 57.0696L7.50211 54.8664ZM0.94 43.44H13.54V40.44H0.94V43.44ZM12.04 41.94C12.04 45.0322 12.8299 47.6221 14.6843 49.4053L16.7637 47.2428C15.7061 46.2259 15.04 44.5598 15.04 41.94H12.04ZM14.7049 49.4246C16.6125 51.1909 19.4102 51.924 22.78 51.924V48.924C19.7658 48.924 17.8595 48.2571 16.7431 47.2234L14.7049 49.4246ZM22.78 51.924C26.042 51.924 28.7654 51.2172 30.6645 49.5291L28.6715 47.2869C27.5466 48.2868 25.678 48.924 22.78 48.924V51.924ZM30.667 49.5269C32.6169 47.7859 33.52 45.3826 33.52 42.528H30.52C30.52 44.7133 29.8551 46.23 28.669 47.2891L30.667 49.5269ZM33.52 42.528C33.52 39.5978 32.6517 37.1467 30.6845 35.4657C28.7624 33.8231 26.0386 33.132 22.78 33.132V36.132C25.6814 36.132 27.5776 36.7569 28.7355 37.7463C29.8483 38.6973 30.52 40.1942 30.52 42.528H33.52ZM22.78 33.132H17.32V36.132H22.78V33.132ZM18.82 34.632V24.888H15.82V34.632H18.82ZM17.32 26.388H22.78V23.388H17.32V26.388ZM22.78 26.388C25.6513 26.388 28.0955 25.7931 29.9106 24.3969L28.0814 22.0191C26.9845 22.8629 25.2847 23.388 22.78 23.388V26.388ZM29.9106 24.3969C31.8359 22.9159 32.68 20.6747 32.68 18H29.68C29.68 20.0293 29.0681 21.2601 28.0814 22.0191L29.9106 24.3969ZM32.68 18C32.68 15.5072 31.8435 13.3656 30.1188 11.7099L28.0412 13.8741C29.1165 14.9064 29.68 16.2368 29.68 18H32.68ZM30.1188 11.7099C28.3366 9.99899 25.7963 9.276 22.78 9.276V12.276C25.3638 12.276 27.0234 12.897 28.0412 13.8741L30.1188 11.7099ZM22.78 9.276C19.7175 9.276 17.1442 9.99436 15.3572 11.7099L17.4348 13.8741C18.4478 12.9016 20.1305 12.276 22.78 12.276V9.276ZM15.3581 11.709C13.6323 13.363 12.88 15.6851 12.88 18.42H15.88C15.88 16.2269 16.4717 14.797 17.4339 13.875L15.3581 11.709ZM14.38 16.92H1.78V19.92H14.38V16.92ZM3.28 18.42C3.28 12.9708 4.90737 8.93042 8.0032 6.08425L5.9728 3.87575C2.12463 7.41358 0.28 12.3332 0.28 18.42H3.28ZM7.99437 6.0923C11.1412 3.24516 15.9799 1.692 22.78 1.692V-1.308C15.5801 -1.308 9.89079 0.330839 5.98163 3.86769L7.99437 6.0923ZM22.78 1.692C26.1939 1.692 29.1137 2.09899 31.5639 2.88099L32.4761 0.0230083C29.6623 -0.874992 26.4221 -1.308 22.78 -1.308V1.692ZM31.5918 2.88958C34.0681 3.62721 36.0587 4.66177 37.6081 5.96129L39.5359 3.66271C37.6133 2.05023 35.2359 0.844788 32.4482 0.0144196L31.5918 2.88958ZM37.6304 5.97962C39.1848 7.23321 40.3182 8.71835 41.0573 10.4429L43.8147 9.26112C42.8738 7.06565 41.4312 5.19079 39.5136 3.64438L37.6304 5.97962ZM41.0718 10.4756C41.8725 12.2273 42.28 14.1409 42.28 16.236H45.28C45.28 13.7391 44.7915 11.3967 43.8002 9.22836L41.0718 10.4756ZM42.28 16.236C42.28 19.179 41.4508 21.6096 39.8395 23.6115L42.1765 25.4925C44.2612 22.9024 45.28 19.789 45.28 16.236H42.28ZM39.8367 23.615C38.25 25.5983 36.1047 27.0368 33.3336 27.9092L34.2344 30.7708C37.5113 29.7392 40.182 27.9857 42.1793 25.489L39.8367 23.615ZM33.3874 30.7866C36.6142 31.6714 38.9729 33.1715 40.5845 35.2227L42.9435 33.3693C40.8592 30.7165 37.8978 28.9126 34.1807 27.8934L33.3874 30.7866ZM40.5981 35.2398C42.232 37.2581 43.12 40.0028 43.12 43.62H46.12C46.12 39.5092 45.104 36.0379 42.9299 33.3522L40.5981 35.2398ZM43.12 43.62C43.12 45.9338 42.6587 48.0365 41.7524 49.9499L44.4636 51.2341C45.5733 48.8915 46.12 46.3462 46.12 43.62H43.12ZM41.7524 49.9499C40.8433 51.869 39.5284 53.5435 37.7864 54.9781L39.6936 57.2939C41.7596 55.5925 43.3567 53.571 44.4636 51.2341L41.7524 49.9499ZM37.7901 54.9751C36.1123 56.3478 33.9898 57.472 31.3864 58.3221L32.3176 61.1739C35.2022 60.232 37.6717 58.9482 39.6899 57.2969L37.7901 54.9751ZM31.4046 58.3163C28.8862 59.1033 26.0166 59.508 22.78 59.508V62.508C26.2634 62.508 29.4418 62.0727 32.2994 61.1797L31.4046 58.3163ZM66.7514 59.496L66.2091 60.8945L66.2261 60.9011L66.2433 60.9073L66.7514 59.496ZM59.6114 54.372L58.4612 55.3349L58.4668 55.3416L58.4725 55.3482L59.6114 54.372ZM54.8234 44.964L53.3866 45.395L53.3884 45.4007L54.8234 44.964ZM54.8234 15.564L53.396 15.1029L54.8234 15.564ZM59.6114 6.744L60.7263 7.74745L60.7325 7.74061L60.7385 7.7337L59.6114 6.744ZM66.7514 1.788L67.2686 3.196L67.2764 3.19313L67.2842 3.19017L66.7514 1.788ZM84.6434 1.788L84.1011 3.18654L84.1181 3.19314L84.1353 3.19933L84.6434 1.788ZM91.8674 6.744L90.7402 7.7337L90.7463 7.74061L90.7524 7.74745L91.8674 6.744ZM96.6554 15.564L95.228 16.0251L96.6554 15.564ZM96.6554 44.964L98.0904 45.4007L98.0921 45.395L96.6554 44.964ZM91.8674 54.372L93.0063 55.3482L93.0119 55.3416L93.0175 55.3349L91.8674 54.372ZM84.6434 59.496L85.1606 60.904L85.1684 60.9011L85.1762 60.8982L84.6434 59.496ZM79.6874 49.584L79.0667 48.2185L79.6874 49.584ZM82.8794 46.56L81.61 45.7608L81.6059 45.7673L81.6019 45.7738L82.8794 46.56ZM85.0634 20.1L83.5967 20.4143L83.5983 20.4216L85.0634 20.1ZM82.8794 14.556L81.616 15.3646L81.635 15.3943L81.6553 15.423L82.8794 14.556ZM79.6874 11.616L79.0667 12.9815L79.6874 11.616ZM71.7074 11.616L71.0867 10.2504L71.0745 10.256L71.0625 10.2617L71.7074 11.616ZM68.5154 14.556L67.2749 13.7125L67.2673 13.7239L68.5154 14.556ZM66.4154 20.1L67.8805 20.4216L67.8821 20.4143L66.4154 20.1ZM68.5154 46.56L67.2249 47.3247L67.2418 47.3532L67.2599 47.3809L68.5154 46.56ZM71.7074 49.584L71.0625 50.9383L71.0745 50.944L71.0867 50.9495L71.7074 49.584ZM75.7394 59.508C72.708 59.508 69.885 59.0299 67.2595 58.0847L66.2433 60.9073C69.2177 61.9781 72.3868 62.508 75.7394 62.508V59.508ZM67.2937 58.0975C64.7925 57.1276 62.614 55.5702 60.7503 53.3958L58.4725 55.3482C60.6407 57.8778 63.2222 59.7364 66.2091 60.8945L67.2937 58.0975ZM60.7615 53.4091C58.9061 51.1929 57.3918 48.2514 56.2584 44.5273L53.3884 45.4007C54.6069 49.4046 56.2846 52.7351 58.4612 55.3349L60.7615 53.4091ZM56.2601 44.533C55.1386 40.7947 54.5594 36.1614 54.5594 30.6H51.5594C51.5594 36.3506 52.1561 41.2933 53.3866 45.395L56.2601 44.533ZM54.5594 30.6V28.92H51.5594V30.6H54.5594ZM54.5594 28.92C54.5594 23.7581 55.1372 19.4719 56.2507 16.0251L53.396 15.1029C52.1576 18.9361 51.5594 23.5539 51.5594 28.92H54.5594ZM56.2507 16.0251C57.3787 12.5337 58.884 9.79447 60.7263 7.74745L58.4964 5.74055C56.3068 8.17353 54.62 11.3143 53.396 15.1029L56.2507 16.0251ZM60.7385 7.7337C62.5971 5.61704 64.7704 4.1137 67.2686 3.196L66.2342 0.379993C63.2443 1.47829 60.6577 3.27896 58.4842 5.7543L60.7385 7.7337ZM67.2842 3.19017C69.9031 2.195 72.7174 1.692 75.7394 1.692V-1.308C72.3774 -1.308 69.1997 -0.747 66.2186 0.385822L67.2842 3.19017ZM75.7394 1.692C78.7617 1.692 81.5441 2.19507 84.1011 3.18654L85.1857 0.389456C82.2546 -0.74707 79.1011 -1.308 75.7394 -1.308V1.692ZM84.1353 3.19933C86.69 4.11904 88.8869 5.62302 90.7402 7.7337L92.9945 5.7543C90.8158 3.27298 88.1967 1.47296 85.1515 0.376667L84.1353 3.19933ZM90.7524 7.74745C92.5948 9.79447 94.1 12.5337 95.228 16.0251L98.0827 15.1029C96.8587 11.3143 95.172 8.17353 92.9823 5.74055L90.7524 7.74745ZM95.228 16.0251C96.3416 19.4719 96.9194 23.7581 96.9194 28.92H99.9194C99.9194 23.5539 99.3212 18.9361 98.0827 15.1029L95.228 16.0251ZM96.9194 28.92V30.6H99.9194V28.92H96.9194ZM96.9194 30.6C96.9194 36.1614 96.3401 40.7947 95.2186 44.533L98.0921 45.395C99.3226 41.2933 99.9194 36.3506 99.9194 30.6H96.9194ZM95.2204 44.5273C94.0869 48.2514 92.5726 51.1929 90.7172 53.4091L93.0175 55.3349C95.1941 52.7351 96.8718 49.4046 98.0904 45.4007L95.2204 44.5273ZM90.7285 53.3958C88.8699 55.5641 86.6679 57.122 84.1105 58.0938L85.1762 60.8982C88.2189 59.742 90.8328 57.8839 93.0063 55.3482L90.7285 53.3958ZM84.1262 58.088C81.5624 59.0298 78.7711 59.508 75.7394 59.508V62.508C79.0916 62.508 82.2364 61.9782 85.1606 60.904L84.1262 58.088ZM75.7394 51.924C77.3459 51.924 78.8744 51.6012 80.3081 50.9495L79.0667 48.2185C78.0364 48.6868 76.9328 48.924 75.7394 48.924V51.924ZM80.3081 50.9495C81.8754 50.2371 83.1456 48.9894 84.1569 47.3461L81.6019 45.7738C80.8212 47.0426 79.9634 47.8109 79.0667 48.2185L80.3081 50.9495ZM84.1487 47.3592C85.234 45.6356 86.0111 43.3961 86.5355 40.716L83.5913 40.14C83.1076 42.6119 82.4288 44.4604 81.61 45.7608L84.1487 47.3592ZM86.5355 40.716C87.0649 38.01 87.3194 34.6287 87.3194 30.6H84.3194C84.3194 34.5232 84.0699 37.694 83.5913 40.14L86.5355 40.716ZM87.3194 30.6V28.92H84.3194V30.6H87.3194ZM87.3194 28.92C87.3194 25.2779 87.0644 22.2197 86.5285 19.7784L83.5983 20.4216C84.0704 22.5723 84.3194 25.3941 84.3194 28.92H87.3194ZM86.5301 19.7857C86.0015 17.3188 85.214 15.2569 84.1034 13.689L81.6553 15.423C82.4487 16.5431 83.1173 18.1772 83.5967 20.4143L86.5301 19.7857ZM84.1428 13.7474C83.1265 12.1595 81.8581 10.955 80.3081 10.2504L79.0667 12.9815C79.9807 13.397 80.8402 14.1525 81.616 15.3646L84.1428 13.7474ZM80.3081 10.2504C78.8744 9.59876 77.3459 9.276 75.7394 9.276V12.276C76.9328 12.276 78.0364 12.5132 79.0667 12.9815L80.3081 10.2504ZM75.7394 9.276C74.0857 9.276 72.5281 9.59526 71.0867 10.2504L72.3281 12.9815C73.3507 12.5167 74.481 12.276 75.7394 12.276V9.276ZM71.0625 10.2617C69.5844 10.9655 68.3328 12.1569 67.275 13.7125L69.7558 15.3995C70.6019 14.1551 71.4783 13.3865 72.3523 12.9703L71.0625 10.2617ZM67.2673 13.7239C66.2283 15.2824 65.4747 17.3308 64.9487 19.7857L67.8821 20.4143C68.364 18.1652 69.0104 16.5176 69.7635 15.3881L67.2673 13.7239ZM64.9503 19.7784C64.4144 22.2197 64.1594 25.2779 64.1594 28.92H67.1594C67.1594 25.3941 67.4084 22.5723 67.8805 20.4216L64.9503 19.7784ZM64.1594 28.92V30.6H67.1594V28.92H64.1594ZM64.1594 30.6C64.1594 34.6287 64.4139 38.01 64.9433 40.716L67.8875 40.14C67.4089 37.694 67.1594 34.5232 67.1594 30.6H64.1594ZM64.9433 40.716C65.4656 43.3854 66.2098 45.6116 67.2249 47.3247L69.8058 45.7953C69.029 44.4844 68.3732 42.6226 67.8875 40.14L64.9433 40.716ZM67.2599 47.3809C68.3135 48.9923 69.5677 50.2265 71.0625 50.9383L72.3523 48.2297C71.495 47.8215 70.6212 47.0397 69.7708 45.7391L67.2599 47.3809ZM71.0867 50.9495C72.5281 51.6047 74.0857 51.924 75.7394 51.924V48.924C74.481 48.924 73.3507 48.6833 72.3281 48.2185L71.0867 50.9495ZM115.113 54.5V53H113.613V54.5H115.113ZM118.113 54.5V56H118.916L119.361 55.332L118.113 54.5ZM119.013 52.35L120.456 52.7621L120.459 52.7489L119.013 52.35ZM119.613 49.15L118.128 48.9436L118.125 48.9616L118.123 48.9797L119.613 49.15ZM119.963 45.4L118.467 45.2878L118.466 45.3055L118.465 45.3232L119.963 45.4ZM120.113 33.5V32H118.613V33.5H120.113ZM140.863 33.5H142.363V32H140.863V33.5ZM140.863 54.5H139.363V56H140.863V54.5ZM144.113 54.5H145.613V53H144.113V54.5ZM144.113 66.25V67.75H145.613V66.25H144.113ZM138.313 66.25H136.813V67.75H138.313V66.25ZM138.313 60H139.813V58.5H138.313V60ZM120.913 60V58.5H119.413V60H120.913ZM120.913 66.25V67.75H122.413V66.25H120.913ZM115.113 66.25H113.613V67.75H115.113V66.25ZM134.263 54.5V56H135.763V54.5H134.263ZM134.263 39H135.763V37.5H134.263V39ZM126.163 39V37.5H124.663V39H126.163ZM126.063 45.95L124.566 45.8619L126.063 45.95ZM125.763 49.25L124.275 49.0639L124.272 49.0847L124.27 49.1055L125.763 49.25ZM125.313 52.15L126.778 52.4754L125.313 52.15ZM124.563 54.5L123.195 53.8845L122.243 56H124.563V54.5ZM115.113 56H118.113V53H115.113V56ZM119.361 55.332C119.817 54.6484 120.169 53.7648 120.456 52.7621L117.571 51.9379C117.324 52.8019 117.076 53.3516 116.865 53.6679L119.361 55.332ZM120.459 52.7489C120.75 51.6959 120.963 50.5515 121.104 49.3203L118.123 48.9797C117.997 50.0818 117.81 51.0708 117.567 51.9511L120.459 52.7489ZM121.099 49.3564C121.272 48.1103 121.393 46.817 121.461 45.4768L118.465 45.3232C118.401 46.583 118.288 47.7897 118.128 48.9436L121.099 49.3564ZM121.459 45.5122C121.562 44.1436 121.613 42.8061 121.613 41.5H118.613C118.613 42.7272 118.565 43.9898 118.467 45.2878L121.459 45.5122ZM121.613 41.5V33.5H118.613V41.5H121.613ZM120.113 35H140.863V32H120.113V35ZM139.363 33.5V54.5H142.363V33.5H139.363ZM140.863 56H144.113V53H140.863V56ZM142.613 54.5V66.25H145.613V54.5H142.613ZM144.113 64.75H138.313V67.75H144.113V64.75ZM139.813 66.25V60H136.813V66.25H139.813ZM138.313 58.5H120.913V61.5H138.313V58.5ZM119.413 60V66.25H122.413V60H119.413ZM120.913 64.75H115.113V67.75H120.913V64.75ZM116.613 66.25V54.5H113.613V66.25H116.613ZM135.763 54.5V39H132.763V54.5H135.763ZM134.263 37.5H126.163V40.5H134.263V37.5ZM124.663 39V42.5H127.663V39H124.663ZM124.663 42.5C124.663 43.6381 124.631 44.7587 124.566 45.8619L127.561 46.0381C127.629 44.8746 127.663 43.6952 127.663 42.5H124.663ZM124.566 45.8619C124.501 46.9643 124.404 48.0316 124.275 49.0639L127.252 49.4361C127.389 48.3351 127.492 47.2023 127.561 46.0381L124.566 45.8619ZM124.27 49.1055C124.175 50.0855 124.034 50.9911 123.849 51.8246L126.778 52.4754C126.992 51.5089 127.151 50.4812 127.256 49.3945L124.27 49.1055ZM123.849 51.8246C123.666 52.6494 123.444 53.3314 123.195 53.8845L125.931 55.1155C126.282 54.3353 126.561 53.4506 126.778 52.4754L123.849 51.8246ZM124.563 56H134.263V53H124.563V56ZM148.363 33.5V32H146.863V33.5H148.363ZM154.963 33.5H156.463V32H154.963V33.5ZM154.963 43.75H153.463V45.25H154.963V43.75ZM166.263 43.75V45.25H167.763V43.75H166.263ZM166.263 33.5V32H164.763V33.5H166.263ZM172.863 33.5H174.363V32H172.863V33.5ZM172.863 60V61.5H174.363V60H172.863ZM166.263 60H164.763V61.5H166.263V60ZM166.263 49.25H167.763V47.75H166.263V49.25ZM154.963 49.25V47.75H153.463V49.25H154.963ZM154.963 60V61.5H156.463V60H154.963ZM148.363 60H146.863V61.5H148.363V60ZM148.363 35H154.963V32H148.363V35ZM153.463 33.5V43.75H156.463V33.5H153.463ZM154.963 45.25H166.263V42.25H154.963V45.25ZM167.763 43.75V33.5H164.763V43.75H167.763ZM166.263 35H172.863V32H166.263V35ZM171.363 33.5V60H174.363V33.5H171.363ZM172.863 58.5H166.263V61.5H172.863V58.5ZM167.763 60V49.25H164.763V60H167.763ZM166.263 47.75H154.963V50.75H166.263V47.75ZM153.463 49.25V60H156.463V49.25H153.463ZM154.963 58.5H148.363V61.5H154.963V58.5ZM149.863 60V33.5H146.863V60H149.863ZM185.731 59.8L185.23 61.2139L185.248 61.2201L185.265 61.2259L185.731 59.8ZM181.531 57.3L180.501 58.3905L180.509 58.3982L180.517 58.4057L181.531 57.3ZM178.681 53.05L177.29 53.6117L177.294 53.6211L178.681 53.05ZM178.631 40.25L180.02 40.8168L178.631 40.25ZM181.381 36.2L182.393 37.307L182.402 37.2993L182.41 37.2914L181.381 36.2ZM185.431 33.75L185.924 35.1667L185.937 35.162L185.951 35.157L185.431 33.75ZM199.881 36.2L198.812 37.2525L199.881 36.2ZM203.131 48.55V50.05H204.631V48.55H203.131ZM184.381 48.55V47.05H182.837L182.881 48.5928L184.381 48.55ZM184.981 51.6L183.599 52.1845L183.604 52.1943L183.608 52.2041L184.981 51.6ZM186.431 53.65L185.434 54.7711L186.431 53.65ZM188.481 54.85L187.988 56.2667L188.024 56.2793L188.061 56.29L188.481 54.85ZM194.731 54.45L193.981 53.1507L194.731 54.45ZM196.581 52.25V50.75H195.546L195.178 51.718L196.581 52.25ZM202.631 52.25L204.104 52.5339L204.448 50.75H202.631V52.25ZM198.681 58.5L199.513 59.7481L198.681 58.5ZM188.331 38.6L187.952 37.1486L187.944 37.1507L187.936 37.1529L188.331 38.6ZM186.381 39.55L187.292 40.7415L186.381 39.55ZM184.981 41.3L186.322 41.9708V41.9708L184.981 41.3ZM184.381 43.95L182.882 43.9016L182.832 45.45H184.381V43.95ZM196.731 43.95V45.45H198.277L198.23 43.9046L196.731 43.95ZM196.181 41.2L194.793 41.7679L194.803 41.7945L194.815 41.8207L196.181 41.2ZM194.881 39.45L193.935 40.6142L193.952 40.6281L193.97 40.6415L194.881 39.45ZM192.981 38.55L192.648 40.0127L192.981 38.55ZM190.881 59.1C189.231 59.1 187.672 58.856 186.196 58.3741L185.265 61.2259C187.056 61.8106 188.93 62.1 190.881 62.1V59.1ZM186.232 58.3861C184.813 57.8837 183.59 57.1523 182.544 56.1943L180.517 58.4057C181.872 59.6477 183.448 60.5829 185.23 61.2139L186.232 58.3861ZM182.561 56.2095C181.532 55.2379 180.696 54.0049 180.068 52.4789L177.294 53.6211C178.065 55.4951 179.13 57.0955 180.501 58.3905L182.561 56.2095ZM180.072 52.4883C179.458 50.9694 179.131 49.1505 179.131 47H176.131C176.131 49.4495 176.503 51.6639 177.29 53.6117L180.072 52.4883ZM179.131 47V46H176.131V47H179.131ZM179.131 46C179.131 43.948 179.442 42.2318 180.02 40.8168L177.242 39.6832C176.486 41.5349 176.131 43.652 176.131 46H179.131ZM180.02 40.8168C180.612 39.3652 181.408 38.2072 182.393 37.307L180.369 35.093C179.02 36.3262 177.983 37.8681 177.242 39.6832L180.02 40.8168ZM182.41 37.2914C183.421 36.3383 184.587 35.6315 185.924 35.1667L184.938 32.3333C183.208 32.9352 181.674 33.8617 180.352 35.1086L182.41 37.2914ZM185.951 35.157C187.305 34.6566 188.777 34.4 190.381 34.4V31.4C188.451 31.4 186.624 31.71 184.911 32.343L185.951 35.157ZM190.381 34.4C194.29 34.4 197.015 35.4277 198.812 37.2525L200.95 35.1475C198.413 32.5723 194.805 31.4 190.381 31.4V34.4ZM198.812 37.2525C200.617 39.0852 201.631 41.836 201.631 45.75H204.631C204.631 41.3307 203.478 37.7148 200.95 35.1475L198.812 37.2525ZM201.631 45.75V48.55H204.631V45.75H201.631ZM203.131 47.05H184.381V50.05H203.131V47.05ZM182.881 48.5928C182.919 49.9026 183.145 51.1104 183.599 52.1845L186.362 51.0155C186.083 50.3563 185.91 49.5307 185.88 48.5072L182.881 48.5928ZM183.608 52.2041C184.05 53.2083 184.653 54.0764 185.434 54.7711L187.427 52.5289C187.009 52.1569 186.645 51.6583 186.354 50.9959L183.608 52.2041ZM185.434 54.7711C186.183 55.4365 187.038 55.9362 187.988 56.2667L188.974 53.4333C188.391 53.2304 187.879 52.9301 187.427 52.5289L185.434 54.7711ZM188.061 56.29C188.992 56.5615 189.933 56.7 190.881 56.7V53.7C190.229 53.7 189.57 53.6052 188.901 53.41L188.061 56.29ZM190.881 56.7C192.682 56.7 194.278 56.4431 195.48 55.7493L193.981 53.1507C193.451 53.4569 192.479 53.7 190.881 53.7V56.7ZM195.48 55.7493C196.657 55.0703 197.498 54.0604 197.983 52.782L195.178 51.718C194.93 52.373 194.538 52.8297 193.981 53.1507L195.48 55.7493ZM196.581 53.75H202.631V50.75H196.581V53.75ZM201.158 51.9661C200.691 54.3888 199.574 56.1015 197.849 57.2519L199.513 59.7481C201.987 58.0985 203.504 55.6445 204.104 52.5339L201.158 51.9661ZM197.849 57.2519C196.046 58.4536 193.753 59.1 190.881 59.1V62.1C194.209 62.1 197.115 61.3464 199.513 59.7481L197.849 57.2519ZM190.631 36.8C189.732 36.8 188.838 36.9174 187.952 37.1486L188.709 40.0514C189.357 39.8826 189.996 39.8 190.631 39.8V36.8ZM187.936 37.1529C187.028 37.4005 186.2 37.7998 185.47 38.3585L187.292 40.7415C187.695 40.4336 188.167 40.1995 188.726 40.0471L187.936 37.1529ZM185.47 38.3585C184.697 38.9497 184.093 39.7223 183.639 40.6292L186.322 41.9708C186.602 41.411 186.932 41.017 187.292 40.7415L185.47 38.3585ZM183.639 40.6292C183.154 41.5998 182.92 42.7066 182.882 43.9016L185.88 43.9984C185.908 43.1267 186.074 42.4668 186.322 41.9708L183.639 40.6292ZM184.381 45.45H196.731V42.45H184.381V45.45ZM198.23 43.9046C198.193 42.6741 197.986 41.5468 197.546 40.5793L194.815 41.8207C195.042 42.3198 195.202 43.0259 195.232 43.9954L198.23 43.9046ZM197.569 40.632C197.18 39.6802 196.593 38.871 195.792 38.2585L193.97 40.6415C194.302 40.8956 194.582 41.2532 194.793 41.7679L197.569 40.632ZM195.827 38.2858C195.098 37.6939 194.25 37.3001 193.313 37.0873L192.648 40.0127C193.179 40.1332 193.597 40.3395 193.935 40.6142L195.827 38.2858ZM193.313 37.0873C192.46 36.8933 191.564 36.8 190.631 36.8V39.8C191.364 39.8 192.035 39.8733 192.648 40.0127L193.313 37.0873ZM207.885 33.5V32H206.385V33.5H207.885ZM214.485 33.5H215.985V32H214.485V33.5ZM214.485 50.5H212.985V55.2916L215.717 51.3553L214.485 50.5ZM226.285 33.5V32H225.5L225.053 32.6447L226.285 33.5ZM232.385 33.5H233.885V32H232.385V33.5ZM232.385 60V61.5H233.885V60H232.385ZM225.785 60H224.285V61.5H225.785V60ZM225.785 43H227.285V38.2084L224.553 42.1447L225.785 43ZM213.985 60V61.5H214.77L215.217 60.8553L213.985 60ZM207.885 60H206.385V61.5H207.885V60ZM213.635 28.85L212.602 29.9375L212.608 29.9439L212.615 29.9501L213.635 28.85ZM211.635 23.25V21.75H210.135V23.25H211.635ZM217.485 23.25H218.985V21.75H217.485V23.25ZM218.135 26L216.971 26.9459L217.003 26.9858L217.038 27.0235L218.135 26ZM222.185 26L221.056 25.0122L221.051 25.0176L222.185 26ZM222.885 23.25V21.75H221.385V23.25H222.885ZM228.635 23.25H230.135V21.75H228.635V23.25ZM226.585 28.85L225.565 27.7499L225.558 27.7561L225.552 27.7625L226.585 28.85ZM207.885 35H214.485V32H207.885V35ZM212.985 33.5V50.5H215.985V33.5H212.985ZM215.717 51.3553L227.517 34.3553L225.053 32.6447L213.253 49.6447L215.717 51.3553ZM226.285 35H232.385V32H226.285V35ZM230.885 33.5V60H233.885V33.5H230.885ZM232.385 58.5H225.785V61.5H232.385V58.5ZM227.285 60V43H224.285V60H227.285ZM224.553 42.1447L212.753 59.1447L215.217 60.8553L227.017 43.8553L224.553 42.1447ZM213.985 58.5H207.885V61.5H213.985V58.5ZM209.385 60V33.5H206.385V60H209.385ZM220.135 29.25C217.333 29.25 215.619 28.644 214.654 27.7499L212.615 29.9501C214.384 31.5893 217.003 32.25 220.135 32.25V29.25ZM214.668 27.7625C213.724 26.8658 213.135 25.4513 213.135 23.25H210.135C210.135 25.982 210.879 28.3008 212.602 29.9375L214.668 27.7625ZM211.635 24.75H217.485V21.75H211.635V24.75ZM215.985 23.25C215.985 24.628 216.197 25.9935 216.971 26.9459L219.299 25.0541C219.206 24.9399 218.985 24.472 218.985 23.25H215.985ZM217.038 27.0235C217.86 27.9042 218.97 28.25 220.135 28.25V25.25C219.566 25.25 219.343 25.0958 219.231 24.9765L217.038 27.0235ZM220.135 28.25C221.318 28.25 222.498 27.929 223.318 26.9824L221.051 25.0176C221.005 25.071 220.818 25.25 220.135 25.25V28.25ZM223.314 26.9878C224.152 26.0302 224.385 24.644 224.385 23.25H221.385C221.385 24.456 221.151 24.9032 221.056 25.0122L223.314 26.9878ZM222.885 24.75H228.635V21.75H222.885V24.75ZM227.135 23.25C227.135 25.4408 226.535 26.8509 225.565 27.7499L227.604 29.9501C229.368 28.3158 230.135 25.9925 230.135 23.25H227.135ZM225.552 27.7625C224.626 28.6422 222.941 29.25 220.135 29.25V32.25C223.262 32.25 225.877 31.5912 227.618 29.9375L225.552 27.7625Z" fill="#F19900"/>
</svg>
