<svg width="56" height="55" viewBox="0 0 56 55" fill="none" xmlns="http://www.w3.org/2000/svg">
<g id="&#232;&#174;&#190;&#232;&#174;&#161;&#232;&#175;&#190;&#231;&#168;&#139;www.birckej.cn  App Store">
<path id="Vector" d="M28.0006 4.58203C15.3736 4.58203 5.08398 14.8716 5.08398 27.4987C5.08398 40.1258 15.3736 50.4154 28.0006 50.4154C40.6277 50.4154 50.9173 40.1258 50.9173 27.4987C50.9173 14.8716 40.6277 4.58203 28.0006 4.58203ZM20.2548 36.0924L19.0631 38.2008C18.7652 38.7737 18.1694 39.0716 17.5736 39.0716C17.2986 39.0716 17.0007 39.0029 16.7257 38.8654C15.9007 38.3841 15.6257 37.3299 16.084 36.5049L17.2756 34.3966C17.734 33.5716 18.7881 33.2966 19.6131 33.7549C20.4381 34.2362 20.7361 35.2674 20.2548 36.0924ZM15.9694 32.1279C15.0298 32.1279 14.2507 31.3487 14.2507 30.4091C14.2507 29.4695 15.0298 28.6904 15.9694 28.6904H20.5298L26.0298 19.0654L24.2194 15.9029C23.7381 15.0779 24.0361 14.0237 24.8611 13.5654C25.6861 13.0841 26.7402 13.382 27.1986 14.207L28.0006 15.6049L28.8027 14.207C29.2611 13.382 30.3152 13.0841 31.1402 13.5654C31.9652 14.0237 32.2632 15.0779 31.7819 15.9029L24.4944 28.6904H29.9027C30.8652 28.6904 31.6215 29.4695 31.6215 30.4091C31.6215 31.3487 30.8652 32.1279 29.9027 32.1279H15.9694ZM40.0319 32.1279H37.534L39.9402 36.5279C40.3986 37.3758 40.0777 38.407 39.2527 38.8654C38.9777 39.0029 38.7027 39.0716 38.4277 39.0716C37.809 39.0716 37.2361 38.7508 36.9152 38.1779L29.1236 23.9008C28.6652 23.0758 28.9632 22.0216 29.8111 21.5633C30.6361 21.1049 31.6902 21.4258 32.1486 22.2508L35.6548 28.6904H40.0319C40.9944 28.6904 41.7506 29.4695 41.7506 30.4091C41.7506 31.3487 40.9944 32.1279 40.0319 32.1279Z" fill="white"/>
</g>
</svg>
