<svg width="56" height="55" viewBox="0 0 56 55" fill="none" xmlns="http://www.w3.org/2000/svg">
<g id="huawei_app_gallery">
<path id="bg" fill-rule="evenodd" clip-rule="evenodd" d="M17.4406 3.4375C7.55371 3.4375 3.9375 7.05308 3.9375 16.9379V38.0621C3.9375 47.9469 7.55371 51.5625 17.4406 51.5625H38.553C48.4396 51.5625 52.0625 47.9469 52.0625 38.0621V16.9379C52.0625 7.05308 48.4463 3.4375 38.5594 3.4375H17.4406Z" fill="white"/>
<path id="vector" fill-rule="evenodd" clip-rule="evenodd" d="M24.9299 31.349H26.8619L25.8926 29.0948L24.9299 31.349ZM24.4541 32.485L23.8809 33.7966H22.5758L25.3511 27.5004H26.479L29.243 33.7966H27.9032L27.3373 32.485H24.4541ZM45.4544 33.792H46.7157V27.5H45.4544V33.792ZM40.4342 31.0891H42.7592V29.9418H40.4342V28.6523H43.8093V27.5046H39.1732V33.7963H43.9308V32.6486H40.4342V31.0891ZM35.4225 31.8325L33.9925 27.5H32.9489L31.5189 31.8325L30.1272 27.5035H28.7665L30.9627 33.8001H32.0206L33.4529 29.6641L34.8852 33.8001H35.9524L38.1428 27.5035H36.8172L35.4225 31.8325ZM20.6504 31.1065C20.6504 32.1307 20.1417 32.678 19.2181 32.678C18.2894 32.678 17.778 32.1149 17.778 31.0628V27.5043H16.4997V31.1065C16.4997 32.8784 17.4844 33.8945 19.2007 33.8945C20.9339 33.8945 21.9276 32.859 21.9276 31.0539V27.5004H20.6504V31.1065ZM13.4498 27.5004H14.7274V33.8005H13.4498V31.2419H10.5635V33.8005H9.28516V27.5004H10.5635V30.0416H13.4498V27.5004Z" fill="#F19900"/>
<path id="vector_2" fill-rule="evenodd" clip-rule="evenodd" d="M27.9993 19.4798C23.5762 19.4798 19.9785 15.8817 19.9785 11.459H21.1115C21.1115 15.2567 24.2017 18.3465 27.9993 18.3465C31.797 18.3465 34.8872 15.2567 34.8872 11.459H36.0202C36.0202 15.8817 32.4221 19.4798 27.9993 19.4798Z" fill="#F19900"/>
</g>
</svg>
