<svg width="60" height="60" viewBox="0 0 60 60" fill="none" xmlns="http://www.w3.org/2000/svg">
<circle cx="30" cy="30" r="29.5" fill="url(#paint0_radial_567_2703)" stroke="#E8E8EE"/>
<path d="M33.2503 35.4163H28.917M25.667 35.4163H23.5003M19.179 27.833C19.167 28.4581 19.167 29.1725 19.167 29.9997C19.167 33.0333 19.167 34.5501 19.7574 35.7088C20.2767 36.728 21.1053 37.5566 22.1245 38.076C23.2832 38.6663 24.8 38.6663 27.8337 38.6663H32.167C35.2006 38.6663 36.7174 38.6663 37.8761 38.076C38.8953 37.5566 39.724 36.728 40.2433 35.7088C40.8337 34.5501 40.8337 33.0333 40.8337 29.9997C40.8337 29.1725 40.8337 28.4581 40.8217 27.833M19.179 27.833C19.2109 26.1655 19.328 25.1333 19.7574 24.2906C20.2767 23.2713 21.1053 22.4427 22.1245 21.9234C23.2832 21.333 24.8 21.333 27.8337 21.333H32.167C35.2006 21.333 36.7174 21.333 37.8761 21.9234C38.8953 22.4427 39.724 23.2713 40.2433 24.2906C40.6727 25.1333 40.7898 26.1655 40.8217 27.833M19.179 27.833H40.8217" stroke="#040403" stroke-width="1.5" stroke-linecap="round"/>
<defs>
<radialGradient id="paint0_radial_567_2703" cx="0" cy="0" r="1" gradientUnits="userSpaceOnUse" gradientTransform="translate(30 30) rotate(90) scale(30)">
<stop stop-color="#FFAE20"/>
<stop offset="0.947917" stop-color="#F6F6F9" stop-opacity="0.68"/>
</radialGradient>
</defs>
</svg>
