<svg width="60" height="60" viewBox="0 0 60 60" fill="none" xmlns="http://www.w3.org/2000/svg">
<circle cx="30" cy="30" r="29.5" fill="url(#paint0_radial_567_2702)" stroke="#E8E8EE"/>
<path d="M28.5808 23.4814L27.8653 23.2564L28.5808 23.4814ZM26.2846 27.3349L26.7348 26.7351L26.2846 27.3349ZM26.8266 29.0583L27.5421 29.2833L26.8266 29.0583ZM29.1229 30.7816L28.6727 30.1818L29.1229 30.7816ZM30.877 30.7816L31.3272 30.1818L30.877 30.7816ZM33.1732 29.0583L32.4578 29.2833L33.1732 29.0583ZM33.7153 27.3349L33.2651 26.7351L33.7153 27.3349ZM31.4191 23.4814L32.1345 23.2564L31.4191 23.4814ZM27.6955 36.3166L27.046 35.9416L27.6955 36.3166ZM25.7926 39.6126L26.4421 39.9876L25.7926 39.6126ZM18.9829 35.681L18.3334 35.306H18.3334L18.9829 35.681ZM20.8858 32.385L21.5353 32.76L20.8858 32.385ZM23.7523 39.4378L23.0426 39.6804L23.0426 39.6804L23.7523 39.4378ZM23.4881 38.6651L24.1978 38.4225L23.4881 38.6651ZM20.9557 37.203L20.8109 36.4671H20.8109L20.9557 37.203ZM20.1544 37.3606L20.2991 38.0965H20.2991L20.1544 37.3606ZM22.6788 37.1426L23.0538 36.4931L22.6788 37.1426ZM18.3841 37.372L17.769 37.8011L18.3841 37.372ZM28.245 35.3426L27.6458 34.8915L27.6098 34.9393L27.5819 34.9922L28.245 35.3426ZM32.0028 36.3166L32.6523 35.9416L32.0028 36.3166ZM33.9057 39.6126L34.5553 39.2376L33.9057 39.6126ZM40.7155 35.681L41.365 35.306L40.7155 35.681ZM38.8125 32.385L38.163 32.76H38.163L38.8125 32.385ZM35.9461 39.4378L36.6558 39.6804L36.6558 39.6804L35.9461 39.4378ZM36.2103 38.6651L35.5006 38.4225H35.5006L36.2103 38.6651ZM38.7427 37.203L38.8874 36.4671L38.7427 37.203ZM39.544 37.3606L39.3992 38.0965H39.3992L39.544 37.3606ZM41.3142 37.372L41.9294 37.8011L41.3142 37.372ZM31.4486 35.3337H30.6986V35.5192L30.7851 35.6833L31.4486 35.3337ZM28.313 35.2523L28.4582 34.5164L28.313 35.2523ZM31.4486 35.2958L31.3242 34.5562L31.4486 35.2958ZM37.7052 30.721L37.0388 30.3769V30.3769L37.7052 30.721ZM21.8549 30.865L21.2912 30.3702L21.8549 30.865ZM22.0833 26.7497C22.0833 22.3774 25.6277 18.833 29.9999 18.833V17.333C24.7993 17.333 20.5833 21.549 20.5833 26.7497H22.0833ZM29.9999 18.833C34.3722 18.833 37.9166 22.3774 37.9166 26.7497H39.4166C39.4166 21.549 35.2006 17.333 29.9999 17.333V18.833ZM27.1616 25.2965C28.1489 25.2965 29.0022 24.6411 29.2962 23.7065L27.8653 23.2564C27.7598 23.5919 27.4673 23.7965 27.1616 23.7965V25.2965ZM26.7348 26.7351C26.0982 26.2573 26.4909 25.2965 27.1616 25.2965V23.7965C24.9414 23.7965 24.1321 26.6572 25.8344 27.9348L26.7348 26.7351ZM27.5421 29.2833C27.8349 28.3523 27.5183 27.3232 26.7348 26.7351L25.8344 27.9348C26.0968 28.1317 26.2179 28.4941 26.1112 28.8333L27.5421 29.2833ZM28.6727 30.1818C28.3851 30.3976 28.0675 30.3684 27.8189 30.1818C27.5667 29.9925 27.4224 29.6636 27.5421 29.2833L26.1112 28.8333C25.7841 29.8731 26.2032 30.8447 26.9185 31.3815C27.6373 31.9209 28.6912 32.0433 29.573 31.3815L28.6727 30.1818ZM31.3272 30.1818C30.5375 29.5891 29.4624 29.5891 28.6727 30.1818L29.573 31.3815C29.8293 31.1892 30.1706 31.1892 30.4268 31.3815L31.3272 30.1818ZM32.4578 29.2833C32.5774 29.6636 32.4332 29.9925 32.181 30.1818C31.9323 30.3684 31.6148 30.3976 31.3272 30.1818L30.4268 31.3815C31.3087 32.0433 32.3626 31.9209 33.0814 31.3815C33.7966 30.8447 34.2157 29.8731 33.8887 28.8333L32.4578 29.2833ZM33.2651 26.7351C32.4815 27.3232 32.165 28.3523 32.4578 29.2833L33.8887 28.8333C33.782 28.4941 33.9031 28.1317 34.1655 27.9348L33.2651 26.7351ZM32.8382 25.2965C33.509 25.2965 33.9017 26.2573 33.2651 26.7351L34.1655 27.9348C35.8678 26.6572 35.0585 23.7965 32.8382 23.7965V25.2965ZM30.7036 23.7065C30.9976 24.6411 31.851 25.2965 32.8382 25.2965V23.7965C32.5326 23.7965 32.2401 23.5919 32.1345 23.2564L30.7036 23.7065ZM32.1345 23.2564C31.4677 21.1363 28.5322 21.1363 27.8653 23.2564L29.2962 23.7065C29.5228 22.9863 30.4771 22.9863 30.7036 23.7065L32.1345 23.2564ZM27.046 35.9416L25.1431 39.2376L26.4421 39.9876L28.3451 36.6916L27.046 35.9416ZM19.6324 36.056L21.5353 32.76L20.2363 32.01L18.3334 35.306L19.6324 36.056ZM24.4619 39.1952L24.1978 38.4225L22.7784 38.9077L23.0426 39.6804L24.4619 39.1952ZM20.8109 36.4671L20.0096 36.6247L20.2991 38.0965L21.1004 37.9389L20.8109 36.4671ZM24.1978 38.4225C24.0543 38.0028 23.9253 37.621 23.7798 37.3235C23.6252 37.0075 23.4126 36.7002 23.0538 36.4931L22.3038 37.7921C22.3049 37.7928 22.3472 37.8085 22.4323 37.9826C22.5266 38.1754 22.6223 38.4509 22.7784 38.9077L24.1978 38.4225ZM21.1004 37.9389C21.5741 37.8457 21.8605 37.7908 22.0746 37.7761C22.2679 37.7628 22.3027 37.7915 22.3038 37.7921L23.0538 36.4931C22.695 36.2859 22.3227 36.2555 21.9717 36.2796C21.6413 36.3023 21.2462 36.3815 20.8109 36.4671L21.1004 37.9389ZM18.3334 35.306C18.0774 35.7493 17.842 36.1533 17.7089 36.4843C17.5828 36.7977 17.4334 37.3199 17.769 37.8011L18.9993 36.9429C19.1283 37.128 19.0098 37.2696 19.1005 37.044C19.1842 36.836 19.3515 36.5426 19.6324 36.056L18.3334 35.306ZM20.0096 36.6247C19.4632 36.7322 19.1372 36.7943 18.9185 36.8052C18.6833 36.8169 18.8661 36.752 18.9993 36.9429L17.769 37.8011C18.1087 38.2882 18.6553 38.3201 18.993 38.3033C19.3472 38.2857 19.8031 38.1941 20.2991 38.0965L20.0096 36.6247ZM25.1431 39.2376C24.8622 39.7242 24.6917 40.0157 24.5533 40.1922C24.4034 40.3836 24.4668 40.2101 24.6915 40.2294L24.5635 41.7239C25.148 41.774 25.5255 41.3834 25.7339 41.1175C25.954 40.8368 26.1862 40.4309 26.4421 39.9876L25.1431 39.2376ZM23.0426 39.6804C23.2061 40.1588 23.3547 40.5994 23.5165 40.915C23.6708 41.2158 23.9718 41.6732 24.5635 41.7239L24.6915 40.2294C24.9235 40.2492 24.9587 40.4399 24.8512 40.2304C24.7513 40.0356 24.6421 39.7222 24.4619 39.1952L23.0426 39.6804ZM21.5353 32.76C21.9966 31.961 22.2125 31.5944 22.4185 31.3598L21.2912 30.3702C20.9629 30.7442 20.6613 31.2739 20.2363 32.01L21.5353 32.76ZM28.3451 36.6916C28.5728 36.297 28.7616 35.9704 28.9082 35.6929L27.5819 34.9922C27.4514 35.2392 27.279 35.538 27.046 35.9416L28.3451 36.6916ZM31.3533 36.6916L33.2562 39.9876L34.5553 39.2376L32.6523 35.9416L31.3533 36.6916ZM41.365 35.306L39.462 32.01L38.163 32.76L40.0659 36.056L41.365 35.306ZM36.6558 39.6804L36.9199 38.9077L35.5006 38.4225L35.2364 39.1952L36.6558 39.6804ZM38.5979 37.9389L39.3992 38.0965L39.6887 36.6247L38.8874 36.4671L38.5979 37.9389ZM36.9199 38.9077C37.0761 38.4509 37.1717 38.1754 37.266 37.9826C37.3512 37.8085 37.3935 37.7928 37.3945 37.7921L36.6445 36.4931C36.2857 36.7002 36.0732 37.0075 35.9186 37.3235C35.7731 37.621 35.6441 38.0028 35.5006 38.4225L36.9199 38.9077ZM38.8874 36.4671C38.4522 36.3815 38.057 36.3023 37.7267 36.2796C37.3757 36.2555 37.0033 36.2859 36.6445 36.4931L37.3945 37.7921C37.3956 37.7915 37.4304 37.7628 37.6238 37.7761C37.8378 37.7908 38.1243 37.8457 38.5979 37.9389L38.8874 36.4671ZM40.0659 36.056C40.3469 36.5426 40.5141 36.836 40.5978 37.044C40.6886 37.2696 40.57 37.128 40.6991 36.9429L41.9294 37.8011C42.265 37.3199 42.1155 36.7977 41.9895 36.4843C41.8563 36.1533 41.6209 35.7493 41.365 35.306L40.0659 36.056ZM39.3992 38.0965C39.8953 38.1941 40.3511 38.2857 40.7053 38.3033C41.043 38.3201 41.5896 38.2882 41.9294 37.8011L40.6991 36.9429C40.8323 36.752 41.015 36.8169 40.7798 36.8052C40.5611 36.7943 40.2351 36.7322 39.6887 36.6247L39.3992 38.0965ZM33.2562 39.9876C33.5122 40.4309 33.7444 40.8368 33.9644 41.1175C34.1728 41.3834 34.5503 41.774 35.1348 41.7239L35.0068 40.2294C35.2316 40.2101 35.295 40.3836 35.145 40.1922C35.0067 40.0157 34.8362 39.7242 34.5553 39.2376L33.2562 39.9876ZM35.2364 39.1952C35.0563 39.7222 34.9471 40.0356 34.8472 40.2304C34.7397 40.4399 34.7749 40.2492 35.0068 40.2294L35.1348 41.7239C35.7266 41.6732 36.0275 41.2158 36.1818 40.915C36.3437 40.5994 36.4922 40.1588 36.6558 39.6804L35.2364 39.1952ZM32.6523 35.9416C32.4166 35.5333 32.243 35.2323 32.1121 34.984L30.7851 35.6833C30.9325 35.9631 31.123 36.2927 31.3533 36.6916L32.6523 35.9416ZM22.9017 30.2596C22.378 29.2027 22.0833 28.0117 22.0833 26.7497H20.5833C20.5833 28.2478 20.9337 29.6663 21.5577 30.9256L22.9017 30.2596ZM29.9999 34.6663C29.4717 34.6663 28.9563 34.6147 28.4582 34.5164L28.1679 35.9881C28.7611 36.1051 29.3737 36.1663 29.9999 36.1663V34.6663ZM28.4582 34.5164C26.0173 34.0349 23.9769 32.4294 22.9017 30.2596L21.5577 30.9256C22.8353 33.504 25.2599 35.4144 28.1679 35.9881L28.4582 34.5164ZM28.8442 35.7937L28.9122 35.7034L27.7138 34.8012L27.6458 34.8915L28.8442 35.7937ZM31.3242 34.5562C30.894 34.6286 30.4517 34.6663 29.9999 34.6663V36.1663C30.5354 36.1663 31.061 36.1216 31.5731 36.0354L31.3242 34.5562ZM32.1986 35.3337V35.2958H30.6986V35.3337H32.1986ZM37.9166 26.7497C37.9166 28.0585 37.5996 29.2911 37.0388 30.3769L38.3715 31.0652C39.0396 29.7716 39.4166 28.3035 39.4166 26.7497H37.9166ZM37.0388 30.3769C35.916 32.5509 33.8164 34.1368 31.3242 34.5562L31.5731 36.0354C34.5425 35.5357 37.0376 33.6482 38.3715 31.0652L37.0388 30.3769ZM39.462 32.01C38.9705 31.1585 38.6426 30.5748 38.2202 30.1758L37.1902 31.2663C37.4129 31.4767 37.6172 31.8146 38.163 32.76L39.462 32.01ZM22.4185 31.3598C22.4326 31.3437 22.4704 31.3103 22.563 31.2644L21.8964 29.9207C21.7095 30.0134 21.4829 30.1519 21.2912 30.3702L22.4185 31.3598Z" fill="#040403"/>
<defs>
<radialGradient id="paint0_radial_567_2702" cx="0" cy="0" r="1" gradientUnits="userSpaceOnUse" gradientTransform="translate(30 30) rotate(90) scale(30)">
<stop stop-color="#FFAE20"/>
<stop offset="0.947917" stop-color="#F6F6F9" stop-opacity="0.68"/>
</radialGradient>
</defs>
</svg>
