<svg width="60" height="60" viewBox="0 0 60 60" fill="none" xmlns="http://www.w3.org/2000/svg">
<circle cx="30" cy="30" r="29.5" fill="url(#paint0_radial_567_2705)" stroke="#E8E8EE"/>
<path d="M21.9231 20.9576L22.5913 21.298L21.9231 20.9576ZM24.2902 18.5904L24.6307 19.2586L24.2902 18.5904ZM24.2902 41.243L24.6307 40.5747L24.2902 41.243ZM21.9231 38.8758L22.5913 38.5353L21.9231 38.8758ZM38.0756 38.8758L37.4074 38.5353L38.0756 38.8758ZM35.7085 41.243L35.368 40.5747L35.7085 41.243ZM38.0756 20.9576L37.4074 21.298L38.0756 20.9576ZM35.7085 18.5904L35.368 19.2586L35.7085 18.5904ZM25.9995 37.1258C25.5853 37.1258 25.2495 37.4616 25.2495 37.8758C25.2495 38.29 25.5853 38.6258 25.9995 38.6258L25.9995 37.1258ZM33.9995 38.6258C34.4137 38.6258 34.7495 38.29 34.7495 37.8758C34.7495 37.4616 34.4137 37.1258 33.9995 37.1258L33.9995 38.6258ZM37.916 26.6667L37.916 33.1667L39.416 33.1667L39.416 26.6667L37.916 26.6667ZM22.0827 33.1667L22.0827 26.6667L20.5827 26.6667L20.5827 33.1667L22.0827 33.1667ZM22.0827 26.6667C22.0827 25.1375 22.0833 24.0357 22.154 23.1701C22.224 22.3132 22.359 21.754 22.5913 21.298L21.2548 20.6171C20.8968 21.3198 20.7366 22.0983 20.659 23.0479C20.5821 23.9888 20.5827 25.1622 20.5827 26.6667L22.0827 26.6667ZM29.9993 17.25C28.4949 17.25 27.3215 17.2494 26.3806 17.3263C25.431 17.4039 24.6524 17.5641 23.9497 17.9221L24.6307 19.2586C25.0867 19.0263 25.6459 18.8913 26.5028 18.8213C27.3684 18.7506 28.4702 18.75 29.9993 18.75L29.9993 17.25ZM22.5913 21.298C23.0387 20.42 23.7526 19.706 24.6307 19.2586L23.9497 17.9221C22.7894 18.5133 21.846 19.4567 21.2548 20.6171L22.5913 21.298ZM29.9993 41.0833C28.4702 41.0833 27.3684 41.0827 26.5028 41.012C25.6459 40.942 25.0867 40.807 24.6307 40.5747L23.9497 41.9112C24.6524 42.2692 25.431 42.4295 26.3806 42.507C27.3215 42.5839 28.4949 42.5833 29.9993 42.5833L29.9993 41.0833ZM20.5827 33.1667C20.5827 34.6711 20.5821 35.8445 20.659 36.7854C20.7366 37.735 20.8968 38.5136 21.2548 39.2163L22.5913 38.5353C22.359 38.0793 22.224 37.5201 22.154 36.6632C22.0833 35.7976 22.0827 34.6959 22.0827 33.1667L20.5827 33.1667ZM24.6307 40.5747C23.7526 40.1273 23.0387 39.4134 22.5913 38.5353L21.2548 39.2163C21.846 40.3766 22.7894 41.32 23.9497 41.9112L24.6307 40.5747ZM37.916 33.1667C37.916 34.6959 37.9154 35.7976 37.8447 36.6632C37.7747 37.5201 37.6397 38.0793 37.4074 38.5353L38.7439 39.2163C39.1019 38.5136 39.2621 37.735 39.3397 36.7854C39.4166 35.8445 39.416 34.6711 39.416 33.1667L37.916 33.1667ZM29.9993 42.5833C31.5038 42.5833 32.6772 42.5839 33.6181 42.507C34.5677 42.4295 35.3463 42.2692 36.049 41.9112L35.368 40.5747C34.912 40.807 34.3528 40.942 33.4959 41.012C32.6303 41.0828 31.5285 41.0833 29.9993 41.0833L29.9993 42.5833ZM37.4074 38.5353C36.96 39.4134 36.2461 40.1273 35.368 40.5747L36.049 41.9112C37.2093 41.32 38.1527 40.3766 38.7439 39.2163L37.4074 38.5353ZM39.416 26.6667C39.416 25.1622 39.4166 23.9888 39.3397 23.0479C39.2621 22.0983 39.1019 21.3198 38.7439 20.6171L37.4074 21.298C37.6397 21.754 37.7747 22.3132 37.8447 23.1701C37.9154 24.0357 37.916 25.1375 37.916 26.6667L39.416 26.6667ZM29.9993 18.75C31.5285 18.75 32.6303 18.7506 33.4959 18.8213C34.3528 18.8913 34.912 19.0263 35.368 19.2586L36.049 17.9221C35.3463 17.5641 34.5677 17.4039 33.6181 17.3263C32.6772 17.2494 31.5038 17.25 29.9993 17.25L29.9993 18.75ZM38.7439 20.6171C38.1527 19.4567 37.2093 18.5133 36.049 17.9221L35.368 19.2586C36.2461 19.706 36.96 20.42 37.4074 21.298L38.7439 20.6171ZM25.9995 38.6258L33.9995 38.6258L33.9995 37.1258L25.9995 37.1258L25.9995 38.6258Z" fill="#040403"/>
<path d="M31 21C31 21.5523 30.5523 22 30 22C29.4477 22 29 21.5523 29 21C29 20.4477 29.4477 20 30 20C30.5523 20 31 20.4477 31 21Z" fill="#040403"/>
<defs>
<radialGradient id="paint0_radial_567_2705" cx="0" cy="0" r="1" gradientUnits="userSpaceOnUse" gradientTransform="translate(30 30) rotate(90) scale(30)">
<stop stop-color="#FFAE20"/>
<stop offset="0.947917" stop-color="#F6F6F9" stop-opacity="0.68"/>
</radialGradient>
</defs>
</svg>
