<svg width="60" height="60" viewBox="0 0 60 60" fill="none" xmlns="http://www.w3.org/2000/svg">
<circle cx="30" cy="30" r="29.5" fill="url(#paint0_radial_567_2704)" stroke="#E8E8EE"/>
<path d="M28.9167 25.6663V29.458C28.9167 30.3555 29.6442 31.083 30.5417 31.083V31.083H32.1667M39.75 32.1663V27.833M35.2886 22.3232C34.7514 19.8973 32.5876 18.083 30.0001 18.083H27.8334C25.2459 18.083 23.0822 19.8973 22.5449 22.3231M35.2886 22.3232C35.0784 22.1749 34.857 22.0412 34.6258 21.9234C33.4671 21.333 31.9503 21.333 28.9167 21.333C25.883 21.333 24.3662 21.333 23.2076 21.9234C22.9764 22.0412 22.7551 22.1748 22.5449 22.3231M35.2886 22.3232C36.0051 22.8285 36.5915 23.5026 36.993 24.2906C37.5833 25.4492 37.5833 26.9661 37.5833 29.9997C37.5833 33.0333 37.5833 34.5501 36.993 35.7088C36.5914 36.4969 36.0049 37.1711 35.2883 37.6764M22.5449 22.3231C21.8284 22.8284 21.2419 23.5025 20.8404 24.2906C20.25 25.4492 20.25 26.9661 20.25 29.9997C20.25 33.0333 20.25 34.5501 20.8404 35.7088C21.2419 36.4967 21.8282 37.1708 22.5446 37.6761M22.5446 37.6761C23.0818 40.102 25.2456 41.9163 27.8332 41.9163H29.9998C32.5873 41.9163 34.751 40.1021 35.2883 37.6764M22.5446 37.6761C22.7548 37.8244 22.9763 37.9581 23.2076 38.076C24.3662 38.6663 25.883 38.6663 28.9167 38.6663C31.9503 38.6663 33.4671 38.6663 34.6258 38.076C34.8569 37.9582 35.0782 37.8245 35.2883 37.6764" stroke="#040403" stroke-width="1.5" stroke-linecap="round"/>
<defs>
<radialGradient id="paint0_radial_567_2704" cx="0" cy="0" r="1" gradientUnits="userSpaceOnUse" gradientTransform="translate(30 30) rotate(90) scale(30)">
<stop stop-color="#FFAE20"/>
<stop offset="0.947917" stop-color="#F6F6F9" stop-opacity="0.68"/>
</radialGradient>
</defs>
</svg>
