<svg width="60" height="60" viewBox="0 0 60 60" fill="none" xmlns="http://www.w3.org/2000/svg">
<path d="M0.5 0.5H30C46.2924 0.5 59.5 13.7076 59.5 30C59.5 46.2924 46.2924 59.5 30 59.5C13.7076 59.5 0.5 46.2924 0.5 30V0.5Z" fill="url(#paint0_radial_252_2132)"/>
<rect x="4" y="4" width="52" height="52" rx="26" fill="white"/>
<path d="M38.4425 27.6921C38.4622 27.823 38.8011 32.2878 38.4622 34.4826C38.1233 36.6773 37.207 40.0555 37.207 40.0555C37.7016 41.0416 38.4665 41.8666 39.4123 42.4342C40.3581 43.0019 41.4459 43.2889 42.5487 43.2616C46.4774 43.2329 49.0326 41.5868 48.5341 38.9886C48.5341 38.9886 47.7971 36.1717 46.255 35.9924C46.255 35.9924 47.2699 35.813 48.1521 34.3104C49.0343 32.8078 49.7659 31.9668 47.8617 29.8689C45.9574 27.771 44.8134 26.4208 44.8582 25.2266C44.8582 25.2266 42.8966 27.8696 40.5548 28.0579C38.213 28.2461 38.4425 27.6921 38.4425 27.6921Z" fill="#231F20"/>
<path d="M22.2477 35.1437C22.2477 35.1437 24.7419 40.003 25.4609 40.783C25.4609 40.783 24.4066 44.4104 21.8209 45.8144C19.2353 47.2184 12.339 50.7006 9.26918 44.2006C9.26918 44.2006 8.03911 41.3639 11.4084 38.8357C11.4084 38.8357 7.98532 37.0892 8.88367 33.5657C9.78201 30.0423 12.8769 28.0663 15.9341 26.3252C15.9341 26.3252 16.4936 20.087 18.0393 18.6148C18.0393 18.6148 19.4253 14.3114 26.5296 15.0627C27.7147 15.2298 28.8312 15.7192 29.7572 16.4775C29.7572 16.4775 30.4726 12.5093 33.7522 12.278C37.0318 12.0467 37.9696 12.7765 38.8321 15.762C38.8321 15.762 41.6204 13.8559 43.3722 15.0304C45.1241 16.2049 46.8724 18.0787 46.3147 21.7205C45.757 25.3623 42.6657 27.9856 40.5606 28.0591C38.4555 28.1326 36.2177 27.4477 35.7605 24.4102C35.7605 24.4102 35.834 25.278 34.7564 25.5039C33.4474 25.7783 32.3464 25.8321 31.7565 22.6601C31.7565 22.6601 27.9426 20.8257 25.1704 24.3205C25.1704 24.3205 23.7252 25.9468 23.3504 28.6706C22.9757 31.3943 22.7462 31.8982 22.0092 31.7852C21.7781 31.699 21.5681 31.5645 21.3931 31.3907C21.2181 31.217 21.0822 31.0079 20.9943 30.7775C20.6357 29.9508 19.3177 29.1153 18.4839 30.0244C17.6501 30.9335 17.5444 31.5862 18.2562 33.1946C18.9681 34.803 20.0959 35.0827 21.4246 35.0576L22.2477 35.1437Z" fill="#231F20"/>
<path d="M36.7263 40.929C36.2583 41.7526 35.6231 42.4691 34.8615 43.0323C34.0901 43.5877 33.1943 43.9454 32.2525 44.0741C31.5752 44.1709 30.8875 44.1709 30.2102 44.0741C30.0631 44.0454 29.9125 44.0275 29.7673 43.988L29.3315 43.8715C29.0452 43.7797 28.765 43.6701 28.4924 43.5433C27.9523 43.2909 27.4423 42.9788 26.9718 42.6127C26.0568 41.8741 25.2557 41.0046 24.5942 40.0324C24.0028 39.1879 23.4725 38.3023 23.0073 37.3822C22.7078 36.7977 22.4245 36.2042 22.1699 35.5999C22.0408 35.2969 21.9332 34.9867 21.8256 34.6782C21.718 34.3698 21.6463 34.0489 21.5548 33.7333C21.4544 33.3388 21.5333 33.3747 21.7503 33.6526C21.8597 33.796 22.0067 34.0004 22.1788 34.2497C22.3615 34.5372 22.5245 34.8367 22.6666 35.1462C23.17 36.3536 23.7547 37.5254 24.4166 38.6535C25.0625 39.7826 25.8614 40.8168 26.7907 41.7269C27.3565 42.2732 28.0122 42.7178 28.7291 43.0413C29.4488 43.3641 30.2235 43.5467 31.0117 43.5792C31.8757 43.6181 32.7379 43.4682 33.5382 43.1399C34.3363 42.7998 35.0379 42.2676 35.5805 41.5907C35.9232 41.1713 36.2235 40.719 36.477 40.2404C36.7256 39.7553 36.9395 39.2532 37.1172 38.7378C37.6353 37.155 37.9698 35.518 38.1142 33.8588C38.2415 32.5731 38.2666 31.3072 38.2935 30.0287C38.2935 29.7472 38.2935 29.4711 38.306 29.1878C38.3311 28.1334 38.3975 27.7963 38.5642 27.574C38.597 27.523 38.6342 27.475 38.6754 27.4305C38.7937 27.3373 38.8762 27.7694 38.8816 28.5404C38.8995 30.8267 38.8422 33.2653 38.4513 35.6949C38.3098 36.6044 38.1061 37.503 37.8416 38.3846C37.5752 39.2734 37.2082 40.1288 36.7478 40.9344L36.7263 40.929Z" fill="#231F20"/>
<path d="M23.7841 27.5636C23.6048 28.2432 23.4846 28.9443 23.3681 29.6562C23.3071 30.0148 23.2497 30.3734 23.1672 30.732C23.1267 30.9219 23.0734 31.1088 23.0077 31.2915C22.9357 31.5102 22.8128 31.7087 22.649 31.8706C22.5719 31.9416 22.4815 31.9965 22.383 32.0322C22.2845 32.0679 22.1799 32.0837 22.0752 32.0786C21.9858 32.0736 21.8974 32.0579 21.8117 32.032C21.7276 32.0072 21.6465 31.9736 21.5696 31.9316C21.4223 31.8456 21.2931 31.7317 21.1894 31.5963C21.104 31.482 21.0261 31.3622 20.9563 31.2377C20.8972 31.1391 20.8416 31.0476 20.777 30.9669C20.7125 30.8862 20.6426 30.8055 20.5762 30.7231C20.5099 30.6406 20.4274 30.5778 20.3521 30.5043C20.2768 30.4308 20.1871 30.3824 20.101 30.325C19.7606 30.1095 19.3513 30.0307 18.9552 30.1044C18.7658 30.1351 18.5868 30.212 18.4342 30.3284C18.2816 30.4447 18.16 30.5969 18.0802 30.7715C18.0452 30.8618 18.0229 30.9565 18.0139 31.053C18.0006 31.1582 17.9946 31.2643 17.9959 31.3704C17.9983 31.589 18.0211 31.8069 18.0641 32.0213C18.2034 32.7938 18.5943 33.4986 19.1758 34.0259C19.3583 34.1858 19.5594 34.323 19.7747 34.4348C19.9912 34.5425 20.2183 34.6273 20.4525 34.6876C20.9396 34.7862 21.4348 34.8397 21.9318 34.8472C22.2492 34.8472 22.233 34.9386 21.9694 35.1018C21.8916 35.1521 21.8107 35.1976 21.7274 35.2381C21.6214 35.2945 21.5088 35.3373 21.3921 35.3654C21.255 35.4071 21.1136 35.433 20.9707 35.4425C20.8926 35.4496 20.8139 35.4496 20.7358 35.4425C20.6533 35.439 20.5712 35.4294 20.4901 35.4138C19.8867 35.3079 19.3209 35.0479 18.8477 34.6589C18.3916 34.2668 18.0305 33.7764 17.7915 33.2244C17.5524 32.6844 17.422 32.1025 17.4078 31.512C17.405 31.3604 17.4127 31.2088 17.4311 31.0584C17.4487 30.8928 17.4892 30.7305 17.5512 30.576C17.6868 30.2631 17.9203 30.0026 18.2165 29.8337C18.5494 29.6385 18.932 29.5444 19.3174 29.5629C19.6946 29.5813 20.061 29.6948 20.3826 29.8928C20.6886 30.091 20.9605 30.3375 21.1877 30.6226C21.419 30.9167 21.5463 31.2377 21.7256 31.3937C21.7726 31.4374 21.8266 31.4732 21.8852 31.4995C21.9422 31.5248 22.0026 31.5418 22.0645 31.5497C22.1128 31.558 22.1624 31.5515 22.2069 31.531C22.2514 31.5105 22.2887 31.477 22.3137 31.4349C22.4005 31.3092 22.4653 31.1698 22.5056 31.0225C22.5573 30.857 22.5998 30.6888 22.6329 30.5186C22.771 29.8229 22.8606 29.0842 23.0005 28.3669C23.156 27.4681 23.4166 26.5906 23.7769 25.7526C24.0607 25.1126 24.4471 24.5232 24.9209 24.0079C25.4048 23.4939 25.98 23.0744 26.6172 22.7706C27.0977 22.5388 27.6014 22.3585 28.1198 22.2327C28.646 22.0951 29.1927 22.0538 29.7336 22.1108C29.9702 22.1304 30.2051 22.167 30.4365 22.2202C30.7472 22.2839 31.0457 22.3971 31.3205 22.5555C31.4551 22.6256 31.562 22.7394 31.6235 22.8782C31.6471 22.9256 31.6652 22.9755 31.6773 23.0271C31.6773 23.1723 31.3581 23.0504 30.7951 22.88C30.3714 22.7561 29.9343 22.6838 29.4933 22.6648C29.2732 22.6537 29.0526 22.6597 28.8335 22.6828C28.7257 22.6927 28.6186 22.7082 28.5125 22.7294C28.4085 22.7491 28.2919 22.7796 28.1808 22.8047C27.2905 23.01 26.462 23.4242 25.7637 24.0133C25.2542 24.4625 24.8333 25.0032 24.5228 25.6073C24.2084 26.2305 23.9677 26.8883 23.8056 27.5672L23.7841 27.5636Z" fill="#231F20"/>
<path d="M34.1335 26.0761C34.0188 26.091 33.9032 26.0988 33.7875 26.0994C33.6733 26.0944 33.5596 26.0831 33.4468 26.0653C33.3349 26.0467 33.2246 26.0198 33.1168 25.9847C33.063 25.9649 33.0075 25.9488 32.9555 25.9273L32.8012 25.8538C32.7269 25.8187 32.655 25.7785 32.5861 25.7336C32.5139 25.6949 32.4466 25.648 32.3852 25.5938C32.1727 25.4128 31.991 25.1984 31.8473 24.959C31.7005 24.7301 31.5802 24.4853 31.4887 24.2292C31.4073 24.0061 31.3431 23.7771 31.2968 23.5442C31.2216 23.2473 31.2142 22.9371 31.2753 22.6369C31.2968 22.5437 31.3811 22.5706 31.4654 22.6531C31.5115 22.6995 31.5502 22.7527 31.5801 22.8109C31.6201 22.8731 31.6453 22.9436 31.6537 23.0171C31.6909 23.2861 31.754 23.5509 31.8419 23.8078C31.919 24.07 32.0173 24.3255 32.136 24.5717C32.2931 24.8629 32.5213 25.1097 32.7995 25.2889C32.872 25.3397 32.9488 25.3841 33.029 25.4216C33.1074 25.462 33.1897 25.4945 33.2746 25.5184C33.3611 25.5438 33.4492 25.5636 33.5382 25.5776C33.628 25.5889 33.7184 25.5949 33.809 25.5955C34.0331 25.5944 34.2546 25.5474 34.4599 25.4575C34.7813 25.3152 35.0627 25.096 35.2793 24.8191C35.4425 24.5992 35.5747 24.3579 35.672 24.1019C35.6953 24.0481 35.7168 23.9925 35.7437 23.9369C35.7756 23.8622 35.8212 23.794 35.8782 23.7361C35.9262 23.702 35.9843 23.6849 36.0432 23.6877C36.0706 23.685 36.0982 23.685 36.1257 23.6877C36.1687 23.6877 36.1974 23.7218 36.2171 23.7773C36.2413 23.8496 36.245 23.9272 36.2279 24.0015C36.1727 24.2762 36.0695 24.539 35.923 24.7779C35.7711 25.0325 35.584 25.2643 35.3672 25.4664C35.1977 25.6227 35.0084 25.7559 34.8041 25.8627C34.5939 25.9703 34.3683 26.0447 34.1353 26.0833L34.1335 26.0761Z" fill="#231F20"/>
<path d="M46.6625 19.7095C46.7682 21.8228 46.103 23.9025 44.7905 25.5622C44.167 26.3239 43.4031 26.9588 42.5402 27.4324C42.1079 27.6637 41.6531 27.85 41.1828 27.9883C40.7123 28.132 40.2254 28.2152 39.7339 28.2357C39.2927 28.2505 38.8518 28.1973 38.4268 28.0779C38.0023 27.9534 37.6034 27.7542 37.2487 27.4898C36.7933 27.1589 36.4145 26.7338 36.1382 26.2433C35.8619 25.7529 35.6945 25.2087 35.6475 24.6477C35.6475 24.4684 35.6869 24.3823 35.712 24.3949C35.7371 24.4074 35.7622 24.4953 35.8178 24.6244C35.8929 24.8018 35.9791 24.9743 36.076 25.1408L36.4884 25.8186C36.5548 25.9298 36.6265 26.0338 36.7 26.1378C36.7735 26.2418 36.8453 26.3458 36.9242 26.4426C37.0816 26.639 37.2582 26.8191 37.4513 26.9805C37.833 27.2984 38.2837 27.5225 38.7675 27.635C39.0114 27.6892 39.26 27.7193 39.5098 27.7247C39.765 27.7254 40.0198 27.7056 40.2719 27.6655C40.7901 27.58 41.2964 27.4331 41.7799 27.228C42.374 26.9752 42.9228 26.627 43.4044 26.197C43.8973 25.7655 44.3314 25.2711 44.6955 24.7266C45.5141 23.534 45.9904 22.1399 46.0726 20.6957C46.1234 19.8096 45.9953 18.9223 45.696 18.0867C45.4673 17.4558 45.1292 16.8701 44.6973 16.3564C44.2729 15.8429 43.7442 15.4254 43.1462 15.1317C42.6888 14.933 42.1886 14.8528 41.692 14.8986C41.1932 14.9482 40.7054 15.0765 40.2468 15.2787C40.1446 15.32 40.0459 15.3702 39.9491 15.4204C39.8523 15.4706 39.7555 15.5226 39.6586 15.5782C39.2982 15.7772 39.0795 15.9207 38.9002 16.0103C38.773 16.0794 38.6335 16.1227 38.4895 16.1376C38.4391 16.1457 38.3882 16.1511 38.3371 16.1538C38.2726 16.1538 38.2923 16.0713 38.3784 15.9225C38.4329 15.8298 38.4972 15.7432 38.5702 15.6643C38.6706 15.5538 38.7811 15.453 38.9002 15.363C39.2969 15.0473 39.7387 14.7928 40.2109 14.6081C40.7018 14.409 41.2222 14.292 41.7512 14.2621C42.3104 14.229 42.8695 14.3285 43.3829 14.5525C43.8775 14.7849 44.3306 15.0968 44.7242 15.476C45.3024 16.0287 45.7682 16.6882 46.0959 17.4179C46.4166 18.1424 46.6118 18.9161 46.6733 19.7059L46.6625 19.7095Z" fill="#231F20"/>
<path d="M32.6924 12.0931C33.3886 11.8056 34.1404 11.6775 34.8926 11.7184C35.1641 11.7222 35.4348 11.7504 35.7012 11.8026C36.6481 11.9871 37.5073 12.4795 38.1452 13.203C38.423 13.5235 38.6471 13.8868 38.8087 14.2789C38.8517 14.4062 38.8912 14.5371 38.9342 14.6662C38.9772 14.7953 38.988 14.9316 39.0113 15.0661C39.0346 15.2006 39.0292 15.3368 39.031 15.4713C39.0251 15.6055 39.0065 15.7387 38.9755 15.8694C38.9396 16.0344 38.841 15.9949 38.7334 15.8532C38.5907 15.6684 38.4987 15.4497 38.4662 15.2185C38.4031 14.7591 38.2456 14.3177 38.0036 13.9221C37.7464 13.5226 37.4124 13.1783 37.021 12.909L36.8417 12.787C36.7789 12.7494 36.7108 12.7171 36.6444 12.683C36.5085 12.6145 36.3683 12.5546 36.2248 12.5037C35.9328 12.4102 35.6326 12.3441 35.3283 12.3065C34.6595 12.2173 33.9794 12.2705 33.3326 12.4625C32.933 12.5847 32.5523 12.7615 32.2011 12.9879C31.6598 13.33 31.1873 13.7703 30.8079 14.2861C30.5276 14.6876 30.3009 15.124 30.1337 15.5843C30.0924 15.6829 30.0709 15.7869 30.0332 15.8873C29.9831 16.0212 29.9232 16.1513 29.8539 16.2764C29.8115 16.3467 29.7444 16.3985 29.6657 16.4217C29.632 16.4354 29.5972 16.4462 29.5617 16.4539C29.4523 16.4683 29.4164 16.2746 29.4666 15.9662C29.6639 15.1139 30.0568 14.3191 30.6142 13.6447C31.1715 12.9703 31.8781 12.4348 32.6781 12.0806L32.6924 12.0931Z" fill="#231F20"/>
<path d="M14.3342 26.8941L14.994 26.5194C15.1994 26.4117 15.3982 26.292 15.5893 26.1608C15.6465 26.1164 15.6926 26.0593 15.7238 25.994C15.7619 25.9074 15.7866 25.8155 15.7973 25.7214C15.8081 25.6677 15.8135 25.6103 15.8206 25.5529L15.8404 25.3736L15.8816 24.9988C15.991 23.9965 16.1075 22.9834 16.3066 21.9792C16.444 21.2396 16.6407 20.5123 16.8947 19.8042C17.132 19.1799 17.428 18.5795 17.7787 18.0111C18.1402 17.4446 18.5708 16.9254 19.0608 16.4654C19.5511 16.0068 20.1034 15.6193 20.7015 15.3143C20.9974 15.1527 21.3021 15.0079 21.6142 14.8803C21.7702 14.8248 21.9279 14.7746 22.0857 14.7226L22.3224 14.6472L22.5645 14.5863C23.1367 14.427 23.7277 14.3449 24.3217 14.3424C24.909 14.3357 25.4955 14.3843 26.0736 14.4877C26.8148 14.6137 27.54 14.8205 28.2361 15.1045C28.588 15.2496 28.9244 15.4298 29.2402 15.6424C29.4023 15.7499 29.5558 15.8698 29.6993 16.001C29.8502 16.131 29.9845 16.2792 30.0991 16.4421C30.2408 16.6555 30.239 16.7882 30.1942 16.8008C30.1493 16.8133 30.0435 16.7272 29.8822 16.6214C29.6653 16.4865 29.4395 16.3667 29.2062 16.2628C29.0627 16.1983 28.9067 16.1301 28.7399 16.062C28.6557 16.0261 28.5606 15.9903 28.4799 15.9562L28.2128 15.8361C27.5579 15.5392 26.8724 15.3149 26.1686 15.1672C25.4693 15.0241 24.7555 14.9639 24.042 14.9879C23.6915 15.0003 23.3431 15.0478 23.002 15.1296L22.4766 15.2551L21.9638 15.4183C21.2837 15.6526 20.6397 15.9809 20.0506 16.3937C19.3395 16.909 18.7374 17.5598 18.279 18.3088C17.813 19.0814 17.4512 19.9122 17.2031 20.7797C16.9292 21.742 16.7331 22.7248 16.6168 23.7186C16.5522 24.217 16.4966 24.7209 16.4375 25.2248L16.3962 25.6031C16.3815 25.7407 16.3581 25.8773 16.3263 26.0119C16.2897 26.1666 16.2213 26.3119 16.1255 26.4387C16.0287 26.5558 15.9129 26.6558 15.783 26.7346C15.4997 26.9139 15.2361 27.0537 14.9653 27.2133L14.162 27.6885C13.6241 28.0094 13.1095 28.3448 12.6092 28.7034C11.8429 29.2344 11.1392 29.8504 10.5113 30.5395C10.2036 30.8819 9.93368 31.2565 9.70616 31.6566C9.47975 32.0475 9.31466 32.4708 9.21664 32.9118C9.0661 33.6 9.03215 34.3085 9.11623 35.0079C9.17843 35.6956 9.38234 36.3629 9.71512 36.9678C9.86703 37.2196 10.0475 37.4531 10.2531 37.6635C10.538 37.9422 10.8444 38.1982 11.1693 38.4292C11.3253 38.5396 11.4616 38.6754 11.5728 38.8308C11.6131 38.8812 11.6485 38.9352 11.6786 38.9922C11.7055 39.0675 11.6033 39.0693 11.3863 39.0083C11.058 38.9051 10.7473 38.7528 10.4646 38.5565C9.87657 38.165 9.39675 37.6316 9.0696 37.0054C8.76203 36.3643 8.57541 35.672 8.51912 34.9631C8.4457 34.2493 8.48259 33.5284 8.6285 32.8257C8.70435 32.4654 8.81732 32.1138 8.9656 31.7768C9.00326 31.6907 9.04629 31.6064 9.08753 31.5221L9.22202 31.2854C9.31138 31.1265 9.40956 30.9726 9.51609 30.8246C10.139 29.9673 10.8887 29.2097 11.7395 28.5779C12.5647 27.9555 13.4277 27.3848 14.3234 26.869L14.3342 26.8941Z" fill="#231F20"/>
<path d="M16.8218 48.2409C16.0627 48.3523 15.2939 48.3824 14.5284 48.3305C13.7547 48.2865 12.992 48.1269 12.2655 47.8571C11.7263 47.6627 11.2206 47.3857 10.7665 47.0359C10.3693 46.7186 10.025 46.3403 9.74619 45.9152C9.60712 45.7049 9.48193 45.4856 9.37144 45.2589C9.26767 45.0317 9.17843 44.7982 9.10426 44.5596C9.0306 44.3242 8.97073 44.0848 8.92495 43.8424C8.90062 43.7203 8.88267 43.597 8.87116 43.473C8.85681 43.3493 8.8353 43.2274 8.82812 43.1018V42.7289C8.82812 42.6661 8.82812 42.6034 8.82812 42.5496L8.84606 42.3702C8.85861 42.2447 8.86578 42.121 8.8855 41.9973L8.96261 41.6297C9.17499 40.7632 9.61658 39.9698 10.2411 39.3327C11.0318 38.542 12.0342 37.9072 13.1459 37.7548C13.4848 37.6849 13.4597 37.8014 13.223 37.9987C13.1656 38.0471 13.0939 38.1045 13.0132 38.1672L12.7371 38.3698C12.5267 38.5369 12.3037 38.6873 12.0701 38.8199C11.1651 39.2783 10.4164 39.9946 9.91833 40.8784C9.68185 41.321 9.52983 41.8038 9.47006 42.3021L9.44854 42.4904L9.43599 42.5854V42.6733V43.057C9.43599 43.1861 9.4593 43.3152 9.47006 43.4443L9.48799 43.6398L9.52385 43.8334C9.63017 44.4631 9.86982 45.0629 10.2267 45.5925C10.5905 46.1223 11.0676 46.5646 11.6236 46.8871L11.8513 47.0198L12.0916 47.1345C12.2476 47.217 12.4197 47.2708 12.5829 47.3389C12.9217 47.4576 13.2694 47.5488 13.6229 47.6115C14.3385 47.7401 15.0673 47.7792 15.7925 47.728C16.6934 47.6724 17.5849 47.5141 18.4499 47.2565C19.1065 47.0625 19.7454 46.813 20.3596 46.5105C20.9685 46.2014 21.5467 45.8352 22.0863 45.4167C22.9165 44.7876 23.6457 44.0354 24.2488 43.1861C24.317 43.0947 24.3779 43.0068 24.4281 42.9046C24.4783 42.8024 24.5483 42.7253 24.6074 42.6177C25.0234 41.8897 25.1454 41.6584 25.3803 41.5418C25.4287 41.5149 25.4789 41.4719 25.513 41.4576C25.547 41.4432 25.5865 41.5096 25.5918 41.6871C25.5977 41.7958 25.5831 41.9047 25.5488 42.008C25.512 42.1514 25.464 42.2917 25.4054 42.4276C24.9778 43.3472 24.3818 44.1786 23.6481 44.8788C23.2817 45.2382 22.893 45.5742 22.4844 45.8847C22.0732 46.1991 21.6445 46.49 21.2005 46.7562C19.8497 47.5195 18.3684 48.0242 16.8325 48.2445L16.8218 48.2409Z" fill="#231F20"/>
<path d="M48.5434 33.0934C48.6509 32.7711 48.6928 32.4305 48.6666 32.0918C48.6404 31.753 48.5467 31.4229 48.391 31.121C48.3331 31.0063 48.2678 30.8955 48.1955 30.7893C48.1149 30.687 48.0431 30.583 47.9589 30.4773C47.3779 29.7259 46.5943 29.0625 45.9972 28.209C45.8627 28.0189 45.7444 27.8199 45.6278 27.6352C45.5113 27.4505 45.3911 27.2586 45.28 27.0686C44.9676 26.5922 44.701 26.0872 44.4838 25.5606C44.4229 25.3813 44.5071 25.3813 44.6631 25.4619C44.8934 25.5922 45.0938 25.7694 45.2513 25.9819L45.7354 26.6992C45.8161 26.8175 45.8986 26.9341 45.9775 27.0578L46.2016 27.4254C46.2769 27.5527 46.3469 27.6639 46.4204 27.775C46.4939 27.8862 46.5728 27.9956 46.6553 28.1032C46.822 28.3201 47.0031 28.5335 47.1932 28.7487C47.6415 29.2669 48.2189 29.7295 48.6636 30.3499C48.9103 30.6955 49.0964 31.0806 49.214 31.4886C49.3293 31.9007 49.3604 32.3319 49.3055 32.7563C49.2312 33.2698 49.0425 33.7601 48.7532 34.1908C48.3208 34.8269 47.7349 35.3437 47.0498 35.6934C46.5345 35.979 45.9741 36.1743 45.3929 36.2708C45.2646 36.2947 45.1344 36.3079 45.0038 36.3102C44.8285 36.3181 44.6532 36.2926 44.4874 36.2349C44.4402 36.2152 44.3974 36.1861 44.3616 36.1494C44.3259 36.1128 44.2979 36.0693 44.2794 36.0215C44.2606 35.9834 44.245 35.9439 44.2328 35.9032C44.2131 35.7795 44.4121 35.7024 44.7223 35.6665C45.1833 35.6192 45.6374 35.52 46.0761 35.3706C46.5182 35.2153 46.9337 34.9927 47.308 34.7108C47.869 34.3105 48.2929 33.747 48.5219 33.097L48.5434 33.0934Z" fill="#231F20"/>
<path d="M44.1 43.0146C44.5664 42.9808 45.0277 42.8954 45.4753 42.76C45.9185 42.6316 46.3411 42.4408 46.7305 42.1933C46.8718 42.1042 47.005 42.0028 47.1286 41.8903L47.3079 41.7253C47.3688 41.6697 47.4208 41.6052 47.4872 41.546C47.8947 41.1318 48.1727 40.6078 48.2869 40.038C48.3818 39.4526 48.32 38.8525 48.1076 38.2987C47.9144 37.7964 47.6216 37.3384 47.2469 36.9521C47.0125 36.7068 46.7458 36.4945 46.4544 36.3209C46.3142 36.2349 46.1666 36.1616 46.0132 36.1022C45.8632 36.0485 45.7073 36.013 45.5488 35.9964C45.3695 35.9964 45.3372 35.9229 45.5255 35.7884C45.5828 35.7542 45.6427 35.7248 45.7048 35.7005C45.7885 35.6742 45.8754 35.6591 45.963 35.6557C46.1793 35.646 46.3949 35.6872 46.5924 35.7758C46.7798 35.8573 46.9567 35.9608 47.1196 36.0842C47.2804 36.203 47.4332 36.3324 47.5768 36.4715C47.8605 36.7492 48.1076 37.0619 48.312 37.4022C48.5192 37.7435 48.6791 38.1115 48.7872 38.496C48.8934 38.8876 48.9322 39.2945 48.9019 39.6991C48.8698 40.1895 48.7408 40.6686 48.5223 41.1087C48.3037 41.5489 48.0001 41.9413 47.6288 42.2633C47.2355 42.6134 46.7872 42.8963 46.3019 43.1006C45.8278 43.3065 45.3305 43.454 44.8208 43.54C44.2012 43.6475 43.5714 43.6848 42.9435 43.6511C42.4702 43.6291 41.9995 43.5691 41.5359 43.4718C41.0729 43.3781 40.6179 43.2486 40.1749 43.0845C39.4769 42.848 38.8267 42.4892 38.2545 42.0248C38.1285 41.9208 38.0088 41.8094 37.8959 41.6913C37.7422 41.5364 37.6145 41.3578 37.5175 41.1623C37.4668 41.0616 37.4578 40.945 37.4924 40.8377C37.5021 40.7948 37.5172 40.7532 37.5372 40.714C37.6143 40.6046 37.8062 40.7606 38.0859 41.0475C38.2971 41.2603 38.5249 41.4558 38.7673 41.6321C39.0086 41.8154 39.2633 41.9802 39.5294 42.1252C40.0816 42.4163 40.6684 42.6362 41.2759 42.7797C41.7352 42.8928 42.2029 42.9684 42.6745 43.0056C42.9112 43.0325 43.1479 43.0271 43.3917 43.0361C43.6356 43.0451 43.8669 43.0271 44.1 42.9966V43.0146Z" fill="#231F20"/>
<path d="M34.3418 42.752C34.0262 44.0071 34.2289 45.126 32.6169 45.5008C29.2512 46.2844 27.9548 43.6395 27.7109 42.9133C27.7109 42.9133 29.9702 44.2779 32.4842 43.835C34.9981 43.3921 34.3418 42.752 34.3418 42.752Z" fill="#231F20"/>
<path d="M27.9242 33.7898C27.9964 33.858 28.0757 33.9181 28.1609 33.9692C28.2368 34.0091 28.3176 34.0393 28.4011 34.0588C28.5722 34.085 28.7467 34.0445 28.8889 33.9458C28.9966 33.8582 29.0831 33.7472 29.1417 33.6213C29.2675 33.3601 29.3476 33.0793 29.3784 32.7911C29.4157 32.4853 29.4331 32.1775 29.4304 31.8694C29.4304 31.5915 29.4053 31.3118 29.3784 31.0356C29.317 30.6805 29.3007 30.319 29.33 29.9598C29.3497 29.8432 29.4196 29.8665 29.5093 29.9598C29.5573 30.0158 29.6004 30.0758 29.6384 30.1391C29.687 30.2201 29.7176 30.3106 29.728 30.4045C29.8213 31.1217 29.9307 31.8623 29.85 32.6279C29.8231 32.8556 29.7998 33.0905 29.7514 33.3308C29.7081 33.5845 29.6175 33.8279 29.4842 34.048C29.4005 34.1746 29.2956 34.2856 29.174 34.3762C28.9878 34.5074 28.7679 34.5825 28.5404 34.5926C28.3129 34.6028 28.0872 34.5476 27.8901 34.4336C27.6085 34.2589 27.3646 34.0296 27.1729 33.7594C26.8958 33.3754 26.6516 32.9687 26.4431 32.5436C26.2763 32.2245 26.097 31.9178 25.941 31.5969C25.9069 31.5269 25.8693 31.4606 25.8388 31.3889C25.7222 31.1217 25.7205 31.0303 25.8191 30.9155C25.8388 30.889 25.861 30.8643 25.8854 30.842C25.9679 30.7738 26.097 30.842 26.21 31.0338C26.5489 31.5718 26.8178 32.1671 27.1352 32.7212C27.3452 33.1214 27.6189 33.4848 27.9457 33.797L27.9242 33.7898Z" fill="#231F20"/>
<path d="M34.8911 32.8709L34.7961 33.0502C34.7784 33.0837 34.7587 33.1161 34.7369 33.147C34.7144 33.1818 34.6892 33.2148 34.6616 33.2457C34.5537 33.3773 34.4134 33.4787 34.2545 33.5397C34.1012 33.5996 33.9362 33.6236 33.7722 33.6097C33.6193 33.593 33.4705 33.5493 33.3329 33.4806C33.1393 33.3864 32.9708 33.2475 32.8416 33.0753C32.4999 32.5469 32.2275 31.9768 32.0311 31.379C31.9396 31.119 31.8518 30.8572 31.7818 30.5955C31.6756 30.2609 31.6153 29.9134 31.6025 29.5626C31.6025 29.4533 31.6922 29.4586 31.7944 29.5339C31.9246 29.6376 32.0193 29.7792 32.0652 29.9392C32.1512 30.2673 32.2552 30.5883 32.3682 30.9057C32.4812 31.223 32.5852 31.5458 32.7125 31.8632C32.7901 32.0555 32.8862 32.2398 32.9994 32.4137C33.055 32.5015 33.1123 32.593 33.1787 32.6719L33.2235 32.7364L33.2647 32.7866C33.2922 32.8194 33.3215 32.8506 33.3526 32.8799C33.6198 33.1435 34.0698 33.1919 34.2796 32.8942C34.315 32.8446 34.3457 32.7918 34.3711 32.7364C34.4013 32.6787 34.4271 32.6188 34.4482 32.5571C34.4739 32.4942 34.4949 32.4295 34.511 32.3635C34.5297 32.2974 34.5446 32.2304 34.5558 32.1626C34.6309 31.7379 34.6555 31.3057 34.6293 30.8752C34.615 30.5363 34.5486 30.2064 34.5199 29.8639C34.5199 29.7886 34.5038 29.715 34.5002 29.6379C34.5002 29.351 34.5558 29.256 34.6921 29.2058C34.7219 29.1913 34.7531 29.1799 34.7853 29.1717C34.8893 29.1538 34.9646 29.2704 35.0094 29.464C35.137 30.0815 35.1972 30.7109 35.1887 31.3414C35.1939 31.8642 35.1021 32.3834 34.918 32.8727L34.8911 32.8709Z" fill="#231F20"/>
<path d="M30.9813 31.213C30.8393 30.5003 30.7887 29.7724 30.8307 29.0469L30.8576 28.6471C30.8701 28.5144 30.8935 28.3799 30.915 28.249C30.9352 28.1271 30.9658 28.0071 31.0064 27.8904C31.0484 27.765 31.1044 27.6447 31.1732 27.5317C31.3062 27.3145 31.4761 27.1221 31.6752 26.9633C32.0565 26.6698 32.4914 26.4536 32.9555 26.3268C33.1688 26.2765 33.3873 26.2512 33.6064 26.2515C33.813 26.2463 34.0196 26.2547 34.225 26.2766C34.4913 26.3008 34.7544 26.3519 35.0104 26.429C35.0766 26.4473 35.1408 26.4719 35.2023 26.5025C35.2646 26.5298 35.3246 26.5622 35.3816 26.5993C35.5101 26.6714 35.6214 26.7705 35.7079 26.8898C35.8066 27.0691 35.7079 27.053 35.5681 27.0082C35.4282 26.9633 35.2095 26.9633 34.9459 26.9131C34.4739 26.8174 33.9929 26.7729 33.5114 26.7804C33.3992 26.7824 33.2872 26.7914 33.1761 26.8073L33.1115 26.8199L33.0255 26.8468C32.9681 26.8629 32.9107 26.8826 32.8461 26.9024C32.6182 26.9778 32.3989 27.077 32.1917 27.1982C31.9463 27.3376 31.7426 27.54 31.6017 27.7846C31.5344 27.9042 31.4843 28.0328 31.4529 28.1665C31.4224 28.3064 31.4045 28.4677 31.3758 28.6166C31.2877 29.2981 31.2955 29.9886 31.3991 30.6679C31.4615 31.0893 31.5538 31.5058 31.6752 31.9141C31.8543 32.5358 32.1103 33.1328 32.4373 33.6911C32.701 34.1037 33.0121 34.4841 33.3643 34.8243C33.4379 34.9014 33.5239 34.9606 33.601 35.0341C33.7072 35.126 33.8084 35.2236 33.9041 35.3264C33.9538 35.3861 33.9827 35.4603 33.9866 35.5379C33.9891 35.5708 33.9891 35.6037 33.9866 35.6366C33.974 35.7316 33.7947 35.6939 33.5078 35.5397C32.7045 35.0269 32.0733 34.1967 31.6573 33.3073C31.3398 32.6437 31.1038 31.9441 30.9544 31.2237L30.9813 31.213Z" fill="#231F20"/>
<path d="M29.022 27.8217C29.117 27.8504 29.1332 27.958 29.1045 28.0781C29.0955 28.1175 29.0184 28.1911 28.9897 28.1893C28.961 28.1875 28.8839 28.1785 28.8391 28.1677C28.823 28.1677 28.7261 28.1122 28.6096 28.0781C28.5088 28.0435 28.4039 28.0224 28.2976 28.0153C28.1667 28.0153 28.0448 27.9884 27.9157 27.9777C27.6451 27.9569 27.3729 27.9781 27.1088 28.0404C27.0497 28.0526 26.9897 28.0598 26.9294 28.062C26.7094 28.0802 26.495 28.1411 26.2983 28.2413C26.2611 28.2515 26.228 28.2728 26.2032 28.3022C25.9944 28.4297 25.7762 28.5412 25.5505 28.6357C25.3625 28.6942 25.179 28.7667 25.0019 28.8527C24.9768 28.8653 24.9552 28.8886 24.9212 28.8832C24.8885 28.88 24.8556 28.884 24.8246 28.8948C24.7936 28.9057 24.7654 28.9231 24.7419 28.946C24.6719 28.9908 24.602 29.0356 24.5285 29.0786C24.4851 29.0959 24.44 29.1085 24.394 29.1163C24.3528 29.1271 24.3061 29.0589 24.3097 29.0428C24.3187 28.9962 24.2667 28.9926 24.2398 28.9729C24.2301 28.966 24.2211 28.9582 24.2129 28.9495C24.2455 28.8547 24.2921 28.7653 24.351 28.6842C24.4077 28.5871 24.4738 28.4959 24.5482 28.4116L24.6504 28.3273C24.7096 28.2771 24.7903 28.2144 24.8745 28.148C25.0413 28.0207 25.2332 27.9024 25.2619 27.8737C25.3022 27.849 25.3465 27.8314 25.3928 27.8217C25.4035 27.8217 25.5398 27.7284 25.6868 27.6549C25.8339 27.5814 25.9809 27.5079 25.9934 27.5043C26.115 27.4477 26.2468 27.4166 26.3808 27.4129C26.4074 27.4138 26.4338 27.4082 26.4579 27.3967C26.6772 27.3311 26.9035 27.2914 27.1321 27.2784C27.2504 27.2784 27.367 27.2515 27.4907 27.2461C27.5125 27.2479 27.534 27.2515 27.5552 27.2569C27.5819 27.2622 27.6088 27.2658 27.6359 27.2676C27.9251 27.2683 28.2124 27.3137 28.4876 27.4021C28.6281 27.4724 28.7619 27.5552 28.8875 27.6495C28.9198 27.6621 28.9879 27.8091 29.022 27.8217Z" fill="#231F20"/>
<path d="M32.9185 37.2949C32.707 37.3326 31.5701 37.8329 30.4082 37.6033C30.4082 37.6033 31.1398 40.2213 31.909 40.1442C31.9072 40.1442 33.1301 40.3755 32.9185 37.2949Z" fill="#231F20"/>
<path d="M49.9847 18.2609C50.4331 17.8186 50.9341 17.4332 51.4766 17.1133C51.5122 17.0929 51.5424 17.0643 51.5646 17.0298C51.5867 16.9953 51.6002 16.9559 51.6039 16.9151C51.6076 16.8742 51.6014 16.8331 51.5858 16.7952C51.5702 16.7573 51.5456 16.7237 51.5142 16.6973C51.3529 16.57 51.1072 16.6417 50.9548 16.7403C50.3627 17.0981 49.8166 17.5268 49.3284 18.017C49.3009 18.0468 49.2813 18.0832 49.2716 18.1226C49.2619 18.1621 49.2624 18.2033 49.2729 18.2425C49.2835 18.2818 49.3038 18.3177 49.332 18.3469C49.3603 18.3761 49.3954 18.3977 49.4342 18.4097C49.5306 18.4407 49.6338 18.4432 49.7315 18.4168C49.8292 18.3904 49.9172 18.3362 49.9847 18.2609Z" fill="#231F20"/>
<path d="M12.2486 18.8546C11.8672 18.3824 11.3742 18.0126 10.8141 17.7787C10.7225 17.7482 10.6252 17.7389 10.5295 17.7516C10.4338 17.7644 10.3422 17.7988 10.2618 17.8522C10.1668 17.9132 10.0162 18.0818 10.1937 18.1553C10.7153 18.3724 11.174 18.7171 11.5278 19.1576C11.6963 19.3638 12.444 19.0913 12.245 18.8546H12.2486Z" fill="#231F20"/>
<path d="M0.5 0.5H30C46.2924 0.5 59.5 13.7076 59.5 30C59.5 46.2924 46.2924 59.5 30 59.5C13.7076 59.5 0.5 46.2924 0.5 30V0.5Z" stroke="#E2E2E2"/>
<defs>
<radialGradient id="paint0_radial_252_2132" cx="0" cy="0" r="1" gradientUnits="userSpaceOnUse" gradientTransform="translate(30 30) rotate(90) scale(30)">
<stop stop-color="#FFAE20"/>
<stop offset="0.947917" stop-color="white" stop-opacity="0.68"/>
</radialGradient>
</defs>
</svg>
