<svg width="55" height="55" viewBox="0 0 55 55" fill="none" xmlns="http://www.w3.org/2000/svg">
<path d="M27.5006 4.58203C14.8736 4.58203 4.58398 14.8716 4.58398 27.4987C4.58398 40.1258 14.8736 50.4154 27.5006 50.4154C40.1277 50.4154 50.4173 40.1258 50.4173 27.4987C50.4173 14.8716 40.1277 4.58203 27.5006 4.58203ZM19.7548 36.0924L18.5631 38.2008C18.2652 38.7737 17.6694 39.0716 17.0736 39.0716C16.7986 39.0716 16.5007 39.0029 16.2257 38.8654C15.4007 38.3841 15.1257 37.3299 15.584 36.5049L16.7756 34.3966C17.234 33.5716 18.2881 33.2966 19.1131 33.7549C19.9381 34.2362 20.2361 35.2674 19.7548 36.0924ZM15.4694 32.1279C14.5298 32.1279 13.7507 31.3487 13.7507 30.4091C13.7507 29.4695 14.5298 28.6904 15.4694 28.6904H20.0298L25.5298 19.0654L23.7194 15.9029C23.2381 15.0779 23.5361 14.0237 24.3611 13.5654C25.1861 13.0841 26.2402 13.382 26.6986 14.207L27.5006 15.6049L28.3027 14.207C28.7611 13.382 29.8152 13.0841 30.6402 13.5654C31.4652 14.0237 31.7632 15.0779 31.2819 15.9029L23.9944 28.6904H29.4027C30.3652 28.6904 31.1215 29.4695 31.1215 30.4091C31.1215 31.3487 30.3652 32.1279 29.4027 32.1279H15.4694ZM39.5319 32.1279H37.034L39.4402 36.5279C39.8986 37.3758 39.5777 38.407 38.7527 38.8654C38.4777 39.0029 38.2027 39.0716 37.9277 39.0716C37.309 39.0716 36.7361 38.7508 36.4152 38.1779L28.6236 23.9008C28.1652 23.0758 28.4632 22.0216 29.3111 21.5633C30.1361 21.1049 31.1902 21.4258 31.6486 22.2508L35.1548 28.6904H39.5319C40.4944 28.6904 41.2506 29.4695 41.2506 30.4091C41.2506 31.3487 40.4944 32.1279 39.5319 32.1279Z" fill="#F19900"/>
</svg>
