<svg width="55" height="55" viewBox="0 0 55 55" fill="none" xmlns="http://www.w3.org/2000/svg">
<path fill-rule="evenodd" clip-rule="evenodd" d="M16.9406 3.4375C7.05371 3.4375 3.4375 7.05308 3.4375 16.9379V38.0621C3.4375 47.9469 7.05371 51.5625 16.9406 51.5625H38.053C47.9396 51.5625 51.5625 47.9469 51.5625 38.0621V16.9379C51.5625 7.05308 47.9463 3.4375 38.0594 3.4375H16.9406Z" fill="#F19900"/>
<path fill-rule="evenodd" clip-rule="evenodd" d="M24.4299 31.349H26.3619L25.3926 29.0948L24.4299 31.349ZM23.9541 32.485L23.3809 33.7966H22.0758L24.8511 27.5004H25.979L28.743 33.7966H27.4032L26.8373 32.485H23.9541ZM44.9544 33.792H46.2157V27.5H44.9544V33.792ZM39.9342 31.0891H42.2592V29.9418H39.9342V28.6523H43.3093V27.5046H38.6732V33.7963H43.4308V32.6486H39.9342V31.0891ZM34.9225 31.8325L33.4925 27.5H32.4489L31.0189 31.8325L29.6272 27.5035H28.2665L30.4627 33.8001H31.5206L32.9529 29.6641L34.3852 33.8001H35.4524L37.6428 27.5035H36.3172L34.9225 31.8325ZM20.1504 31.1065C20.1504 32.1307 19.6417 32.678 18.7181 32.678C17.7894 32.678 17.278 32.1149 17.278 31.0628V27.5043H15.9997V31.1065C15.9997 32.8784 16.9844 33.8945 18.7007 33.8945C20.4339 33.8945 21.4276 32.859 21.4276 31.0539V27.5004H20.1504V31.1065ZM12.9498 27.5004H14.2274V33.8005H12.9498V31.2419H10.0635V33.8005H8.78516V27.5004H10.0635V30.0416H12.9498V27.5004Z" fill="white"/>
<path fill-rule="evenodd" clip-rule="evenodd" d="M27.4993 19.4798C23.0762 19.4798 19.4785 15.8817 19.4785 11.459H20.6115C20.6115 15.2567 23.7017 18.3465 27.4993 18.3465C31.297 18.3465 34.3872 15.2567 34.3872 11.459H35.5202C35.5202 15.8817 31.9221 19.4798 27.4993 19.4798Z" fill="white"/>
</svg>
