<svg width="125" height="125" viewBox="0 0 125 125" fill="none" xmlns="http://www.w3.org/2000/svg">
<path fill-rule="evenodd" clip-rule="evenodd" d="M6.50977 62.4993C6.50977 31.5772 31.5772 6.50977 62.4993 6.50977C93.4215 6.50977 118.489 31.5772 118.489 62.4993C118.489 78.3768 111.875 92.7161 101.262 102.901C91.206 112.552 77.5419 118.489 62.4993 118.489C47.4568 118.489 33.7927 112.552 23.7364 102.901C13.1238 92.7161 6.50977 78.3768 6.50977 62.4993ZM94.1823 98.7939C91.9373 92.0784 85.5924 87.2389 78.1243 87.2389H46.8743C39.4063 87.2389 33.0614 92.0784 30.8164 98.7939C39.2885 106.196 50.3672 110.676 62.4993 110.676C74.6315 110.676 85.7102 106.196 94.1823 98.7939ZM62.4993 22.1348C48.8361 22.1348 37.7598 33.2111 37.7598 46.8743C37.7598 60.5376 48.8361 71.6139 62.4993 71.6139C76.1626 71.6139 87.2389 60.5376 87.2389 46.8743C87.2389 33.2111 76.1626 22.1348 62.4993 22.1348Z" fill="#F7F4FF"/>
</svg>
