<svg width="90" height="100" viewBox="0 0 90 100" fill="none" xmlns="http://www.w3.org/2000/svg">
<g id="Document  Align Left 2">
<g id="Vector">
<path fill-rule="evenodd" clip-rule="evenodd" d="M10.3054 4.77457C10.8311 4.39262 11.3747 4.04123 11.9397 3.71794C12.1211 4.12212 12.3778 4.50075 12.7097 4.83265C19.1625 11.2852 24.2275 16.3421 28.6923 19.9156C33.2124 23.5333 37.4454 25.9079 42.3226 26.6804C45.3023 27.1523 48.3378 27.1523 51.3176 26.6804C56.0584 25.9295 60.1899 23.6651 64.5686 20.2167C68.8915 16.8122 73.7445 12.0139 79.8533 5.90937C80.0493 5.71351 80.2191 5.50135 80.3627 5.27725C82.2102 6.71628 83.8474 8.40861 85.2254 10.3054C90 16.877 90 26.2513 90 45V55C90 73.7486 90 83.123 85.2254 89.6946C83.6834 91.817 81.817 93.6834 79.6946 95.2254C73.123 100 63.7487 100 45 100C26.2513 100 16.877 100 10.3054 95.2254C8.183 93.6834 6.31657 91.817 4.77457 89.6946C0 83.123 0 73.7486 0 55V45C0 26.2513 0 16.877 4.77457 10.3054C6.31657 8.183 8.183 6.31656 10.3054 4.77457ZM25 36.25C22.9289 36.25 21.25 37.9289 21.25 40C21.25 42.0711 22.9289 43.75 25 43.75H40C42.0711 43.75 43.75 42.0711 43.75 40C43.75 37.9289 42.0711 36.25 40 36.25H25ZM25 56.25C22.9289 56.25 21.25 57.9289 21.25 60C21.25 62.0711 22.9289 63.75 25 63.75H65C67.0711 63.75 68.75 62.0711 68.75 60C68.75 57.9289 67.0711 56.25 65 56.25H25ZM25 76.25C22.9289 76.25 21.25 77.9289 21.25 80C21.25 82.0711 22.9289 83.75 25 83.75H40C42.0711 83.75 43.75 82.0711 43.75 80C43.75 77.9289 42.0711 76.25 40 76.25H25Z" fill="#FAFAFC"/>
<path d="M45 0C58.4997 0 67.1392 0 73.3719 1.78236C67.7701 7.36944 63.5799 11.4487 59.9283 14.3245C56.0806 17.3547 53.1312 18.7996 50.1443 19.2727C47.9419 19.6215 45.6983 19.6215 43.4958 19.2727C40.4232 18.7861 37.3909 17.2712 33.3788 14.0601C29.6432 11.0702 25.3451 6.85214 19.583 1.09838C25.5437 0 33.5121 0 45 0Z" fill="#FAFAFC"/>
</g>
</g>
</svg>
