<svg width="60" height="60" viewBox="0 0 60 60" fill="none" xmlns="http://www.w3.org/2000/svg">
<circle cx="30" cy="30" r="29.5" fill="url(#paint0_radial_552_2257)" stroke="#E2E2E2"/>
<path d="M21.925 20.9576L22.5933 21.298L21.925 20.9576ZM24.2922 18.5904L24.6327 19.2586L24.2922 18.5904ZM24.2922 41.243L24.6327 40.5747L24.2922 41.243ZM21.925 38.8758L22.5933 38.5353L21.925 38.8758ZM38.0776 38.8758L37.4093 38.5353L38.0776 38.8758ZM35.7104 41.243L35.3699 40.5747L35.7104 41.243ZM38.0776 20.9576L37.4093 21.298L38.0776 20.9576ZM35.7104 18.5904L35.3699 19.2586L35.7104 18.5904ZM26.0015 37.1258C25.5873 37.1258 25.2515 37.4616 25.2515 37.8758C25.2515 38.29 25.5873 38.6258 26.0015 38.6258L26.0015 37.1258ZM34.0015 38.6258C34.4157 38.6258 34.7515 38.29 34.7515 37.8758C34.7515 37.4616 34.4157 37.1258 34.0015 37.1258L34.0015 38.6258ZM37.918 26.6667L37.918 33.1667L39.418 33.1667L39.418 26.6667L37.918 26.6667ZM22.0846 33.1667L22.0846 26.6667L20.5846 26.6667L20.5846 33.1667L22.0846 33.1667ZM22.0846 26.6667C22.0846 25.1375 22.0852 24.0357 22.1559 23.1701C22.226 22.3132 22.3609 21.754 22.5933 21.298L21.2568 20.6171C20.8987 21.3198 20.7385 22.0983 20.6609 23.0479C20.5841 23.9888 20.5846 25.1622 20.5846 26.6667L22.0846 26.6667ZM30.0013 17.25C28.4969 17.25 27.3234 17.2494 26.3826 17.3263C25.433 17.4039 24.6544 17.5641 23.9517 17.9221L24.6327 19.2586C25.0887 19.0263 25.6479 18.8913 26.5047 18.8213C27.3703 18.7506 28.4721 18.75 30.0013 18.75L30.0013 17.25ZM22.5933 21.298C23.0407 20.42 23.7546 19.706 24.6327 19.2586L23.9517 17.9221C22.7914 18.5133 21.848 19.4567 21.2568 20.6171L22.5933 21.298ZM30.0013 41.0833C28.4721 41.0833 27.3703 41.0827 26.5047 41.012C25.6479 40.942 25.0887 40.807 24.6327 40.5747L23.9517 41.9112C24.6544 42.2692 25.4329 42.4295 26.3826 42.507C27.3234 42.5839 28.4969 42.5833 30.0013 42.5833L30.0013 41.0833ZM20.5846 33.1667C20.5846 34.6711 20.5841 35.8445 20.6609 36.7854C20.7385 37.735 20.8987 38.5136 21.2568 39.2163L22.5933 38.5353C22.3609 38.0793 22.2259 37.5201 22.1559 36.6632C22.0852 35.7976 22.0846 34.6959 22.0846 33.1667L20.5846 33.1667ZM24.6327 40.5747C23.7546 40.1273 23.0407 39.4134 22.5933 38.5353L21.2568 39.2163C21.848 40.3766 22.7914 41.32 23.9517 41.9112L24.6327 40.5747ZM37.918 33.1667C37.918 34.6959 37.9174 35.7976 37.8467 36.6632C37.7767 37.5201 37.6417 38.0793 37.4093 38.5353L38.7458 39.2163C39.1039 38.5136 39.2641 37.735 39.3417 36.7854C39.4186 35.8445 39.418 34.6711 39.418 33.1667L37.918 33.1667ZM30.0013 42.5833C31.5057 42.5833 32.6792 42.5839 33.62 42.507C34.5697 42.4295 35.3482 42.2692 36.0509 41.9112L35.3699 40.5747C34.9139 40.807 34.3547 40.942 33.4979 41.012C32.6323 41.0828 31.5305 41.0833 30.0013 41.0833L30.0013 42.5833ZM37.4093 38.5353C36.9619 39.4134 36.248 40.1273 35.3699 40.5747L36.0509 41.9112C37.2112 41.32 38.1546 40.3766 38.7458 39.2163L37.4093 38.5353ZM39.418 26.6667C39.418 25.1622 39.4186 23.9888 39.3417 23.0479C39.2641 22.0983 39.1039 21.3198 38.7458 20.6171L37.4093 21.298C37.6417 21.754 37.7767 22.3132 37.8467 23.1701C37.9174 24.0357 37.918 25.1375 37.918 26.6667L39.418 26.6667ZM30.0013 18.75C31.5305 18.75 32.6323 18.7506 33.4979 18.8213C34.3547 18.8913 34.9139 19.0263 35.3699 19.2586L36.0509 17.9221C35.3482 17.5641 34.5697 17.4039 33.62 17.3263C32.6792 17.2494 31.5057 17.25 30.0013 17.25L30.0013 18.75ZM38.7458 20.6171C38.1546 19.4567 37.2112 18.5133 36.0509 17.9221L35.3699 19.2586C36.248 19.706 36.9619 20.42 37.4093 21.298L38.7458 20.6171ZM26.0015 38.6258L34.0015 38.6258L34.0015 37.1258L26.0015 37.1258L26.0015 38.6258Z" fill="#040403"/>
<path d="M31 21C31 21.5523 30.5523 22 30 22C29.4477 22 29 21.5523 29 21C29 20.4477 29.4477 20 30 20C30.5523 20 31 20.4477 31 21Z" fill="#040403"/>
<defs>
<radialGradient id="paint0_radial_552_2257" cx="0" cy="0" r="1" gradientUnits="userSpaceOnUse" gradientTransform="translate(30 30) rotate(90) scale(30)">
<stop stop-color="  #FFAC1B
"/>
<stop offset="0.947917" stop-color="#F6F6F9" stop-opacity="0.68"/>
</radialGradient>
</defs>
</svg>
