<svg width="200" height="50" viewBox="0 0 200 50" fill="none" xmlns="http://www.w3.org/2000/svg">
<g id="logo">
<path id="path" d="M25 27.53C25 32.25 27.65 37 33.57 37C39.49 37 42.14 32.25 42.14 27.53C42.14 24.31 41.05 20.6 39.24 17.61C37.48 14.72 35.36 13 33.57 13C31.78 13 29.66 14.72 27.91 17.61C26.09 20.61 25 24.31 25 27.53ZM85.86 20.07H79.86V14.29H98.29V20.08H92.29V35.72H85.86V20.07ZM112 20.07H121.43V14.29H112C103.34 14.29 98.71 18.6 98.71 25C98.71 31.41 103.34 35.71 112 35.71H121.43V29.92H112C107.99 29.92 105.35 28.49 105.35 24.99C105.35 21.5 107.99 20.07 112 20.07ZM63.35 27.08L66.78 14.29H78.14V35.72H71.71V18.27L67.04 35.71H59.67L55 18.28V35.71H48.57V14.29H59.93L63.35 27.08ZM137.44 20.5H135.17V22.6H137.44C138.01 22.6 138.36 22.3 138.36 21.76V21.37C138.35 20.81 138.06 20.5 137.44 20.5ZM138.01 25H132.14V14.29H140.77V16.85H135.16V18.25H138C140.38 18.25 141.53 19.43 141.53 21.51C141.54 23.7 140.39 25 138.01 25ZM148.52 20.62H146.13L147.33 16.66L148.52 20.62ZM153.12 25L149.81 14.29H145.31L142 25H144.83L145.44 22.95H149.23L149.85 25H153.12ZM160.77 25V20.85H157.31V25H154.21V14.29H157.31V18.22H160.77V14.29H163.88V25H160.77ZM169.39 18.21H168.85V14.29H165.75V25H168.85V20.85H169.3L172.17 25H175.76L171.88 19.39L175.45 14.28H172.17L169.39 18.21Z" fill="#B1B3BB"/>
</g>
</svg>
