<svg width="200" height="50" viewBox="0 0 200 50" fill="none" xmlns="http://www.w3.org/2000/svg">
<path d="M58.1184 22.3659L58.7625 20.3431L56.6675 20.4094C55.6863 20.3732 54.7411 20.0421 53.9465 19.4582H54.2294C55.5057 19.4522 56.6736 18.7237 57.2394 17.5799L58.1605 15.6114C57.4381 15.6174 56.7157 15.5752 55.9993 15.4849C55.313 15.3224 54.699 14.9492 54.2354 14.4194C53.6093 13.7512 52.7425 13.3719 51.8274 13.3659C51.4722 13.3659 51.117 13.4261 50.7739 13.5344C50.8221 13.3719 50.8642 13.2094 50.8943 13.0408C51.0388 11.8669 50.7077 10.6809 49.9792 9.74782L48.3899 7.7913L47.4147 10.0789C47.2582 10.404 47.0234 10.687 46.7224 10.8916C46.5538 10.0729 46.1565 9.32642 45.5665 8.73645C44.5793 7.72508 43.2247 7.1592 41.81 7.17124C41.5632 7.17124 41.3164 7.1893 41.0756 7.22542L39.1732 7.59866C39.3358 6.96053 39.5946 6.35251 39.9438 5.79264L40.9913 4.1612L38.3545 4.40803L37.5117 2.60201L35.8863 3.48696L34.3813 2L32.8762 3.48696L31.2508 2.64415L30.408 4.40803L27.7712 4.10702L28.8187 5.74448C29.1679 6.30435 29.4267 6.91237 29.5893 7.5505L27.7833 7.19532H27.7231C27.4702 7.1592 27.2174 7.14114 26.9645 7.14114C25.5498 7.1291 24.1953 7.69498 23.208 8.70635C22.612 9.30234 22.2027 10.0609 22.0401 10.8916C21.7512 10.693 21.5164 10.4221 21.3599 10.103L20.3786 7.79732L18.7773 9.75986C18.0609 10.693 17.7418 11.8729 17.8803 13.0408C17.9104 13.2094 17.9525 13.3719 18.0007 13.5344C17.6575 13.4261 17.3023 13.3659 16.9472 13.3659C16.0321 13.3719 15.1652 13.7512 14.5391 14.4194C14.0816 14.9431 13.4736 15.3164 12.7933 15.4849C12.0709 15.5933 11.3365 15.6354 10.602 15.6114L11.499 17.61C12.0649 18.7538 13.2328 19.4823 14.509 19.4883H14.792C14.0094 20.0602 13.0763 20.3913 12.107 20.4334L10 20.3431L10.6441 22.3659C11.1258 23.9492 12.4923 25.111 14.1358 25.3217C13.9672 26.3873 13.293 27.3084 12.3298 27.79L10.7164 28.4461L11.5833 29.9572C12.2997 31.0709 13.5338 31.7331 14.8522 31.7211C15.1953 31.7211 15.5385 31.6849 15.8756 31.6127C15.9599 31.9799 16.0682 32.3471 16.1886 32.7023C16.4896 33.497 16.5077 34.3639 16.2488 35.1706L15.4662 36.814L17.2181 37.2776C17.6094 37.3799 18.0187 37.4281 18.4221 37.4281C18.711 37.4281 18.994 37.398 19.2769 37.3318C19.4816 37.2836 19.6863 37.2234 19.8789 37.1451C20.1017 37.5485 20.3846 37.9217 20.7037 38.2528C21.8234 39.4027 23.4127 39.9866 25.4294 39.9866H26.8682L23.9003 41.2207L26.1518 42.3344C27.0609 42.7799 27.988 43.1833 28.9331 43.5384L28.6622 44.3211L29.4388 44.6762C30.7271 45.1819 32.0936 45.4649 33.4783 45.513H35.3264C36.705 45.4649 38.0655 45.1759 39.3478 44.6702L40.1003 44.3211L39.8354 43.5384C40.7926 43.1712 41.7318 42.7558 42.6468 42.2923L44.8562 41.2207L41.8943 40.0167H43.3391C45.3558 40.0167 46.9512 39.4147 48.0649 38.2829C48.3899 37.9518 48.6669 37.5786 48.8896 37.1752C49.0823 37.2535 49.2869 37.3137 49.4916 37.3619C49.7746 37.4281 50.0575 37.4582 50.3465 37.4582C50.7498 37.4582 51.1592 37.404 51.5505 37.3077L53.3083 36.8441L52.5438 35.2308C52.2548 34.412 52.2669 33.515 52.5739 32.7023C52.7003 32.3351 52.8027 31.9619 52.8869 31.5886C53.2241 31.6609 53.5732 31.697 53.9164 31.697C55.2468 31.709 56.4869 31.0227 57.1913 29.891L58.0461 28.398L56.4568 27.7478C55.4936 27.2662 54.8194 26.3451 54.6508 25.2796C56.2943 25.0629 57.6609 23.907 58.1425 22.3177L58.1184 22.3659Z" fill="white"/>
<path d="M41.6176 28.7592H27.1694V34.1772C27.1694 36.4047 28.7768 37.7893 31.1547 37.7893C33.1413 37.7893 33.6651 37.8675 34.3995 38.602C34.8631 38.1023 35.5192 37.8194 36.2055 37.8314V37.7471L36.6631 36.3384L35.8865 35.4896C35.5734 35.5859 35.2483 35.6221 34.9233 35.604C34.4356 35.598 33.954 35.5498 33.4784 35.4535H33.3279C33.2617 35.4535 33.2617 35.4535 33.2437 35.4896L33.1534 35.6401L32.9908 35.911L32.6778 35.8388L31.2871 35.5137L31.0945 35.8267V35.8629L31.2631 36.0495L31.1908 36.2903C31.0644 36.5853 30.8838 36.8501 30.655 37.0789L30.3059 37.4522L29.9868 37.0548L29.752 36.7598C29.4992 36.4287 29.439 35.9953 29.5835 35.604L29.1922 35.7665L29.0176 35.3813L28.9213 35.1103C28.6744 34.5384 28.861 33.8762 29.3607 33.515L30.4804 32.913L31.546 33.1237C31.546 33.0214 31.6122 32.6542 31.6423 32.5639H31.5821L30.9801 32.7926L30.3781 32.3833C30.2577 32.2629 30.2517 32.0642 30.3781 31.9378L30.95 31.0709L29.4992 29.2649L31.6724 30.1197L31.8229 29.9391L32.1239 29.5779L32.4671 29.903C32.5574 29.9933 32.6176 30.1017 32.6477 30.2281C33.2497 30.4689 34.3634 31.1732 34.4537 32.317L34.1105 32.4555C34.1527 32.5157 34.2069 32.5639 34.2731 32.594L35.8624 32.7505L36.0069 32.7083C36.2778 32.606 36.5667 32.5518 36.8557 32.5458C37.1447 32.5458 37.4276 32.612 37.6865 32.7384C37.8008 32.6963 37.9273 32.6722 38.0477 32.6662H38.1259C38.9748 32.6662 39.4022 33.3043 39.7393 33.81L39.9139 34.0629C40.2089 34.4843 40.6002 35.0983 40.6182 35.1224L40.7928 35.3933L40.5761 35.6461C40.3774 35.911 40.0644 36.0615 39.7333 36.0615C39.637 36.0675 39.5406 36.0675 39.4443 36.0615C39.36 36.0435 39.2758 36.0194 39.1915 35.9833C39.1915 36.0675 39.1915 36.1699 39.1433 36.2542L38.8965 37.6749C40.534 37.3438 41.6898 35.8749 41.6236 34.2013L41.6176 28.7592ZM27.1514 28.3197H38.4029C37.9453 27.8381 37.7888 27.1458 37.9935 26.5137C37.843 26.4415 37.6985 26.3451 37.5721 26.2368C37.1326 26.5619 35.7661 27.5371 35.441 27.7839L35.3688 27.8321L30.95 27.0495H30.8597C30.7152 27.0555 30.5708 27.0555 30.4263 27.0495C30.3841 27.2481 30.2096 27.3866 30.0109 27.3866H29.9387C29.7039 27.3445 29.5413 27.1217 29.5775 26.8869V26.7906C29.0055 26.3813 28.7346 25.6709 28.8851 24.9846V24.9063L28.9514 24.8582C28.9514 24.8582 29.0356 24.798 29.15 24.7318L28.831 24.6836C28.7106 24.6595 28.6323 24.5512 28.6504 24.4308C28.6684 24.3104 28.7768 24.2321 28.8972 24.2502H28.9032L29.6678 24.3706L29.74 21.6796L30.8778 20.4756L31.5882 21.9685L30.8417 24.5572L31.5159 24.6655C31.6363 24.6896 31.7146 24.798 31.6965 24.9184C31.6785 25.0267 31.5882 25.099 31.4798 25.099H31.4437L30.8958 25.0087V25.0508C30.956 25.1592 31.0464 25.2435 31.1607 25.2976L34.5259 25.3518L35.3868 24.503C34.7306 24.2742 34.2611 23.6963 34.1828 23.004C33.7614 22.8415 33.4183 22.5284 33.2256 22.1251C33.0631 21.7458 33.033 21.3184 33.1474 20.9211C32.6176 20.7104 32.136 20.3913 31.7447 19.9819H26.748C26.9888 20.5719 27.1273 21.198 27.1514 21.8301V28.3197Z" fill="#FCE527"/>
<path d="M65.9863 23.6722H70.9468V32.1003H74.5588V23.6722H79.5194V20.614H65.9863V23.6722ZM84.2873 27.2843V20.6622H80.7957V32.1003H83.878L89.898 25.406V32.1003H93.3897V20.614H90.3074L84.2873 27.2843ZM105.015 24.8762H99.4037V20.6622H95.912V32.1003H99.4037V27.814H105.015V32.1003H108.506V20.6622H105.015V24.8762ZM120.685 23.9853C119.86 23.7324 118.993 23.6301 118.132 23.6722H114.52V20.6622H111.029V32.1003L118.108 32.0522C118.849 32.0642 119.583 31.9799 120.3 31.7873C122.118 31.3418 123.37 29.6863 123.31 27.814C123.382 26.0983 122.316 24.5331 120.685 23.9853ZM118.903 29.1625C118.463 29.313 117.994 29.3732 117.53 29.3311H114.52V26.4174H117.53C117.982 26.3873 118.439 26.4415 118.879 26.5619C119.433 26.7244 119.806 27.2361 119.794 27.814C119.8 28.404 119.451 28.9398 118.903 29.1625ZM137.938 20.6622H133.556L129.342 24.9726H128.379V20.6622H124.887V32.1003H128.379V27.7659H129.342L133.508 32.1003H138.155L132.352 26.0803L137.938 20.6622Z" fill="#222220"/>
<path d="M145.452 20.301C140.732 20.301 137.914 22.9498 137.914 26.3692C137.914 29.7886 140.756 32.4374 145.427 32.4374C150.099 32.4374 152.916 29.7886 152.916 26.3692C152.916 22.9498 150.171 20.301 145.452 20.301ZM145.427 29.6441C143.092 29.6441 141.599 28.2475 141.599 26.3692C141.599 24.491 143.116 23.1184 145.427 23.1184C147.739 23.1184 149.256 24.491 149.256 26.3692C149.256 28.2475 147.763 29.6441 145.427 29.6441ZM164.421 21.1197V19.9639H160.929V21.1197C156.546 21.216 153.922 23.0702 153.922 26.3451C153.922 29.6201 156.546 31.3298 160.929 31.4261V32.5819H164.421V31.4261C168.827 31.3298 171.452 29.6201 171.452 26.3451C171.452 23.0702 168.833 21.216 164.421 21.1197ZM160.929 28.9699C158.521 28.8736 157.461 27.8863 157.461 26.3451C157.461 24.804 158.521 23.6963 160.929 23.6V28.9699ZM164.421 28.9699V23.6C166.853 23.6963 167.888 24.804 167.888 26.3451H167.894C167.894 27.8863 166.859 28.8736 164.421 28.9699ZM182.968 21.1197V19.9639H179.477V21.1197C175.094 21.216 172.469 23.0702 172.469 26.3451C172.469 29.6201 175.094 31.3298 179.477 31.4261V32.5819H182.968V31.4261C187.375 31.3298 190 29.6201 190 26.3451C190 23.0702 187.375 21.216 182.968 21.1197ZM179.477 28.9699C177.069 28.8736 176.009 27.8863 176.009 26.3451C176.009 24.804 177.069 23.6963 179.477 23.6V28.9699ZM186.43 26.3451C186.43 27.8863 185.401 28.8736 182.968 28.9699V23.6C185.401 23.6963 186.436 24.804 186.436 26.3451H186.43ZM31.7683 31.1251C31.696 31.1251 31.6298 31.1793 31.6238 31.2515V31.2575C31.6178 31.3358 31.678 31.408 31.7562 31.414H31.7622C31.8465 31.414 31.9067 31.3478 31.9067 31.2696C31.9067 31.1853 31.8465 31.1251 31.7683 31.1251ZM31.7623 31.119C31.7683 31.119 31.7683 31.1251 31.7683 31.1251C31.7743 31.1251 31.7743 31.119 31.7803 31.119H31.7623ZM41.599 40.992L40.7682 40.6729L40.997 39.812L41.2498 38.8729C40.112 39.4568 38.9201 39.9264 37.692 40.2756C37.09 40.4441 36.6565 40.5224 36.6565 40.5224V41.1304C35.9161 41.2508 35.1696 41.317 34.4171 41.3231H34.3508C33.5983 41.317 32.8518 41.2508 32.1114 41.1304V40.5284C32.1114 40.5284 31.6719 40.4441 31.0699 40.2756C29.8418 39.9264 28.6498 39.4568 27.512 38.8729L27.7589 39.812L27.9936 40.6729L27.1569 40.992L26.2539 41.3351C27.494 41.9792 28.7883 42.515 30.1248 42.9364L29.8057 43.8033C31.2565 44.3572 32.8097 44.6281 34.3629 44.592H34.399C35.9522 44.6281 37.5054 44.3572 38.9562 43.8033L38.6431 42.9364C39.9736 42.515 41.2679 41.9792 42.508 41.3351L41.599 40.992ZM27.2592 41.3893L28.6077 40.9378L28.2044 39.6134C29.0893 40.0528 30.0044 40.4201 30.9495 40.709L30.2873 42.515C29.2458 42.2381 28.2284 41.8589 27.2592 41.3893ZM34.4171 44.1645L34.387 44.1405C33.0625 44.1344 31.7441 43.9538 30.4679 43.6047L31.2806 41.4013C32.292 41.6542 33.3334 41.7926 34.3809 41.7986H34.4472C35.4947 41.7866 36.5361 41.6542 37.5475 41.4013L38.3602 43.6047C37.0779 43.9659 35.7475 44.1525 34.4171 44.1645ZM38.5227 42.5512V42.5331L37.8605 40.7271C38.8057 40.4381 39.7207 40.0709 40.6057 39.6314L40.2023 40.9558L41.5689 41.4134C40.5936 41.889 39.5702 42.2742 38.5227 42.5512ZM34.3809 6.62943C35.7414 6.59331 37.0779 7.00267 38.1855 7.7913C38.3601 6.90033 38.6912 6.04548 39.1668 5.26889L37.8003 5.42541L37.0899 3.90234L35.7113 4.61271L34.3809 3.29431L33.0504 4.61271L31.6718 3.90234L30.9615 5.42541L29.5949 5.26889C30.0705 6.04548 30.4016 6.90033 30.5762 7.7913C31.6839 7.00267 33.0203 6.59331 34.3809 6.62943ZM30.9013 5.95518L31.2805 5.99732L31.4431 5.65418L31.9187 4.63077L32.8036 5.08829L33.1468 5.26287L33.4237 5.01003L34.3809 4.0408L35.3381 5.01003L35.615 5.28093L35.9581 5.10635L36.8371 4.64883L37.3187 5.67224L37.4812 6.01538L37.8605 5.97324L38.2217 5.9311C38.0772 6.2622 37.9508 6.60535 37.8484 6.95451C35.6752 5.8408 33.0926 5.8408 30.9193 6.95451C30.817 6.60535 30.6906 6.2622 30.5461 5.9311L30.9013 5.95518ZM52.2365 19.0548L52.0739 18.8562C50.9542 17.4294 49.8886 16.0749 47.9863 15.4548C48.0646 15.3886 48.1428 15.3284 48.2271 15.2742C49.1301 14.7625 49.7682 13.8836 49.9729 12.8662C50.0753 11.9451 49.8164 11.0241 49.2505 10.2896L48.6485 9.53712L48.2692 10.4341C48.2692 10.4883 47.601 11.9271 46.2525 11.9271H45.8552C45.9274 10.9819 45.5843 10.0488 44.9161 9.37458C44.1034 8.54381 42.9836 8.08027 41.8218 8.08629C41.605 8.08629 41.3883 8.10435 41.1776 8.13445L40.2565 8.31505L40.8284 9.06756C41.2739 9.66956 41.6773 10.711 41.2017 11.2709C40.9729 11.4696 40.7141 11.6261 40.4311 11.7344C39.8291 12.0174 38.9622 12.4207 38.9622 13.4321C38.9622 14.0883 39.4739 14.7746 40.395 15.3585C43.11 17.0803 44.7896 18.8562 45.5181 20.8548C46.6438 23.901 45.1749 25.6348 43.7482 26.5498L43.11 26.9592L43.6699 27.4709C44.1696 27.8983 44.7836 28.1632 45.4398 28.2294H45.9876C46.5475 28.2294 47.1014 28.1512 47.6371 27.9886C47.5047 28.2234 47.3422 28.4461 47.1676 28.6508C46.3549 29.596 45.1508 30.1137 43.9047 30.0475H43.3689L43.3268 30.5833C43.3208 31.3358 43.6519 32.0461 44.2238 32.5338C44.3743 32.6662 44.5428 32.7746 44.7234 32.8588C43.8325 33.7257 43.3268 34.9117 43.3087 36.1578C43.3087 36.8381 43.1522 37.5124 42.8572 38.1264L42.2552 39.0294H43.3268C45.0967 39.0294 46.4512 38.5418 47.3903 37.5726C47.8779 37.0609 48.2391 36.4408 48.4498 35.7665C48.799 36.0615 49.2084 36.2662 49.6539 36.3685C49.8646 36.4167 50.0813 36.4408 50.298 36.4408C50.6231 36.4408 50.9482 36.3986 51.2612 36.3264L51.9475 36.1458L51.6465 35.5077C51.2672 34.4903 51.2672 33.3645 51.6465 32.3471C51.8692 31.6849 52.0258 30.9986 52.11 30.3003C52.6518 30.5772 53.2539 30.7157 53.8619 30.7097C54.8612 30.7217 55.7943 30.2281 56.3361 29.3913L56.6672 28.7893L56.0652 28.5364C54.0485 27.6997 53.603 25.4482 53.5127 24.2321C53.7114 24.2742 53.91 24.2983 54.1147 24.3043L54.2833 24.4187C56.4746 24.4187 57.209 22.1853 57.2391 22.089L57.486 21.3003H56.6612C54.9274 21.2401 53.308 20.4214 52.2365 19.0548ZM54.2893 23.8107H54.205C53.7656 23.8167 53.3321 23.6963 52.9589 23.4676C52.9589 23.4676 52.6398 27.8201 55.8846 29.1686V29.1866C55.4572 29.8368 54.7228 30.2221 53.9462 30.21C53.0672 30.2642 52.2184 29.891 51.6646 29.2107C51.6826 30.2341 51.5141 31.2575 51.1709 32.2207C50.7314 33.3826 50.7314 34.6709 51.1709 35.8328C50.9 35.899 50.6291 35.9351 50.3522 35.9351C50.1836 35.9351 50.009 35.917 49.8465 35.8749C49.0458 35.6823 48.4077 35.0923 48.1488 34.3157C48.1488 34.3157 48.2753 38.4936 43.405 38.4936H43.3689C43.7361 37.7953 43.9288 37.0187 43.9228 36.2301C44.1335 33.1418 46.2284 32.7023 46.2284 32.7023C45.6505 32.6301 45.1027 32.4254 44.6211 32.1003C44.1816 31.7331 43.9288 31.1913 43.9167 30.6194C45.3254 30.6796 46.686 30.0956 47.607 29.0241C48.1609 28.392 48.5281 27.6214 48.6846 26.7966C47.908 27.3806 46.9508 27.6756 45.9816 27.6334H45.488C44.9642 27.5793 44.4646 27.3746 44.0612 27.0314C45.9154 25.8274 47.2157 23.7686 46.0659 20.6441C45.1388 18.1398 42.9174 16.2676 40.684 14.8589C39.9435 14.4013 39.498 13.8836 39.498 13.4381C39.498 12.3906 40.985 12.3605 41.599 11.6321C42.3034 10.8134 41.8639 9.48896 41.2498 8.69431C41.4244 8.66421 41.605 8.65217 41.7796 8.65217C42.785 8.64013 43.7542 9.04348 44.4525 9.76588C45.1629 10.4401 45.4338 11.4575 45.1629 12.3967L45.488 12.4629C45.6866 12.499 45.8853 12.5171 46.09 12.5231H46.2224C47.9863 12.5231 48.7809 10.6749 48.7809 10.6749C48.7809 10.6749 50.6592 12.9866 47.896 14.7926C47.4204 15.0997 47.2097 15.3946 47.294 15.6956L47.3361 15.8943L47.5348 15.9304C49.5395 16.4722 50.5448 17.8569 51.791 19.4281C52.9709 20.9271 54.7529 21.8301 56.6612 21.8963H56.6973C56.6973 21.8963 56.0953 23.8107 54.2893 23.8107Z" fill="#222220"/>
<path d="M50.4249 15.7257C51.0991 16.111 51.6831 16.6348 52.1406 17.2609C52.4838 17.7906 52.9714 18.212 53.5493 18.4649C53.766 18.5371 54.0008 18.5732 54.2296 18.5732C55.1506 18.5732 55.9935 18.0495 56.4149 17.2308L56.764 16.4482L55.9152 16.4C55.0001 16.2314 54.1754 15.7619 53.5674 15.0575C53.1159 14.5699 52.4838 14.2869 51.8155 14.2809C51.2978 14.2869 50.7981 14.4435 50.3647 14.7204L49.5821 15.2682L50.4249 15.7257ZM51.8336 14.8649L51.8155 14.8709C52.3272 14.8709 52.8088 15.0936 53.152 15.4729C53.8563 16.2796 54.8195 16.8154 55.8791 16.99C55.554 17.598 54.9219 17.9772 54.2296 17.9833C54.061 17.9833 53.8925 17.9532 53.7299 17.899C52.7547 17.5679 52.4115 16.093 50.7199 15.202C51.051 14.9853 51.4363 14.8709 51.8336 14.8649ZM50.8222 23.4856L50.8102 23.4736C50.3166 19.5003 47.4329 16.6288 44.2243 14.889C43.9293 14.7264 43.6523 14.594 43.3875 14.4676C44.7119 14.7385 46.0905 14.4134 47.156 13.5826C47.156 13.5826 45.2958 14.9492 41.4911 13.709C42.5447 14.3953 44.5915 15.3585 46.4637 16.9237C51.1353 21.0294 47.7942 25.0388 47.7942 25.0388C49.1908 23.7144 49.6784 21.6916 49.0523 19.8736C50.0396 21.517 50.5152 23.4194 50.4129 25.3338C50.2804 28.4883 48.5286 31.2455 46.7226 33.4428C46.1808 34.1351 45.8075 34.9478 45.651 35.8147C45.958 34.9538 46.4216 34.1592 47.0236 33.4729C48.9801 31.1793 50.6356 28.8013 50.8704 25.3759C51.0751 25.9779 51.9059 27.7298 53.2303 28.3859C53.2303 28.3859 51.5687 27.3866 50.8222 23.4856ZM25.8992 38.1686C25.6102 37.5545 25.4537 36.8803 25.4477 36.2C25.4296 34.9538 24.9179 33.7679 24.0269 32.901C24.2075 32.8167 24.3761 32.7084 24.5266 32.5759C25.0985 32.0883 25.4296 31.3779 25.4236 30.6254L25.3875 30.0896H24.8456C23.6055 30.1498 22.4015 29.6381 21.5888 28.693C21.4142 28.4883 21.2577 28.2655 21.1192 28.0308C21.655 28.1933 22.2089 28.2716 22.7687 28.2716H23.3166C23.9727 28.2053 24.5928 27.9405 25.0925 27.513L25.6523 27.0013L25.0142 26.592C23.5814 25.6769 22.1186 23.9431 23.2443 20.897C23.9727 18.9164 25.6523 17.1284 28.3915 15.4067C29.3125 14.8047 29.8182 14.1365 29.8182 13.4803C29.8182 12.4689 28.9694 12.0656 28.3493 11.7826C28.0664 11.6742 27.8075 11.5177 27.5788 11.3191C27.0972 10.7592 27.5005 9.69366 27.952 9.11573L28.554 8.36322L27.6269 8.18262C27.4162 8.1465 27.1995 8.13446 26.9828 8.13446C25.8089 8.09834 24.6771 8.54985 23.8463 9.37459C23.1661 10.0428 22.8109 10.9819 22.8771 11.9331H22.5159C21.1614 11.9331 20.5232 10.5003 20.4992 10.4401L20.1199 9.54316L19.5179 10.2957C18.958 11.0301 18.6992 11.9512 18.8015 12.8722C19.0062 13.8896 19.6383 14.7686 20.5413 15.2803C20.6256 15.3344 20.7099 15.3946 20.7821 15.4609C18.8798 16.0629 17.8142 17.4355 16.6945 18.8622L16.5319 19.0669C15.4604 20.4334 13.835 21.2522 12.1012 21.3124H11.2764L11.5293 22.101C11.5293 22.1973 12.2878 24.4308 14.4851 24.4308H14.5935C14.7982 24.4247 14.9968 24.4007 15.1955 24.3585C15.1052 25.5625 14.6597 27.8261 12.637 28.6629L12.035 28.9157L12.3661 29.5177C12.9079 30.3545 13.841 30.8482 14.8403 30.8361C15.4483 30.8421 16.0443 30.7037 16.5861 30.4268C16.6704 31.1251 16.8269 31.8114 17.0497 32.4736C17.4289 33.491 17.4289 34.6167 17.0497 35.6341L16.7487 36.2722L17.4349 36.4528C17.748 36.5251 18.0731 36.5672 18.3982 36.5672C18.6149 36.5672 18.8316 36.5431 19.0423 36.495C19.4878 36.3926 19.8972 36.188 20.2463 35.893C20.457 36.5672 20.8182 37.1873 21.3059 37.699C22.251 38.6682 23.6055 39.1498 25.3694 39.1558H26.441L25.8992 38.1686ZM25.3814 38.5057C20.5112 38.5057 20.6316 34.3278 20.6316 34.3278C20.3727 35.1043 19.7346 35.6943 18.9339 35.887C18.7714 35.9291 18.5968 35.9472 18.4283 35.9472C18.1513 35.9472 17.8804 35.911 17.6156 35.8448C18.055 34.6829 18.055 33.3946 17.6156 32.2328C17.2724 31.2696 17.1099 30.2462 17.1279 29.2227C16.5741 29.903 15.7253 30.2763 14.8463 30.2221H14.8162C14.0336 30.2341 13.2992 29.8428 12.8717 29.1926C16.1166 27.8441 15.7975 23.4916 15.7975 23.4916C15.4242 23.7204 14.9908 23.8408 14.5513 23.8348H14.4851C12.6791 23.8348 12.0771 21.9204 12.0771 21.9204H12.1132C14.0216 21.8602 15.8095 20.9572 16.9895 19.4582C18.2296 17.887 19.241 16.5023 21.2457 15.9605L21.4443 15.9244L21.4865 15.7258C21.5406 15.4187 21.3299 15.1237 20.8844 14.8227C18.1212 13.0167 19.9995 10.705 19.9995 10.705C19.9995 10.705 20.7821 12.5532 22.558 12.5532H22.6423C22.847 12.5472 23.0456 12.5291 23.2443 12.493L23.5694 12.4268C23.2925 11.4876 23.5694 10.4702 24.2798 9.796C24.9781 9.07359 25.9473 8.67025 26.9527 8.68229C27.1273 8.68229 27.3079 8.69433 27.4824 8.72443C26.8804 9.5251 26.4349 10.8495 27.1393 11.6622C27.7413 12.3666 29.2343 12.3967 29.2343 13.4682C29.2343 13.9137 28.8189 14.4314 28.0784 14.895C25.839 16.3037 23.6176 18.1759 22.6965 20.6803C21.5467 23.8047 22.847 25.8816 24.7012 27.0676C24.2978 27.4047 23.7982 27.6154 23.2744 27.6696H22.7747C21.8055 27.7117 20.8483 27.4167 20.0717 26.8328C20.2283 27.6575 20.5955 28.4281 21.1433 29.0602C22.0644 30.1257 23.4309 30.7157 24.8396 30.6555C24.8276 31.2274 24.5747 31.7692 24.1353 32.1365C23.6537 32.4615 23.1058 32.6662 22.5279 32.7385C22.5279 32.7385 24.6289 33.1659 24.8577 36.2662C24.8517 37.0548 25.0443 37.8314 25.4115 38.5298L25.3814 38.5057Z" fill="#222220"/>
<path d="M14.5273 18.5672H14.5334C14.7621 18.5672 14.9969 18.5311 15.2136 18.4589C15.7916 18.206 16.2792 17.7846 16.6223 17.2548C17.0738 16.6288 17.6578 16.105 18.332 15.7197L19.1748 15.2682L18.3922 14.7204C17.9588 14.4435 17.4591 14.2869 16.9474 14.2809C16.2792 14.2869 15.6471 14.5699 15.1956 15.0635C14.5936 15.7619 13.7628 16.2375 12.8538 16.406L12.0049 16.4482L12.3481 17.2308C12.7695 18.0495 13.6063 18.5612 14.5273 18.5672ZM15.611 15.4729C15.9481 15.0936 16.4297 14.8709 16.9414 14.8709C17.3327 14.8769 17.718 14.9973 18.0491 15.208C16.3454 16.117 15.9902 17.5739 15.0391 17.905C14.8825 17.9592 14.714 17.9893 14.5454 17.9893C13.8471 17.9893 13.209 17.604 12.8839 16.99C13.9434 16.8154 14.9066 16.2796 15.611 15.4729ZM18.3622 25.3579C18.2599 23.4435 18.7295 21.5411 19.7228 19.8977C19.0967 21.7157 19.5843 23.7385 20.981 25.0629C20.981 25.0629 17.6338 21.0535 22.3114 16.9478C24.1836 15.3826 26.2245 14.4194 27.278 13.7331C23.4733 14.9732 21.6131 13.6067 21.6131 13.6067C22.6786 14.4375 24.0512 14.7625 25.3756 14.4916C25.1107 14.6181 24.8338 14.7565 24.5388 14.913C21.3301 16.6589 18.4285 19.5304 17.9529 23.5037V23.4736C17.2064 27.3746 15.5449 28.3739 15.5449 28.3739C16.8632 27.7237 17.7 25.9659 17.8987 25.3639C18.1214 28.7953 19.795 31.1732 21.7515 33.4609C22.3475 34.1471 22.8171 34.9418 23.1241 35.8027C22.9616 34.9418 22.5883 34.1291 22.0405 33.4428C20.2345 31.2455 18.4887 28.4883 18.3622 25.3579ZM33.2798 18.1097C33.4905 17.905 33.7855 17.8087 34.0805 17.8448V18.9826C34.0745 19.2655 34.0022 19.5364 33.8638 19.7833H35.0016C34.8631 19.5364 34.7909 19.2655 34.7849 18.9826V17.8448C35.0738 17.8087 35.3688 17.905 35.5795 18.1097V17.3211H33.2798V18.1097ZM32.8043 12.6495H32.7923C32.9669 12.8 33.1716 12.9204 33.3943 12.9926L33.5388 13.0589V12.3124L32.2023 11.7525C32.2685 12.1257 32.4853 12.4508 32.8043 12.6495ZM35.977 12.6435L35.971 12.6495C36.29 12.4508 36.5067 12.1257 36.573 11.7525L35.2365 12.3124V13.0528L35.375 12.9866C35.5977 12.9144 35.8024 12.794 35.977 12.6435Z" fill="#222220"/>
<path d="M38.3727 9.62743C38.3727 8.50167 36.4764 7.4903 34.3874 7.4903C32.2984 7.4903 30.4021 8.50167 30.4021 9.62743L30.4443 9.90435L31.281 14.7204L30.4443 15.208L28.259 16.4482C28.259 16.4482 27.7713 16.701 27.5426 16.8515C26.7178 17.4535 26.5433 18.2602 27.0188 18.6094C27.1392 17.7906 27.8556 17.1886 28.6864 17.2127C29.3787 17.2308 30.0229 17.5799 30.4142 18.1518C30.5346 18.2963 30.6429 18.4528 30.7392 18.6094C30.8657 18.814 30.9921 18.9946 31.1185 19.1692H25.5439C26.0135 19.9759 26.2844 20.8849 26.3446 21.8181V34.2013C26.3446 37.2114 28.6503 38.6261 31.1606 38.6261C33.0871 38.6261 33.3459 38.5358 34.4055 39.5953C35.465 38.5358 35.7239 38.6261 37.6503 38.6261C40.1426 38.6261 42.4663 37.1993 42.4663 34.2013V21.8301C42.5265 20.897 42.7974 19.988 43.267 19.1813H37.6322C37.7586 19.0067 37.8851 18.8261 38.0115 18.6214C38.1138 18.4649 38.2222 18.3084 38.3366 18.1639C38.7339 17.592 39.378 17.2428 40.0703 17.2247C40.9011 17.2007 41.6175 17.8027 41.7379 18.6214C42.2195 18.2783 42.0449 17.4174 41.2142 16.8635C40.9914 16.707 40.5038 16.4602 40.5038 16.4602L38.3366 15.1839L37.4998 14.6963L38.3366 9.88027L38.3727 9.62743ZM31.2088 10.1813L34.1466 11.1746V15.786L31.9854 14.6421L31.2088 10.1813ZM26.7479 19.9819H31.8108C32.2021 20.3913 32.6837 20.7164 33.2135 20.9211C33.0991 21.3184 33.1292 21.7458 33.2917 22.1251C33.4844 22.5284 33.8275 22.8415 34.2489 23.004C34.3272 23.6963 34.7968 24.2742 35.4529 24.503C35.0917 24.8702 34.7366 25.2134 34.5921 25.3518L31.2269 25.2977C31.1125 25.2435 31.0222 25.1592 30.962 25.0508V25.0087L31.5098 25.099H31.5459C31.6543 25.099 31.7446 25.0268 31.7627 24.9184C31.7807 24.798 31.7024 24.6896 31.582 24.6655L30.9078 24.5572L31.6543 21.9686L30.9439 20.4756L29.8061 21.6796L29.7339 24.3706L28.9693 24.2502C28.8489 24.2261 28.7406 24.3043 28.7165 24.4247V24.4308C28.6984 24.5512 28.7767 24.6595 28.8971 24.6836L29.2162 24.7318C29.1018 24.798 29.0235 24.8461 29.0175 24.8582L28.9513 24.9063V24.9846C28.8008 25.6709 29.0777 26.3813 29.6436 26.7906V26.887C29.6075 27.1217 29.77 27.3445 30.0048 27.3866H30.077C30.2757 27.3866 30.4503 27.2482 30.4924 27.0495C30.6369 27.0555 30.7754 27.0555 30.9198 27.0495H31.0101L35.4228 27.8502L35.4951 27.802C35.8443 27.5552 37.1867 26.598 37.6262 26.2548C37.7526 26.3632 37.8971 26.4595 38.0476 26.5318C37.8429 27.1639 37.9994 27.8562 38.457 28.3378H27.1513V21.8301C27.1272 21.198 26.9887 20.5719 26.7479 19.9819ZM37.2469 25.9358C36.7894 26.2729 35.6637 27.0916 35.2543 27.3806L31.2509 26.6823V26.5739C31.3172 26.303 31.3533 26.0261 31.3593 25.7492L34.7305 25.8033L34.7968 25.7371C34.8509 25.6829 35.9165 24.6535 36.4583 24.0575C36.6028 24.2381 36.7713 24.3886 36.964 24.509C36.8677 25.0027 36.97 25.5144 37.2469 25.9358ZM30.5586 25.2134V25.2314C30.6489 25.4 30.7814 25.5445 30.9439 25.6408C30.9379 25.8876 30.9138 26.1284 30.8717 26.3692C30.8717 26.4234 30.8717 26.4776 30.8295 26.5318V26.616C30.5526 26.616 30.2817 26.5739 30.0168 26.4896C29.5352 26.2308 29.2643 25.701 29.3426 25.1592C29.5593 25.0087 29.8061 24.9124 30.065 24.8762C30.2877 24.8702 30.4864 25.0027 30.5586 25.2134ZM30.1433 24.4127L30.2095 21.8662L30.8115 21.2642L31.1787 22.0288L30.4623 24.509L30.1433 24.4127ZM37.2168 37.8254H36.6389L37.0904 36.3505C37.1626 36.1458 36.7894 35.8809 36.6329 35.6461C37.0001 35.8689 37.3794 36.0675 37.7707 36.2481C37.7707 36.2963 37.2168 37.8254 37.2168 37.8254ZM38.764 36.1759L38.7158 36.1338L38.4028 37.7592C38.2041 37.7592 37.9934 37.8013 37.8008 37.8134L38.1319 36.2481C38.2282 35.7846 36.982 35.6461 36.368 34.7251C35.9647 35.0622 35.4469 35.2187 34.9292 35.1645C34.4717 35.1585 34.0202 35.1104 33.5747 35.0201C33.4964 35.014 33.4182 35.014 33.3399 35.0201C33.1533 35.008 32.9727 35.1043 32.8764 35.2669L32.7861 35.4174L31.0703 35.002L30.661 35.7124C30.5948 35.8087 30.6068 35.9411 30.6911 36.0254L30.8055 36.1518C30.6911 36.3746 30.5466 36.5793 30.372 36.7538L30.1192 36.4408C29.9265 36.1277 29.9446 35.7244 30.1613 35.4294L30.8356 34.2916L32.2744 34.5084L32.0516 33.9966C31.7506 33.3224 32.2081 32.4615 32.2563 31.9679C32.2563 32.1184 32.0998 32.1485 31.9433 32.1485H31.5279C31.4978 32.1425 31.4616 32.1425 31.4315 32.1485L31.0402 32.3833L30.7332 32.1003C30.6851 32.01 30.7031 31.9017 30.7754 31.8354L31.4857 31.0348L30.6429 30.0535L31.8469 30.6555L32.2081 30.2221C32.3045 30.3184 32.2623 30.5712 32.2623 30.5712C33.1352 30.788 33.7433 31.5826 33.7192 32.4856V32.6602C33.8396 32.8528 34.0322 32.9853 34.2489 33.0395L35.8804 33.202C36.2055 33.0997 36.5366 33.0334 36.8737 32.9913C37.1626 32.9913 37.4516 33.0816 37.6924 33.2381C37.8068 33.1599 37.9453 33.1117 38.0837 33.1057H38.1379C38.8663 33.1057 39.1733 33.7679 39.5647 34.3097C39.8596 34.7251 40.257 35.3512 40.257 35.3512C40.1426 35.5197 39.956 35.6221 39.7513 35.6221C39.679 35.6281 39.6128 35.6281 39.5406 35.6221C38.758 35.4776 38.6436 33.8642 38.1981 33.7378H38.1259C38.0416 33.7378 37.9633 33.7859 37.9212 33.8642C38.1259 34.412 38.0055 34.6348 38.2282 35.0682C38.3907 35.3271 38.5954 35.5619 38.8302 35.7605C38.8302 35.7605 38.8001 36.0013 38.764 36.1759ZM29.9928 34.5987H29.9807L30.053 34.7853C30.0048 34.9478 29.4509 35.1826 29.4509 35.1826L29.3305 34.9177C29.174 34.5385 29.2884 34.105 29.6195 33.8582L30.5285 33.3043L31.4978 33.509C31.4917 33.7017 31.5519 33.8883 31.6663 34.0448L30.6489 33.8522L30.0469 34.2736C29.9506 34.3579 29.9325 34.4903 29.9928 34.5987ZM41.6356 34.2073C41.7018 35.8809 40.5399 37.3498 38.8964 37.6749L39.1733 36.2181C39.1733 36.1338 39.2034 36.0314 39.2155 35.9471C39.2998 35.9833 39.3841 36.0073 39.4683 36.0254C39.5647 36.0314 39.661 36.0314 39.7573 36.0254C40.0884 36.0254 40.4014 35.8749 40.6001 35.61L40.8168 35.3572L40.6362 35.1104C40.6362 35.1104 40.2329 34.4722 39.9319 34.0508L39.7633 33.798C39.4262 33.2923 38.9988 32.6542 38.1499 32.6542H38.0717C37.9513 32.6602 37.8249 32.6843 37.7105 32.7264C37.4516 32.6 37.1687 32.5338 36.8797 32.5338C36.5907 32.5398 36.3018 32.594 36.0309 32.6963L35.8864 32.7385L34.2971 32.5819C34.2309 32.5518 34.1767 32.5037 34.1346 32.4435L34.4777 32.305C34.3814 31.1552 33.2737 30.4508 32.6717 30.216C32.6416 30.0896 32.5814 29.9813 32.4911 29.891L32.1479 29.5659L31.8469 29.9271L31.6964 30.1077L29.469 29.1926L30.9198 30.9987L30.3479 31.8655C30.2275 31.9859 30.2215 32.1846 30.3479 32.311L30.9499 32.7204L31.5519 32.4916H31.6121C31.6121 32.5819 31.5459 32.9492 31.5158 33.0515L30.4683 32.8709L29.3486 33.4729C28.8309 33.8461 28.6503 34.5324 28.9212 35.1104L29.0476 35.3813L29.2222 35.7665L29.6135 35.604C29.469 35.9953 29.5292 36.4288 29.782 36.7599L30.0168 37.0609L30.3299 37.4582L30.679 37.0849C30.9078 36.8562 31.0884 36.5913 31.2148 36.2963L31.2871 36.0555L31.1185 35.8689V35.8328L31.3111 35.5197L32.7018 35.8448L33.0148 35.917L33.1834 35.6401L33.2737 35.4896C33.2737 35.4595 33.2737 35.4535 33.358 35.4535H33.5085C33.9841 35.5498 34.4657 35.598 34.9473 35.604C35.2723 35.6221 35.5974 35.5859 35.9105 35.4896L36.681 36.3686L36.2235 37.7772V37.8615C35.5372 37.8495 34.881 38.1324 34.4175 38.6321C33.677 37.8976 33.1533 37.8194 31.1727 37.8194C28.7948 37.8194 27.1874 36.4288 27.1874 34.2073V28.7893H41.6356V34.2073ZM42.0269 19.9819C41.78 20.5659 41.6476 21.192 41.6235 21.8301V25.8876C41.0998 25.7732 40.7085 25.3278 40.6723 24.792V24.6053H40.4917C40.1787 24.5813 39.8897 24.4368 39.673 24.214C39.4081 23.907 39.2636 23.5217 39.2576 23.1184C38.9988 23.5398 39.0228 24.0816 39.3239 24.4789C39.5586 24.7739 39.9018 24.9726 40.275 25.0207C40.3834 25.7191 40.9432 26.2609 41.6416 26.3512V28.3378H39.1131C38.4509 28.0007 38.174 27.212 38.469 26.5318L38.5653 26.315L38.3426 26.2308C37.6202 25.9779 37.2228 25.2013 37.4516 24.4669L37.4998 24.2863L37.3312 24.208C36.6991 23.8408 36.3499 23.1244 36.4523 22.402C36.1212 22.7391 36.0369 23.2508 36.2476 23.6722C36.1272 23.8107 35.9707 23.9732 35.7961 24.1538C35.164 24.0214 34.7065 23.4736 34.6824 22.8294V22.6789L34.5439 22.6247C34.1767 22.5164 33.8757 22.2635 33.7011 21.9264C33.5867 21.6495 33.5626 21.3365 33.6409 21.0475C33.7613 21.0716 33.8817 21.0896 34.0021 21.1017C34.1225 21.1077 34.2489 21.1077 34.3693 21.1017C35.3446 21.1017 36.2717 20.6803 36.9218 19.9579L42.0269 19.9819ZM38.1259 15.8763L39.1131 16.4783L39.36 16.6227C38.8483 16.7612 38.3847 17.0381 38.0175 17.4234L37.9754 17.4595C37.8911 17.5498 37.8128 17.6401 37.7346 17.7365L37.6864 17.7967C37.6081 17.893 37.5359 17.9953 37.4697 18.1037L37.4336 18.1579C37.3493 18.2783 37.271 18.4107 37.1927 18.5431C36.6449 19.6328 35.5794 20.3612 34.3693 20.4816C33.1593 20.3612 32.0938 19.6328 31.5459 18.5431C31.4677 18.4107 31.3894 18.2843 31.3111 18.1579L31.263 18.0916L31.0703 17.7786L31.0162 17.7124C30.9379 17.6161 30.8596 17.5257 30.7814 17.4415L30.7392 17.3993C30.372 17.014 29.9085 16.7371 29.3968 16.5987L29.6496 16.4542L30.6429 15.8522L31.6603 15.2502L34.3754 16.7251L37.0904 15.2983L38.1259 15.8763ZM36.7894 14.6722L34.6282 15.81V11.1806L37.56 10.1873L36.7894 14.6722ZM34.3814 10.693L31.1667 9.40468C31.4376 8.75452 32.7018 8.20067 34.3814 8.20067C36.061 8.20067 37.3252 8.75452 37.5961 9.40468L34.3814 10.693Z" fill="#222220"/>
</svg>
