<svg width="200" height="50" viewBox="0 0 200 50" fill="none" xmlns="http://www.w3.org/2000/svg">
<path d="M34 9C25.1521 9 18 16.1521 18 25C18 33.8479 25.1521 41 34 41C42.8479 41 50 33.8479 50 25C50 16.1521 42.8479 9 34 9ZM31.788 31.7834L30.6083 35.2488C26.1843 33.7742 23.235 29.5714 23.235 24.8525C23.235 20.1336 26.1843 16.0046 30.682 14.4562L31.8617 17.9217C28.9124 18.8802 26.9954 21.682 26.9954 24.7788C26.8479 28.023 28.8387 30.8249 31.788 31.7834ZM37.2442 35.3226L36.1382 31.7834C39.1613 30.8249 41.1521 28.023 41.1521 24.8525C41.1521 21.682 39.1613 18.9539 36.212 17.9954L37.3917 14.4562C41.8894 15.9309 44.9124 20.1336 44.9124 24.8525C44.9124 29.7189 41.8157 33.9217 37.2442 35.3226Z" fill="#00BEF0"/>
<path d="M180.507 27.8756L182.277 30.0139C180.433 31.9309 178.148 32.447 176.304 32.447C174.535 32.447 173.281 32.1521 172.175 31.636C169.816 30.4563 168.636 28.0968 168.636 25.2212C168.636 20.871 171.586 17.6268 175.936 17.6268C180.802 17.6268 183.162 21.2397 182.793 25.9586H171.733C171.807 27.1383 172.47 28.2443 173.429 28.8341C174.24 29.3503 175.198 29.5715 176.452 29.5715C177.853 29.5715 179.254 29.1291 180.507 27.8756ZM171.807 23.3779H179.622C179.401 21.6821 178 20.2074 175.788 20.2074C173.503 20.2074 172.102 21.8295 171.807 23.3779ZM97.5579 32.0047H101.539L95.2721 24.7051L101.466 17.848H97.5579L92.839 23.3042H91.438V17.848H88.415V31.9309H91.438V26.3272H92.839L97.5579 32.0047ZM110.535 20.4286C107.954 20.4286 106.258 22.4194 106.258 24.9263C106.258 27.4332 107.954 29.424 110.535 29.424C113.115 29.424 114.738 27.507 114.738 24.9263C114.811 22.4931 113.189 20.4286 110.535 20.4286ZM111.051 17.553C115.033 17.553 117.982 20.6498 117.982 24.9263C117.982 29.1291 115.106 32.3733 111.051 32.3733C109.134 32.3733 107.586 31.7097 106.48 30.53V37.9033H103.383V17.9217H106.406V19.6176C107.586 18.2166 109.134 17.553 111.051 17.553ZM151.235 17.9217H138.627V20.7235H143.42V32.0047H146.516V20.7235H151.309V17.9217H151.235ZM86.2767 17.9217H73.5947V20.7235H78.3873V32.0047H81.4841V20.7235H86.2767V17.9217ZM69.9081 25C69.9081 22.3457 68.0648 20.4286 65.4841 20.4286C62.9772 20.4286 61.0602 22.3457 61.0602 25C61.0602 27.6544 62.9035 29.5715 65.4841 29.5715C67.991 29.5715 69.9081 27.6544 69.9081 25ZM57.8896 25C57.8896 20.7973 61.1339 17.6268 65.4841 17.6268C69.7606 17.6268 73.0786 20.7973 73.0786 25C73.0786 29.2028 69.8344 32.447 65.4841 32.447C61.2076 32.3733 57.8896 29.2028 57.8896 25ZM166.203 17.9217V32.0047H163.18V22.9355L155.807 32.0047H153.374V17.9217H156.397V26.9908L163.77 17.9217H166.203ZM136.489 32.0047H133.466V17.9217H136.489V32.0047ZM128.673 27.212C128.673 25.9586 127.788 25.0738 126.609 25.0738H123.512V29.424H126.609C127.788 29.424 128.673 28.4655 128.673 27.212ZM131.696 27.212C131.696 30.0139 129.632 32.0047 126.682 32.0047H120.489V17.9217H123.512V22.4931H126.977C129.927 22.4931 131.696 24.4102 131.696 27.212Z" fill="black"/>
</svg>
