<svg width="200" height="50" viewBox="0 0 200 50" fill="none" xmlns="http://www.w3.org/2000/svg">
<g id="logo">
<path id="path" d="M34 9C25.1521 9 18 16.1521 18 25C18 33.8479 25.1521 41 34 41C42.8479 41 50 33.8479 50 25C50 16.1521 42.8479 9 34 9ZM31.788 31.7834L30.6083 35.2488C26.1843 33.7742 23.235 29.5714 23.235 24.8525C23.235 20.1336 26.1843 16.0046 30.682 14.4562L31.8617 17.9217C28.9124 18.8802 26.9954 21.682 26.9954 24.7788C26.8479 28.023 28.8387 30.8249 31.788 31.7834ZM37.2442 35.3226L36.1382 31.7834C39.1613 30.8249 41.1521 28.023 41.1521 24.8525C41.1521 21.682 39.1613 18.9539 36.212 17.9954L37.3917 14.4562C41.8894 15.9309 44.9124 20.1336 44.9124 24.8525C44.9124 29.7189 41.8157 33.9217 37.2442 35.3226Z" fill="#B1B3BB"/>
<path id="path_2" d="M180.506 27.8756L182.276 30.0139C180.432 31.9309 178.147 32.447 176.303 32.447C174.534 32.447 173.28 32.1521 172.174 31.636C169.815 30.4563 168.635 28.0968 168.635 25.2212C168.635 20.871 171.585 17.6268 175.935 17.6268C180.801 17.6268 183.161 21.2397 182.792 25.9586H171.732C171.806 27.1383 172.469 28.2443 173.428 28.8341C174.239 29.3503 175.197 29.5715 176.451 29.5715C177.852 29.5715 179.253 29.1291 180.506 27.8756ZM171.806 23.3779H179.621C179.4 21.6821 177.999 20.2074 175.787 20.2074C173.502 20.2074 172.101 21.8295 171.806 23.3779ZM97.5569 32.0047H101.538L95.2712 24.7051L101.465 17.848H97.5569L92.838 23.3042H91.4371V17.848H88.414V31.9309H91.4371V26.3272H92.838L97.5569 32.0047ZM110.534 20.4286C107.953 20.4286 106.257 22.4194 106.257 24.9263C106.257 27.4332 107.953 29.424 110.534 29.424C113.114 29.424 114.737 27.507 114.737 24.9263C114.81 22.4931 113.188 20.4286 110.534 20.4286ZM111.05 17.553C115.032 17.553 117.981 20.6498 117.981 24.9263C117.981 29.1291 115.105 32.3733 111.05 32.3733C109.133 32.3733 107.585 31.7097 106.479 30.53V37.9033H103.382V17.9217H106.405V19.6176C107.585 18.2166 109.133 17.553 111.05 17.553ZM151.234 17.9217H138.626V20.7235H143.419V32.0047H146.515V20.7235H151.308V17.9217H151.234ZM86.2758 17.9217H73.5937V20.7235H78.3864V32.0047H81.4831V20.7235H86.2758V17.9217ZM69.9071 25C69.9071 22.3457 68.0638 20.4286 65.4831 20.4286C62.9762 20.4286 61.0592 22.3457 61.0592 25C61.0592 27.6544 62.9025 29.5715 65.4831 29.5715C67.9901 29.5715 69.9071 27.6544 69.9071 25ZM57.8887 25C57.8887 20.7973 61.1329 17.6268 65.4831 17.6268C69.7596 17.6268 73.0776 20.7973 73.0776 25C73.0776 29.2028 69.8334 32.447 65.4831 32.447C61.2066 32.3733 57.8887 29.2028 57.8887 25ZM166.202 17.9217V32.0047H163.179V22.9355L155.806 32.0047H153.373V17.9217H156.396V26.9908L163.769 17.9217H166.202ZM136.488 32.0047H133.465V17.9217H136.488V32.0047ZM128.672 27.212C128.672 25.9586 127.787 25.0738 126.608 25.0738H123.511V29.424H126.608C127.787 29.424 128.672 28.4655 128.672 27.212ZM131.695 27.212C131.695 30.0139 129.631 32.0047 126.681 32.0047H120.488V17.9217H123.511V22.4931H126.976C129.926 22.4931 131.695 24.4102 131.695 27.212Z" fill="#B1B3BB"/>
</g>
</svg>
