<svg width="200" height="50" viewBox="0 0 200 50" fill="none" xmlns="http://www.w3.org/2000/svg">
<path d="M56.9047 7L55.1768 11.7398H79.1136L80.8416 7H56.9047ZM54.3138 14.1076L52.5859 18.8464H76.5227L78.2507 14.1076H54.3138ZM51.7279 21.2152L50 25.953H73.9369L75.6628 21.2142C75.6638 21.2152 51.7279 21.2152 51.7279 21.2152Z" fill="#009FDF"/>
<path d="M100.322 27.4405V27.5389C101.397 27.9337 102.425 28.6249 102.962 29.0689C104.624 30.4513 105.358 32.2766 105.358 34.6455C105.358 38.5464 103.305 41.3583 99.9302 42.2474C98.9025 42.5438 97.8275 42.6422 95.8233 42.6422H85.6064V14.1133H94.652C96.5105 14.1133 97.7803 14.2117 98.9045 14.5071C102.181 15.3962 104.332 17.6666 104.332 21.2691C104.332 23.195 103.648 24.8244 102.524 25.9094C102.035 26.4027 101.351 26.9954 100.324 27.4394L100.322 27.4405ZM91.2775 30.4513V37.9537H95.1894C96.3618 37.9537 97.4388 37.8553 98.2203 37.1149C99.0029 36.3745 99.3445 35.4362 99.3445 34.2025C99.3445 33.2662 99.0994 32.3771 98.6111 31.7352C97.7803 30.6984 96.7526 30.4513 94.9935 30.4513H91.2765H91.2775ZM91.2272 25.5146H94.4058C95.3833 25.5146 95.8726 25.5146 96.3608 25.3669C97.6819 24.9711 98.5127 23.7887 98.5127 22.1592C98.5127 20.2344 97.6326 19.3945 96.3608 19.0007C95.8223 18.852 95.2859 18.8038 94.2099 18.8038H91.2272V25.5156V25.5146ZM113.865 42.6432V18.9013H105.701V14.1143H128.388L126.774 18.9013H119.537V42.6432H113.865ZM130.148 42.6432V14.1143H148.532L146.919 18.9013H135.772V25.2203H140.32C143.986 25.2203 145.893 26.1093 147.214 27.2435C148.242 28.1326 150.001 30.1057 150.001 34.0066C150.001 37.8563 148.193 39.978 146.676 41.065C144.916 42.2976 143.058 42.6442 139.292 42.6442H130.149H130.148V42.6432ZM135.771 37.8543H140.024C141.638 37.8543 142.615 37.4594 143.299 36.5704C143.641 36.1273 144.13 35.3357 144.13 33.8559C144.13 32.3761 143.641 31.3383 142.663 30.5979C142.078 30.1549 141.294 29.9088 139.974 29.9088H135.769V37.8543H135.771Z" fill="#0A2973"/>
</svg>
