<svg width="125" height="125" viewBox="0 0 125 125" fill="none" xmlns="http://www.w3.org/2000/svg">
<path fill-rule="evenodd" clip-rule="evenodd" d="M76.9839 102.607C89.0139 87.2662 104.167 64.9788 104.167 50.0453C104.167 25.2826 85.5125 5.20837 62.5006 5.20837C39.4888 5.20837 20.834 25.2826 20.834 50.0453C20.834 64.9788 35.9874 87.2662 48.0174 102.607C54.2936 110.61 57.4317 114.612 62.5006 114.612C67.5696 114.612 70.7077 110.61 76.9839 102.607ZM62.5006 67.7084C53.8712 67.7084 46.8756 60.7128 46.8756 52.0834C46.8756 43.4539 53.8712 36.4584 62.5006 36.4584C71.1301 36.4584 78.1256 43.4539 78.1256 52.0834C78.1256 60.7128 71.1301 67.7084 62.5006 67.7084Z" fill="#FFC55F"/>
</svg>
