<svg width="250" height="250" viewBox="0 0 250 250" fill="none" xmlns="http://www.w3.org/2000/svg">
<g id="69.Driving">
<g id="69.Driving_2">
<path id="Vector" d="M38.8753 163.216C41.549 161.693 44.5176 160.758 47.582 160.476L49.2647 160.389L50.9522 160.437C54.9536 160.668 58.8347 161.89 62.2455 163.995C63.7557 164.932 65.1361 166.063 66.3513 167.36C67.8697 169.036 69.1938 170.878 70.2984 172.851C70.6638 173.447 70.9859 173.211 71.0532 172.49C71.0843 172.021 71.0372 171.55 70.9138 171.096C70.7373 170.483 70.4682 169.901 70.1157 169.37C67.2768 165.279 63.2082 162.199 58.5003 160.577C55.674 159.536 52.6943 158.972 49.683 158.909C46.3683 158.891 43.0888 159.588 40.0676 160.952C39.1473 161.376 38.2545 161.858 37.3945 162.394C36.9714 162.673 36.5195 162.909 36.1205 163.221L34.9137 164.139C32.5381 166.072 30.5482 168.435 29.0484 171.106C27.8969 173.148 27.0145 175.332 26.4234 177.601C26.3176 178.082 26.2214 178.606 26.1349 179.12C25.9921 179.794 25.9531 180.487 26.0195 181.173C26.0305 181.511 26.1598 181.834 26.3849 182.086C26.4619 182.186 26.5507 182.277 26.6493 182.356C26.9618 182.534 27.2599 181.779 27.4234 180.457C27.7305 178.47 28.2661 176.526 29.0195 174.663L29.2984 173.952C29.4041 173.721 29.5243 173.495 29.6349 173.269C29.8705 172.812 30.0772 172.341 30.332 171.899L31.1397 170.586L31.3416 170.255L31.5724 169.947L32.0532 169.327C33.9028 166.861 36.2417 164.804 38.9234 163.284L38.8753 163.216Z" fill="#221F1F"/>
<path id="Vector_2" d="M186.971 160.486C189.968 160.29 192.974 160.687 195.817 161.654C196.85 162.022 197.857 162.459 198.832 162.962L200.096 163.678C200.303 163.798 200.519 163.909 200.721 164.038L201.317 164.457C201.712 164.736 202.12 165.005 202.51 165.293L203.62 166.255C203.803 166.418 204 166.563 204.168 166.736L204.678 167.26C205.01 167.611 205.37 167.942 205.688 168.313C206.321 169.052 206.908 169.831 207.442 170.644C207.678 171.01 207.923 171.37 208.144 171.74L208.726 172.904C209.102 173.682 209.423 174.485 209.688 175.308L209.827 175.697L209.923 176.101L210.12 176.904L210.317 177.707C210.38 177.971 210.404 178.25 210.447 178.519C210.524 179.067 210.63 179.606 210.702 180.149C210.774 180.692 210.793 181.245 210.865 181.798C210.952 182.476 211.346 182.404 211.702 181.798C211.929 181.395 212.092 180.959 212.183 180.505C212.306 179.894 212.306 179.265 212.183 178.654C212.001 177.456 211.724 176.274 211.356 175.12L210.702 173.428L210.534 173.005L210.327 172.601L209.909 171.793C208.784 169.65 207.303 167.714 205.529 166.067C203.413 164.023 200.977 162.339 198.317 161.082C195.376 159.746 192.192 159.026 188.962 158.966C186.989 158.919 185.018 159.1 183.087 159.505C181.628 159.818 180.198 160.254 178.813 160.808C177.435 161.363 176.109 162.035 174.846 162.817C172.878 163.992 171.088 165.441 169.529 167.12C169.202 167.51 168.87 167.88 168.567 168.279C167.452 169.817 167.298 170.438 167.452 170.971C167.478 171.096 167.518 171.217 167.572 171.332C167.668 171.481 167.865 171.423 168.13 171.197C168.289 171.05 168.436 170.889 168.567 170.716C168.726 170.519 168.899 170.284 169.106 170.034C171.501 166.863 174.648 164.34 178.264 162.692C181.009 161.438 183.963 160.705 186.976 160.534L186.971 160.486Z" fill="#221F1F"/>
<path id="Vector_3" d="M189.034 199.634C188.481 198.567 187.827 198.355 187.188 198.321C185.037 198.203 182.888 198.131 180.741 198.105C178.89 198.105 177.039 198.182 175.193 198.192C172.01 198.192 168.827 198.192 165.65 198.192C164.688 198.192 163.77 198.192 162.827 198.192C161.885 198.192 161.029 198.134 160.13 198.1C159.979 198.076 159.825 198.076 159.674 198.1C159.584 198.137 159.505 198.196 159.443 198.271C159.381 198.346 159.339 198.435 159.321 198.53C159.302 198.626 159.308 198.724 159.336 198.817C159.365 198.91 159.417 198.994 159.486 199.062C159.549 199.143 159.621 199.273 159.693 199.278C160.39 199.278 160.943 199.918 161.683 199.903C163.044 199.869 164.404 200.033 165.765 200.1C166.313 200.124 166.856 200.1 167.404 200.1C168.097 200.071 168.794 199.99 169.491 199.961C171.414 199.874 187.4 199.961 187.823 199.932C188.233 199.861 188.638 199.761 189.034 199.634Z" fill="#221F1F"/>
<path id="Vector_4" d="M49.5195 200.114C48.9811 199.047 48.3513 198.835 47.7311 198.802C45.6541 198.683 43.5708 198.611 41.4811 198.585C39.6926 198.585 37.9041 198.662 36.1157 198.672C33.034 198.672 29.957 198.672 26.8801 198.672C25.9715 198.672 25.058 198.672 24.1493 198.672C23.2407 198.672 22.4089 198.614 21.5388 198.581C21.3939 198.556 21.2461 198.556 21.1013 198.581C21.0135 198.62 20.9365 198.68 20.8768 198.755C20.8172 198.83 20.7767 198.919 20.7587 199.014C20.7408 199.108 20.7459 199.205 20.7738 199.297C20.8016 199.389 20.8513 199.473 20.9186 199.542C20.9763 199.624 21.0484 199.754 21.1157 199.758C21.7888 199.758 22.3272 200.398 23.0388 200.383C24.3513 200.35 25.6734 200.513 26.9907 200.581C27.5147 200.605 28.0436 200.581 28.5724 200.581C29.2455 200.552 29.9186 200.47 30.5917 200.441C32.433 200.355 47.8993 200.441 48.3272 200.412C48.7315 200.342 49.13 200.243 49.5195 200.114Z" fill="#221F1F"/>
<path id="Vector_5" d="M69.9855 107.582C69.5432 107.529 69.0913 107.476 68.7019 107.404H68.6346H68.5961L68.548 107.49C68.4711 107.635 68.3894 107.774 68.3028 107.909L68.2692 107.961C67.9759 108.471 68.649 107.293 68.5817 107.409L68.5288 107.375C68.4914 107.356 68.456 107.333 68.423 107.308C68.279 107.213 68.1453 107.103 68.024 106.981C67.4887 106.393 67.084 105.698 66.8365 104.942C66.289 103.253 65.9657 101.499 65.8749 99.7259C65.7788 98.4038 65.7932 97.072 65.798 95.7403C65.8683 91.0097 66.2118 86.2871 66.8269 81.5961C67.0817 79.5047 67.4134 77.4086 67.7884 75.3461C68.0192 74.0192 68.2531 72.6922 68.4903 71.3653C68.7403 70.0217 68.9009 68.6629 68.9711 67.298C68.9797 67.0997 68.9418 66.9022 68.8605 66.7211C68.8221 66.6586 68.7692 66.6153 68.7211 66.6297L68.5961 66.673C68.5624 66.673 68.524 66.673 68.5096 66.697C68.4951 66.7211 68.4567 66.7788 68.423 66.8317C68.3894 66.8845 68.2451 67.0624 68.1394 67.2307C67.5036 68.258 67.0802 69.4023 66.8942 70.5961C65.9903 76.0095 65.173 81.4759 64.798 87.0384C64.5817 90.3605 64.2451 93.822 64.3172 97.2595C64.3248 99.1604 64.4855 101.058 64.798 102.933C64.9658 103.893 65.225 104.834 65.5721 105.745C65.9199 106.72 66.5029 107.593 67.2692 108.288C67.3993 108.396 67.5358 108.495 67.6778 108.586C67.7492 108.634 67.823 108.677 67.899 108.716C67.9999 108.76 68.1009 108.793 68.2067 108.827C68.2907 108.857 68.3777 108.878 68.4663 108.889L68.6971 108.933C68.8461 108.933 68.9999 108.986 69.1442 109C69.7259 109.082 70.3028 109.135 70.8797 109.192C72.0288 109.293 73.173 109.385 74.3221 109.466C77.7932 109.711 81.2836 109.875 84.7259 110.086C87.4038 110.25 90.0144 110.486 92.673 110.678C93.2548 110.716 93.8221 110.774 94.4134 110.808C96.5913 110.928 97.298 110.851 97.7788 110.461C97.8958 110.386 98.0038 110.297 98.1009 110.197C98.3221 109.885 97.4471 109.586 95.8557 109.428C91.1346 108.947 86.1538 108.659 81.1538 108.356C77.4519 108.12 73.7019 107.937 70.048 107.543L69.9855 107.582Z" fill="#221F1F"/>
<path id="Vector_6" d="M9.20703 180.725L6.69742 181.278C6.69742 181.278 2.53877 175.932 4.96185 171.062C8.36569 169.908 8.86088 179.394 9.20703 180.725Z" fill="#221F1F"/>
<path id="Vector_7" d="M5.58729 177.677C5.23055 176.736 5.01351 175.748 4.94306 174.744C4.94306 174.383 4.97672 174.018 4.99595 173.657C5.01518 173.297 5.04401 173.018 5.10171 172.696C5.1594 172.374 5.22671 172.061 5.31806 171.734L5.48152 171.254L5.55844 171.023C5.58248 170.975 5.58249 170.917 5.60652 170.898L6.52959 171.061C7.08248 171.157 7.65941 171.278 8.20749 171.403C8.8848 171.617 9.59341 171.716 10.3036 171.696C10.52 171.672 10.5584 171.273 10.3757 170.864C10.2729 170.626 10.1096 170.42 9.90212 170.265C9.69466 170.109 9.45021 170.011 9.19306 169.98C8.23387 169.897 7.27032 169.876 6.30844 169.917C5.85171 169.917 5.41903 169.951 4.99595 169.98L4.37094 170.023C4.29592 170.16 4.23781 170.305 4.19787 170.456L4.10171 170.778C3.75071 171.795 3.53256 172.853 3.45267 173.927C3.40898 175.091 3.56009 176.254 3.89978 177.369C3.98632 177.71 4.12095 178.037 4.22672 178.374C4.33249 178.71 4.48633 179.028 4.63056 179.335C4.84916 179.816 5.09308 180.285 5.36133 180.739C5.49594 180.98 5.61614 181.172 5.78441 181.436L6.08248 181.888L6.24114 182.109C6.26999 182.138 6.28441 182.201 6.32768 182.196H6.45748L7.2844 182.1L7.87094 182.061L9.03921 181.989C9.21229 181.989 9.38056 181.989 9.55363 181.96C10.1883 181.888 10.3758 181.754 10.4479 181.326C10.4693 181.229 10.4838 181.131 10.4911 181.032C10.4911 180.71 10.2027 180.494 9.72672 180.475C9.00957 180.451 8.29162 180.475 7.57768 180.547L7.03441 180.605L6.91422 180.407C6.39038 179.536 5.95857 178.613 5.62576 177.653L5.58729 177.677Z" fill="#221F1F"/>
<path id="Vector_8" d="M246.808 129.913C246.69 128.882 246.456 127.867 246.111 126.889C245.991 126.533 245.904 126.172 245.75 125.831C245.596 125.49 245.476 125.23 245.318 124.942C245.241 124.793 245.159 124.648 245.077 124.504C245.039 124.442 244.957 124.297 244.895 124.201C244.83 124.093 244.758 123.991 244.678 123.894C244.601 123.807 244.506 123.738 244.399 123.692C244.443 123.61 244.399 123.692 244.423 123.653H244.38H244.294L244.121 123.624C244.004 123.612 243.886 123.612 243.77 123.624H243.462L242.5 123.677C241.943 123.706 241.385 123.677 240.837 123.677C240.132 123.579 239.417 123.579 238.712 123.677C238.27 123.783 238.832 125.269 239.63 125.283C240.342 125.283 241.072 125.283 241.77 125.249C242.125 125.225 242.486 125.201 242.842 125.163L243.385 125.105C243.433 125.103 243.481 125.092 243.524 125.071L243.611 125.033C243.688 124.985 243.717 125.062 243.765 125.105C243.78 125.121 243.793 125.138 243.803 125.158L243.875 125.293L244.015 125.571C244.188 125.951 244.337 126.35 244.496 126.745C244.817 127.605 245.05 128.496 245.193 129.403C245.285 129.966 245.326 130.535 245.313 131.105C245.303 131.536 245.261 131.965 245.188 132.389C245.136 132.718 245.047 133.041 244.923 133.35C244.824 133.36 244.724 133.36 244.625 133.35L244.476 133.326L244.217 133.302L243.178 133.187C243.029 133.187 242.875 133.144 242.721 133.134C242.154 133.134 241.971 133.211 241.846 133.615C241.816 133.706 241.79 133.799 241.77 133.894C241.712 134.211 241.947 134.475 242.366 134.567C242.991 134.702 243.626 134.79 244.265 134.831H244.524H245.005C245.327 134.831 245.645 134.831 245.967 134.831C246.203 134.281 246.407 133.718 246.577 133.144C246.838 132.088 246.92 130.996 246.822 129.913H246.808Z" fill="#221F1F"/>
<path id="Vector_9" d="M116.75 154.063L116.611 145.168C116.611 144.092 116.611 143.01 116.611 141.928L116.284 130.495C116.236 128.808 116.216 127.106 116.212 125.428C116.265 123.26 116.177 121.09 115.947 118.933C115.856 118.255 115.466 118.39 115.115 118.981C114.654 119.87 114.435 120.865 114.481 121.866C114.606 126.241 114.716 130.635 114.962 135.063C115.111 137.712 115.058 140.476 115.096 143.188C115.135 146.168 115.175 149.151 115.216 152.135L115.26 157.644C115.26 160.423 115.26 163.217 115.221 165.976C115.168 168.12 115.019 170.221 114.894 172.332C114.865 172.813 114.817 173.255 114.793 173.721C114.716 175.462 114.76 176 115.159 176.404C115.237 176.503 115.326 176.593 115.423 176.673C115.731 176.866 116.034 176.168 116.197 174.88C116.625 171.082 116.726 167.077 116.774 163.058C116.813 160.072 116.798 157.072 116.774 154.082L116.75 154.063Z" fill="#221F1F"/>
<path id="Vector_10" d="M125.592 142.212C125.52 141.678 125.433 141.366 125.313 141.51C125.193 141.654 125.174 141.51 125.106 141.51L123.664 141.563C123.462 141.563 123.26 141.539 123.058 141.524C122.717 141.524 122.375 141.486 122.034 141.481C121.856 141.481 121.683 141.534 121.505 141.534C121.159 141.534 120.808 141.5 120.457 141.5C120.279 141.5 120.097 141.548 119.919 141.563C119.851 141.563 119.789 141.524 119.722 141.515C119.654 141.505 119.664 141.515 119.64 141.563C119.56 141.901 119.545 142.252 119.597 142.596C119.63 142.923 119.674 143.14 119.736 143.135C120.024 143.135 120.313 143.135 120.597 143.135C120.717 143.135 120.832 143.192 120.948 143.192C121.063 143.192 121.313 143.159 121.496 143.149C121.765 143.149 122.029 143.101 122.299 143.106C122.568 143.111 122.914 143.144 123.222 143.164H123.51H124.424L125.385 143.197C125.408 143.206 125.434 143.206 125.457 143.197C125.553 143.106 125.568 143.01 125.592 142.212Z" fill="#221F1F"/>
<path id="Vector_11" d="M121.885 71.1532C121.837 71.4897 121.885 71.7253 122.102 71.7589C122.231 71.7589 122.313 71.8935 122.414 71.956C123.12 72.3632 123.789 72.8314 124.414 73.3551C124.657 73.5704 124.868 73.8179 125.044 74.0907C125.167 74.2507 125.234 74.4465 125.236 74.6484C125.228 74.7182 125.202 74.7847 125.159 74.8407L125.121 74.8887L125.164 74.9272L125.135 74.9032C125.135 74.9032 125.111 74.9032 125.082 74.9032C124.85 74.9624 124.609 74.9787 124.371 74.9512C123.791 74.8603 123.224 74.6988 122.683 74.4705C122.403 74.3763 122.13 74.2622 121.866 74.1291C121.778 74.0773 121.696 74.016 121.621 73.9464C121.582 73.9464 121.558 73.8935 121.515 73.8984C121.415 73.9255 121.323 73.9745 121.245 74.0419C121.167 74.1093 121.105 74.1933 121.063 74.2878C120.981 74.4609 120.981 74.6339 121.087 74.706C121.557 75.0041 122.061 75.2462 122.587 75.4272C122.794 75.5041 122.991 75.6003 123.203 75.658C123.542 75.7477 123.887 75.8103 124.236 75.8455C124.512 75.8815 124.792 75.8815 125.068 75.8455L125.294 75.8022C125.381 75.7735 125.466 75.7398 125.549 75.7012C125.642 75.6462 125.729 75.5818 125.808 75.5089C125.867 75.4448 125.92 75.3756 125.967 75.3022C126.074 75.1333 126.144 74.943 126.17 74.7446C126.197 74.5462 126.18 74.3444 126.121 74.1532C126.016 73.8357 125.853 73.5406 125.64 73.283C125.522 73.1328 125.395 72.9899 125.26 72.8551C124.849 72.461 124.407 72.1009 123.938 71.7782C123.457 71.4416 122.977 71.1291 122.496 70.8166C122.462 70.7933 122.425 70.7755 122.385 70.7637C122.203 70.7445 122.159 70.783 121.885 71.1532Z" fill="#221F1F"/>
<path id="Vector_12" d="M114.904 85.5768C115.577 85.7209 116.274 85.7209 116.947 85.5768C117.614 85.3925 118.233 85.0643 118.76 84.6152C118.933 84.4469 119.125 84.2931 119.288 84.1344C119.452 83.9758 119.601 83.7739 119.769 83.5912C120.628 82.2393 121.243 80.7471 121.586 79.1825C121.683 78.846 121.755 78.5046 121.836 78.1681C121.918 77.8316 122.01 77.4998 122.077 77.1633C122.163 76.7354 122.279 76.3075 122.356 75.87C122.434 75.4364 122.48 74.9978 122.495 74.5575C122.495 74.0094 121.418 74.5575 121.269 75.5191C120.99 77.2347 120.619 78.9342 120.159 80.6104C119.847 81.603 119.341 82.5233 118.668 83.3171C118.337 83.7462 117.911 84.0918 117.422 84.3264C116.934 84.561 116.397 84.678 115.856 84.6681C115.161 84.6332 114.481 84.4582 113.856 84.1537C112.868 83.6794 111.956 83.0622 111.149 82.3219C110.534 81.7399 109.965 81.1114 109.447 80.4421L109.106 80.0046C108.668 79.4662 108.486 79.3316 108.178 79.3844C108.106 79.3893 108.035 79.4022 107.966 79.4229C107.76 79.495 107.798 79.8364 108.086 80.2835C108.996 81.66 110.135 82.8713 111.452 83.8652C111.96 84.2573 112.502 84.6032 113.072 84.8989C113.657 85.2152 114.283 85.4482 114.933 85.5912L114.904 85.5768Z" fill="#221F1F"/>
<path id="Vector_13" d="M110.433 82.168C110.433 82.168 111.227 84.4132 109.472 84.3651C107.852 84.317 107.135 81.6728 107.135 81.6728L107.933 79.3555L110.448 82.168" fill="#221F1F"/>
<path id="Vector_14" d="M110.914 82.2445C111.13 82.8743 111.284 83.8358 110.702 84.3166C109.942 84.9512 108.611 84.4704 107.962 83.9031C107.428 83.4224 106.649 82.3454 106.639 81.5954C106.63 80.8454 107.192 79.9079 107.428 79.2204C107.524 78.9416 108.245 79.2205 108.365 79.3743L110.875 82.2108C111.106 82.4656 110.159 82.3647 109.986 82.1676L107.471 79.3503L108.404 79.5041L107.798 81.2733C107.697 81.4715 107.652 81.6933 107.668 81.9151C107.683 82.1369 107.758 82.3504 107.885 82.5329C108.173 83.1964 109.327 85.057 110.014 83.682C110.19 83.168 110.166 82.607 109.947 82.1099C109.865 81.8743 110.822 81.9897 110.909 82.2637L110.914 82.2445Z" fill="#221F1F"/>
<path id="Vector_15" d="M107.12 71.9412C105.567 71.5566 103.851 68.2633 105.654 66.8547C107.707 65.2537 108.851 68.5373 110.173 68.8162C113.019 69.4123 109.894 64.2825 111.226 62.8979C114.327 59.6768 128.298 72.4508 132.668 65.7104C135.409 61.4797 134.173 55.0999 130.211 52.5806C122.115 47.4268 111.394 53.1143 111.058 53.22C111.058 53.22 105.707 49.047 100.312 53.6239C91.0913 61.446 101.524 75.2104 105.793 74.8018C109 74.5181 107.12 71.9412 107.12 71.9412Z" fill="#221F1F"/>
<path id="Vector_16" d="M115.086 52.4704C117.847 51.487 120.776 51.0621 123.702 51.2204C125.137 51.3235 126.548 51.6478 127.885 52.1819C128.552 52.4469 129.195 52.7686 129.808 53.1435C130.387 53.5133 130.91 53.9651 131.36 54.4848C132.677 56.0855 133.418 58.0813 133.466 60.1531C133.507 61.0628 133.421 61.9736 133.211 62.8598C132.99 63.7368 132.641 64.576 132.173 65.3502C131.74 66.0806 131.057 66.629 130.25 66.8935C129.401 67.1481 128.505 67.2073 127.63 67.0665C125.765 66.739 123.951 66.1735 122.231 65.3838C120.452 64.6435 118.707 63.7973 116.889 63.0473C116.077 62.7002 115.244 62.4047 114.394 62.1627C113.95 62.0406 113.497 61.9585 113.038 61.9175C112.534 61.8654 112.025 61.9346 111.553 62.1194C111.297 62.2325 111.066 62.396 110.875 62.6002C110.675 62.8205 110.54 63.0917 110.485 63.3838C110.402 63.861 110.402 64.349 110.485 64.8262C110.601 65.7204 110.822 66.5617 110.918 67.355C110.944 67.5802 110.944 67.8077 110.918 68.0329C110.913 68.0952 110.892 68.1552 110.858 68.2073C110.824 68.2594 110.776 68.302 110.721 68.331C110.572 68.3757 110.413 68.3757 110.264 68.331C110.086 68.2629 109.922 68.1599 109.784 68.0281C109.423 67.7012 109.072 67.2733 108.654 66.8646C108.435 66.6429 108.193 66.4447 107.933 66.2733C107.633 66.0741 107.29 65.9504 106.933 65.9127C106.561 65.8789 106.188 65.9505 105.856 66.1194C105.55 66.2705 105.274 66.4739 105.038 66.7204C104.807 66.9753 104.628 67.2734 104.511 67.5976C104.395 67.9218 104.344 68.2658 104.36 68.6098C104.386 69.2358 104.55 69.8484 104.841 70.4031C105.116 70.9583 105.504 71.4497 105.981 71.8454C106.615 72.3262 107.077 72.2925 107.058 72.1723C107.038 72.0521 106.75 71.8021 106.452 71.331C106.276 71.0582 106.125 70.7702 106 70.4704C105.841 70.105 105.731 69.7203 105.673 69.3262C105.601 68.9303 105.625 68.5229 105.745 68.1387C105.808 67.9717 105.904 67.8194 106.028 67.6912C106.152 67.563 106.301 67.4617 106.466 67.3935C106.534 67.3935 106.601 67.3214 106.654 67.331H106.731H106.808C106.856 67.331 106.918 67.3694 106.981 67.3742C107.043 67.379 107.12 67.4415 107.202 67.4992C107.593 67.8015 107.952 68.1431 108.274 68.5185C108.491 68.7532 108.724 68.9733 108.971 69.1771C109.042 69.237 109.116 69.2932 109.192 69.3454L109.466 69.5089C109.572 69.5657 109.683 69.6108 109.798 69.6435L109.981 69.7012H110.125C110.366 69.7367 110.61 69.7367 110.851 69.7012C111.124 69.6659 111.385 69.5653 111.61 69.4079C111.822 69.2383 111.987 69.0184 112.091 68.7685C112.143 68.6388 112.185 68.5054 112.216 68.3694C112.237 68.2502 112.252 68.1298 112.26 68.0089C112.263 67.3727 112.19 66.7384 112.043 66.1194C111.933 65.5617 111.812 65.0281 111.755 64.5329C111.721 64.3086 111.709 64.0815 111.721 63.855C111.722 63.7282 111.751 63.6032 111.808 63.4896C111.915 63.3873 112.043 63.3084 112.183 63.2579C112.323 63.2075 112.472 63.1865 112.62 63.1963C113.636 63.2572 114.633 63.4947 115.567 63.8983C116.586 64.2781 117.606 64.73 118.635 65.1819C120.705 66.1565 122.836 66.9964 125.014 67.6963C126.392 68.1458 127.84 68.3429 129.288 68.2781C130.069 68.2192 130.827 67.9894 131.51 67.605C132.192 67.2019 132.765 66.6373 133.178 65.9608C133.941 64.6953 134.434 63.2855 134.626 61.8202C134.818 60.3549 134.705 58.8657 134.293 57.4463C133.853 55.8832 133.043 54.4487 131.933 53.2637L131.481 52.8502L131.255 52.6435L131.005 52.4656L130.524 52.105L130.01 51.8021C129.321 51.4094 128.601 51.0765 127.856 50.8069C124.86 49.7156 121.606 49.7156 118.577 50.2492C117.235 50.493 115.912 50.8353 114.62 51.2733C113.976 51.4896 113.336 51.7252 112.697 51.9848C112.377 52.113 112.064 52.2476 111.76 52.3887L111.308 52.5954C111.236 52.6363 111.161 52.6686 111.082 52.6915L110.918 52.5762L110.577 52.4031C110.336 52.2588 110.096 52.1387 109.836 52.0137C109.332 51.7794 108.809 51.5849 108.274 51.4319C107.558 51.2271 106.821 51.1077 106.077 51.0762C105.329 51.0602 104.582 51.1442 103.856 51.3262C102.417 51.7114 101.087 52.4257 99.9711 53.4127C98.8499 54.366 97.9339 55.5371 97.2788 56.855C96.6396 58.1802 96.2858 59.6248 96.2403 61.0954C96.2123 63.3386 96.6871 65.5596 97.6297 67.5954C98.5378 69.6353 99.8102 71.4926 101.385 73.0762C102.089 73.8022 102.899 74.4166 103.788 74.8983C104.2 75.126 104.644 75.2882 105.106 75.379C105.324 75.4221 105.547 75.4367 105.769 75.4223C105.957 75.4126 106.143 75.3885 106.327 75.3502C106.491 75.319 106.651 75.2739 106.808 75.2156C106.967 75.1636 107.12 75.0942 107.264 75.0089C107.55 74.8516 107.786 74.6187 107.947 74.3358C108.011 74.207 108.061 74.0716 108.096 73.9319C108.115 73.811 108.124 73.6889 108.125 73.5665C108.125 73.456 108.101 73.355 108.086 73.2637C108.064 73.179 108.036 73.0955 108.005 73.0137C107.909 72.7692 107.756 72.5515 107.558 72.379C107.416 72.245 107.254 72.1347 107.077 72.0521C106.865 71.9992 106.966 72.2733 107.077 72.8358C107.163 73.1198 107.151 73.4247 107.043 73.7012C106.969 73.8271 106.858 73.9276 106.726 73.9896C106.508 74.0833 106.278 74.1448 106.043 74.1723L105.731 74.2108C105.635 74.2108 105.558 74.2108 105.471 74.2108C105.378 74.2057 105.286 74.1895 105.197 74.1627C105.1 74.146 105.005 74.1186 104.913 74.081C104.512 73.9308 104.129 73.734 103.774 73.4944C103.019 72.9605 102.329 72.341 101.716 71.6483C100.445 70.2187 99.4097 68.5958 98.649 66.8406C97.8655 65.0976 97.4608 63.2083 97.4615 61.2973C97.4812 59.4213 98.0956 57.6 99.2163 56.0954C99.8646 55.2185 100.65 54.4523 101.543 53.8262C102.407 53.2036 103.388 52.7635 104.428 52.5329C105.471 52.3309 106.547 52.3621 107.577 52.6242C108.102 52.7527 108.614 52.9298 109.106 53.1531C109.355 53.2604 109.597 53.3824 109.832 53.5185C109.947 53.5858 110.062 53.6483 110.178 53.7252C110.423 53.8742 110.659 54.0617 110.899 54.2348C111.197 54.1194 111.5 53.9896 111.803 53.8454L112.284 53.6338C112.586 53.4992 112.889 53.3646 113.192 53.2444C113.808 52.9944 114.428 52.7637 115.058 52.5569L115.086 52.4704Z" fill="#221F1F"/>
<path id="Vector_17" d="M106.039 76.5227C105.703 77.2339 105.328 77.9257 104.914 78.5948C104.505 79.2583 103.953 80.2871 102.991 80.1717C102.51 80.1044 102.121 79.5083 102.847 79.5996C102.688 79.5996 102.928 79.4794 103.034 79.3785C103.175 79.241 103.304 79.0914 103.419 78.9313C103.689 78.5672 103.936 78.1866 104.159 77.7919C104.448 77.2871 104.722 76.7727 104.972 76.2438C105.14 75.8881 106.159 76.2198 106.015 76.5227H106.039Z" fill="#221F1F"/>
<path id="Vector_18" d="M90.1929 109.937C89.6689 105.36 91.0102 91.6681 96.8804 88.8316C103.712 85.5335 132.645 91.1297 150.727 94.197C150.544 95.9085 150.082 98.7835 148.991 100.399C148.001 100.312 123.102 98.3701 112.587 97.4326C112.539 98.0672 112.486 98.7883 112.428 99.5672C120.424 100.144 137.174 100.562 145.991 100.784C146.5 102.364 146.799 104.005 146.88 105.663C139.414 106.336 125.765 107.764 111.981 105.384C111.828 107.207 111.654 109.009 111.467 110.548L90.1929 109.937Z" fill="#221F1F"/>
<path id="Vector_19" d="M125.894 99.4038C123.298 99.3221 120.707 99.2307 118.116 99.1154L114.236 98.9279L113.356 98.875H113.284C113.26 98.875 113.226 98.875 113.241 98.8461L113.279 98.2355L130.909 99.6009L143.269 100.596L148.971 101.038H149.26H149.332C149.347 101.021 149.36 101.002 149.37 100.981L149.447 100.856L149.755 100.375C149.861 100.173 149.914 100.087 149.967 99.9711L150.12 99.6394C150.307 99.1939 150.467 98.738 150.601 98.274C150.854 97.3695 151.047 96.4492 151.178 95.5192L151.226 95.173L151.293 94.6298L151.361 94.0577L151.39 93.774V93.7019C151.39 93.7019 151.346 93.7019 151.322 93.7019L151.183 93.6779L149.351 93.3702L146.654 92.9182L141.265 92.0096C134.053 90.8029 126.875 89.6057 119.63 88.6827C116.418 88.274 113.188 87.899 109.947 87.649C108.326 87.5176 106.704 87.4327 105.082 87.3942C103.452 87.3455 101.82 87.4001 100.197 87.5577C99.1258 87.6518 98.0707 87.8829 97.0579 88.2452C96.0248 88.6612 95.1077 89.321 94.3848 90.1682C93.0311 91.8279 92.0166 93.7375 91.3993 95.7884C90.7506 97.7825 90.2824 99.8308 90.0002 101.909C89.7036 103.978 89.575 106.068 89.6156 108.159C89.6541 109.466 89.8464 110.034 89.9618 109.981C90.0771 109.928 90.1637 109.279 90.3127 108.202C90.7419 104.626 91.4085 101.083 92.3079 97.5961C92.8045 95.6439 93.5973 93.7793 94.6589 92.0673C95.1619 91.267 95.8149 90.5715 96.582 90.0192C96.9545 89.7652 97.3606 89.5645 97.7887 89.423C98.2461 89.2718 98.7136 89.1529 99.1877 89.0673C100.184 88.8923 101.191 88.7863 102.202 88.75C103.226 88.6971 104.265 88.7019 105.303 88.7211C107.38 88.7596 109.471 88.899 111.553 89.0769C119.909 89.8269 128.26 91.1394 136.64 92.4423C139.144 92.8365 141.673 93.2596 144.217 93.6923L148.063 94.3413L149.87 94.649C149.957 94.6827 150.135 94.649 150.072 94.7836L149.991 95.3702C149.817 96.6258 149.498 97.8569 149.039 99.0384C148.981 99.1778 148.914 99.3125 148.851 99.4519C148.822 99.5144 148.774 99.5961 148.755 99.6346L148.717 99.7019C148.688 99.7404 148.673 99.8125 148.611 99.7836H148.385L146.433 99.625L138.644 99L112.111 96.9182L111.894 99.923V100.072H111.947H112.144H112.548L113.327 100.12L114.351 100.183L118.443 100.385C125.476 100.687 132.505 100.865 139.534 101.038L143.524 101.13L145.447 101.178C145.534 101.178 145.64 101.178 145.702 101.178L145.784 101.442L145.894 101.856L146.015 102.337C146.174 102.97 146.297 103.612 146.385 104.26C146.385 104.418 146.428 104.577 146.443 104.74C146.457 104.904 146.443 104.933 146.443 105.038V105.288C146.443 105.288 146.443 105.288 146.414 105.288L146.14 105.312L142.293 105.663C137.02 106.153 131.724 106.359 126.428 106.279C122.377 106.21 118.335 105.879 114.327 105.288L112.755 105.034L111.611 104.846H111.572V104.885V104.957V105.101L111.543 105.389L111.481 105.966L111.144 109.082L111.072 109.745V109.913V109.99C111.072 109.99 111.072 110.019 111.072 110.024H111.029L109.928 109.981L106.885 109.87L101.548 109.673C94.8656 109.462 92.7406 109.486 91.2935 109.788C90.9696 109.841 90.6487 109.91 90.332 109.995C89.6829 110.24 92.3993 110.538 97.2887 110.755L108.303 111.212L111.467 111.327H112.13H112.212C112.245 111.327 112.212 111.284 112.236 111.26V111.096L112.269 110.769L112.39 109.62L112.539 108.216L112.688 106.808L112.726 106.452V106.356C112.726 106.356 112.726 106.317 112.726 106.312H112.774L112.938 106.337L113.289 106.394C113.769 106.466 114.25 106.553 114.702 106.615C122.342 107.603 130.062 107.818 137.745 107.26C139.188 107.173 140.606 107.062 142.034 106.947L146.505 106.548C146.866 106.519 147.212 106.476 147.558 106.437H147.688H147.75H147.784C147.784 106.437 147.784 106.437 147.784 106.409V106.144V105.615V105.091V104.827V104.625C147.784 104.433 147.741 104.245 147.717 104.058C147.614 103.318 147.47 102.584 147.284 101.861L147.144 101.322L146.885 100.437L146.726 99.9567H146.197L145.298 99.9327L143.149 99.8798C137.428 99.7452 131.707 99.6009 125.991 99.399L125.894 99.4038Z" fill="#221F1F"/>
<path id="Vector_20" d="M148.991 100.479C149.138 100.692 149.339 100.862 149.575 100.97C149.81 101.079 150.07 101.122 150.327 101.095C150.412 101.088 150.497 101.088 150.582 101.095H150.712H150.798C150.798 101.095 150.837 101.095 150.88 101.124L151.01 101.162L151.27 101.229C152.448 101.503 153.652 101.65 154.861 101.667C156.1 101.696 157.334 101.498 158.5 101.08C159.544 100.719 160.479 100.099 161.217 99.2774C161.873 98.564 162.308 97.6756 162.469 96.7198C162.631 95.764 162.511 94.782 162.125 93.8928C161.899 93.4238 161.57 93.0114 161.164 92.6861C160.767 92.3556 160.305 92.1139 159.807 91.9771C159.31 91.8402 158.789 91.8115 158.279 91.8928C157.797 91.9765 157.328 92.1236 156.885 92.3303C156.071 92.7371 155.305 93.2338 154.601 93.8111L154.347 94.0034C154.295 94.0374 154.245 94.0743 154.197 94.114L153.88 94.0707L152.572 93.888C152.25 93.8399 151.933 93.7582 151.611 93.7005C151.48 93.6694 151.346 93.6597 151.212 93.6716C151.136 93.6815 151.064 93.7092 151.001 93.7524C150.938 93.7957 150.887 93.8533 150.851 93.9205C150.814 93.9877 150.795 94.0625 150.793 94.1387C150.792 94.215 150.808 94.2906 150.842 94.3592C150.892 94.4857 150.976 94.5968 151.083 94.6811C151.19 94.7655 151.317 94.8203 151.452 94.8399L153.577 95.1717L154.169 95.263C154.334 95.2788 154.5 95.2489 154.649 95.1765C154.722 95.1425 154.791 95.1022 154.856 95.0563L154.986 94.9697L155.851 94.3207C156.292 94.0008 156.758 93.7178 157.246 93.4745C157.914 93.0777 158.7 92.928 159.467 93.0515C159.996 93.1869 160.468 93.4885 160.813 93.912C161.16 94.3623 161.37 94.9031 161.419 95.4697C161.467 96.1443 161.35 96.8205 161.077 97.4396C160.805 98.0587 160.386 98.6021 159.856 99.0226C159.522 99.2987 159.157 99.5358 158.77 99.7293C157.483 100.317 156.071 100.578 154.659 100.489C153.907 100.458 153.158 100.37 152.419 100.225C152.044 100.167 151.678 100.071 151.308 99.9841C151.184 99.9523 151.059 99.9266 150.933 99.9072H150.64L150.053 99.8543C149.936 99.847 149.819 99.847 149.702 99.8543C149.212 99.864 149.14 99.9265 148.991 100.479Z" fill="#221F1F"/>
<path id="Vector_21" d="M157.616 100.86C157.555 101.029 157.517 101.205 157.506 101.384C157.505 101.445 157.519 101.505 157.547 101.56C157.574 101.614 157.615 101.661 157.664 101.697C157.778 101.806 157.854 101.949 157.881 102.105C158.107 102.565 158.185 103.085 158.102 103.591C158.062 103.835 157.974 104.069 157.843 104.279C157.712 104.488 157.54 104.67 157.337 104.812C157.294 104.841 157.256 104.879 157.208 104.908L157.054 104.98L156.756 105.124C156.525 105.173 156.309 105.254 156.073 105.283C155.234 105.377 154.385 105.325 153.563 105.129C153.347 105.072 153.131 105.028 152.909 104.98L152.583 104.913L152.357 104.865L152.145 104.831C151.647 104.782 151.145 104.767 150.645 104.788C150.164 104.788 149.684 104.812 149.203 104.86C148.722 104.894 148.241 104.971 147.76 105.024C147.587 105.024 147.405 105.024 147.227 105.024C147.153 105.022 147.08 105.04 147.015 105.076C146.924 105.177 146.868 105.305 146.856 105.44C146.844 105.575 146.876 105.711 146.948 105.826C147.054 106.048 147.184 106.192 147.347 106.177C148.116 106.1 148.881 106.028 149.645 105.98C149.953 105.98 150.265 105.98 150.568 105.98C151.029 105.954 151.492 105.954 151.953 105.98C152.102 105.998 152.249 106.025 152.395 106.062L152.943 106.192C153.126 106.23 153.304 106.278 153.491 106.312L154.054 106.394C154.943 106.557 155.856 106.536 156.736 106.331L157.169 106.211L157.583 106.009C158.028 105.782 158.413 105.451 158.705 105.044C158.997 104.638 159.187 104.168 159.26 103.673C159.392 102.662 159.121 101.639 158.506 100.826C158.459 100.768 158.406 100.714 158.347 100.668C158.121 100.48 158.039 100.48 157.616 100.86Z" fill="#221F1F"/>
<path id="Vector_22" d="M102.404 183.989L145.784 183.893L156.63 183.869H162.053H164.635C164.637 183.819 164.637 183.769 164.635 183.719V183.417L164.693 182.186L164.76 180.816C164.76 180.378 164.88 179.95 164.933 179.518C165.428 176.045 166.693 172.728 168.634 169.806C170.576 166.885 173.145 164.435 176.154 162.633C178.337 161.304 180.725 160.346 183.221 159.796C185.734 159.272 188.311 159.13 190.866 159.373C193.402 159.666 195.876 160.358 198.197 161.421L199.063 161.835C199.354 161.963 199.635 162.112 199.904 162.282L201.539 163.272L203.053 164.421C203.311 164.609 203.555 164.815 203.784 165.037L204.495 165.681C204.688 165.859 204.894 166.032 205.082 166.219L205.62 166.825C205.976 167.224 206.356 167.604 206.688 168.018C207.353 168.852 207.965 169.727 208.519 170.638L208.938 171.32C209.005 171.436 209.077 171.546 209.144 171.667L209.318 172.022L210.015 173.465C210.25 173.945 210.399 174.46 210.592 174.955C210.788 175.451 210.948 175.96 211.072 176.479L211.471 178.027C211.582 178.546 211.644 179.08 211.731 179.609L211.856 180.397C211.89 180.662 211.89 180.931 211.909 181.195L212.029 183.489V183.667C212.029 183.667 212.029 183.739 212.029 183.744H212.164L212.515 183.719L213.221 183.652C213.457 183.652 213.702 183.623 213.923 183.599L214.351 183.561C214.914 183.503 215.471 183.436 216.034 183.344C217.154 183.165 218.262 182.916 219.351 182.599C223.746 181.308 227.666 178.755 230.625 175.258C233.587 171.811 235.577 167.695 237.019 163.46C238.388 159.215 239.31 154.839 239.769 150.402C240.243 145.989 240.426 141.55 240.318 137.114C240.217 132.682 239.88 128.259 239.308 123.864C239.019 121.667 238.669 119.479 238.231 117.301C238.01 116.21 237.75 115.123 237.481 114.042C237.332 113.498 237.173 112.96 237 112.417C236.952 112.282 236.904 112.143 236.846 112.008L236.76 111.801C236.717 111.71 236.673 111.614 236.62 111.522C236.528 111.341 236.402 111.178 236.25 111.042C236.088 110.92 235.891 110.852 235.688 110.849L229.808 110.633L205.048 109.719L192.688 109.239L186.529 109.003L183.457 108.883C183.202 108.883 182.928 108.883 182.712 108.844L182.366 108.816L182.024 108.753C181.563 108.66 181.113 108.516 180.683 108.325C179.551 107.782 178.509 107.067 177.596 106.205C176.649 105.334 175.766 104.394 174.957 103.393C173.33 101.355 171.831 99.2199 170.467 96.9983C167.697 92.5512 165.212 87.9118 162.721 83.2772C160.231 78.6426 157.765 73.9695 155.063 69.4262C153.707 67.1618 152.294 64.9166 150.736 62.7676C149.209 60.5641 147.408 58.564 145.375 56.8157C144.425 56.002 143.324 55.383 142.135 54.9935C141.858 54.9029 141.57 54.8479 141.279 54.8301C141.096 54.8301 141.019 54.8301 141.034 54.8782C141.391 55.1178 141.771 55.3208 142.169 55.4839C143.106 56.0046 143.974 56.6428 144.75 57.383C146.765 59.2339 149.077 62.383 151.515 66.4214C153.952 70.4599 156.568 75.3685 159.428 80.7051C161.212 84.0224 162.981 87.3541 164.822 90.657C166.664 93.9599 168.568 97.2435 170.712 100.412C171.78 102.013 172.941 103.551 174.188 105.018C175.455 106.553 176.933 107.901 178.577 109.022C179.459 109.61 180.434 110.043 181.462 110.301C181.732 110.361 182.004 110.406 182.279 110.436C182.544 110.46 182.851 110.484 183.068 110.489L184.481 110.542L190.135 110.748L235.236 112.34C235.246 112.336 235.257 112.337 235.267 112.342C235.277 112.346 235.284 112.354 235.289 112.364V112.393L235.356 112.542C235.491 112.864 235.611 113.224 235.721 113.59C235.947 114.325 236.14 115.085 236.318 115.849C236.678 117.383 236.971 118.945 237.236 120.513C237.76 123.647 238.14 126.82 238.404 130.003C238.967 136.375 238.967 142.785 238.404 149.157C238.108 152.362 237.591 155.543 236.856 158.676C236.126 161.825 235.064 164.887 233.688 167.811C232.322 170.734 230.469 173.404 228.207 175.705C225.925 177.982 223.164 179.721 220.125 180.796C218.601 181.332 217.028 181.715 215.428 181.941C215.029 181.998 214.625 182.046 214.221 182.085L213.741 182.133H213.539H213.462V182.032V181.835L213.399 180.652C212.94 175.502 210.906 170.619 207.572 166.667C204.239 162.715 199.768 159.886 194.769 158.566C191.134 157.615 187.334 157.477 183.64 158.162C179.942 158.853 176.455 160.388 173.447 162.647C170.42 164.868 167.932 167.742 166.167 171.057C164.403 174.371 163.407 178.04 163.255 181.792V182.152V182.287V182.34H159.582H154.12H143.193L121.342 182.378L94.4474 182.426H80.9858H74.7647L74.7022 181.229L74.6541 180.373L74.5243 179.522C74.433 178.96 74.3608 178.393 74.2551 177.83L73.8224 176.171C72.8891 172.819 71.2499 169.704 69.0147 167.037C66.7682 164.387 63.9954 162.233 60.8723 160.712C57.7492 159.19 54.344 158.334 50.8727 158.199C47.4013 158.063 43.9397 158.651 40.7074 159.924C37.4752 161.197 34.5428 163.128 32.0964 165.594C29.6656 168.069 27.7662 171.014 26.5147 174.248C26.1931 175.047 25.9249 175.866 25.7118 176.7L25.3897 177.955C25.3291 178.161 25.2873 178.372 25.2647 178.585L25.1637 179.224L24.9714 180.503C24.9041 180.926 24.9137 181.359 24.8801 181.787L24.8368 182.71V182.801C24.8368 182.801 24.8368 182.825 24.808 182.801H12.7887C12.6992 182.811 12.609 182.811 12.5195 182.801L12.4233 182.215L12.2695 181.253C12.0772 179.971 11.9089 178.689 11.7647 177.407C11.4666 174.824 11.2471 172.24 11.106 169.657C10.807 164.504 10.8519 159.337 11.2406 154.191C11.6081 149.073 12.4793 144.003 13.8416 139.056C15.1636 134.12 17.3249 129.447 20.231 125.244C22.7953 121.599 26.1454 118.578 30.0339 116.402C31.7039 115.471 33.4626 114.71 35.2839 114.128L36.5051 113.739L37.6926 113.441C38.4618 113.224 39.2166 113.109 39.9281 112.96C42.2972 112.553 44.6932 112.321 47.0964 112.268C50.9954 112.195 53.2502 112.426 55.0868 112.421C55.9185 112.46 57.0099 112.537 57.5147 112.518C57.933 112.518 57.8176 112.407 57.2214 112.244C56.9185 112.162 56.4954 112.061 55.9618 111.945L55.0676 111.758C54.7358 111.695 54.3801 111.647 53.9955 111.585C53.2214 111.474 52.3416 111.32 51.3464 111.244L49.7791 111.099C49.231 111.066 48.6493 111.046 48.0483 111.022C45.246 110.918 42.4403 111.096 39.6733 111.551C34.9364 112.297 30.4297 114.105 26.4906 116.84C22.5104 119.676 19.2098 123.361 16.8272 127.628C14.468 131.874 12.7169 136.429 11.6253 141.162C10.5121 145.9 9.8123 150.726 9.53391 155.585C9.23584 160.455 9.23584 165.339 9.53391 170.21C9.67813 172.652 9.88968 175.091 10.1685 177.527C10.3063 178.748 10.4666 179.966 10.6493 181.181L10.7839 182.094L10.9955 183.359L11.1589 184.244C11.1349 184.455 11.3464 184.383 11.4858 184.397H26.0916C26.1252 184.397 26.183 184.397 26.1926 184.397V184.287L26.2839 182.445L26.332 181.546C26.3367 181.253 26.3608 180.961 26.4041 180.671L26.6733 178.936C26.7141 178.646 26.7767 178.36 26.8608 178.08L27.082 177.229L27.2983 176.378L27.6012 175.556L27.9041 174.729C27.9955 174.451 28.1064 174.179 28.2358 173.917L29.0003 172.335C29.2695 171.816 29.5964 171.33 29.8945 170.825C30.0531 170.575 30.1829 170.311 30.3752 170.08L30.9041 169.378C31.2396 168.897 31.604 168.436 31.9954 167.998C34.287 165.357 37.1248 163.244 40.3128 161.806C43.5102 160.38 46.992 159.706 50.4906 159.835C53.9925 159.942 57.4278 160.819 60.5531 162.402C63.6726 164.002 66.3908 166.284 68.5052 169.081C70.6196 171.877 72.0756 175.114 72.7647 178.551L72.9618 179.844C73.0449 180.274 73.0947 180.71 73.1108 181.147L73.2022 182.864L73.2358 183.537V183.873V184.042C73.2358 184.085 73.2791 184.042 73.2983 184.042H80.4618L102.361 184.018L102.404 183.989Z" fill="#221F1F"/>
<path id="Vector_23" d="M188.683 164.465C192.106 164.465 195.452 165.48 198.298 167.382C201.144 169.284 203.363 171.987 204.673 175.149C205.983 178.312 206.325 181.792 205.658 185.149C204.99 188.506 203.341 191.59 200.921 194.011C198.5 196.431 195.416 198.08 192.059 198.748C188.702 199.415 185.222 199.073 182.059 197.763C178.897 196.453 176.194 194.234 174.292 191.388C172.39 188.542 171.375 185.196 171.375 181.773C171.375 179.5 171.823 177.249 172.692 175.149C173.562 173.049 174.837 171.141 176.444 169.534C178.051 167.927 179.959 166.652 182.059 165.782C184.159 164.913 186.41 164.465 188.683 164.465ZM188.683 186.604C189.632 186.604 190.561 186.323 191.351 185.796C192.141 185.268 192.757 184.519 193.122 183.642C193.486 182.765 193.583 181.799 193.4 180.867C193.216 179.936 192.76 179.079 192.09 178.406C191.421 177.732 190.566 177.272 189.635 177.084C188.704 176.896 187.738 176.988 186.859 177.348C185.98 177.708 185.228 178.321 184.697 179.108C184.166 179.896 183.88 180.823 183.875 181.773C183.875 183.05 184.381 184.275 185.282 185.181C186.182 186.086 187.405 186.598 188.683 186.604Z" fill="#221F1F"/>
<path id="Vector_24" d="M177.039 195.635C179.282 197.479 181.932 198.763 184.77 199.38C187.212 199.891 189.732 199.898 192.177 199.402C194.622 198.906 196.941 197.917 198.991 196.495L200.092 195.659L201.106 194.712C201.446 194.394 201.767 194.057 202.068 193.702L202.548 193.188L202.957 192.63L203.366 192.072L203.568 191.793L203.746 191.5L204.452 190.313C204.87 189.494 205.231 188.647 205.534 187.779C206.72 184.283 206.803 180.506 205.77 176.962C205.671 176.568 205.544 176.183 205.39 175.808C205.241 175.433 205.125 175.039 204.952 174.673C204.63 173.934 204.261 173.216 203.846 172.524C203.425 171.834 202.962 171.169 202.462 170.534C202.202 170.221 201.923 169.928 201.659 169.625L201.25 169.178L200.808 168.769C199.302 167.336 197.558 166.176 195.654 165.342C193.74 164.527 191.686 164.088 189.606 164.048C188.308 164.048 188.51 164.37 189.544 164.745C189.803 164.837 190.111 164.928 190.462 165.029C190.813 165.13 191.197 165.289 191.621 165.414C192.044 165.539 192.486 165.712 192.962 165.861C193.202 165.947 193.443 166.005 193.697 166.106L194.452 166.399C198.139 167.798 201.217 170.448 203.149 173.885C205.063 177.377 205.699 181.426 204.947 185.337C204.446 187.74 203.415 190.002 201.928 191.956C200.442 193.911 198.538 195.509 196.356 196.635C193.952 197.896 191.278 198.554 188.563 198.554C185.848 198.554 183.174 197.896 180.77 196.635C177.786 195.073 175.341 192.649 173.755 189.678C172.56 187.431 171.888 184.943 171.79 182.399C171.692 179.856 172.17 177.323 173.188 174.991C174.787 171.423 177.592 168.532 181.111 166.827C181.496 166.654 181.871 166.467 182.255 166.308L183.447 165.894C183.79 165.779 184.138 165.681 184.491 165.601C184.813 165.519 185.101 165.433 185.366 165.37C185.909 165.279 186.327 165.192 186.697 165.106C187.211 165.038 187.711 164.889 188.178 164.664C188.345 164.591 188.506 164.506 188.659 164.409C188.818 164.269 188.563 164.159 187.952 164.092C187.564 164.049 187.174 164.029 186.784 164.034C186.303 164.067 185.77 164.125 185.154 164.197C183.309 164.53 181.526 165.143 179.866 166.015C178.175 166.924 176.645 168.105 175.337 169.51C173.997 170.928 172.907 172.563 172.116 174.346C171.317 176.148 170.806 178.064 170.601 180.024C170.314 182.958 170.748 185.917 171.866 188.645C172.983 191.372 174.751 193.785 177.015 195.673L177.039 195.635Z" fill="#221F1F"/>
<path id="Vector_25" d="M186.092 178.686C186.581 178.245 187.17 177.931 187.808 177.769C188.447 177.607 189.115 177.604 189.755 177.758C190.223 177.883 190.667 178.086 191.067 178.359C191.809 178.841 192.383 179.542 192.708 180.365C193.032 181.188 193.093 182.092 192.88 182.95C192.682 183.729 192.251 184.428 191.644 184.955C190.857 185.593 189.909 185.999 188.904 186.128C188.596 186.191 188.606 186.518 188.933 186.825C189.17 187.027 189.458 187.16 189.766 187.211C190.073 187.262 190.388 187.228 190.678 187.114C191.965 186.643 193.03 185.709 193.664 184.494C194.279 183.289 194.418 181.897 194.053 180.595C193.848 179.822 193.486 179.101 192.99 178.474C192.494 177.848 191.874 177.331 191.168 176.955C190.39 176.57 189.529 176.38 188.66 176.402C187.792 176.424 186.941 176.657 186.183 177.08C185.724 177.34 185.305 177.664 184.938 178.042C184.58 178.424 184.276 178.852 184.034 179.316C183.683 180.02 183.49 180.792 183.469 181.579C183.447 182.365 183.597 183.146 183.909 183.869C184.373 184.999 185.196 185.944 186.25 186.561C186.484 186.702 186.73 186.821 186.986 186.917C187.19 186.984 187.399 187.037 187.611 187.075C187.756 187.092 187.903 187.092 188.048 187.075C188.147 187.066 188.242 187.033 188.326 186.98C188.409 186.926 188.479 186.854 188.529 186.768C188.584 186.699 188.629 186.623 188.664 186.542C188.707 186.412 188.635 186.287 188.491 186.181C188.403 186.124 188.31 186.078 188.212 186.042C188.093 185.982 187.969 185.934 187.842 185.898C187.021 185.633 186.294 185.14 185.745 184.475C185.197 183.811 184.85 183.003 184.745 182.148C184.689 181.509 184.778 180.867 185.005 180.268C185.244 179.667 185.621 179.132 186.106 178.705L186.092 178.686Z" fill="#221F1F"/>
<path id="Vector_26" d="M50.0673 164.961C53.4904 164.961 56.8367 165.976 59.6829 167.878C62.5292 169.78 64.7475 172.483 66.0575 175.645C67.3675 178.808 67.7103 182.288 67.0424 185.645C66.3746 189.003 64.7262 192.086 62.3057 194.507C59.8852 196.928 56.8012 198.576 53.4439 199.244C50.0865 199.912 46.6065 199.569 43.4439 198.259C40.2814 196.949 37.5783 194.73 35.6765 191.884C33.7747 189.038 32.7596 185.692 32.7596 182.269C32.7596 177.678 34.5831 173.276 37.8289 170.03C41.0747 166.784 45.477 164.961 50.0673 164.961ZM50.0673 187.1C51.0229 187.1 51.9571 186.817 52.7517 186.286C53.5462 185.755 54.1655 185.001 54.5312 184.118C54.8969 183.235 54.9926 182.263 54.8062 181.326C54.6198 180.389 54.1596 179.528 53.4839 178.852C52.8081 178.176 51.9472 177.716 51.0099 177.53C50.0727 177.343 49.1012 177.439 48.2183 177.805C47.3354 178.17 46.5808 178.79 46.0499 179.584C45.5189 180.379 45.2356 181.313 45.2356 182.269C45.2356 183.55 45.7446 184.779 46.6507 185.685C47.5569 186.591 48.7859 187.1 50.0673 187.1Z" fill="#221F1F"/>
<path id="Vector_27" d="M38.4238 196.154C40.6706 197.987 43.3199 199.263 46.1546 199.875C48.5958 200.386 51.1157 200.394 53.56 199.898C56.0044 199.402 58.3219 198.412 60.3709 196.99L61.4767 196.154L62.5007 195.192C62.8398 194.874 63.1608 194.537 63.4623 194.183L63.919 193.668L64.3324 193.11L64.7411 192.553L64.9046 192.308L65.0824 192.009L65.7844 190.827C66.2052 190.009 66.5667 189.162 66.8661 188.293C67.4749 186.559 67.7996 184.737 67.8276 182.899C67.8843 181.068 67.6507 179.239 67.1353 177.481C67.0371 177.087 66.9101 176.702 66.7555 176.327C66.6065 175.952 66.4911 175.558 66.318 175.192C65.9869 174.452 65.6078 173.734 65.1834 173.043C64.7606 172.352 64.2983 171.686 63.7988 171.048C63.5392 170.74 63.2603 170.447 62.9959 170.144L62.5873 169.697L62.145 169.288C60.639 167.855 58.895 166.695 56.9911 165.86C55.0841 165.04 53.0376 164.593 50.9623 164.543C49.6642 164.543 49.8661 164.865 50.8998 165.24C51.1594 165.332 51.4671 165.423 51.818 165.524C52.169 165.625 52.5536 165.784 52.9767 165.909C53.3998 166.034 53.8421 166.202 54.318 166.356C54.5584 166.442 54.7988 166.5 55.0536 166.601L55.8084 166.894C59.495 168.293 62.5731 170.943 64.5055 174.38C66.4191 177.871 67.055 181.921 66.3036 185.832C65.804 188.23 64.7763 190.487 63.2952 192.439C61.8141 194.391 59.9168 195.988 57.7411 197.115C55.338 198.377 52.6644 199.036 49.9502 199.036C47.236 199.036 44.5625 198.377 42.1594 197.115C39.1754 195.554 36.731 193.13 35.145 190.159C33.9513 187.913 33.2803 185.426 33.1821 182.884C33.0838 180.343 33.5609 177.812 34.5776 175.481C36.1738 171.91 38.9775 169.016 42.4959 167.308C42.8805 167.134 43.2555 166.947 43.6401 166.788L44.8324 166.375C45.175 166.26 45.5232 166.162 45.8757 166.082C46.1978 166 46.4863 165.913 46.7507 165.851C47.294 165.759 47.7123 165.673 48.0825 165.586C48.5964 165.518 49.0962 165.369 49.5632 165.144C49.7299 165.072 49.8907 164.987 50.044 164.889C50.2026 164.75 49.9478 164.639 49.3373 164.572C48.9494 164.529 48.5592 164.51 48.169 164.514C47.6882 164.548 47.1546 164.606 46.5392 164.678C44.694 165.01 42.9106 165.623 41.2507 166.495C37.8257 168.352 35.0997 171.276 33.4863 174.822C32.6876 176.624 32.1766 178.54 31.9719 180.5C31.6865 183.435 32.123 186.396 33.2433 189.124C34.3636 191.853 36.1338 194.266 38.3998 196.154H38.4238Z" fill="#221F1F"/>
<path id="Vector_28" d="M47.4764 179.182C47.9657 178.741 48.5551 178.427 49.1934 178.265C49.8317 178.103 50.4998 178.099 51.1399 178.254C51.6076 178.376 52.0514 178.576 52.4524 178.845C53.1943 179.327 53.7676 180.028 54.0925 180.851C54.4174 181.674 54.4776 182.578 54.2649 183.437C54.0669 184.215 53.6358 184.915 53.0293 185.442C52.2423 186.079 51.2935 186.485 50.2889 186.615C49.9812 186.677 49.9908 187.004 50.3178 187.312C50.5553 187.513 50.8431 187.647 51.1505 187.697C51.4578 187.748 51.7732 187.715 52.063 187.6C53.3501 187.13 54.4149 186.195 55.0485 184.98C55.6655 183.776 55.803 182.383 55.4331 181.081C55.2307 180.308 54.8698 179.585 54.3732 178.958C53.8766 178.332 53.2553 177.815 52.5485 177.442C51.7664 177.055 50.9015 176.865 50.0293 176.889C49.1635 176.916 48.3165 177.148 47.5582 177.567C47.1017 177.827 46.6841 178.151 46.3178 178.528C45.9601 178.91 45.656 179.338 45.4139 179.802C45.0633 180.506 44.8704 181.278 44.8488 182.065C44.8272 182.851 44.9774 183.633 45.2889 184.355C45.7532 185.485 46.5758 186.431 47.6303 187.047C47.8642 187.188 48.1104 187.307 48.3658 187.403C48.5702 187.471 48.779 187.524 48.9908 187.562C49.1362 187.578 49.283 187.578 49.4283 187.562C49.5272 187.552 49.6223 187.52 49.7059 187.466C49.7895 187.413 49.8592 187.34 49.9091 187.254C49.9637 187.185 50.009 187.109 50.0437 187.028C50.087 186.898 50.0149 186.773 49.8707 186.668C49.7833 186.611 49.6898 186.564 49.5918 186.528C49.4734 186.468 49.3494 186.42 49.2216 186.384C48.4015 186.12 47.6741 185.626 47.1255 184.961C46.5768 184.297 46.2298 183.489 46.1255 182.634C46.069 181.996 46.1578 181.353 46.3851 180.754C46.6239 180.154 47.0011 179.618 47.486 179.192L47.4764 179.182Z" fill="#221F1F"/>
<path id="Vector_29" d="M224.298 128.682C224.428 128.129 224.428 127.764 224.115 127.721C223.937 127.721 223.851 127.538 223.712 127.451C222.779 126.879 221.846 126.307 220.933 125.711C220.543 125.447 220.168 125.163 219.788 124.889L217.865 123.48C217.538 123.245 217.183 123.047 216.861 122.802C216.221 122.322 215.611 121.793 215.01 121.278C214.692 121.023 214.38 120.797 214.048 120.523C213.942 120.422 213.875 120.288 213.779 120.177C213.761 120.152 213.739 120.13 213.712 120.115C213.685 120.099 213.656 120.089 213.625 120.086C213.45 120.126 213.284 120.201 213.139 120.307C212.993 120.413 212.871 120.547 212.779 120.701C212.596 120.975 212.51 121.182 212.62 121.307C212.87 121.572 213.13 121.788 213.389 122.038C213.649 122.288 213.913 122.519 214.178 122.721C214.442 122.922 214.567 123.124 214.788 123.293C215.13 123.567 215.49 123.807 215.841 124.057L217.399 125.153L219.144 126.442L219.707 126.836L221.486 128.028L223.346 129.254C223.391 129.287 223.442 129.311 223.495 129.326C223.76 129.398 223.841 129.326 224.298 128.682Z" fill="#221F1F"/>
<path id="Vector_30" d="M210.577 128.671C210.625 128.104 210.577 127.739 210.25 127.753C210.067 127.753 209.952 127.604 209.803 127.532C208.769 127.051 207.745 126.57 206.745 126.032C206.322 125.796 205.909 125.551 205.5 125.277C204.801 124.844 204.122 124.394 203.462 123.926C203.115 123.695 202.745 123.498 202.423 123.244C202.089 123 201.768 122.738 201.462 122.46C201.139 122.2 200.875 121.902 200.582 121.628C200.428 121.489 200.298 121.34 200.159 121.2C200.013 121.063 199.875 120.919 199.745 120.768C199.674 120.644 199.61 120.518 199.553 120.388C199.54 120.358 199.521 120.332 199.497 120.311C199.473 120.29 199.444 120.275 199.413 120.268C199.05 120.274 198.704 120.424 198.452 120.686C198.216 120.917 198.096 121.128 198.192 121.268L198.524 121.748L198.899 122.181L199.274 122.609L199.673 122.998C199.87 123.225 200.079 123.442 200.298 123.647C200.663 123.958 201.045 124.248 201.442 124.518C201.99 124.921 202.562 125.268 203.115 125.647L204.077 126.287L205.038 126.902L205.659 127.268C206.312 127.643 206.981 127.994 207.644 128.34C208.308 128.686 209.034 129.061 209.745 129.393C209.796 129.424 209.854 129.443 209.913 129.45C210.154 129.455 210.231 129.378 210.577 128.671Z" fill="#221F1F"/>
<path id="Vector_31" d="M195.192 128.682C195.322 128.129 195.322 127.764 195.014 127.721C194.837 127.721 194.745 127.538 194.606 127.451C193.678 126.879 192.745 126.307 191.827 125.711C191.438 125.447 191.063 125.163 190.683 124.889L188.76 123.48C188.438 123.245 188.077 123.047 187.76 122.802C187.115 122.322 186.505 121.793 185.904 121.278C185.587 121.023 185.274 120.797 184.966 120.523C184.871 120.413 184.783 120.298 184.702 120.177C184.684 120.152 184.66 120.13 184.632 120.114C184.605 120.099 184.575 120.089 184.543 120.086C184.369 120.126 184.204 120.201 184.059 120.307C183.915 120.413 183.793 120.547 183.702 120.701C183.514 120.975 183.428 121.182 183.538 121.307C183.788 121.572 184.053 121.788 184.313 122.038C184.572 122.288 184.837 122.519 185.096 122.721C185.356 122.922 185.49 123.124 185.707 123.293C186.048 123.567 186.409 123.807 186.764 124.057L188.317 125.153L190.067 126.442L190.63 126.836L192.409 128.028L194.264 129.254C194.31 129.286 194.36 129.31 194.413 129.326C194.635 129.398 194.712 129.326 195.192 128.682Z" fill="#221F1F"/>
<path id="Vector_32" d="M180.842 128.682C180.986 128.139 181.001 127.778 180.712 127.773C180.549 127.773 180.472 127.61 180.347 127.533C179.501 127.014 178.655 126.49 177.823 125.947C177.472 125.706 177.135 125.466 176.794 125.192C176.212 124.764 175.645 124.326 175.073 123.898C174.78 123.682 174.457 123.499 174.169 123.278C173.587 122.831 173.049 122.346 172.506 121.87C172.227 121.629 171.933 121.418 171.659 121.177C171.574 121.076 171.494 120.97 171.419 120.86C171.404 120.835 171.383 120.814 171.358 120.799C171.333 120.783 171.304 120.775 171.275 120.773C170.928 120.87 170.629 121.093 170.438 121.398C170.246 121.668 170.155 121.879 170.251 121.98C170.482 122.216 170.732 122.461 170.948 122.648C171.164 122.836 171.429 123.081 171.655 123.283C171.881 123.485 172.006 123.663 172.203 123.817C172.515 124.067 172.837 124.297 173.164 124.523C173.645 124.865 174.126 125.187 174.573 125.533L176.155 126.725L176.664 127.086C177.198 127.456 177.741 127.817 178.28 128.177L179.972 129.297C180.011 129.33 180.057 129.353 180.107 129.365C180.289 129.403 180.39 129.326 180.842 128.682Z" fill="#221F1F"/>
<path id="Vector_33" d="M112.602 97.3407C112.477 96.9464 112.318 96.7061 112.068 96.7926C111.919 96.8407 111.775 96.7589 111.63 96.7445L108.693 96.509C108.275 96.4705 107.856 96.4032 107.438 96.3551L105.323 96.0955C104.957 96.0522 104.592 96.0474 104.231 96.0041C103.51 95.9176 102.789 95.8022 102.078 95.6964C101.712 95.6436 101.347 95.6243 100.986 95.5666C100.856 95.5422 100.729 95.5052 100.606 95.4561C100.553 95.4391 100.496 95.4391 100.443 95.4561C100.343 95.5404 100.266 95.6483 100.218 95.77C100.17 95.8917 100.153 96.0234 100.169 96.1532C100.169 96.3936 100.241 96.5666 100.371 96.5907C100.996 96.7157 101.592 96.7974 102.193 96.8888C102.438 96.9224 102.674 96.9945 102.919 97.0234C103.299 97.0763 103.683 97.1003 104.063 97.1388C104.626 97.1916 105.183 97.2349 105.746 97.2974L107.669 97.5426L108.275 97.6147L110.169 97.8022L112.14 98.0089C112.189 98.0162 112.24 98.0162 112.289 98.0089C112.477 97.9705 112.501 97.9032 112.602 97.3407Z" fill="#221F1F"/>
<path id="Vector_34" d="M112.346 99.5566C111.957 99.6095 111.726 99.6816 111.822 99.8163C111.918 99.9509 111.822 99.9701 111.822 100.042C111.798 100.552 111.779 101.057 111.745 101.566C111.745 101.783 111.693 101.999 111.668 102.215C111.625 102.581 111.582 102.946 111.548 103.311C111.548 103.499 111.548 103.691 111.548 103.879C111.519 104.254 111.467 104.629 111.438 105.004C111.438 105.196 111.438 105.393 111.438 105.585C111.425 105.656 111.408 105.725 111.385 105.792C111.379 105.809 111.379 105.826 111.384 105.843C111.39 105.859 111.4 105.873 111.414 105.884C111.642 105.989 111.895 106.027 112.144 105.994C112.38 105.994 112.539 105.946 112.543 105.879C112.543 105.566 112.577 105.259 112.606 104.951C112.606 104.826 112.664 104.701 112.673 104.576C112.673 104.379 112.673 104.182 112.673 103.985C112.673 103.696 112.673 103.408 112.712 103.119C112.75 102.831 112.789 102.46 112.827 102.129C112.827 102.023 112.851 101.922 112.861 101.816C112.89 101.489 112.914 101.162 112.947 100.855C112.981 100.547 113.015 100.177 113.048 99.8403C113.056 99.8152 113.056 99.7885 113.048 99.7634C112.981 99.6432 112.909 99.6239 112.346 99.5566Z" fill="#221F1F"/>
<path id="Vector_35" d="M158.337 105.399C158.607 105.911 158.945 106.385 159.342 106.808C159.582 107.058 159.967 107.476 160.346 107.438C160.521 107.413 160.7 107.438 160.861 107.512C161.022 107.585 161.159 107.703 161.255 107.851C161.39 108.164 161.135 108.37 160.842 108.404C159.087 108.587 157.76 106.894 156.995 105.519C156.63 104.856 158.039 104.875 158.318 105.389L158.337 105.399Z" fill="#221F1F"/>
<path id="Vector_36" d="M109.875 109.701C98.2115 109.388 86.5336 108.98 74.899 108.23C73.5368 108.14 72.181 108.033 70.8317 107.908C70.1538 107.845 69.4807 107.778 68.8172 107.701C68.4855 107.662 68.1538 107.619 67.8317 107.571L67.3509 107.489L67.149 107.441H67.1105C67.1105 107.441 67.1105 107.441 67.0865 107.441C66.5736 107.103 66.1591 106.635 65.8846 106.086C65.5595 105.462 65.3062 104.804 65.1297 104.124C64.7323 102.528 64.4955 100.897 64.423 99.2538C64.322 97.5999 64.3172 95.9269 64.3605 94.2538C64.4519 90.8884 64.7355 87.5519 65.1009 84.2057C65.4663 80.8596 65.923 77.5182 66.4134 74.1817L67.1634 69.1672L67.3413 67.9124L67.4519 67.0759C67.4951 66.749 67.5336 66.4221 67.5528 66.1144C67.62 65.653 67.5356 65.1823 67.3124 64.773C67.3124 64.7442 67.2403 64.6769 67.1874 64.6865L67.0528 64.7201L66.7788 64.7971C66.5584 64.8337 66.3486 64.9173 66.1634 65.0422C65.6826 65.3932 65.2355 65.7346 64.7788 66.0903C64.4519 66.3451 64.173 66.5711 63.8749 66.8115C63.2836 67.2922 62.6971 67.773 62.1249 68.2538C56.9835 72.6182 52.616 77.8196 49.2067 83.6384C48.1286 85.501 47.1652 87.4276 46.3221 89.4076C45.5006 91.4017 44.8116 93.4478 44.2595 95.5326C43.1633 99.7038 42.6663 104.01 42.7836 108.321C42.8942 111.004 43.2644 110.6 43.6201 108.369C43.7884 107.254 44.0288 105.691 44.3124 103.807C44.5961 101.922 44.9999 99.7586 45.5288 97.4269C46.2452 94.3469 47.2596 91.344 48.5576 88.4605C49.8699 85.58 51.4472 82.8278 53.2692 80.2394C54.173 78.9413 55.149 77.6865 56.1538 76.4701C57.1586 75.2538 58.2403 74.0663 59.3605 72.9365C60.4807 71.8067 61.6394 70.7057 62.8413 69.6528C63.4374 69.1288 64.048 68.6096 64.6682 68.1047C64.9807 67.8547 65.2884 67.624 65.6057 67.3547L65.7499 67.2346L65.8365 67.1624C65.8365 67.1624 65.8701 67.1192 65.8749 67.1624C65.8773 67.1784 65.8773 67.1946 65.8749 67.2105C65.8818 67.2809 65.8818 67.3517 65.8749 67.4221L65.6778 68.898L65.4374 70.5519C65.1153 72.7586 64.798 74.9749 64.5047 77.2009C63.8317 82.3547 63.1874 87.624 62.9326 92.9797C62.7806 95.6747 62.8208 98.377 63.0528 101.066C63.1781 102.443 63.4406 103.804 63.8365 105.129C64.0485 105.82 64.3422 106.483 64.7115 107.105C65.115 107.788 65.6815 108.362 66.3605 108.773C66.4973 108.844 66.6427 108.898 66.7932 108.932C67.5474 109.086 68.3099 109.197 69.0769 109.263C69.8172 109.34 70.5528 109.408 71.2884 109.47C72.7595 109.592 74.2307 109.699 75.7019 109.792C78.6442 109.985 81.5817 110.143 84.524 110.273C90.4086 110.565 96.2916 110.805 102.173 110.994C109.417 111.231 116.662 111.404 123.909 111.513C129.396 111.597 134.888 111.624 140.385 111.595C145.875 111.557 151.356 111.47 156.808 111.211C158.923 111.105 161.034 110.98 163.135 110.783C164.187 110.682 165.236 110.571 166.284 110.412C167.349 110.274 168.402 110.052 169.433 109.749C169.705 109.663 169.971 109.56 170.231 109.441L170.437 109.331C170.519 109.292 170.601 109.225 170.683 109.177C170.764 109.124 170.84 109.063 170.909 108.994C170.985 108.933 171.051 108.86 171.106 108.778C171.227 108.629 171.31 108.452 171.346 108.263C171.371 108.074 171.35 107.88 171.284 107.701L170.976 106.845C170.601 105.85 170.187 104.888 169.764 103.927C168.909 102.004 168.005 100.114 167.038 98.2442C166.187 96.5951 165.327 94.9942 164.327 93.3932C163.617 92.2195 162.803 91.1125 161.894 90.0855C161.514 89.6589 161.079 89.2839 160.601 88.9701C160.339 88.8032 160.049 88.6859 159.745 88.624C159.42 88.5584 159.082 88.6006 158.784 88.7442C157.976 89.1377 157.323 89.789 156.928 90.5951C156.69 91.0701 156.553 91.5888 156.524 92.1192C156.483 92.4593 156.483 92.8031 156.524 93.1432C156.611 93.4365 156.76 93.1432 157.077 92.4172C157.273 91.9704 157.514 91.545 157.798 91.148C157.979 90.9012 158.189 90.6768 158.423 90.4797C158.549 90.3744 158.682 90.278 158.822 90.1913C158.894 90.1432 158.971 90.1047 159.048 90.0615L159.168 90.0038L159.264 89.9653C159.329 89.9459 159.397 89.9459 159.461 89.9653C159.563 90.002 159.66 90.0504 159.75 90.1096C160.05 90.3154 160.324 90.5559 160.567 90.8259C161.75 92.2129 162.788 93.7176 163.663 95.3163C164.596 96.9317 165.471 98.6047 166.312 100.307C167.154 102.009 167.961 103.744 168.716 105.499C168.904 105.936 169.091 106.374 169.269 106.816L169.519 107.47L169.639 107.792L169.687 107.936C169.691 107.943 169.693 107.951 169.693 107.958C169.693 107.966 169.691 107.973 169.687 107.98L169.606 108.023C169.231 108.199 168.84 108.336 168.437 108.432C166.586 108.853 164.706 109.138 162.812 109.283C160.889 109.465 158.937 109.586 156.981 109.686C153.067 109.879 149.125 109.975 145.173 110.023C133.437 110.162 121.615 109.985 109.861 109.658L109.875 109.701Z" fill="#221F1F"/>
<path id="Vector_37" d="M119.231 68.1716C119.231 68.8736 119.284 69.7438 118.861 70.3495C118.438 70.9553 117.659 70.8928 117.101 70.6524C115.904 70.138 115.957 68.5803 115.731 67.5034C115.659 67.1716 116.693 67.3399 116.77 67.6524C116.938 68.4553 116.904 69.4505 117.395 70.1428C117.449 70.2103 117.506 70.2745 117.568 70.3351C117.361 70.3015 117.337 70.2774 117.505 70.2582L117.616 70.2197C117.85 70.0407 118.008 69.7796 118.058 69.489C118.154 68.9625 118.198 68.4278 118.188 67.8928C118.188 67.6236 119.246 67.8159 119.231 68.1716Z" fill="#221F1F"/>
<path id="Vector_38" d="M121.202 80.5139C120.657 80.7269 120.052 80.7286 119.506 80.5187C118.96 80.3088 118.512 79.9024 118.25 79.3793C117.957 78.7976 119.279 78.8985 119.486 79.3312C119.562 79.5059 119.664 79.6681 119.789 79.812C119.822 79.8457 119.87 79.8745 119.904 79.9082C119.995 79.9995 119.938 79.9418 119.904 79.9082C119.904 79.9082 119.967 79.9082 120.005 79.9082C119.904 79.9082 120.245 79.836 120.14 79.8745C120.294 79.8201 120.459 79.8023 120.622 79.8223C120.785 79.8423 120.94 79.8997 121.077 79.9899C121.236 80.0909 121.495 80.4226 121.188 80.5332L121.202 80.5139Z" fill="#221F1F"/>
<path id="Vector_39" d="M118.347 65.6923C117.385 64.327 116.01 63.9327 114.539 64.7981C114.164 65.0193 112.875 64.4616 113.428 64.1395C115.563 62.8847 118.236 63.6827 119.64 65.6779C119.991 66.1587 118.601 66.0577 118.347 65.6779V65.6923Z" fill="#221F1F"/>
<path id="Vector_40" d="M243.183 131.976L245.193 132.692C246.505 129.427 244.399 124.851 244.303 124.846H240.289L241.611 126.101C243.096 128.125 243.183 131.976 243.183 131.976Z" fill="#221F1F"/>
</g>
</g>
</svg>
