<?xml version="1.0" encoding="UTF-8"?>
<!DOCTYPE svg PUBLIC "-//W3C//DTD SVG 1.1//EN" "http://www.w3.org/Graphics/SVG/1.1/DTD/svg11.dtd">
<!-- Creator: CorelDRAW -->
<svg xmlns="http://www.w3.org/2000/svg" xml:space="preserve" width="200px" height="400px" version="1.1" style="shape-rendering:geometricPrecision; text-rendering:geometricPrecision; image-rendering:optimizeQuality; fill-rule:evenodd; clip-rule:evenodd"
viewBox="0 0 2480 3507.43"
 xmlns:xlink="http://www.w3.org/1999/xlink"
 xmlns:xodm="http://www.corel.com/coreldraw/odm/2003">
 <defs>
  <style type="text/css">
   <![CDATA[
    .fil0 {fill:#B1B3BB;fill-rule:nonzero}
   ]]>
  </style>
 </defs>
 <g id="Слой_x0020_1">
  <metadata id="CorelCorpID_0Corel-Layer"/>
  <g id="_2048618542592">
   <polygon class="fil0" points="2373.62,1773.53 2455.03,1693.23 2403.59,1693.23 2329.59,1768.37 2329.59,1693.23 2288.01,1693.23 2288.01,1863.38 2329.59,1863.38 2329.59,1782.2 2403.88,1863.38 2455.81,1863.38 "/>
   <path class="fil0" d="M761.92 1645.45l-106.6 0 0 217.95 44.32 0 0 -70.57 59.74 0c48.91,0.19 81.61,-29.5 81.32,-74.28 0,-43.9 -31.44,-73.1 -78.78,-73.1zm-9.47 112.14l-52.72 0 0 -76.9 52.72 0c27.23,0 43.15,14.02 43.15,37.86 0,24.63 -15.92,39.04 -43.15,39.04z"/>
   <path class="fil0" d="M946.52 1690.11c-54.96,0 -89.52,34.07 -89.52,88.39 0,54.12 34.56,88 89.52,88 55.15,0 89.71,-33.88 89.71,-88 0,-54.32 -34.56,-88.39 -89.71,-88.39zm0 143.39c-30.46,0 -48.03,-22.68 -48.03,-54.51 0,-33.88 17.86,-55.58 48.03,-55.58 31.33,0 48.61,21.02 48.61,53.63 0,35.43 -16.4,56.46 -48.61,56.46z"/>
   <path class="fil0" d="M1807.2 1750.87c21.47,-8.27 35.73,-26.09 35.73,-49.55 0,-33.48 -25.29,-55.87 -69.01,-55.87l-112.37 0 0 217.95 40.52 0 2.83 0 72.13 0c47.15,0 74.01,-22.97 74.01,-59.67 0.09,-26.96 -16.89,-45.26 -43.84,-52.86zm-102.21 -71.64l61.5 0c21.29,0 33.4,10.61 33.4,28.62 0,18.01 -12.31,28.62 -33.69,28.62l-61.21 0 0 -57.24zm65.41 150.59l-65.5 0 0 -59.38 65.5 0c22.35,0 35.44,11.1 35.44,29.79 0.09,18.59 -13.09,29.59 -35.44,29.59z"/>
   <path class="fil0" d="M1963.63 1690.11c-54.96,0 -89.51,34.07 -89.51,88.39 0,54.12 34.55,88 89.51,88 55.15,0 89.72,-33.88 89.72,-88 0,-54.32 -34.57,-88.39 -89.72,-88.39zm0 143.39c-30.46,0 -48.02,-22.68 -48.02,-54.51 0,-33.88 17.86,-55.58 48.02,-55.58 31.34,0 48.62,21.02 48.62,53.63 0,35.43 -16.4,56.46 -48.62,56.46z"/>
   <polygon class="fil0" points="1230.1,1693.23 1178.66,1693.23 1104.66,1768.37 1104.66,1693.23 1063.17,1693.23 1063.17,1863.38 1104.66,1863.38 1104.66,1782.2 1178.95,1863.38 1230.88,1863.38 1148.78,1773.53 "/>
   <path class="fil0" d="M1321.29 1690.21c-53.5,0 -89.22,34.65 -89.22,86.64 0,55.29 35.72,90.04 92.83,90.04 39.34,0 69.9,-16.06 82.78,-56.85l-41.68 -0.2c-7.13,16.36 -20.21,24.44 -41.78,24.44 -28.41,0 -48.91,-17.43 -50.08,-44.68l135.1 0c3.62,-61.81 -27.62,-99.39 -87.95,-99.39zm-46.47 70.18c1.18,-20.73 21.28,-38.64 46.57,-38.64 30.45,0 45.78,19.27 47.24,38.64 -0.19,-0.09 -93.81,0 -93.81,0z"/>
   <polygon class="fil0" points="1419.19,1726.81 1478.74,1726.81 1478.74,1863.38 1519.83,1863.38 1519.83,1726.81 1579.78,1726.81 1579.78,1693.23 1419.19,1693.23 "/>
   <path class="fil0" d="M2179.45 1690.11c-24.71,0 -44.52,8.28 -59.46,24.15l-0.29 -21.03 -39.15 0 0 232.55 41.49 0c0,0 0,-82.06 0,-81.77 13.47,14.41 33.67,22.59 57.3,22.59 48.32,0 80.53,-33.59 80.53,-87.22 0.11,-54.9 -32.1,-89.27 -80.42,-89.27zm-10.36 142.81c-29.96,0 -47.73,-20.15 -47.73,-54.42 0,-34.36 17.77,-54.51 47.73,-54.51 30.26,0 48.23,20.64 48.23,55.68 -0.09,33.49 -17.97,53.25 -48.23,53.25z"/>
   <path class="fil0" d="M0 1583.23l0 42.93 256.93 24.14 226.48 19.27c1.37,0.1 1.37,2.15 0,2.24l-226.48 19.67 -256.93 24.62 0 76.51 256.93 24.63 226.48 19.67c1.37,0.09 1.37,2.14 0,2.24l-226.48 19.27 -256.93 24.14 0 42.93 513.87 -49.16 0 -76.71 -256.94 -24.53 -227.64 -19.76c-1.37,-0.09 -1.37,-2.14 0,-2.23l227.64 -19.77 256.94 -24.53 0 -76.7 -513.87 -48.87z"/>
  </g>
 </g>
</svg>
