<?xml version="1.0" encoding="UTF-8"?>
<svg width="122px" height="34px"  version="1.1" viewBox="0 0 439.4 105" xmlns="http://www.w3.org/2000/svg">
	<path d="m247.19 2-54.53 7.1237v16.137l54.53-4.8663z" fill="#B1B3BB"/>
	<g fill="#B1B3BB">
		<path d="m35.731 34.405c-8.903 0-16.139 5.4925-17.933 7.7663v-6.5909h-15.798v67.419h15.699v-23.98c1.843 2.3233 9.029 7.7169 17.982 7.7169 14.857 0 23.039-8.0629 23.039-26.204 0-18.142-8.171-26.128-22.989-26.128zm-5.624 39.271c-9.354 0-12.298-3.3998-12.298-13.182s2.922-13.182 12.298-13.182 12.243 3.3504 12.243 13.182-2.823 13.16-12.243 13.16z"/>
		<path d="m80.577 60.769c0 9.793 2.922 13.182 12.298 13.182 9.376 0 12.249-3.4053 12.249-13.182s-2.829-13.182-12.249-13.182c-9.421 0-12.298 3.3394-12.298 13.182zm-16.475-0.1428c0-17.944 9.971-26.155 28.773-26.155 18.802 0 28.817 8.2111 28.817 26.155s-9.905 26.44-28.817 26.44c-18.912 0-28.773-8.4968-28.773-26.44z"/>
		<path d="m167.53 66.838c-1.233 5.1793-4.534 7.1126-11.688 7.1126-9.354 0-12.293-3.4053-12.293-13.182s2.939-13.182 12.293-13.182c7.154 0 10.455 1.9279 11.693 7.1402l16.475-1.2468c-2.46-12.962-12.106-18.987-28.168-18.987-18.802 0-28.767 8.2112-28.767 26.155s9.904 26.44 28.767 26.44c16.051 0 25.598-6.1515 28.118-18.987z"/>
		<path d="m236.87 38.98-44.207-29.84v16.098l13.784 9.3371 2.712 1.5818c-4.952 0.0604-7.324 1.0655-9.706 2.5046-6.807 4.1028-10.34 11.32-10.34 21.97 0 17.944 9.905 26.44 28.773 26.44 18.869 0 28.823-8.4968 28.823-26.44 0-10.386-3.368-17.488-9.839-21.651zm-18.984 34.97c-9.354 0-12.298-3.4053-12.298-13.182s2.922-13.182 12.298-13.182c9.377 0 12.249 3.3394 12.249 13.182s-2.823 13.182-12.249 13.182z"/>
		<path d="m252.14 60.533c0 18.125 8.172 26.204 23.04 26.204 8.947 0 16.133-5.3936 17.976-7.7169v6.1296h15.705v-49.602h-15.798v6.5909c-1.805-2.2409-9.041-7.7334-17.938-7.7334-14.819 0-22.985 8.0354-22.985 26.128zm16.365-0.0714c0-9.8425 2.823-13.182 12.249-13.182s12.292 3.3503 12.292 13.182c0 9.8314-2.921 13.182-12.292 13.182s-12.255-3.3888-12.255-13.182z"/>
		<path d="m354.73 35.603v18.306h-20.843v-18.306h-15.798v49.542h15.798v-18.559h20.843v18.559h15.804v-49.542z"/>
		<path d="m437.4 85.139-25.004-26.012 23.661-23.524h-19.545l-21.201 21.519v-21.519h-15.517v49.536h15.517v-22.81l21.779 22.81z"/>
	</g>
</svg>
