<svg width="50" height="50" viewBox="0 0 60 60" fill="none" xmlns="http://www.w3.org/2000/svg">
<rect width="60" height="60" rx="9" fill="#F19900"/>
<path d="M16.4835 49.901H15.2001L13.1637 47.0983H12.0924V49.901H11V42.5282H13.6304C14.1395 42.5282 14.5955 42.6258 14.9986 42.821C15.4016 43.0162 15.7127 43.2881 15.9319 43.6367C16.1582 43.9783 16.2713 44.3722 16.2713 44.8184C16.2713 45.3762 16.0981 45.8538 15.7516 46.2512C15.4052 46.6416 14.942 46.8996 14.3622 47.0251L16.4835 49.901ZM12.0924 43.5217V46.1152H13.6304C14.0829 46.1152 14.4471 45.9967 14.7228 45.7597C15.0056 45.5156 15.1471 45.2019 15.1471 44.8184C15.1471 44.435 15.0056 44.1247 14.7228 43.8877C14.4471 43.6437 14.0829 43.5217 13.6304 43.5217H12.0924Z" fill="white"/>
<path d="M19.3822 50.0056C18.9933 50.0056 18.6433 49.9114 18.3322 49.7232C18.0211 49.528 17.7771 49.263 17.6004 48.9284C17.4236 48.5868 17.3352 48.2033 17.3352 47.778V44.4942H18.3746V47.6944C18.3746 48.1057 18.4913 48.4404 18.7246 48.6983C18.958 48.9563 19.2585 49.0853 19.6262 49.0853C20.008 49.0853 20.3262 48.9528 20.5807 48.6879C20.8353 48.4229 20.9626 48.0918 20.9626 47.6944V44.4942H22.002V49.901H21.2595L21.0156 49.0853C20.8388 49.3781 20.6055 49.6047 20.3156 49.765C20.0327 49.9254 19.7216 50.0056 19.3822 50.0056Z" fill="white"/>
<path d="M25.8768 50.0056C25.191 50.0056 24.5935 49.8313 24.0844 49.4827C23.5823 49.1271 23.2394 48.646 23.0556 48.0395L24.1056 47.8721C24.3106 48.2626 24.5546 48.5519 24.8374 48.7401C25.1203 48.9214 25.4667 49.0121 25.8768 49.0121C26.294 49.0121 26.6334 48.9214 26.895 48.7401C27.1567 48.5519 27.2875 48.2974 27.2875 47.9767C27.2875 47.7397 27.2132 47.541 27.0647 47.3806C26.9233 47.2203 26.743 47.0913 26.5238 46.9937C26.3046 46.8961 26.0183 46.788 25.6647 46.6695C25.191 46.5161 24.8021 46.3627 24.498 46.2093C24.194 46.056 23.9359 45.8398 23.7238 45.561C23.5187 45.2751 23.4162 44.9126 23.4162 44.4733C23.4162 44.062 23.5187 43.7029 23.7238 43.3962C23.9359 43.0824 24.2258 42.8419 24.5935 42.6746C24.9612 42.5072 25.3713 42.4236 25.8238 42.4236C26.4531 42.4236 26.994 42.5874 27.4466 42.9151C27.8991 43.2358 28.2208 43.6785 28.4117 44.2433L27.3829 44.4106C27.2415 44.0899 27.04 43.8459 26.7784 43.6785C26.5168 43.5042 26.2092 43.4171 25.8556 43.4171C25.4738 43.4171 25.1591 43.5077 24.9117 43.689C24.6642 43.8633 24.5404 44.1038 24.5404 44.4106C24.5404 44.6407 24.6112 44.8359 24.7526 44.9962C24.9011 45.1566 25.0814 45.2856 25.2935 45.3832C25.5127 45.4808 25.8026 45.5923 26.1632 45.7178C26.6228 45.8712 27.0046 46.0281 27.3087 46.1884C27.6198 46.3418 27.8814 46.5614 28.0936 46.8473C28.3057 47.1331 28.4117 47.4922 28.4117 47.9244C28.4117 48.3428 28.2986 48.7088 28.0723 49.0225C27.8531 49.3363 27.5491 49.5803 27.1602 49.7546C26.7784 49.9219 26.3506 50.0056 25.8768 50.0056Z" fill="white"/>
<path d="M32.8023 49.0016L32.7069 49.901H31.7417C31.169 49.901 30.7341 49.7615 30.4371 49.4827C30.1402 49.2038 29.9917 48.8029 29.9917 48.28V45.4041H29.0477V44.4942H29.9917L30.278 42.9256H31.0311V44.4942H32.7069V45.4041H31.0311V48.28C31.0311 48.7611 31.268 49.0016 31.7417 49.0016H32.8023Z" fill="white"/>
<path d="M36.2686 50.0056C35.71 50.0056 35.2115 49.887 34.7731 49.65C34.3347 49.4129 33.9918 49.0818 33.7443 48.6565C33.4968 48.2312 33.3731 47.7467 33.3731 47.2028C33.3731 46.659 33.4968 46.1745 33.7443 45.7492C33.9918 45.3239 34.3347 44.9927 34.7731 44.7557C35.2115 44.5117 35.71 44.3897 36.2686 44.3897C36.8272 44.3897 37.3257 44.5117 37.7641 44.7557C38.2025 44.9927 38.5454 45.3239 38.7929 45.7492C39.0404 46.1745 39.1641 46.659 39.1641 47.2028C39.1641 47.7467 39.0404 48.2312 38.7929 48.6565C38.5454 49.0818 38.2025 49.4129 37.7641 49.65C37.3257 49.887 36.8272 50.0056 36.2686 50.0056ZM36.2686 49.0643C36.806 49.0643 37.2409 48.8935 37.5732 48.5519C37.9126 48.2103 38.0823 47.7606 38.0823 47.2028C38.0823 46.6451 37.9126 46.1954 37.5732 45.8538C37.2409 45.5052 36.806 45.3309 36.2686 45.3309C35.7312 45.3309 35.2964 45.5052 34.964 45.8538C34.6317 46.1954 34.4655 46.6451 34.4655 47.2028C34.4655 47.7536 34.6317 48.2033 34.964 48.5519C35.2964 48.8935 35.7312 49.0643 36.2686 49.0643Z" fill="white"/>
<path d="M40.2788 49.901V44.4942H41.0318L41.2546 45.2681C41.4172 44.9962 41.6187 44.801 41.8591 44.6825C42.0995 44.557 42.3859 44.4942 42.7182 44.4942H42.9728L43.0577 45.4773H42.4637C42.0819 45.4773 41.7955 45.5854 41.6046 45.8015C41.4137 46.0176 41.3182 46.3104 41.3182 46.6799V49.901H40.2788Z" fill="white"/>
<path d="M49 47.161C49 47.3004 48.9965 47.4085 48.9894 47.4852H44.4605C44.5171 47.9663 44.708 48.3497 45.0332 48.6356C45.3585 48.9214 45.7721 49.0643 46.2742 49.0643C46.6207 49.0643 46.9282 48.9981 47.1969 48.8656C47.4727 48.7262 47.6813 48.5449 47.8227 48.3218L48.7985 48.4787C48.5864 48.9667 48.2434 49.3432 47.7697 49.6082C47.303 49.8731 46.7833 50.0056 46.2105 50.0056C45.6661 50.0056 45.1782 49.887 44.7469 49.65C44.3155 49.406 43.9797 49.0713 43.7393 48.646C43.4989 48.2207 43.3787 47.7397 43.3787 47.2028C43.3787 46.659 43.4989 46.1745 43.7393 45.7492C43.9797 45.3239 44.312 44.9927 44.7363 44.7557C45.1605 44.5117 45.6449 44.3897 46.1893 44.3897C46.7267 44.3897 47.2075 44.5117 47.6318 44.7557C48.0631 44.9927 48.399 45.3239 48.6394 45.7492C48.8798 46.1675 49 46.6381 49 47.161ZM46.1893 45.2995C45.7721 45.2995 45.4115 45.4215 45.1075 45.6655C44.8105 45.9095 44.6125 46.2372 44.5135 46.6486H47.8651C47.7732 46.2442 47.5752 45.92 47.2712 45.676C46.9742 45.425 46.6136 45.2995 46.1893 45.2995Z" fill="white"/>
<path d="M19.6871 33.0007C21.3741 34.6642 24.0894 34.6642 29.52 34.6642H30.48C35.9106 34.6642 38.6259 34.6642 40.3129 33.0007C42 31.3372 42 28.6599 42 23.3053V22.3587C42 17.0041 42 14.3268 40.3129 12.6634C38.6259 11 35.9106 11 30.48 11H29.52C24.0894 11 21.3741 11 19.6871 12.6634C18 14.3268 18 17.0041 18 22.3587V23.3053C18 28.6599 18 31.3372 19.6871 33.0007Z" fill="#F19900"/>
<path fill-rule="evenodd" clip-rule="evenodd" d="M36.5297 26.7287L34.9081 26.3293C34.7128 26.2741 34.5749 26.1008 34.568 25.8995L34.3656 20.0145C34.3071 19.2356 33.7207 18.6161 33.1079 18.4337C33.0735 18.4234 33.0367 18.4372 33.0164 18.4664C32.9957 18.4961 33.0037 18.5371 33.0325 18.5592C33.1839 18.6747 33.6004 19.0516 33.6004 19.7017L33.5992 27.3961C33.5992 28.1391 32.8871 28.684 32.1527 28.5031L30.506 28.0975C30.3234 28.0345 30.1966 27.8669 30.1899 27.6735L29.9876 21.7881C29.9291 21.0092 29.3427 20.3897 28.7299 20.2073C28.6955 20.197 28.6587 20.2108 28.6383 20.24C28.6176 20.2697 28.6256 20.3107 28.6545 20.3328C28.8058 20.4483 29.2223 20.8252 29.2223 21.4753L29.2211 27.889L29.222 27.8892V29.1705C29.222 29.9134 28.51 30.4584 27.7755 30.2775L23.1244 29.1318C22.4778 28.9726 22.0244 28.4022 22.0244 27.7481L22.0244 20.0417C22.0244 19.2987 22.7364 18.7538 23.4709 18.9347L26.4016 19.6566V18.2674C26.4016 17.5244 27.1136 16.9795 27.848 17.1604L30.7786 17.8822V16.493C30.7786 15.75 31.4906 15.2051 32.2251 15.386L36.8762 16.5316C37.5228 16.6909 37.9762 17.2612 37.9762 17.9153V25.6217C37.9762 26.3647 37.2641 26.9096 36.5297 26.7287Z" fill="#F19900"/>
<path d="M19.6871 33.0007C21.3741 34.6642 24.0894 34.6642 29.52 34.6642H30.48C35.9106 34.6642 38.6259 34.6642 40.3129 33.0007C42 31.3372 42 28.6599 42 23.3053V22.3587C42 17.0041 42 14.3268 40.3129 12.6634C38.6259 11 35.9106 11 30.48 11H29.52C24.0894 11 21.3741 11 19.6871 12.6634C18 14.3268 18 17.0041 18 22.3587V23.3053C18 28.6599 18 31.3372 19.6871 33.0007Z" fill="white"/>
<path fill-rule="evenodd" clip-rule="evenodd" d="M36.5297 26.7287L34.9081 26.3293C34.7128 26.2741 34.5749 26.1008 34.568 25.8995L34.3656 20.0145C34.3071 19.2356 33.7207 18.6161 33.1079 18.4337C33.0735 18.4234 33.0367 18.4372 33.0164 18.4664C32.9957 18.4961 33.0037 18.5371 33.0325 18.5592C33.1839 18.6747 33.6004 19.0516 33.6004 19.7017L33.5992 27.3961C33.5992 28.1391 32.8871 28.684 32.1527 28.5031L30.506 28.0975C30.3234 28.0345 30.1966 27.8669 30.1899 27.6735L29.9876 21.7881C29.9291 21.0092 29.3427 20.3897 28.7299 20.2073C28.6955 20.197 28.6587 20.2108 28.6383 20.24C28.6176 20.2697 28.6256 20.3107 28.6545 20.3328C28.8058 20.4483 29.2223 20.8252 29.2223 21.4753L29.2211 27.889L29.222 27.8892V29.1705C29.222 29.9134 28.51 30.4584 27.7755 30.2775L23.1244 29.1318C22.4778 28.9726 22.0244 28.4022 22.0244 27.7481L22.0244 20.0417C22.0244 19.2987 22.7364 18.7538 23.4709 18.9347L26.4016 19.6566V18.2674C26.4016 17.5244 27.1136 16.9795 27.848 17.1604L30.7786 17.8822V16.493C30.7786 15.75 31.4906 15.2051 32.2251 15.386L36.8762 16.5316C37.5228 16.6909 37.9762 17.2612 37.9762 17.9153V25.6217C37.9762 26.3647 37.2641 26.9096 36.5297 26.7287Z" fill="#F19900"/>
</svg>
