<svg width="352" height="267" viewBox="0 0 352 267" fill="none" xmlns="http://www.w3.org/2000/svg">
<path d="M120.296 184.639C116.704 172.799 110.696 171.463 110.696 171.463C110.696 171.463 76.7038 187.031 75.4958 201.159C74.4958 212.863 129.672 212.103 134.616 214.567C134.616 214.567 129.48 197.471 125.08 195.727C121.968 194.495 107.584 193.847 112 189.799C114.501 187.687 117.295 185.949 120.296 184.639Z" fill="#221F1F"/>
<path d="M274.865 122.534C272.129 132.686 241.777 157.462 242.065 158.366C244.905 167.422 257.689 169.87 257.689 169.87C273.097 159.366 286.209 147.334 297.521 132.318C304.785 122.67 318.385 98.4224 299.961 92.4544C284.889 87.5664 245.297 103.238 245.297 103.238C245.297 103.238 256.289 110.75 258.457 120.11C262.145 119.35 276.521 116.374 274.865 122.534Z" fill="#221F1F"/>
<path d="M203.287 228.007C204.991 226.991 205.791 223.815 206.487 222.119C207.751 218.983 208.831 215.759 210.167 212.655C210.407 212.087 208.679 212.279 208.423 212.863C207.367 215.327 206.487 217.863 205.519 220.367C204.991 221.735 204.455 223.103 203.863 224.447C203.551 225.143 202.951 227.015 202.207 227.463C201.199 228.063 202.711 228.351 203.295 228.007H203.287Z" fill="#221F1F"/>
<path d="M185.281 215.096C187.489 213.904 189.681 212.696 191.833 211.376C193.985 210.056 197.289 208.592 198.745 206.36C199.625 205.008 196.137 205.296 195.505 206.272C194.185 208.288 190.753 209.688 188.737 210.872C186.881 211.939 185.014 213.005 183.137 214.072C182.513 214.408 182.273 214.984 182.841 215.448C183.409 215.912 184.753 215.448 185.305 215.128L185.281 215.096Z" fill="#221F1F"/>
<path d="M195.2 225.799L202.216 214.599C202.688 213.855 200.928 213.935 200.616 214.487L193.552 225.647C193.088 226.383 194.848 226.303 195.192 225.751L195.2 225.799Z" fill="#221F1F"/>
<path d="M129.993 96.7021C131.302 99.5646 132.801 102.336 134.481 104.998C135.121 105.942 135.793 106.87 136.465 107.798C137.617 109.446 138.865 111.062 140.137 112.598C141.439 114.133 142.845 115.577 144.345 116.918C145.687 118.1 147.124 119.17 148.641 120.118C150.561 121.35 152.641 122.318 154.561 123.55C155.161 123.934 154.809 124.502 153.977 124.806C153.421 124.992 152.832 125.06 152.248 125.006C151.664 124.953 151.098 124.778 150.585 124.494C146.24 122.13 142.379 118.972 139.201 115.182C137.313 112.902 135.369 110.614 133.641 108.174C131.777 105.484 130.109 102.663 128.649 99.7341C128.185 98.8381 127.777 97.9181 127.337 97.0221L126.137 94.2701C124.945 91.4781 123.961 88.5981 122.937 85.7741C122.137 83.5741 121.337 81.4381 120.537 79.2621C120.377 78.7821 120.193 78.3181 120.041 77.8301C119.489 76.0141 119.505 75.4301 120.041 74.8221C120.154 74.6826 120.28 74.554 120.417 74.4381C120.881 74.1261 121.505 74.7581 122.017 76.0381C123.545 79.8461 124.841 83.9101 126.321 87.9101C127.417 90.8781 128.585 93.8301 129.961 96.7101L129.993 96.7021Z" fill="#221F1F"/>
<path d="M187.201 93.7023C186.825 90.8463 186.401 87.9823 185.865 85.1343C185.673 84.0863 185.417 83.0623 185.225 82.0223L183.201 70.9743C182.889 69.3743 182.521 67.7103 182.161 66.0943C181.591 64.0228 181.248 61.8957 181.137 59.7503C181.137 58.4143 183.801 59.7983 184.185 62.1503C184.929 66.3263 185.785 70.5503 186.377 74.8783C186.737 77.4703 187.433 80.0943 187.937 82.7183C188.47 85.6143 188.969 88.5183 189.433 91.4303C189.697 93.2303 189.945 95.0303 190.145 96.8383C190.489 99.5663 190.665 102.334 190.825 105.07C190.913 107.206 191.113 109.302 191.009 111.47C191.009 111.942 191.009 112.406 190.969 112.886C190.713 114.646 190.441 115.182 189.713 115.406C189.553 115.469 189.386 115.515 189.217 115.542C188.673 115.542 188.361 114.814 188.417 113.606C188.521 109.871 188.432 106.133 188.153 102.406C187.993 100.974 187.897 99.5423 187.721 98.1103C187.545 96.6783 187.393 95.2303 187.153 93.7903L187.201 93.7023Z" fill="#221F1F"/>
<path d="M204.927 53.1746C182.839 68.6466 131.431 52.1586 131.431 52.1586C131.431 52.1586 121.727 58.7746 118.543 67.2226L121.407 77.9986C121.407 77.9986 95.5753 71.8866 93.2553 50.5346C89.5113 15.9826 133.511 23.4146 133.959 23.0786C210.855 -34.4654 226.103 38.3426 204.927 53.1746Z" fill="#221F1F"/>
<path d="M131.039 24.4711C126.895 24.1072 122.727 24.1072 118.583 24.4711C116.531 24.6628 114.493 24.9807 112.479 25.4231C110.497 25.8796 108.557 26.5032 106.679 27.2871C104.842 28.0781 103.111 29.0967 101.527 30.3191C99.9583 31.5276 98.6057 32.9938 97.5274 34.6551C96.4444 36.3183 95.6341 38.144 95.1274 40.0631C94.8808 41.0348 94.6938 42.0206 94.5674 43.0151L94.3914 44.5191C94.3914 45.0311 94.3914 45.5431 94.3514 46.0471C94.3034 46.7903 94.3034 47.5359 94.3514 48.2791C94.4074 49.0231 94.4474 49.7751 94.5114 50.5191C94.6859 51.9821 94.9857 53.4274 95.4074 54.8391C95.8176 56.2468 96.3531 57.6149 97.0074 58.9271C97.6804 60.2371 98.4561 61.4917 99.3274 62.6791C102.244 66.4709 105.902 69.6284 110.079 71.9591C112.151 73.1757 114.306 74.245 116.527 75.1591C117.087 75.3831 117.647 75.5991 118.207 75.8071L119.111 76.1271C119.311 76.1991 119.519 76.2631 119.727 76.3191C119.709 76.1232 119.669 75.93 119.607 75.7431L118.007 69.4871L117.471 67.4391L117.423 67.2631V67.1751V67.0871L117.575 66.7431L117.831 66.1431L118.223 65.2551C118.519 64.6871 118.823 64.1191 119.135 63.5591C119.447 62.9991 119.807 62.4631 120.167 61.9591C121.618 59.89 123.268 57.9687 125.095 56.2231C125.991 55.3431 126.925 54.5031 127.895 53.7031C128.375 53.3031 128.863 52.9111 129.359 52.5271L130.111 51.9591C130.487 51.6791 130.911 51.3991 131.271 51.1591L133.287 51.7831L134.847 52.2471L137.999 53.1271C147.306 55.6316 156.806 57.355 166.399 58.2791C172.5 58.8802 178.643 58.9257 184.751 58.4151C187.778 58.1586 190.78 57.661 193.727 56.9271C196.656 56.2298 199.49 55.1822 202.167 53.8071C205.367 51.9271 205.367 52.6631 202.911 54.9831C202.122 55.6142 201.296 56.1992 200.439 56.7351C199.307 57.4134 198.125 58.0045 196.903 58.5031C193.827 59.7505 190.599 60.5845 187.303 60.9831C182.54 61.5249 177.74 61.6801 172.951 61.4471C168.196 61.2418 163.455 60.7744 158.751 60.0471C154.047 59.3431 149.383 58.4551 144.759 57.3831C142.447 56.8471 140.135 56.2791 137.839 55.6551C136.693 55.3511 135.549 55.0311 134.407 54.6951L132.687 54.1831L131.831 53.9191L131.711 53.8791H131.655L131.423 54.0471L130.495 54.7591C129.879 55.2391 129.271 55.7431 128.679 56.2551C127.492 57.2825 126.357 58.3693 125.279 59.5111C123.116 61.7256 121.347 64.2931 120.047 67.1031C120.007 67.1991 119.967 67.2311 119.967 67.2951V67.3831L120.023 67.6071L120.375 68.9911C120.607 69.9191 120.847 70.8471 121.079 71.7751L121.799 74.5751L122.423 76.9751C122.607 77.7751 122.751 78.4711 122.919 79.2151L122.975 79.4951V79.6311H122.831L122.263 79.4871L121.143 79.1991C120.399 79.0071 119.607 78.7831 118.855 78.5351L117.767 78.1751L117.063 77.9191L115.671 77.3831C113.819 76.6412 112.009 75.8 110.247 74.8631C106.676 72.9869 103.397 70.602 100.511 67.7831C99.0659 66.3543 97.7612 64.7898 96.6154 63.1111C95.4772 61.4183 94.5301 59.6045 93.7914 57.7031C92.9801 55.6186 92.4423 53.4378 92.1914 51.2151C92.0314 50.1111 92.0234 49.0151 91.9274 47.9191C91.8314 46.8231 91.9274 45.7031 91.9274 44.5991C91.9674 44.0471 92.0474 43.4871 92.1034 42.9351C92.1515 42.3789 92.2316 41.826 92.3434 41.2791C92.5479 40.1749 92.8313 39.0867 93.1914 38.0231C93.5413 36.9508 93.9746 35.9076 94.4874 34.9031C94.7354 34.3991 95.0634 33.9351 95.3514 33.4471L95.7994 32.7271L96.3194 32.0551C96.6523 31.5983 97.0102 31.1603 97.3914 30.7431L98.5754 29.5271C99.4083 28.7735 100.29 28.076 101.215 27.4391C103.054 26.1842 105.043 25.1655 107.135 24.4071C111.276 22.9252 115.609 22.0468 119.999 21.7991C122.399 21.6391 124.799 21.6151 127.199 21.6951C128.399 21.7431 129.599 21.8071 130.791 21.8951L132.575 22.0471L133.375 22.1191C133.519 22.1191 133.671 22.1671 133.775 22.0471L137.183 19.5831L140.783 17.1031C143.183 15.5031 145.663 13.9031 148.175 12.4471C155.067 8.24525 162.465 4.93609 170.191 2.59908C174.077 1.45525 178.083 0.76532 182.127 0.54308C186.181 0.318924 190.243 0.809045 194.127 1.99108C197.141 2.94688 199.971 4.40766 202.495 6.31108C204.991 8.22243 207.154 10.5337 208.895 13.1511C212.334 18.4043 214.309 24.4799 214.615 30.7511C214.779 33.5035 214.626 36.2655 214.159 38.9831C213.597 42.6566 212.199 46.1519 210.071 49.1991C209.127 50.5736 207.839 51.6769 206.335 52.3991C205.888 52.627 205.416 52.8016 204.927 52.9191C204.663 52.9591 204.655 52.8071 204.863 52.5031C205.071 52.1991 205.503 51.7031 206.063 51.0791C207.763 49.0579 209.115 46.768 210.063 44.3031C211.87 39.2831 212.468 33.9081 211.809 28.6139C211.15 23.3196 209.253 18.2552 206.271 13.8311C203.188 9.41571 198.76 6.11558 193.647 4.42308C188.393 2.82936 182.834 2.50853 177.431 3.48708C169.759 4.71108 162.319 7.67108 155.295 11.3271C151.775 13.1671 148.343 15.1911 144.975 17.3271C143.311 18.4231 141.639 19.5111 140.007 20.6631C139.207 21.2311 138.359 21.7911 137.559 22.3911L134.895 24.3271L134.567 24.4871L134.407 24.5591H134.367C134.367 24.6391 134.367 24.4551 134.367 24.4711H134.327H134.239C134.006 24.5271 133.767 24.5619 133.527 24.5751C133.405 24.591 133.282 24.591 133.159 24.5751H132.927H132.535L131.007 24.4471L131.039 24.4711Z" fill="#221F1F"/>
<path d="M185.096 64.6786C185.771 63.1466 186.738 61.7608 187.944 60.5986C191.096 57.9986 192.984 61.2386 193.544 64.0386C194.48 68.4626 193.152 75.1666 188.744 77.3906C187.088 78.1906 189.608 78.4626 190.424 78.0466C196.024 75.1826 199 64.9906 194.808 59.8386C190.44 54.4706 184.304 60.9666 182.264 65.0786C181.936 65.7426 184.664 65.4946 185.032 64.6786H185.096Z" fill="#221F1F"/>
<path d="M122.225 91.0386C115.025 91.0386 102.353 80.9106 112.433 75.3026C114.089 74.3826 112.577 73.0866 111.241 73.8306C106.337 76.5586 103.697 80.9186 107.705 85.8306C110.729 89.5106 116.329 92.9586 121.225 92.9586C122.465 92.9586 124.105 91.0786 122.225 91.0786V91.0386Z" fill="#221F1F"/>
<path d="M138.576 217.902C128.352 197.542 118.736 176.934 108.176 156.83C106.272 153.15 104.272 149.526 102.28 145.902L98.7599 139.654L98.088 138.462L97.752 137.862C97.9569 137.781 98.1683 137.716 98.3839 137.67L101.024 136.942L104.392 136.03L189.104 113.158C201.624 109.758 214.192 106.27 226.592 102.806L237.264 99.8223L238.944 102.662L240.192 104.798C240.992 106.23 241.792 107.67 242.592 109.118C244.192 112.006 245.712 114.934 247.192 117.878C250.16 123.766 252.92 129.758 255.512 135.79C257.544 140.534 256.608 140.19 254.184 136.502C251.76 132.814 247.832 125.798 243.512 117.366C242.184 114.774 240.819 112.201 239.416 109.646C238.712 108.374 238.008 107.094 237.288 105.838C236.648 104.71 235.496 102.75 235.824 103.31L196.8 113.934C183.307 117.577 169.757 121.19 156.152 124.774C146.304 127.366 136.28 130.094 126.208 132.862L111.064 136.998L103.504 139.078L102.296 139.406L101.992 139.486C101.992 139.486 101.848 139.486 101.88 139.55L101.952 139.686L103.248 141.998C114.448 162.062 124.288 182.798 134.408 203.334C140.648 215.974 146.944 228.582 153.736 240.934L155.664 244.43L157.648 247.91L158.632 249.646L159.072 250.446C159.153 250.604 159.244 250.756 159.344 250.902C159.521 250.917 159.699 250.903 159.872 250.862L160.672 250.71L162.592 250.254C167.744 248.958 172.864 247.422 177.96 245.862C188.152 242.718 198.264 239.342 208.264 235.854C223.808 230.422 238.896 224.654 254.056 218.758L264 214.798C276.472 209.902 280.488 208.47 283.44 208.102C284.086 207.986 284.737 207.906 285.392 207.862C286.8 207.918 281.904 210.406 272.824 214.15C245.872 225.238 217.088 236.046 187.712 245.622C182.256 247.39 176.776 249.11 171.248 250.726C168.48 251.526 165.704 252.326 162.864 253.014C162.152 253.19 161.44 253.358 160.688 253.502C160.535 253.54 160.38 253.569 160.224 253.59L159.696 253.678C159.361 253.718 159.023 253.718 158.688 253.678C158.533 253.65 158.386 253.59 158.256 253.502L158.064 253.358C158.064 253.406 158.112 253.23 157.976 253.462H157.936L157.856 253.382C157.632 253.15 157.392 252.966 157.184 252.71L154.784 248.47C149.096 238.454 143.76 228.246 138.568 217.99L138.576 217.902Z" fill="#221F1F"/>
<path d="M241.264 229.623C234.824 231.783 228.352 233.871 221.88 235.943C219.48 236.695 217.176 237.543 214.816 238.247C206.464 240.823 198.08 243.279 189.704 245.727C185.984 246.799 182.264 247.959 178.592 249.103C173.88 250.583 169.184 252.175 164.384 253.311C161.384 254.023 164.384 250.327 169.792 248.679C179.44 245.759 189.104 242.975 198.904 240.303C204.768 238.703 210.752 236.671 216.672 234.783C223.184 232.719 229.68 230.607 236.16 228.447C240.16 227.135 244.16 225.751 248.104 224.383L257.112 221.183C260.112 220.103 263.08 218.975 266.032 217.855C270.624 216.087 275.032 214.151 279.504 212.255C280.488 211.831 281.44 211.399 282.432 210.983C286.128 209.447 287.376 209.151 288.448 209.519C288.698 209.574 288.94 209.66 289.168 209.775C289.744 210.159 288.408 211.207 285.744 212.455C283.776 213.383 281.771 214.298 279.728 215.199C277.685 216.101 275.608 216.967 273.496 217.799C269.312 219.543 265 221.151 260.696 222.775C254.296 225.175 247.792 227.431 241.304 229.671L241.264 229.623Z" fill="#221F1F"/>
<path d="M169.255 129.8C173.351 128.768 177.455 127.752 181.543 126.704C183.039 126.328 184.511 125.904 185.999 125.496C191.271 124.184 196.551 122.92 201.815 121.584C204.143 121 206.471 120.328 208.767 119.648C211.684 118.677 214.654 117.876 217.663 117.248C219.559 116.92 217.927 120.144 214.527 121.112C208.495 122.824 202.423 124.368 196.231 125.68C192.519 126.48 188.759 127.624 185.031 128.592C180.919 129.659 176.799 130.725 172.671 131.792C170.135 132.44 167.599 133.088 165.071 133.752C161.239 134.76 157.375 135.736 153.591 136.816C150.655 137.616 147.815 138.64 144.935 139.56C144.295 139.76 143.687 139.984 143.039 140.176C140.639 140.88 139.839 140.912 139.127 140.344C138.958 140.225 138.8 140.091 138.655 139.944C138.271 139.456 139.127 138.736 140.839 138.088C145.911 136.168 151.391 134.592 156.903 133.064C160.999 131.936 165.135 130.872 169.255 129.776C169.247 129.752 169.247 129.8 169.255 129.8Z" fill="#221F1F"/>
<path d="M276.504 180.592C277.304 182.464 278.176 184.336 279.056 186.192C279.376 186.872 279.768 187.512 280.088 188.184C281.208 190.584 282.328 192.984 283.544 195.312C284.072 196.36 284.688 197.36 285.312 198.344C286.195 199.555 286.959 200.849 287.592 202.208C287.928 203.088 285.192 203.384 284.28 201.896C282.623 199.278 281.191 196.524 280 193.664C279.28 191.944 278.28 190.296 277.44 188.592C276.52 186.72 275.648 184.832 274.776 182.936L273.176 179.44C272.376 177.68 271.576 175.888 270.736 174.168C270.08 172.824 269.296 171.576 268.576 170.28C268.416 169.992 268.24 169.728 268.088 169.432C267.544 168.344 267.544 167.92 268.088 167.4C268.197 167.275 268.314 167.157 268.44 167.048C268.872 166.728 269.48 166.992 269.984 167.736C271.484 170.029 272.803 172.437 273.928 174.936L276.56 180.536L276.504 180.592Z" fill="#221F1F"/>
<path d="M101.193 225.798L115.497 232.198C117.233 232.998 119.009 233.67 120.745 234.446L139.145 242.71C141.865 243.918 144.633 245.062 147.369 246.174C150.881 247.606 154.473 248.91 157.849 250.662C159.953 251.758 156.145 253.062 152.105 251.366C144.953 248.382 137.865 245.246 130.817 241.838C126.609 239.806 122.081 238.014 117.705 236.094L103.305 229.694L94.4167 225.782C89.9287 223.822 85.4247 221.822 80.9367 219.958L72.5527 216.59L78.9527 213.742C79.6967 213.398 80.4167 213.038 81.1767 212.702C84.0007 211.47 84.9767 211.262 85.8727 211.694C86.0799 211.772 86.2784 211.871 86.4647 211.99C86.9607 212.406 85.9847 213.326 83.9767 214.35C82.6647 215.017 81.3314 215.673 79.9767 216.318C79.7527 216.486 79.7287 216.558 79.7287 216.606H79.9927H80.0007L81.2567 217.118L86.7367 219.422C91.5767 221.47 96.4087 223.598 101.241 225.686L101.193 225.798Z" fill="#221F1F"/>
<path d="M107.808 231.159C111.771 232.796 115.731 234.431 119.688 236.063C121.136 236.655 122.608 237.175 124.048 237.775C129.136 239.887 134.208 242.039 139.304 244.135C141.56 245.063 143.864 245.927 146.136 246.759C149.102 247.732 152.011 248.872 154.848 250.175C156.592 251.047 153.328 252.655 149.968 251.391C144.024 249.135 138.136 246.727 132.296 244.055C128.8 242.455 125.032 241.127 121.4 239.655C117.4 238.055 113.4 236.399 109.4 234.767C106.944 233.767 104.488 232.759 102.024 231.775C98.2879 230.279 94.5519 228.743 90.8239 227.335C87.9199 226.239 85.016 225.327 82.112 224.327C81.472 224.111 80.84 223.919 80.2 223.687C77.8 222.823 77.144 222.359 76.904 221.471C76.8327 221.277 76.7818 221.076 76.752 220.871C76.752 220.247 77.8639 220.175 79.6479 220.687C84.9439 222.207 90.36 224.223 95.776 226.287C99.776 227.839 103.776 229.487 107.832 231.087L107.808 231.159Z" fill="#221F1F"/>
<path d="M308.944 119.983C307.832 122.803 306.494 125.529 304.944 128.135C303.376 130.698 301.667 133.171 299.824 135.543C296.126 140.22 292.1 144.629 287.776 148.735C284.656 151.743 281.464 154.679 278.176 157.455C272.336 162.359 266.264 166.959 260.112 171.415C258.568 172.519 257.072 173.671 255.384 174.703C253.696 175.735 252.064 176.623 250.4 177.543C247.072 179.367 243.76 181.183 240.528 183.143C234.761 186.496 229.413 190.524 224.6 195.143C223.104 196.628 221.714 198.216 220.44 199.895C220.112 200.3 219.805 200.722 219.52 201.159C219.224 201.599 218.92 202.023 218.632 202.463C218.104 203.359 217.536 204.239 217.096 205.183C216.656 206.127 216.216 207.071 215.8 208.015C215.616 208.503 215.464 208.999 215.296 209.487C215.216 209.735 215.12 209.975 215.048 210.223L214.864 210.975C214.329 212.975 214.037 215.033 213.992 217.103C213.992 219.671 213.384 219.455 212.72 217.159C212.532 216.474 212.411 215.772 212.36 215.063C212.278 214.139 212.278 213.21 212.36 212.287C212.535 209.931 213.128 207.626 214.112 205.479C216.06 201.338 218.713 197.567 221.952 194.335C222.752 193.535 223.552 192.735 224.352 191.975C225.152 191.215 226.024 190.471 226.896 189.775C228.616 188.335 230.416 187.015 232.24 185.727C235.896 183.175 239.704 180.887 243.568 178.727C245.496 177.647 247.448 176.607 249.376 175.527C251.304 174.447 253.256 173.447 255.056 172.327L255.856 171.807L256.656 171.231L258.256 170.079L261.496 167.727C263.648 166.127 265.8 164.527 267.896 162.847C272.152 159.519 276.336 156.055 280.36 152.495C284.803 148.608 289.023 144.474 293 140.111C294.976 137.919 296.88 135.671 298.6 133.319C300.384 130.988 302.015 128.543 303.48 125.999C305.303 122.906 306.74 119.601 307.76 116.159C308.777 112.746 309.106 109.164 308.728 105.623C308.624 104.959 308.584 104.287 308.424 103.639L307.944 101.687C307.752 101.047 307.488 100.423 307.264 99.7908C307.136 99.4868 307.048 99.1428 306.896 98.8628L306.448 98.0068C305.8 96.8848 304.935 95.903 303.904 95.1188L303.528 94.8148L303.112 94.5588C302.832 94.3908 302.56 94.2068 302.272 94.0468C301.686 93.7428 301.083 93.4757 300.464 93.2468C297.918 92.3618 295.247 91.8892 292.552 91.8468C289.83 91.7749 287.107 91.9194 284.408 92.2788C276 93.3588 268 95.7908 260.088 98.5988C258.344 99.2308 256.664 99.8868 254.92 100.559C251.72 101.799 249.584 102.663 248.064 103.175C247.026 103.585 245.93 103.83 244.816 103.903C244.456 103.931 244.095 103.931 243.736 103.903C242.936 103.743 245.336 102.167 250.032 100.103C257.163 96.9606 264.526 94.3743 272.056 92.3668C275.945 91.3274 279.893 90.5259 283.88 89.9668C287.973 89.3846 292.123 89.3228 296.232 89.7828C297.032 89.8868 297.784 90.0388 298.56 90.1988C299.343 90.3735 300.115 90.5952 300.872 90.8628C302.446 91.3835 303.926 92.1533 305.256 93.1428C306.632 94.1665 307.772 95.4732 308.6 96.9748C308.792 97.3508 309 97.7268 309.176 98.1028L309.592 99.2228C309.892 99.9564 310.141 100.71 310.336 101.479C310.512 102.279 310.76 103.007 310.872 103.791L311.192 106.191L311.272 108.591C311.272 109.391 311.184 110.191 311.144 110.943C310.825 114.046 310.108 117.095 309.008 120.015L308.944 119.983Z" fill="#221F1F"/>
<path d="M262.696 123.119C266.072 122.239 269.952 122.071 273.184 123.471C274.304 123.951 278.12 122.271 276.544 121.591C272.136 119.687 266.768 120.111 262.208 121.303C259.736 121.951 260.2 123.775 262.696 123.119Z" fill="#221F1F"/>
<path d="M214.976 176.679C220.645 172.348 226.245 167.932 231.776 163.431C233.792 161.783 235.776 160.079 237.752 158.407C244.808 152.535 251.76 146.535 258.376 140.191C261.304 137.367 264.136 134.415 266.768 131.391L268.024 129.919L269.232 128.407C270.032 127.415 270.792 126.367 271.56 125.335C273.06 123.323 274.334 121.153 275.36 118.863C275.864 117.487 276.432 117.687 276.576 119.231C276.576 119.423 276.576 119.631 276.576 119.871C276.56 120.11 276.531 120.347 276.488 120.583C276.399 121.156 276.271 121.723 276.104 122.279C275.888 122.855 275.632 123.487 275.304 124.135C274.96 124.795 274.575 125.434 274.152 126.047C272.596 128.277 270.91 130.414 269.104 132.447C268.216 133.463 267.312 134.463 266.392 135.431C265.472 136.399 264.536 137.375 263.592 138.327C259.808 142.135 255.856 145.751 251.784 149.263C246.92 153.463 241.952 157.935 236.904 162.135C231.352 166.743 225.723 171.257 220.016 175.679C216.507 178.409 212.971 181.097 209.408 183.743C208.048 184.743 206.696 185.743 205.312 186.719C204.606 187.23 203.874 187.705 203.12 188.143C202.294 188.562 201.4 188.833 200.48 188.943C198.73 189.108 196.965 189 195.248 188.623C193.576 188.303 191.944 187.871 190.336 187.503C189.24 187.236 188.128 187.036 187.008 186.903C186.477 186.846 185.941 186.833 185.408 186.863H185.112L184.896 186.903C184.756 186.929 184.62 186.97 184.488 187.023C184.327 187.08 184.182 187.173 184.064 187.295C184.016 187.369 183.997 187.457 184.01 187.544C184.024 187.631 184.068 187.71 184.136 187.767C184.382 188.008 184.669 188.203 184.984 188.343C186.201 188.968 187.457 189.516 188.744 189.983C189.784 190.375 190.816 190.711 191.88 191.071C195.88 192.375 197.072 192.807 197.792 193.631C197.952 193.815 198.184 194.007 198.288 194.159C198.48 194.431 198.072 194.615 197.256 194.599C196.058 194.532 194.871 194.328 193.72 193.991C191.359 193.375 189.035 192.624 186.76 191.743C186.184 191.511 185.6 191.263 185.016 190.999C184.728 190.863 184.432 190.719 184.144 190.567C183.984 190.487 183.872 190.431 183.68 190.319C183.425 190.177 183.179 190.02 182.944 189.847C182.72 189.679 182.472 189.519 182.264 189.343L181.704 188.783C181.419 188.428 181.226 188.007 181.144 187.559C181.075 187.098 181.163 186.628 181.392 186.223C181.512 186.033 181.66 185.863 181.832 185.719C181.999 185.549 182.187 185.401 182.392 185.279C182.855 185.04 183.343 184.855 183.848 184.727L184.648 184.575C184.783 184.55 184.919 184.537 185.056 184.535H185.328C185.987 184.506 186.648 184.53 187.304 184.607C188.521 184.76 189.728 184.982 190.92 185.271C193.115 185.858 195.343 186.312 197.592 186.631C199.073 186.873 200.592 186.684 201.968 186.087C202.68 185.668 203.369 185.212 204.032 184.719L206.208 183.119C209.104 180.999 211.976 178.823 214.824 176.623L214.976 176.679Z" fill="#221F1F"/>
<path d="M201.873 209.664C201.785 213.008 201.073 216.256 200.601 219.56C200.297 221.848 199.745 224.8 200.521 227.032C201.049 228.552 202.369 228.632 203.577 227.424C205.329 225.704 205.977 221.92 206.705 219.704C207.553 217.144 208.105 213.856 209.641 211.592C209.857 211.272 207.745 211.376 207.345 211.968C204.897 215.576 204.305 220.888 202.713 224.928C202.295 225.704 201.926 226.506 201.609 227.328C203.601 230.296 202.833 225.112 202.745 225.92C202.857 224.968 202.553 223.848 202.569 222.856C202.649 218.208 204.065 213.688 204.169 209.032C204.169 208.584 201.873 208.912 201.849 209.648L201.873 209.664Z" fill="#221F1F"/>
<path d="M195.824 208.878L196.624 206.958L196.792 206.67C196.863 206.55 196.925 206.424 196.976 206.294C196.875 206.328 196.776 206.368 196.68 206.414L196.464 206.526L196.32 206.598L196.24 206.646L195.992 206.79L193.592 208.262C192.048 209.206 190.528 210.198 188.96 211.11C187.568 211.91 186.168 212.71 184.72 213.438L183.624 213.982L182.976 214.286L182.072 214.678C181.072 215.163 179.983 215.435 178.872 215.478C178.713 215.469 178.554 215.442 178.4 215.398C178.21 215.361 178.025 215.302 177.848 215.222C177.651 215.134 177.479 214.999 177.344 214.83C177.218 214.65 177.151 214.434 177.152 214.214C177.257 213.345 177.655 212.538 178.28 211.926C178.675 211.477 179.097 211.052 179.544 210.654C179.992 210.246 180.544 209.782 180.776 209.582L182.648 208.07C184.872 206.31 187.088 204.534 189.2 202.726C190.56 201.558 191.88 200.326 193.152 199.118C194.404 197.958 195.547 196.686 196.568 195.318C196.832 194.91 197.04 194.782 197.264 194.87C197.488 194.958 197.68 195.318 197.696 195.91C197.752 197.102 196.952 199.006 195.416 200.51C192.712 203.072 189.862 205.476 186.88 207.71C185.424 208.838 183.968 209.958 182.552 211.086L182.024 211.51L181.952 211.566H181.904L181.68 211.702C181.455 211.835 181.272 212.029 181.152 212.262C181.152 212.422 181.312 212.438 181.424 212.43C181.572 212.418 181.718 212.386 181.856 212.334C182.021 212.281 182.181 212.217 182.336 212.142C182.752 211.942 183.304 211.67 183.776 211.414C185.744 210.366 187.688 209.174 189.616 208.014L193.44 205.678L195.512 204.414C196.504 203.798 197.56 203.174 198.528 202.638C198.958 202.45 199.419 202.344 199.888 202.326C200.072 202.326 200.216 202.326 200.368 202.326C200.52 202.326 200.488 202.382 200.512 202.43C200.516 202.467 200.516 202.505 200.512 202.542V202.774C200.512 202.942 200.512 203.102 200.512 203.326V203.646L200.424 204.07C200.339 204.417 200.213 204.753 200.048 205.07L199.584 206.142L198.416 208.854L197.52 210.966C196.934 212.379 196.374 213.798 195.84 215.222C195.544 216.022 195.256 216.822 194.976 217.622L194.576 218.83L194.24 219.902C194.104 220.35 193.976 220.814 193.872 221.294C193.755 221.773 193.726 222.269 193.784 222.758C193.802 222.844 193.838 222.926 193.888 222.998C193.906 223.038 193.938 223.069 193.979 223.086C194.019 223.102 194.064 223.102 194.104 223.086C194.258 222.997 194.392 222.878 194.496 222.734C194.71 222.455 194.908 222.164 195.088 221.862C195.36 221.414 195.608 220.958 195.824 220.534L196.992 218.278L199.392 213.534C199.752 212.838 200.096 212.15 200.48 211.454C201.928 208.886 202.608 208.182 203.472 207.998C203.663 207.941 203.858 207.904 204.056 207.886C204.616 207.934 204.272 209.11 203.312 210.99C201.968 213.657 200.6 216.355 199.208 219.086C198.848 219.774 198.48 220.462 198.112 221.15L197.2 222.798C196.808 223.462 196.4 224.126 196.024 224.726C195.682 225.262 195.291 225.766 194.856 226.23C194.579 226.535 194.237 226.776 193.856 226.934C193.589 227.037 193.302 227.078 193.016 227.054C192.931 227.046 192.847 227.025 192.768 226.99L192.608 226.91L192.528 226.87H192.488V226.926L192.208 226.774L191.984 226.598L191.664 226.166L191.52 225.966L191.408 225.71C191.148 224.969 191.074 224.175 191.192 223.398C191.192 223.134 191.232 222.902 191.28 222.598L191.44 221.742C191.536 221.182 191.72 220.566 191.864 219.974C191.944 219.686 192.024 219.382 192.112 219.086L192.256 218.63L192.544 217.71L193.16 215.902C194.016 213.502 194.952 211.166 195.912 208.846L195.824 208.878Z" fill="#221F1F"/>
<path d="M90.3517 211.518C87.4738 210.891 84.6366 210.089 81.8557 209.118C80.4244 208.612 79.0359 207.991 77.7037 207.262C77.0006 206.87 76.3362 206.412 75.7197 205.894C75.0197 205.319 74.4498 204.602 74.0477 203.79C73.9692 203.626 73.905 203.454 73.8557 203.278C73.7955 203.121 73.7526 202.957 73.7277 202.79L73.5837 201.878C73.5329 201.58 73.5141 201.277 73.5277 200.974C73.5116 200.671 73.5116 200.366 73.5277 200.062C73.5795 199.471 73.6812 198.885 73.8317 198.31L74.0637 197.462L74.3917 196.662C75.1843 194.854 76.2382 193.172 77.5197 191.67C78.7454 190.199 80.0827 188.824 81.5197 187.558C84.3321 185.058 87.3212 182.764 90.4637 180.694C93.2237 178.838 96.0637 177.054 98.8477 175.358C102.432 173.099 106.175 171.102 110.048 169.382C112.448 168.398 110.432 171.822 106.232 174.078C102.488 176.094 98.7997 178.206 95.1917 180.478C91.5692 182.697 88.0756 185.12 84.7277 187.734C82.7199 189.321 80.8905 191.121 79.2717 193.102C77.6438 194.976 76.501 197.22 75.9437 199.638C75.8294 200.264 75.7944 200.901 75.8397 201.534L75.9757 202.462C75.9757 202.582 76.0477 202.694 76.0877 202.806C76.1427 202.924 76.2042 203.039 76.2717 203.15C77.0435 204.181 78.0574 205.005 79.2237 205.55C81.78 206.797 84.4618 207.768 87.2237 208.446C90.6477 209.358 94.1437 210.046 97.6237 210.702C102.952 211.638 108.336 212.422 113.68 213.102C117.832 213.598 121.928 213.902 126.056 214.374C126.968 214.478 127.864 214.566 128.784 214.702C132.168 215.214 133.352 215.726 133.84 216.71C133.936 216.926 134.056 217.254 133.88 217.35C133.704 217.446 133.76 217.35 133.664 217.398C133.704 217.398 133.504 217.478 133.488 217.502C133.472 217.526 133.488 217.55 133.424 217.55H133.136C132.64 217.55 131.712 217.398 130.512 217.238C126.92 216.774 123.128 216.438 119.312 216.046C115.496 215.654 111.592 215.182 107.696 214.662C101.912 213.862 96.1117 212.966 90.3437 211.702L90.3517 211.518Z" fill="#221F1F"/>
<path d="M288.191 191.687C308.394 190.988 328.594 190.255 348.791 189.487C351.327 189.391 352.455 186.239 349.279 186.359C329.082 187.159 308.879 187.892 288.671 188.559C286.135 188.647 285.015 191.759 288.191 191.687Z" fill="#221F1F"/>
<path d="M1.95199 202.422C23.824 201.278 45.704 200.382 67.552 199.51C68.496 199.47 70.504 199.19 70.92 198.142C71.336 197.094 70.592 196.694 69.568 196.742C47.688 197.614 25.808 198.51 3.96799 199.654C3.02399 199.702 1.01599 199.966 0.599987 201.022C0.183987 202.078 0.927986 202.478 1.95199 202.422Z" fill="#221F1F"/>
<path d="M242.448 263.271C242.43 263.298 242.407 263.321 242.379 263.338C242.351 263.354 242.32 263.364 242.288 263.367H225.752C225.721 263.364 225.692 263.353 225.665 263.337C225.639 263.32 225.617 263.298 225.6 263.271C225.496 263.271 225.408 263.927 225.408 264.735C225.408 265.543 225.496 266.199 225.6 266.199C225.618 266.173 225.642 266.15 225.669 266.133C225.697 266.117 225.728 266.107 225.76 266.103H242.264C242.294 266.107 242.323 266.116 242.35 266.131C242.376 266.147 242.398 266.167 242.416 266.191C242.416 266.191 242.608 265.535 242.608 264.727C242.608 263.919 242.552 263.271 242.448 263.271Z" fill="#232020"/>
<path d="M268.216 263.271C268.198 263.298 268.174 263.321 268.147 263.338C268.119 263.354 268.088 263.364 268.056 263.367H251.52C251.489 263.363 251.46 263.353 251.433 263.336C251.407 263.319 251.385 263.297 251.368 263.271C251.264 263.271 251.176 263.927 251.176 264.735C251.176 265.543 251.264 266.199 251.368 266.199C251.386 266.173 251.41 266.151 251.438 266.135C251.465 266.118 251.496 266.108 251.528 266.103H268C268.03 266.107 268.059 266.116 268.085 266.131C268.111 266.147 268.134 266.167 268.152 266.191C268.152 266.191 268.344 265.535 268.344 264.727C268.344 263.919 268.32 263.271 268.216 263.271Z" fill="#232020"/>
<path d="M293.96 263.271C293.943 263.299 293.919 263.322 293.891 263.338C293.864 263.355 293.832 263.365 293.8 263.367H277.264C277.234 263.364 277.206 263.353 277.18 263.337C277.155 263.32 277.135 263.298 277.12 263.271C277.008 263.271 276.92 263.927 276.92 264.735C276.92 265.543 277.008 266.199 277.12 266.199C277.136 266.173 277.159 266.151 277.185 266.134C277.211 266.118 277.241 266.107 277.272 266.103H293.776C293.806 266.106 293.835 266.115 293.862 266.131C293.888 266.146 293.911 266.167 293.928 266.191C294.04 266.191 294.128 265.535 294.128 264.727C294.128 263.919 294.072 263.271 293.96 263.271Z" fill="#232020"/>
<path d="M319.2 263.271C319.182 263.299 319.159 263.322 319.131 263.338C319.103 263.355 319.072 263.365 319.04 263.367H302.528C302.498 263.364 302.469 263.353 302.444 263.337C302.419 263.32 302.398 263.298 302.384 263.271C302.272 263.271 302.184 263.927 302.184 264.735C302.184 265.543 302.272 266.199 302.384 266.199C302.402 266.173 302.426 266.151 302.454 266.135C302.481 266.118 302.512 266.108 302.544 266.103H319.04C319.07 266.107 319.099 266.116 319.125 266.131C319.151 266.147 319.174 266.167 319.192 266.191C319.192 266.191 319.392 265.535 319.392 264.727C319.392 263.919 319.336 263.271 319.2 263.271Z" fill="#232020"/>
<path d="M326.4 264.734H343.672" stroke="#221F1F" stroke-width="3.5" stroke-linecap="round" stroke-linejoin="round"/>
<path d="M238.231 255.726C238.213 256.415 238.031 257.09 237.702 257.695C237.373 258.3 236.906 258.819 236.338 259.209C235.77 259.599 235.118 259.85 234.434 259.939C233.751 260.029 233.057 259.956 232.407 259.726C231.405 259.295 230.597 258.511 230.135 257.523C229.673 256.535 229.591 255.411 229.903 254.366C231.407 249.91 238.231 251.014 238.231 255.726Z" fill="#221F1F"/>
<path d="M264.04 255.726C264.021 256.415 263.84 257.09 263.511 257.695C263.182 258.3 262.714 258.819 262.146 259.209C261.578 259.599 260.926 259.85 260.243 259.939C259.56 260.029 258.865 259.956 258.216 259.726C257.214 259.295 256.405 258.511 255.943 257.523C255.482 256.535 255.399 255.411 255.712 254.366C257.216 249.91 264.04 251.014 264.04 255.726Z" fill="#221F1F"/>
<path d="M289.792 255.726C289.774 256.416 289.593 257.092 289.263 257.698C288.934 258.304 288.465 258.823 287.896 259.214C287.328 259.604 286.674 259.854 285.99 259.943C285.306 260.032 284.61 259.958 283.96 259.726C282.959 259.295 282.151 258.511 281.69 257.522C281.23 256.534 281.15 255.41 281.464 254.366C282.968 249.91 289.792 251.014 289.792 255.726Z" fill="#221F1F"/>
<path d="M315.056 255.726C315.036 256.415 314.854 257.09 314.524 257.695C314.194 258.3 313.725 258.819 313.157 259.209C312.588 259.599 311.936 259.849 311.252 259.939C310.569 260.029 309.874 259.956 309.224 259.726C308.223 259.294 307.415 258.51 306.954 257.522C306.493 256.534 306.409 255.411 306.72 254.366C308.232 249.91 315.056 251.014 315.056 255.726Z" fill="#221F1F"/>
<path d="M339.303 255.726C339.285 256.415 339.104 257.09 338.775 257.695C338.445 258.3 337.978 258.819 337.41 259.209C336.842 259.599 336.19 259.85 335.507 259.939C334.824 260.029 334.129 259.956 333.479 259.726C332.477 259.295 331.669 258.511 331.207 257.523C330.745 256.535 330.663 255.411 330.975 254.366C332.479 249.91 339.303 251.014 339.303 255.726Z" fill="#221F1F"/>
<path d="M236.168 182.896C236.14 182.911 236.108 182.918 236.076 182.918C236.044 182.918 236.012 182.911 235.984 182.896C234.723 182.318 233.518 181.624 232.384 180.824C231.272 180.025 230.255 179.101 229.352 178.072C228.445 177.034 227.657 175.899 227 174.688C226.312 173.464 225.76 172.176 225.112 170.776C225.086 170.712 225.086 170.64 225.112 170.576C225.116 170.563 225.116 170.549 225.112 170.536C225.056 170.424 224.312 170.656 223.512 171.048C222.712 171.44 222.056 171.848 222.104 171.952C222.137 171.956 222.168 171.967 222.196 171.985C222.224 172.003 222.247 172.028 222.264 172.056L222.56 172.696C223.674 175.498 225.253 178.092 227.232 180.368C228.273 181.498 229.429 182.517 230.68 183.408C231.93 184.271 233.252 185.023 234.632 185.656C234.66 185.676 234.683 185.701 234.701 185.73C234.719 185.758 234.731 185.791 234.736 185.824C234.856 185.88 235.248 185.24 235.616 184.408C235.909 183.951 236.097 183.434 236.168 182.896Z" fill="#232020"/>
<path d="M228.103 184.183C230.675 184.183 232.759 182.099 232.759 179.527C232.759 176.956 230.675 174.871 228.103 174.871C225.532 174.871 223.447 176.956 223.447 179.527C223.447 182.099 225.532 184.183 228.103 184.183Z" fill="#221F1F"/>
<path d="M258.536 173.598C250.104 173.678 240.176 170.11 237.064 161.43C236.84 160.806 234.096 161.646 234.28 162.174C237.528 171.23 247.968 174.782 256.728 174.702C257.296 174.702 259.856 173.582 258.536 173.598Z" fill="#221F1F"/>
<path d="M239.544 157.687C242.904 167.287 253.52 171.207 262.84 171.127C264.368 171.127 265.032 169.239 263.136 169.255C254.808 169.327 245.304 165.415 242.336 156.943C241.928 155.775 239.136 156.551 239.552 157.687H239.544Z" fill="#221F1F"/>
<path d="M121.215 186.702C119.895 187.19 118.583 187.726 117.303 188.302C116.023 188.878 113.599 189.798 112.959 191.11C111.871 193.446 121.911 194.038 123.431 194.126C124.299 194.176 125.16 193.946 125.887 193.47C126.343 193.086 126.463 192.862 125.711 192.814C124.375 192.726 115.847 192.134 116.383 190.454C116.671 189.534 118.983 188.782 119.759 188.43C120.535 188.078 121.495 187.678 122.375 187.35C122.703 187.23 123.735 186.918 123.439 186.454C123.143 185.99 121.479 186.606 121.215 186.702Z" fill="#221F1F"/>
<path d="M192.565 161.786C196.4 160.839 199.015 158.072 198.406 155.605C197.797 153.139 194.194 151.907 190.359 152.854C186.525 153.801 183.91 156.568 184.519 159.034C185.128 161.501 188.73 162.733 192.565 161.786Z" fill="#221F1F"/>
<path d="M127.601 231.679C125.473 230.663 123.353 229.639 121.201 228.639C120.401 228.271 119.601 227.984 118.841 227.608C116.121 226.296 113.409 224.936 110.681 223.608C109.465 223.032 108.217 222.52 106.977 222.008C105.341 221.485 103.764 220.794 102.273 219.943C101.361 219.351 103.665 217.423 105.473 218.175C108.72 219.505 111.883 221.03 114.945 222.743C116.785 223.783 118.849 224.535 120.809 225.439C122.953 226.431 125.097 227.448 127.249 228.456C128.569 229.071 129.889 229.695 131.249 230.295C133.257 231.207 135.249 232.167 137.289 232.991C138.889 233.639 140.489 234.119 142.089 234.671C142.441 234.791 142.793 234.887 143.145 235.023C144.433 235.527 144.745 235.871 144.745 236.671C144.761 236.852 144.761 237.035 144.745 237.215C144.641 237.791 143.945 238.016 142.937 237.76C139.922 236.932 136.979 235.862 134.137 234.56C131.961 233.632 129.801 232.631 127.641 231.655L127.601 231.679Z" fill="#221F1F"/>
<path d="M137.207 81.2316C137.127 81.4076 136.919 81.3196 136.591 81.0636C136.452 80.9361 136.345 80.777 136.279 80.5996C136.3 80.4655 136.335 80.3341 136.383 80.2076C136.714 79.8594 137.073 79.5384 137.455 79.2476C137.716 79.0372 138.008 78.8673 138.319 78.7436C138.939 78.4666 139.578 78.234 140.231 78.0476C140.38 78.0067 140.533 77.9852 140.687 77.9836C141.209 77.9627 141.728 77.9012 142.239 77.7996C142.328 77.7951 142.413 77.7675 142.487 77.7196C142.762 77.6331 143.048 77.59 143.335 77.5916C143.631 77.5684 143.928 77.5684 144.223 77.5916C144.679 77.7436 145.127 77.8316 145.551 78.0076C145.615 78.0076 145.687 78.0076 145.727 78.0956C145.767 78.1836 145.975 78.2636 146.103 78.3116C146.286 78.3724 146.463 78.4501 146.631 78.5436C146.715 78.6134 146.785 78.6974 146.839 78.7916C146.903 78.8716 146.791 79.0876 146.759 79.1036C146.727 79.1196 146.695 79.2796 146.671 79.3756C146.647 79.4716 146.671 79.4556 146.671 79.4796C146.287 79.577 145.897 79.6465 145.503 79.6876C144.984 79.6438 144.462 79.6438 143.943 79.6876C143.864 79.7069 143.782 79.7069 143.703 79.6876C143.31 79.7275 142.92 79.7916 142.535 79.8796C142.312 79.9358 142.078 79.9358 141.855 79.8796C141.811 79.8673 141.764 79.8673 141.719 79.8796C141.335 79.9756 140.919 80.0316 140.551 80.1036C140.355 80.1583 140.163 80.225 139.975 80.3036H139.863C139.816 80.2952 139.767 80.2952 139.719 80.3036C139.26 80.4576 138.817 80.6586 138.399 80.9036C138.146 80.9773 137.898 81.0655 137.655 81.1676C137.599 81.2476 137.247 81.1596 137.207 81.2316Z" fill="#221F1F"/>
<path d="M147.096 81.3188C147.224 82.9748 146.2 84.4068 144.8 84.5188C144.064 84.5104 143.361 84.2128 142.843 83.6903C142.325 83.1678 142.034 82.4625 142.032 81.7268C142.018 81.0773 142.252 80.4469 142.688 79.965C143.124 79.483 143.727 79.186 144.375 79.1349C145.023 79.0837 145.665 79.2823 146.171 79.6898C146.677 80.0974 147.008 80.6831 147.096 81.3268V81.3188Z" fill="#221F1F"/>
<path d="M163.999 75.2384C163.999 75.4304 163.759 75.3904 163.359 75.2384C163.231 75.1984 162.919 74.9824 162.911 74.9024C162.892 74.7591 162.892 74.6137 162.911 74.4704C163.176 73.9872 163.516 73.5496 163.919 73.1744C164.192 72.9135 164.509 72.7024 164.855 72.5504C165.519 72.2299 166.217 71.9857 166.935 71.8224C167.09 71.7875 167.248 71.7687 167.407 71.7664C167.943 71.7789 168.479 71.7387 169.007 71.6464C169.097 71.6528 169.187 71.6304 169.263 71.5824C169.841 71.4563 170.436 71.4266 171.023 71.4944L172.367 71.8384C172.431 71.8384 172.503 71.8384 172.559 71.9184C172.615 71.9984 172.815 72.0704 172.951 72.1024C173.144 72.1354 173.332 72.1918 173.511 72.2704C173.607 72.326 173.691 72.3993 173.759 72.4864C173.831 72.5664 173.759 72.7904 173.719 72.8144C173.679 72.8384 173.679 72.9984 173.671 73.0944C173.676 73.1289 173.676 73.1639 173.671 73.1984C173.277 73.3447 172.87 73.4545 172.455 73.5264C171.889 73.5214 171.323 73.5454 170.759 73.5984C170.672 73.613 170.583 73.613 170.495 73.5984C170.447 73.5984 169.271 73.7664 169.231 73.7824C168.992 73.8383 168.743 73.8383 168.503 73.7824C168.48 73.7727 168.456 73.7677 168.431 73.7677C168.406 73.7677 168.382 73.7727 168.359 73.7824C167.951 73.8704 167.559 73.9024 167.135 73.9664C166.935 73.9664 166.743 74.0864 166.543 74.1424C166.506 74.1507 166.468 74.1507 166.431 74.1424C166.386 74.1379 166.34 74.1379 166.295 74.1424C165.843 74.2845 165.416 74.4978 165.031 74.7744C164.967 74.8464 164.455 75.0064 164.391 75.1264C164.327 75.2464 163.999 75.1584 163.999 75.2384Z" fill="#221F1F"/>
<path d="M173.64 74.2869C173.802 74.623 173.889 74.9903 173.894 75.3633C173.9 75.7363 173.824 76.106 173.672 76.4466C173.52 76.7873 173.296 77.0908 173.015 77.336C172.734 77.5812 172.402 77.7623 172.044 77.8665C171.686 77.9708 171.31 77.9958 170.941 77.9397C170.572 77.8837 170.22 77.748 169.909 77.5421C169.598 77.3362 169.335 77.065 169.14 76.7474C168.944 76.4298 168.82 76.0734 168.776 75.703C168.625 75.0696 168.723 74.4025 169.051 73.8396C169.378 73.2767 169.909 72.8612 170.534 72.6792C171.159 72.4972 171.831 72.5626 172.409 72.8619C172.987 73.1612 173.428 73.6715 173.64 74.2869Z" fill="#221F1F"/>
<path d="M157.441 78.3758L156.745 76.4478C156.545 75.7918 156.401 75.1198 156.225 74.4638C155.868 73.0379 155.808 71.5539 156.049 70.1038C156.217 69.004 156.615 67.9518 157.217 67.0158C158.293 65.4966 159.746 64.2835 161.433 63.4958C162.992 62.751 164.628 62.1822 166.313 61.7998C167.769 61.4558 169.241 61.1438 170.697 60.8958C172.533 60.485 174.417 60.3235 176.297 60.4158C176.425 60.4158 176.561 60.4798 176.569 60.5678L176.617 60.7038C176.617 60.8318 176.673 60.9598 176.705 61.1038V61.0078C176.705 60.9278 176.705 60.9598 176.705 61.0078C176.709 61.0424 176.709 61.0773 176.705 61.1118C176.707 61.191 176.693 61.2698 176.665 61.3438C176.607 61.522 176.521 61.6895 176.409 61.8398C176.141 62.2282 175.795 62.5562 175.392 62.8028C174.99 63.0495 174.541 63.2092 174.073 63.2718C170.465 63.5255 166.898 64.1912 163.441 65.2558C162.466 65.573 161.563 66.0816 160.787 66.752C160.011 67.4224 159.376 68.241 158.921 69.1598C158.465 70.1611 158.283 71.2653 158.393 72.3598C158.541 73.5517 158.809 74.7256 159.193 75.8638C159.422 76.5843 159.689 77.2919 159.993 77.9838L160.481 79.0238C160.649 79.3678 160.857 79.6878 161.049 80.0238C162.212 82.0469 163.647 83.9015 165.313 85.5358C166.616 86.7619 168.042 87.8503 169.569 88.7838C169.897 88.9918 170.241 89.1678 170.561 89.3838C171.793 90.1838 172.081 90.4798 172.025 91.2318C172.025 91.3918 172.025 91.5758 172.025 91.7438C172.03 91.8085 172.02 91.8734 171.994 91.9333C171.969 91.9931 171.931 92.0461 171.881 92.0878C171.735 92.1788 171.565 92.2259 171.393 92.2238C170.921 92.2322 170.454 92.1251 170.033 91.9118C166.829 90.3346 163.99 88.1057 161.697 85.3678C159.913 83.2811 158.444 80.9443 157.337 78.4318L157.441 78.3758Z" fill="#221F1F"/>
<path d="M136.6 66.2796C137.846 66.0629 139.111 65.9718 140.376 66.0076C140.824 66.0076 141.272 66.0076 141.72 66.0076C143.267 66.193 144.797 66.5006 146.296 66.9276C146.952 67.1116 147.624 67.2396 148.28 67.3676C149.125 67.4454 149.944 67.7046 150.68 68.1276C150.699 68.1489 150.716 68.1732 150.728 68.1996C150.728 68.1996 150.664 68.2476 150.656 68.2956C150.613 68.3965 150.596 68.5066 150.608 68.6156C150.614 68.7585 150.598 68.9017 150.56 69.0396C150.488 69.1887 150.402 69.3307 150.304 69.4636C149.88 70.0076 149.304 70.4796 148.856 70.3516C147.256 69.9196 145.736 69.4476 144.16 68.8716C143.187 68.6118 142.182 68.4906 141.176 68.5116C140.082 68.442 138.983 68.4768 137.896 68.6156C137.228 68.6968 136.569 68.8387 135.928 69.0396C134.953 69.3222 134.037 69.7774 133.224 70.3836C132.633 70.8845 132.133 71.4824 131.744 72.1516C131.656 72.2956 131.584 72.4476 131.488 72.5756C131.144 73.0876 130.896 73.1516 130.248 72.8716C130.098 72.8185 129.951 72.7571 129.808 72.6876C129.579 72.5829 129.401 72.3922 129.313 72.1569C129.224 71.9215 129.233 71.6608 129.336 71.4316C130.044 69.8008 131.281 68.4564 132.848 67.6156C134.004 66.963 135.253 66.4908 136.552 66.2156L136.6 66.2796Z" fill="#221F1F"/>
<path d="M170.4 105.4C170.632 107.072 169.28 108.8 167.824 108.416C166.368 108.032 165.728 105.856 166.424 104.416C167.68 101.872 170.104 103.4 170.4 105.4Z" fill="#221F1F"/>
</svg>
