<svg width="153" height="235" viewBox="0 0 153 235" fill="none" xmlns="http://www.w3.org/2000/svg">
<path opacity="0.2" d="M125.185 39.6624C125.185 43.1292 121.149 48.6008 117.261 48.6008C113.373 48.6008 109.6 45.7852 109.6 42.3184C109.6 38.8515 109.197 34.2227 113.086 34.2227C116.974 34.2227 125.185 36.1955 125.185 39.6624Z" fill="#221F1F"/>
<path d="M102.373 62.8127C105.113 62.1499 107.686 60.9284 109.932 59.2245C110.761 58.6005 111.555 57.9335 112.314 57.2261C112.556 57.0091 112.786 56.7856 113.016 56.5877L113.361 56.2493L113.846 55.7385L114.204 55.5087C114.337 55.4576 114.485 55.4576 114.619 55.5087C114.9 55.6312 115.161 55.7971 115.391 56.0003C115.704 56.2493 115.998 56.4983 116.291 56.7473C116.879 57.2453 117.46 57.7369 118.054 58.203C118.637 58.667 119.249 59.0935 119.886 59.4799C120.413 59.8787 121.058 60.0899 121.718 60.0801C122.255 59.9651 122.606 59.2245 122.721 58.4775C122.826 57.6958 122.826 56.9034 122.721 56.1216C122.6 55.1077 122.369 54.11 122.031 53.1464C121.871 52.6724 121.674 52.2114 121.444 51.7673C121.251 51.348 120.977 50.9706 120.639 50.6564C120.569 50.5975 120.504 50.5311 120.448 50.4585C120.436 50.4313 120.429 50.402 120.429 50.3723C120.429 50.3426 120.436 50.3132 120.448 50.2861C120.465 50.2517 120.489 50.2214 120.519 50.1971C120.548 50.1729 120.583 50.1553 120.62 50.1456C120.753 50.1051 120.896 50.1051 121.029 50.1456C121.479 50.2486 121.887 50.487 122.197 50.8288C122.621 51.2665 122.947 51.7886 123.155 52.3611C123.557 53.4336 123.829 54.5503 123.966 55.6874C124.134 56.8597 124.08 58.0532 123.806 59.2054C123.722 59.5322 123.593 59.8458 123.423 60.1375C123.329 60.297 123.222 60.4486 123.104 60.5908C122.964 60.7429 122.805 60.876 122.631 60.9867C122.275 61.2108 121.858 61.322 121.437 61.3059C121.085 61.2857 120.737 61.2081 120.409 61.0761C119.362 60.5931 118.387 59.9679 117.511 59.2181C116.904 58.7074 116.285 58.1966 115.666 57.6858C115.359 57.4305 115.027 57.1687 114.753 56.9325L114.625 56.8367L114.548 56.7792C114.548 56.7792 114.491 56.7345 114.459 56.7792L114.395 56.8495L114.261 56.9899C114.172 57.0921 114.076 57.1878 113.98 57.2836L113.406 57.8582C113.003 58.2285 112.62 58.6052 112.199 58.95C111.067 59.9204 109.853 60.7919 108.572 61.5549C107.295 62.3361 105.938 62.9782 104.525 63.4703C102.783 64.0952 100.948 64.417 99.0976 64.4216C96.2978 64.4068 93.5474 63.6819 91.1041 62.3147C89.2299 61.2586 87.6003 59.8183 86.322 58.0881C86.0411 57.7114 85.7729 57.3347 85.5239 56.9325C84.6301 55.4129 84.5152 54.8447 84.6492 54.3786C84.6716 54.2729 84.7059 54.1701 84.7514 54.0721C84.9238 53.8231 85.3515 54.3914 85.9708 55.4385C86.8897 57.0151 88.0461 58.4408 89.3994 59.6651C90.7853 60.8963 92.4114 61.8268 94.1751 62.3977C94.4936 62.5334 94.8252 62.6361 95.1647 62.7041L96.1735 62.9595C96.5118 63.0489 96.8566 63.0553 97.2014 63.1128C97.5462 63.1702 97.8845 63.2149 98.2357 63.2213H99.7935L100.311 63.1575L101.351 63.0425C101.69 62.9787 102.028 62.8957 102.373 62.8191V62.8127Z" fill="#221F1F"/>
<path d="M94.405 29.2553L105.674 33.2776L107.736 33.9991L108.764 34.3503L109.281 34.529L109.537 34.6248H109.581L109.76 34.6631C110.027 34.7318 110.27 34.8732 110.462 35.0717C110.65 35.2779 110.77 35.5362 110.807 35.8123C110.854 36.2081 110.823 36.6092 110.718 36.9935C110.558 37.6703 110.354 38.2704 110.188 38.877C109.806 40.0302 109.654 41.2471 109.741 42.4587C109.958 44.821 111.95 46.762 114.165 47.675C115.168 48.0661 116.248 48.2151 117.319 48.1097C118.389 48.0043 119.42 47.6475 120.327 47.0684C121.497 46.3383 122.457 45.3148 123.11 44.0996C123.733 42.8308 124.234 41.5052 124.604 40.1411C124.885 39.2792 125.147 39.5026 125.243 40.2943C125.351 41.6459 125.102 43.0022 124.521 44.2273C124.173 44.959 123.733 45.6434 123.212 46.2639C122.678 46.8783 122.069 47.4231 121.399 47.8856C120.722 48.3472 119.982 48.7105 119.203 48.9646C118.42 49.215 117.605 49.3463 116.783 49.3541C115.961 49.3539 115.144 49.2335 114.357 48.9966C113.581 48.7469 112.843 48.3948 112.161 47.9495C111.492 47.4995 110.881 46.97 110.341 46.3725C109.796 45.7567 109.364 45.05 109.064 44.2847C108.719 43.3592 108.569 42.3723 108.624 41.3861C108.682 40.4301 108.847 39.4835 109.115 38.5641L109.492 37.2425C109.613 36.8644 109.68 36.471 109.69 36.0741C109.691 36.0327 109.683 35.9916 109.668 35.9532C109.653 35.9148 109.63 35.8799 109.6 35.8506C109.571 35.8288 109.539 35.8115 109.505 35.7996H109.396C109.311 35.7839 109.228 35.7604 109.147 35.7293L107.87 35.276L96.5119 31.2409L92.9621 30.0023L91.2191 29.3639L90.2103 29.0063C89.923 29.0063 89.9485 28.6999 89.8783 28.4956L89.8336 28.3359L89.8017 28.2338L89.7315 28.0295C89.4153 27.2127 88.9021 26.4867 88.2375 25.9162C87.6012 25.3425 86.7765 25.0222 85.9198 25.0159C85.4991 25.031 85.0861 25.1343 84.7078 25.319C84.3295 25.5038 83.9941 25.766 83.7235 26.0886C83.1383 26.7569 82.7029 27.5428 82.4466 28.3934C82.2436 29.0498 82.1298 29.7306 82.1082 30.4173C82.0943 30.7549 82.1157 31.093 82.1721 31.4261C82.2158 31.759 82.2863 32.0878 82.3828 32.4093C82.7898 33.6962 83.5862 34.825 84.6621 35.6399C85.124 35.9944 85.6279 36.2903 86.1625 36.521C86.8777 36.8213 87.6194 37.0543 88.3779 37.2169C88.7473 37.2736 89.1039 37.3946 89.4314 37.5745C89.5507 37.6336 89.664 37.7042 89.7698 37.7852C89.8911 37.9001 89.7123 38.0214 89.2718 38.1172C88.5834 38.2356 87.8785 38.2183 87.1968 38.0661C85.8124 37.7864 84.5276 37.1429 83.4745 36.2018C82.6543 35.4593 82.006 34.5467 81.5748 33.5278C81.1436 32.5089 80.94 31.4081 80.9782 30.3024C81.0133 29.566 81.1398 28.8368 81.3548 28.1316C81.5628 27.4104 81.8724 26.7225 82.2742 26.0886C82.698 25.4081 83.2698 24.832 83.947 24.403C84.4891 24.0738 85.102 23.879 85.7347 23.8348C86.3568 23.8005 86.9791 23.8985 87.5607 24.1221C88.6552 24.5691 89.5834 25.3456 90.2167 26.3439C90.5385 26.8237 90.7921 27.3458 90.9701 27.8954L91.002 27.9848L91.5574 28.1763L94.405 29.1787V29.2553Z" fill="#221F1F"/>
<path d="M117.791 41.3281C118.429 41.0408 118.615 41.0408 118.678 41.1047C118.896 41.3154 119.093 41.5197 119.317 41.7431C119.451 41.9238 119.596 42.0965 119.751 42.2603C120.005 42.4979 120.331 42.6459 120.677 42.6817C120.874 42.7248 121.081 42.688 121.251 42.5795C121.251 42.5795 121.251 42.5412 121.303 42.5795C121.408 42.7772 121.471 42.9946 121.488 43.218C121.488 43.2754 121.488 43.3648 121.488 43.3648C121.488 43.3648 121.392 43.8373 121.251 43.8373C121.111 43.8373 120.779 43.9714 120.511 43.9841C120.406 43.9868 120.301 43.9672 120.204 43.9267C120.077 43.882 119.975 43.7798 119.86 43.7287C119.745 43.6777 119.56 43.5819 119.304 43.4095C119.006 43.195 118.736 42.944 118.5 42.6625C118.197 42.3287 117.931 41.9626 117.708 41.5707C117.708 41.526 117.759 41.4367 117.791 41.3281Z" fill="#221F1F"/>
<path d="M120.243 44.5077C120.006 44.7231 119.693 44.8366 119.373 44.8234C119.053 44.8103 118.751 44.6716 118.532 44.4374C118.385 44.2299 118.304 43.9834 118.298 43.7294C118.292 43.4754 118.363 43.2255 118.5 43.0116C118.637 42.7978 118.835 42.6296 119.068 42.5288C119.301 42.4279 119.559 42.3989 119.809 42.4454C120.03 42.488 120.233 42.5948 120.394 42.7526C120.554 42.9103 120.665 43.112 120.711 43.3323C120.757 43.5525 120.738 43.7816 120.654 43.9907C120.571 44.1998 120.428 44.3796 120.243 44.5077Z" fill="#221F1F"/>
<path d="M132.476 23.9241C120.595 27.1611 96.2373 13.83 96.2373 13.83C97.4695 9.99927 100.1 5.27466 103.592 3.30181C106.785 1.50135 121.291 -0.975878 131.819 4.39358C138.599 7.85404 136.607 15.8476 132.476 23.9241Z" fill="#221F1F"/>
<path d="M114.51 1.92842C111.951 2.00437 109.405 2.32291 106.906 2.87973C105.699 3.11399 104.538 3.5454 103.471 4.15665C102.436 4.83639 101.514 5.67447 100.738 6.64027C99.5844 8.0825 98.6189 9.66586 97.8652 11.3521C97.6928 11.7224 97.5268 12.0991 97.3736 12.4758L97.0096 13.4143C97.0096 13.4718 96.9203 13.5676 97.0096 13.5803L97.2459 13.708L98.3504 14.289C99.8231 15.0637 101.313 15.8064 102.82 16.5173C105.833 17.941 108.898 19.269 112.026 20.4247C114.788 21.4641 117.616 22.3173 120.492 22.9785C122.321 23.3978 124.177 23.6879 126.047 23.8468C127.889 24.0231 129.746 23.9717 131.576 23.6936C132.693 23.4829 132.661 23.8085 131.729 24.332C130.132 25.0654 128.371 25.367 126.622 25.2067C122.694 24.8793 118.823 24.0643 115.097 22.7806C111.388 21.5477 107.758 20.0849 104.231 18.4007C102.111 17.3983 99.953 16.3704 97.846 15.2787L97.0416 14.8637L95.9881 14.3018L95.6561 14.123C95.5667 14.123 95.6178 14.04 95.6561 13.9826L95.7136 13.8102L95.9434 13.1207C96.0264 12.8461 96.0647 12.7695 96.1222 12.6099L96.2818 12.1757C96.7296 11.0378 97.2565 9.93272 97.8588 8.8685C99.1996 6.56365 100.885 4.34181 103.292 2.92442C104.502 2.32015 105.792 1.89024 107.123 1.6475C108.42 1.36798 109.731 1.15489 111.049 1.00904C114.293 0.655812 117.565 0.640834 120.811 0.964346C123.277 1.20952 125.711 1.70366 128.077 2.43919L129.82 3.07765C130.395 3.31388 130.95 3.58842 131.519 3.83742C132.085 4.10566 132.633 4.41065 133.159 4.75042C133.415 4.93558 133.651 5.14627 133.9 5.34419C134.021 5.44635 134.149 5.54211 134.264 5.65065L134.583 6.00819C135.894 7.492 136.628 9.39767 136.652 11.3777C136.7 13.292 136.441 15.2018 135.886 17.0344C135.764 17.4367 135.649 17.8325 135.528 18.2283C135.407 18.6242 135.253 19.0073 135.113 19.4095C133.989 22.3081 133.389 23.119 132.834 23.5787C132.713 23.6886 132.583 23.7869 132.444 23.8723C132.08 24.0128 132.508 22.8253 133.345 20.7694C133.968 19.2367 134.49 17.6648 134.909 16.064C135.346 14.4768 135.531 12.8308 135.458 11.1861C135.386 9.60915 134.786 8.10222 133.753 6.90842C133.619 6.76157 133.504 6.60834 133.364 6.47427L132.898 6.09758C132.751 5.96582 132.595 5.84423 132.432 5.73365L131.908 5.4208C131.736 5.32504 131.57 5.21011 131.384 5.11435L130.803 4.85257L129.635 4.32265C124.813 2.49988 119.664 1.70398 114.516 1.98588L114.51 1.92842Z" fill="#221F1F"/>
<path d="M81.5969 18.7066C80.3199 12.6349 95.2791 18.8343 95.2919 18.8407C118.915 32.9443 132.578 27.4153 132.578 27.4153C132.578 27.4153 140.067 29.7009 142.857 34.4383C146.05 39.8014 130.65 39.0097 114.254 34.5405C99.2439 30.4479 82.529 23.0929 81.5969 18.7066Z" fill="#221F1F"/>
<path d="M130.191 37.0064C131.902 37.2235 133.613 37.3831 135.298 37.4469C136.979 37.5441 138.664 37.4498 140.323 37.166C141.053 37.0668 141.743 36.7736 142.322 36.3169C142.414 36.2318 142.484 36.1261 142.528 36.0085C142.571 35.8908 142.586 35.7646 142.571 35.6401C142.561 35.4871 142.529 35.3365 142.475 35.1932C142.398 35.0336 142.328 34.8803 142.232 34.7143C141.334 33.3241 140.169 32.1261 138.804 31.19C137.794 30.4793 136.726 29.8556 135.611 29.3257C135.056 29.0639 134.488 28.8086 133.913 28.5787C133.626 28.4574 133.338 28.3489 133.045 28.2403L132.655 28.0999C132.579 28.0999 132.553 28.0999 132.515 28.0999L132.138 28.2212L131.717 28.3297C131.429 28.4063 131.148 28.4766 130.868 28.5276C130.306 28.6489 129.737 28.7319 129.169 28.8086C128.039 28.9573 126.9 29.0362 125.76 29.0448C123.493 29.0765 121.228 28.9056 118.992 28.534C114.542 27.7848 110.196 26.5118 106.044 24.7416C105.125 24.3457 104.199 23.9754 103.292 23.5604L100.624 22.2324C100.177 22.0089 99.7234 21.7982 99.2829 21.5939L98.0059 20.8661L95.4074 19.4232L95.1967 19.3082L95.1329 19.2699L95.0435 19.2316L94.6093 19.0656L93.7283 18.7336C93.1345 18.5229 92.5407 18.3186 91.9469 18.0952C90.753 17.7057 89.5463 17.3546 88.3269 17.0736C87.1318 16.7755 85.9111 16.5917 84.6812 16.5245C84.1063 16.4918 83.5299 16.5566 82.9765 16.7161C82.7446 16.775 82.533 16.8958 82.3643 17.0656C82.1956 17.2354 82.0762 17.4478 82.0189 17.6802C81.9765 17.9184 81.9531 18.1597 81.9486 18.4016C81.9486 18.5676 81.8912 18.657 81.8273 18.657C81.7635 18.657 81.6869 18.5804 81.5911 18.408C81.4571 18.1558 81.3828 17.8762 81.374 17.5908C81.3743 17.353 81.4219 17.1177 81.514 16.8985C81.606 16.6793 81.7408 16.4805 81.9103 16.3139C82.3647 15.8903 82.9327 15.6085 83.5448 15.503C84.927 15.2673 86.3424 15.3107 87.7076 15.6307C90.2798 16.1891 92.8001 16.9644 95.2414 17.9483L95.4712 18.0441L95.5862 18.0888C95.661 18.1198 95.7335 18.1561 95.8033 18.1973L96.2183 18.4336L97.0546 18.906L98.7274 19.8509C99.8319 20.4894 100.981 21.064 102.13 21.6322C106.707 23.9567 111.542 25.7353 116.534 26.9315C119.574 27.6421 122.69 27.9766 125.811 27.9275H126.986L128.16 27.8189C128.55 27.8189 128.939 27.7359 129.322 27.6721C129.706 27.6082 130.101 27.5636 130.478 27.4742C130.855 27.3848 131.238 27.3146 131.608 27.206C131.8 27.1613 131.978 27.1039 132.157 27.0464C132.336 26.9889 132.464 26.9251 132.617 26.8932L133.064 27.04C133.875 27.3209 134.603 27.6146 135.35 27.9466C136.991 28.6703 138.546 29.5762 139.985 30.6473C141.493 31.7195 142.727 33.1327 143.586 34.7718C143.808 35.2857 143.848 35.8599 143.701 36.3999C143.503 36.9201 143.13 37.3555 142.647 37.6321C141.819 38.0816 140.914 38.3697 139.978 38.4812C138.209 38.7082 136.421 38.7638 134.641 38.6472C130.314 38.3597 126.016 37.745 121.782 36.8085C115.388 35.4208 109.094 33.6078 102.941 31.3816C98.2074 29.744 93.5839 27.8033 89.0994 25.5716C88.1226 25.0608 87.184 24.5436 86.2072 23.9562C84.9175 23.2095 83.7342 22.2925 82.6893 21.23C82.1812 20.7501 81.8372 20.1224 81.706 19.4359C81.6635 19.2252 81.6635 19.0082 81.706 18.7975C81.7379 18.6953 81.8018 18.7145 81.8976 18.7975C81.9568 18.872 82.0101 18.951 82.0572 19.0337C82.1487 19.1459 82.234 19.2632 82.3126 19.3849C83.0236 20.1999 83.832 20.9247 84.7196 21.5429C86.5443 22.8051 88.4656 23.9216 90.4657 24.882C92.4832 25.8844 94.5774 26.7974 96.7035 27.6912C100.962 29.447 105.374 31.024 109.856 32.4095C116.501 34.5195 123.315 36.0553 130.223 37L130.191 37.0064Z" fill="#221F1F"/>
<path d="M95.5604 14.0274C95.3534 15.4575 95.0245 16.8673 94.5771 18.2413C94.9424 18.4131 95.3288 18.5354 95.7264 18.6052C96.1962 17.1476 96.5401 15.6524 96.7543 14.136C96.3607 14.0618 95.9609 14.0254 95.5604 14.0274Z" fill="#232020"/>
<path d="M107.506 32.7794C104.314 33.9988 100.17 31.0236 97.2906 33.2965C91.0401 38.2318 89.827 27.4163 90.408 25.5137C96.1542 27.7994 106.095 32.7091 107.506 32.7794Z" fill="#221F1F"/>
<path d="M91.7809 26.8865L91.4042 26.7205L91.251 26.6502H91.2127L91.0467 26.5608C90.9828 26.5608 91.0084 26.6055 90.9892 26.6311V26.6885V27.0205C90.9928 28.0716 91.1149 29.1189 91.3531 30.1426C91.5271 30.8757 91.7886 31.5853 92.1321 32.2559C92.6939 33.4115 93.658 34.2862 94.8583 34.0117C95.4848 33.8757 96.0775 33.6152 96.6013 33.2455L97.0099 32.9582L97.5079 32.6454C97.6745 32.5392 97.8522 32.4514 98.0378 32.3836C98.2152 32.3021 98.4017 32.2421 98.5933 32.2049C99.2472 32.0357 99.9245 31.9753 100.598 32.0261C101.237 32.0261 101.875 32.1602 102.513 32.2495C104.008 32.5866 105.55 32.6686 107.072 32.4922C107.506 32.4028 107.602 32.6965 107.264 33.1306C106.978 33.4216 106.631 33.6435 106.247 33.7796C105.863 33.9157 105.453 33.9623 105.048 33.9159C103.286 33.7882 101.715 33.2775 100.234 33.2455C99.5421 33.1903 98.8475 33.3134 98.2166 33.6031L97.7824 33.8585L97.2461 34.2224C96.8644 34.4718 96.4604 34.6855 96.0394 34.8608C95.4995 35.078 94.9232 35.1907 94.3411 35.1929C93.7271 35.1768 93.1308 34.9839 92.6237 34.6374C91.728 33.9531 91.0603 33.0138 90.7083 31.9431C90.3112 30.8604 90.0516 29.7321 89.9358 28.5848C89.8706 28.0125 89.8408 27.4368 89.8464 26.8609C89.8464 26.7524 89.8464 26.497 89.8783 26.2863C89.8914 26.0719 89.9191 25.8585 89.9613 25.6478C90.006 25.4563 90.0443 25.2648 90.1017 25.0669V24.9902C90.1017 24.9902 90.1464 24.9902 90.1656 24.9902L90.3061 25.0413L90.587 25.1498L91.2701 25.4052C91.4872 25.4882 91.7554 25.584 91.9086 25.6478L92.8471 26.0628L94.7178 26.8992C96.6013 27.7548 98.4784 28.6422 100.349 29.4531C101.805 30.0915 103.267 30.6598 104.729 31.2216L105.693 31.5792C106.887 32.0388 107.219 32.2176 107.391 32.5752C107.43 32.6582 107.506 32.7412 107.538 32.8242C107.57 32.9072 107.493 33.054 107.193 33.0859C106.805 33.1005 106.418 33.0443 106.051 32.9199C103.262 31.9876 100.533 30.8874 97.8782 29.6255C95.8607 28.7189 93.8495 27.7803 91.8256 26.9056L91.7809 26.8865Z" fill="#221F1F"/>
<path d="M18.5041 116.156L19.4107 114.017C19.5192 113.762 19.5958 113.487 19.7044 113.232C20.1002 112.319 20.5024 111.419 20.8664 110.499C21.0244 110.093 21.1587 109.677 21.2686 109.254C21.3659 108.706 21.5265 108.17 21.7474 107.658C21.9198 107.345 22.9158 108.054 22.7498 108.705C22.4443 109.834 22.0161 110.926 21.4729 111.962C21.1772 112.605 20.915 113.264 20.6876 113.934L19.7937 116.086L19.2638 117.42C19.0084 118.091 18.7403 118.768 18.5424 119.451C18.4012 119.982 18.2903 120.522 18.2104 121.066L18.1593 121.424C18.0699 121.858 17.955 121.979 17.623 121.998C17.5465 122.005 17.4696 122.005 17.3931 121.998C17.1441 121.998 16.9909 121.756 17.0037 121.411C17.0751 120.365 17.2899 119.334 17.6421 118.346C17.8847 117.599 18.1721 116.865 18.453 116.137L18.5041 116.156Z" fill="#221F1F"/>
<path d="M55.5218 192.234L54.5832 199.896C54.4683 200.828 54.3853 201.767 54.2576 202.699C53.8234 205.98 53.3382 209.262 52.8594 212.544C52.6423 213.999 52.4699 215.462 52.2847 216.911C52.0994 218.785 51.8116 220.648 51.4228 222.491C51.1419 223.621 50.28 221.968 50.5864 219.854C51.1291 216.081 51.6718 212.295 52.3167 208.496C52.6998 206.217 52.9551 203.829 53.2233 201.473L54.1618 193.748C54.3342 192.164 54.513 190.555 54.6854 188.991C54.8003 187.791 54.9216 186.584 55.0365 185.384C55.1514 184.183 55.2344 182.977 55.3174 181.776C55.3621 180.851 55.3941 179.931 55.4196 179.012V176.26C55.4196 175.858 55.3813 175.468 55.3749 175.066C55.3685 174.664 55.3749 174.377 55.3749 174.121C55.3749 173.866 55.3749 173.662 55.3749 173.483C55.3811 173.22 55.4681 172.966 55.6239 172.755C55.6815 172.666 55.7478 172.582 55.8218 172.506C56.0453 172.314 56.3198 172.915 56.4603 174.07C56.6687 177.516 56.6004 180.972 56.256 184.407C56.0581 187.005 55.7835 189.598 55.5154 192.19L55.5218 192.234Z" fill="#221F1F"/>
<path d="M42.6321 211.958C42.7789 212.947 42.9704 213.924 43.1364 214.901L43.3982 216.376L43.6983 217.832L43.9984 219.287C44.1005 219.772 44.2346 220.239 44.3495 220.717C44.4644 221.196 44.5666 221.688 44.7326 222.135L45.0135 222.958C44.9114 222.958 45.9201 222.812 46.5586 222.754C47.1971 222.697 47.9441 222.626 48.64 222.575C50.0254 222.48 51.4045 222.409 52.8091 222.397C53.122 222.397 53.4476 222.397 53.7604 222.397H54.003H54.1754H54.2904C54.2925 222.371 54.2925 222.345 54.2904 222.32L54.3478 222.192C54.4407 221.995 54.5218 221.793 54.5904 221.586L55.0437 220.309L55.9312 217.729C57.2081 213.605 58.434 209.429 59.6087 205.26C60.7835 201.091 61.92 196.896 63.0117 192.702C63.995 188.973 64.9271 185.213 65.7699 181.49C66.8681 176.708 67.8768 171.913 68.9047 167.106C69.224 165.612 69.4921 165.829 69.5432 167.195C69.5624 169.386 69.3245 171.572 68.8345 173.707C66.7021 183.533 64.1865 193.244 61.4092 202.975C59.7301 208.791 58.1275 214.875 56.1802 220.781L55.7141 222.058C55.6357 222.275 55.5462 222.488 55.446 222.697L54.999 223.673L54.4819 223.59L54.2137 223.559H54.0094C53.8179 223.559 53.6072 223.559 53.4029 223.559C52.9943 223.559 52.5793 223.559 52.1643 223.559C51.3279 223.559 50.4915 223.61 49.6551 223.661C48.8187 223.712 47.9824 223.776 47.1524 223.852C46.7374 223.891 46.3224 223.935 45.9137 223.986L45.6073 224.031H45.4541H45.3774H45.2561C44.9369 224.095 44.6177 224.171 44.2857 224.261L43.826 222.984C43.7238 222.671 43.6025 222.345 43.5131 222.058L43.0407 220.2C42.7406 218.955 42.5108 217.71 42.249 216.465C41.4701 212.341 40.8699 208.165 40.2953 204.041C39.4461 197.746 38.763 191.412 38.182 185.136C37.7414 180.264 37.3073 175.482 37.0647 170.636C37.0264 169.57 36.9817 168.523 36.9434 167.444C36.9434 165.446 36.9434 164.124 37.0391 163.198C37.0874 162.558 37.2294 161.927 37.4605 161.328C37.5303 161.139 37.6135 160.955 37.7095 160.779C37.8436 160.6 37.9394 160.925 37.9904 161.647C38.0415 162.368 37.9904 163.486 38.0671 164.935C38.1309 169.225 38.4054 173.65 38.763 178.126C39.1205 182.601 39.5227 187.147 40.0399 191.687C40.7677 198.429 41.6041 205.203 42.7023 211.9L42.6321 211.958Z" fill="#221F1F"/>
<path d="M44.5791 223.743C44.5791 223.743 53.1345 234.904 59.1871 234.093C59.1871 234.093 62.5454 234.865 60.5279 232.312C60.5279 232.312 52.1449 225.71 50.8233 222.85L44.5791 223.743Z" fill="#221F1F"/>
<path d="M58.2871 229.508C59.0916 230.21 59.8961 230.906 60.7197 231.589L60.8793 231.723L61.0197 231.838L61.1155 231.978L61.3837 232.355C61.4667 232.496 61.5624 232.681 61.6391 232.84C61.7148 233.048 61.7725 233.261 61.8114 233.479V233.811C61.7832 233.919 61.7491 234.026 61.7093 234.13C61.6468 234.222 61.5785 234.309 61.505 234.392L61.2368 234.59L60.924 234.717L60.5792 234.788C60.3965 234.803 60.2128 234.803 60.0301 234.788C59.8641 234.788 59.7045 234.788 59.5513 234.743L59.3151 234.711L59.1682 234.679H58.8681C58.7278 234.689 58.587 234.689 58.4467 234.679C58.1702 234.677 57.8944 234.65 57.6231 234.596C56.1895 234.301 54.8288 233.723 53.62 232.898C52.4427 232.128 51.3303 231.263 50.2936 230.312C49.3678 229.482 48.4612 228.627 47.5993 227.758C46.4523 226.672 45.4092 225.482 44.4836 224.202C43.9409 223.372 45.5881 223.666 46.7501 224.975C48.7964 227.353 51.0647 229.532 53.5242 231.48C54.9814 232.66 56.7628 233.368 58.6319 233.511L59.2704 233.472L59.5066 233.524H59.6662L59.9918 233.562C60.1424 233.579 60.2945 233.579 60.4451 233.562C60.4916 233.559 60.5358 233.541 60.5715 233.512C60.6071 233.482 60.6322 233.441 60.6431 233.396C60.6556 233.352 60.6556 233.306 60.6431 233.262C60.6289 233.201 60.6052 233.143 60.5728 233.089C60.4775 232.913 60.3686 232.744 60.2472 232.585C60.2352 232.558 60.2151 232.536 60.1897 232.521L60.0557 232.406L59.7747 232.17L58.6447 231.219C57.6316 230.367 56.6293 229.482 55.6375 228.563C54.1215 227.202 52.7008 225.738 51.3854 224.183C51.1619 223.876 50.8491 223.481 50.7469 223.321L50.6511 223.168C50.6022 223.165 50.5532 223.165 50.5043 223.168L50.351 223.2L50.0637 223.251L47.7972 223.666L46.8012 223.851C45.5243 224.049 45.1412 224.023 44.8284 223.749C44.7524 223.692 44.6818 223.627 44.6177 223.557C44.4644 223.334 44.9497 223.059 45.8563 222.855C47.2034 222.555 48.5889 222.293 50.0063 222.057L50.8235 222.07L51.0853 222.031H51.2194C51.264 222.031 51.264 222.089 51.2896 222.108L51.5258 222.516L51.7557 222.925L51.8195 223.027L51.8578 223.078L51.928 223.174L52.2217 223.57C52.6495 224.1 53.1156 224.623 53.6136 225.134C55.082 226.654 56.6718 228.109 58.2999 229.52L58.2871 229.508Z" fill="#221F1F"/>
<path d="M54.015 223.104C54.015 223.104 62.6917 230.127 64.4411 230.938C66.1905 231.749 64.0388 234.769 60.5081 232.311C56.9775 229.853 52.0996 222.836 52.0996 222.836L54.015 223.104Z" fill="#221F1F"/>
<path d="M59.9659 230.919C60.2723 231.213 60.6043 231.456 60.9172 231.711C61.2305 231.939 61.5639 232.137 61.9132 232.305C62.2192 232.466 62.5552 232.562 62.9002 232.588C63.2452 232.613 63.5917 232.567 63.918 232.452C64.1022 232.366 64.2591 232.231 64.3713 232.062C64.4048 232.011 64.4277 231.953 64.4387 231.893C64.4496 231.833 64.4484 231.771 64.4351 231.711C64.4351 231.622 64.3457 231.571 64.1542 231.449L63.7392 231.207L63.3753 230.958C62.8964 230.632 62.4431 230.287 61.9898 229.942C61.096 229.253 60.2149 228.551 59.3338 227.842C58.5549 227.203 57.7568 226.61 56.9651 226.01C55.9196 225.278 54.9235 224.478 53.9835 223.615C53.4153 223.053 54.922 222.792 56.0713 223.692C58.108 225.288 60.1127 226.935 62.1047 228.608C62.716 229.112 63.3555 229.581 64.0201 230.013C64.1755 230.121 64.3375 230.219 64.5053 230.306L64.7352 230.44C64.8629 230.511 64.9842 230.587 65.1055 230.664C65.2201 230.771 65.3268 230.886 65.4247 231.009C65.5063 231.153 65.5726 231.304 65.6226 231.462C65.6856 231.769 65.659 232.089 65.546 232.381C65.4276 232.65 65.2564 232.892 65.0425 233.092C64.8286 233.293 64.5764 233.449 64.301 233.55C63.8083 233.744 63.2735 233.805 62.7496 233.729C61.7936 233.568 60.8947 233.166 60.1383 232.56C59.2622 231.88 58.4443 231.128 57.693 230.313C56.5437 229.112 55.503 227.823 54.4687 226.552L53.2556 225.09L52.9364 224.707L52.515 224.177C52.2341 223.82 51.9149 223.392 51.6148 222.983L51.1998 222.434C51.1304 222.35 51.0685 222.261 51.0146 222.166L51.3339 222.198C52.9811 222.396 53.6323 222.562 53.8877 222.913C53.9512 222.984 54.001 223.066 54.0346 223.156C54.038 223.216 54.0249 223.277 53.9968 223.331C53.9687 223.385 53.9266 223.43 53.875 223.462C53.8047 223.532 53.7225 223.588 53.6323 223.628C53.5923 223.639 53.5552 223.658 53.5238 223.686C53.5839 223.747 53.6479 223.805 53.7153 223.858C53.7704 223.898 53.8217 223.943 53.8686 223.992L53.9771 224.107L54.2453 224.439C54.9731 225.339 55.7073 226.252 56.4607 227.146C57.5466 228.48 58.7288 229.733 59.9978 230.894L59.9659 230.919Z" fill="#221F1F"/>
<path d="M106.407 60.0347C106.265 60.2833 106.039 60.4733 105.769 60.571L105.552 60.6604L105.328 60.7498C105.164 60.8247 104.986 60.8639 104.805 60.8647C104.626 60.861 104.45 60.8137 104.293 60.7269C104.136 60.6402 104.003 60.5166 103.905 60.3667L103.809 60.1688C103.776 60.0781 103.755 59.9837 103.745 59.8879C103.732 59.7662 103.751 59.6433 103.801 59.5313C103.85 59.4193 103.928 59.3222 104.026 59.2494C104.223 59.1249 104.439 59.0322 104.664 58.9749C104.888 58.911 105.105 58.8153 105.303 58.9366C105.501 59.0579 105.303 60.1624 105.118 60.2135C105.002 60.2357 104.884 60.2464 104.767 60.2454C104.756 60.2148 104.743 60.1849 104.728 60.156C104.696 60.0941 104.66 60.0344 104.62 59.9773C104.593 59.9331 104.561 59.8924 104.524 59.856C104.505 59.8334 104.481 59.8159 104.454 59.8049C104.477 59.8111 104.501 59.8111 104.524 59.8049C104.574 59.7974 104.623 59.7845 104.671 59.7666C104.709 59.7666 104.767 59.7091 104.824 59.69C104.821 59.7003 104.821 59.7115 104.824 59.7219L104.709 59.8113C104.728 59.7883 104.743 59.7624 104.754 59.7347C104.754 59.6836 104.754 59.7347 104.824 59.7347H104.882L104.958 59.7027L105.054 59.6644L105.328 59.5495C105.328 59.5495 105.328 59.5495 105.36 59.5495C105.406 59.5879 105.458 59.6181 105.514 59.6389C105.584 59.6389 105.514 59.6389 105.437 59.69L105.622 59.6006C105.567 59.644 105.521 59.6983 105.488 59.7602C105.488 59.8177 105.488 59.8177 105.488 59.8049H105.45C105.41 59.7982 105.369 59.7982 105.328 59.8049C105.255 59.7838 105.178 59.7838 105.105 59.8049C105.071 59.842 105.047 59.8874 105.035 59.9368C105.024 59.9861 105.026 60.0375 105.041 60.0858V60.1369C105.041 60.188 104.971 60.188 104.658 60.2327L104.441 60.271C104.198 60.322 103.975 60.271 103.924 60.0347C103.891 59.8706 103.895 59.7011 103.936 59.5387C103.977 59.3763 104.053 59.2252 104.16 59.0962C104.28 58.9447 104.433 58.8225 104.607 58.7387C104.773 58.664 104.95 58.6166 105.131 58.5982C105.3 58.586 105.47 58.5989 105.635 58.6365C105.738 58.6575 105.839 58.6896 105.935 58.7323C106.123 58.8107 106.285 58.9414 106.401 59.109V59.1473C106.469 59.2872 106.511 59.4389 106.522 59.5942C106.528 59.7618 106.493 59.9282 106.42 60.0794L106.407 60.0347Z" fill="#221F1F"/>
<path d="M97.5777 230.421L98.7334 234.476C95.9241 235.012 85.1852 235.038 85.9641 232.714C86.8133 230.134 96.0263 229.84 97.5777 230.421Z" fill="#221F1F"/>
<path d="M99.2949 229.509L100.859 234.725C104.524 235.217 116.821 234.431 115.94 232.171C114.458 228.347 100.987 228.692 99.2949 229.509Z" fill="#221F1F"/>
<path opacity="0.3" d="M136.945 223.124L137.948 226.629C135.521 227.095 126.238 227.114 126.909 225.109C127.649 222.881 135.611 222.619 136.945 223.124Z" fill="#221F1F"/>
<path opacity="0.3" d="M138.344 222.339L139.697 226.847C142.89 227.274 153.392 226.591 152.645 224.65C151.362 221.337 139.806 221.637 138.344 222.339Z" fill="#221F1F"/>
<path d="M84.2719 171.223C82.5098 152.944 97.0412 80.2613 85.4978 66.7579C79.9368 60.2519 72.5625 60.3285 66.2418 65.0915C49.8269 77.4649 37.1343 93.1838 20.4322 105.174C27.1615 105.257 27.4552 110.671 27.4552 112.382C24.4289 116.922 3.2384 140.653 1.27832 142.192C13.0132 163.561 71.6815 173.036 84.2719 171.223Z" fill="#221F1F"/>
<path d="M25.6294 113.602C25.9551 113.193 26.2679 112.784 26.5552 112.376C26.7659 112.095 26.7148 112.159 26.7212 112.127C26.7212 111.884 26.7212 111.635 26.6829 111.399C26.6133 110.447 26.3504 109.52 25.9104 108.673C25.4796 107.867 24.8257 107.202 24.0269 106.757L23.3885 106.457C23.1714 106.368 22.9351 106.31 22.7117 106.234C22.3417 106.137 21.9633 106.075 21.5816 106.049C21.1283 105.991 20.6814 105.927 20.2089 105.883L18.8235 105.736H18.6511H18.5681C18.517 105.736 18.5681 105.736 18.6064 105.691L18.9001 105.474L19.4938 105.033L21.7668 103.354L23.0437 102.422L24.2759 101.458C25.9359 100.181 27.5385 98.8468 29.1474 97.5124C35.532 92.0983 41.5399 86.2436 47.6628 80.4783C52.132 76.2644 56.6012 72.0825 61.3897 68.207L62.9667 66.9301L64.5756 65.6851C65.6402 64.8105 66.7716 64.0207 67.9594 63.3228C70.3777 61.8585 73.1652 61.1184 75.9913 61.1903C77.4046 61.2635 78.796 61.5699 80.1094 62.0969C81.401 62.6559 82.6103 63.3883 83.7039 64.2741C84.2328 64.7264 84.7379 65.2059 85.2171 65.7106L85.9258 66.4768C86.1365 66.7641 86.3727 67.0386 86.5642 67.3387C87.3188 68.5154 87.9156 69.7862 88.3391 71.1184C88.7688 72.4232 89.1059 73.7566 89.3479 75.1088C89.6033 76.4496 89.8034 77.7967 89.9481 79.1502C90.2481 81.8509 90.3822 84.5644 90.4397 87.2715C90.5546 92.6856 90.3439 98.0934 90.0311 103.488C89.4565 113.065 88.5179 122.642 87.5602 132.117C86.9218 138.195 86.2833 144.28 85.7342 150.364C85.4469 153.41 85.1788 156.449 84.9553 159.494C84.7318 162.54 84.5594 165.579 84.5722 168.605C84.5722 170.489 84.6169 171.299 84.4828 171.261C84.3488 171.223 84.1125 170.31 83.9274 168.707C83.5379 165.477 83.5762 159.488 84.2275 152.471C85.3767 140.034 86.8643 127.661 87.9497 115.23C88.4924 109.017 88.9584 102.792 89.1819 96.5547C89.4054 90.3169 89.4309 84.0473 88.6584 77.8733C88.4285 76.0279 88.0657 74.2014 87.573 72.4081C87.3255 71.5185 87.0139 70.6479 86.6408 69.8032C86.2862 68.9662 85.8248 68.1787 85.2682 67.46C84.1126 66.02 82.7067 64.8001 81.1181 63.8591C79.5264 62.9236 77.7277 62.3972 75.8828 62.3268C74.0265 62.2829 72.1824 62.6378 70.475 63.3675C68.7424 64.1136 67.1273 65.1072 65.6801 66.3172C62.6091 68.6476 59.6786 71.1503 56.7991 73.6786C50.4656 79.2524 44.4577 85.2093 38.2518 90.9746C35.1489 93.854 31.9885 96.6824 28.7324 99.3959C27.1107 100.762 25.4315 102.065 23.7588 103.373L21.8434 104.765L21.6965 104.874L21.6263 104.925H21.7093H22.0605C22.2044 104.939 22.3472 104.963 22.4882 104.995L22.7181 105.033L23.0884 105.142C24.4496 105.513 25.6475 106.329 26.4914 107.46C27.2771 108.604 27.7423 109.938 27.8385 111.322C27.8385 111.488 27.8385 111.661 27.8768 111.827C27.9151 111.993 27.8768 112.14 27.8768 112.427C27.9088 112.561 27.813 112.657 27.7428 112.752L27.564 112.995L27.2703 113.397C26.8872 113.94 26.4658 114.438 26.0636 114.955C25.2464 115.977 24.4164 116.983 23.5736 117.975C20.2153 121.965 16.7804 125.879 13.3263 129.767C10.7022 132.717 8.06538 135.648 5.37746 138.546L3.35353 140.711C3.01514 141.075 2.65761 141.426 2.31284 141.783C2.11492 141.988 2.03191 142.058 1.91061 142.166L1.8276 142.249C1.79568 142.249 1.75099 142.3 1.7893 142.332L1.89784 142.505L2.61292 143.654C2.87642 144.062 3.16649 144.452 3.48123 144.822C3.7813 145.205 4.06861 145.601 4.38784 145.965L5.39022 147.025C8.15322 149.793 11.2781 152.175 14.6798 154.106C18.0578 156.067 21.5695 157.789 25.1889 159.258C36.4258 163.861 48.0522 166.734 59.8574 168.797C62.4559 169.25 65.0161 169.601 67.653 169.959C72.55 170.597 75.787 170.801 78.0599 170.948C80.3328 171.095 81.6353 171.133 82.7015 171.248C83.1868 171.293 83.8252 171.28 84.1125 171.331C84.3998 171.382 84.2977 171.433 83.9465 171.523C83.318 171.677 82.677 171.775 82.0312 171.817C79.2666 172.006 76.4914 171.979 73.7311 171.734C68.2835 171.303 62.862 170.589 57.4887 169.595C52.1001 168.567 46.6412 167.36 41.2462 165.885C35.7766 164.407 30.4015 162.599 25.1506 160.471C22.5074 159.405 19.9088 158.192 17.355 156.883C16.7165 156.557 16.0781 156.193 15.4396 155.855C14.8011 155.517 14.1627 155.159 13.5753 154.77L11.7365 153.633L9.94884 152.407C9.05499 151.807 8.23776 151.13 7.39499 150.447C6.9736 150.109 6.58415 149.732 6.18192 149.375C5.77969 149.017 5.3583 148.666 4.99438 148.264C4.21897 147.499 3.49185 146.686 2.81722 145.831C2.48522 145.397 2.12768 144.982 1.82122 144.554L0.901837 143.086L0.493222 142.447C0.43576 142.339 0.327222 142.224 0.314453 142.122L0.576225 141.873L1.09976 141.381L1.35515 141.145L1.49561 141.004C1.85315 140.628 2.22346 140.27 2.58099 139.881C3.30884 139.123 4.0303 138.353 4.74538 137.569L9.01669 132.877C11.8515 129.736 14.6607 126.567 17.4444 123.37C20.2153 120.178 23.0054 116.985 25.6103 113.685L25.6294 113.602Z" fill="#221F1F"/>
<path d="M32.8318 107.785L31.2484 109.528C31.0568 109.738 30.8845 109.975 30.6865 110.166C29.9906 110.9 29.2628 111.603 28.5285 112.305C28.2029 112.618 27.8901 112.944 27.59 113.269C27.2304 113.723 26.7991 114.116 26.3131 114.431C25.9938 114.604 25.5916 113.429 26.0449 113.007C26.8621 112.235 27.6794 111.456 28.5988 110.709C29.1189 110.23 29.6033 109.714 30.0481 109.164L31.6187 107.414L32.57 106.323C33.0424 105.767 33.5341 105.218 33.9746 104.637C34.3194 104.19 34.6131 103.705 34.9195 103.239C34.9834 103.137 35.0408 103.028 35.1174 102.926C35.3984 102.556 35.558 102.498 35.8645 102.626C35.9342 102.652 36.0024 102.682 36.0688 102.715C36.2858 102.843 36.3241 103.118 36.1645 103.418C35.6618 104.323 35.0739 105.178 34.4087 105.972C33.9171 106.61 33.4 107.178 32.8956 107.785H32.8318Z" fill="#221F1F"/>
</svg>
