<svg width="228" height="216" viewBox="0 0 228 216" fill="none" xmlns="http://www.w3.org/2000/svg">
<path d="M120.132 123.098C120.056 122.77 120.009 122.436 119.992 122.1C119.966 121.992 119.949 121.883 119.938 121.773C119.949 121.381 119.999 120.991 120.089 120.609C120.107 120.448 120.107 120.286 120.089 120.126C120.089 119.922 120.008 119.702 120.18 119.503C120.234 119.439 120.545 119.503 120.856 119.568C121.167 119.632 121.489 119.745 121.505 119.836C121.599 120.166 121.599 120.515 121.505 120.845C121.425 121.065 121.543 121.258 121.58 121.462C121.618 121.665 121.655 121.902 121.709 122.116C121.742 122.244 121.787 122.368 121.843 122.486C121.903 122.663 122.013 122.817 122.16 122.932C122.226 122.953 122.297 122.953 122.364 122.932C122.433 122.932 122.514 122.867 122.557 122.878H122.627C122.702 122.878 122.696 123.039 122.669 123.5V123.812C122.681 123.952 122.657 124.093 122.6 124.221C122.543 124.35 122.454 124.462 122.342 124.547C122.058 124.673 121.74 124.701 121.438 124.625C121.137 124.549 120.869 124.374 120.679 124.128C120.542 123.979 120.421 123.815 120.319 123.64C120.233 123.467 120.161 123.288 120.105 123.103L120.132 123.098Z" fill="#231F20"/>
<path d="M94.9357 50.472C94.7854 51.4914 94.6889 52.5377 94.6191 53.5839C94.6191 53.9702 94.6191 54.3512 94.6191 54.7375C94.5547 56.0896 94.4742 57.4577 94.4742 58.8259C94.4776 59.4324 94.5188 60.0381 94.5976 60.6394C94.7557 61.4031 94.7991 62.1861 94.7264 62.9626C94.6352 63.4562 92.8002 62.9626 92.7198 62.0773C92.5623 60.4709 92.5748 58.8523 92.7573 57.2485C92.87 56.2827 92.7573 55.2794 92.7949 54.2868C92.8271 53.2137 92.9183 52.1084 93.0256 51.0193C93.1007 50.3486 93.1812 49.6779 93.2885 49.0072C93.4334 47.9932 93.6694 46.9899 93.8733 45.9973C94.0396 45.2193 94.1255 44.4359 94.3133 43.658C94.3562 43.4916 94.3777 43.3146 94.4313 43.1214C94.6406 42.5044 94.8391 42.3542 95.3434 42.4239C95.4615 42.4239 95.5795 42.4239 95.6922 42.4722C95.877 42.5295 96.0328 42.6554 96.1276 42.8241C96.2224 42.9927 96.249 43.1913 96.2019 43.379C96.0302 44.7203 95.7029 46.0187 95.4507 47.3708C95.2683 48.3741 95.0805 49.3882 94.984 50.4291L94.9357 50.472Z" fill="#231F20"/>
<path d="M119.68 45.2691C116.858 42.0928 112.233 40.6173 108.069 40.6817C106.776 40.6817 106.771 42.7152 108.069 42.6937C111.734 42.6347 115.769 43.8902 118.264 46.6909C119.128 47.6621 120.544 46.2349 119.686 45.2691H119.68Z" fill="#231F20"/>
<path d="M191.003 78.6188C190.638 72.6686 188.62 69.2616 184.296 65.2858C180.969 62.2168 177.181 58.8474 176.72 54.1097C176.275 49.4848 177.793 44.6613 178.056 40.0793C179.88 6.44366 150.966 8.02108 143.508 14.1215C132.214 -4.39978 104.202 1.93674 94.5063 6.99093C88.4005 10.178 82.4234 16.4125 79.3544 22.8134C76.5166 28.7593 75.2547 35.3348 75.6899 41.9089C76.0011 47.9181 77.8092 53.7878 77.5517 59.8131C77.2834 66.0584 73.5437 69.723 69.847 74.2299C60.6024 85.4972 75.9099 112.217 111.488 103.133C111.488 103.133 114.573 110.527 119.707 111.101C122.707 111.434 125.937 106.508 126.908 101.947C133.513 101.947 143.197 111.466 143.197 111.466C153.91 113.391 164.959 111.48 174.402 106.068C184.189 100.563 191.711 90.2027 191.003 78.6188ZM147.688 65.6292C146.127 65.3341 139.479 89.0867 125.631 92.4561C118.656 94.1462 111.214 92.8907 105.859 88.0619C100.381 83.115 96.7383 76.2258 95.0535 69.0631C94.4848 66.6218 93.4439 60.7735 93.4439 60.7682C83.5126 59.6361 79.1023 44.0872 88.7868 40.3529C92.006 39.4998 93.5673 42.2308 96.2393 42.9497C96.7168 43.0785 97.1836 43.2234 97.6504 43.3468C117.814 48.7122 132.638 37.0103 136.753 35.5884C142.178 34.5154 145.767 53.6537 146.615 51.9904C149.18 46.9416 154.1 44.6452 157.914 46.9684C167.4 52.7523 157.292 67.4374 147.688 65.6292Z" fill="#231F20"/>
<path d="M68.5104 91.1958C67.2081 88.794 66.3982 86.1563 66.1282 83.4375C65.8594 80.6548 66.4194 77.8547 67.7378 75.3894C68.0818 74.7723 68.4748 74.1838 68.9128 73.6296C69.326 73.093 69.7391 72.6262 70.1576 72.138C70.9839 71.1561 71.8048 70.185 72.5667 69.1978C74.1238 67.3266 75.2913 65.1631 76.0005 62.8344C76.3045 61.6742 76.4684 60.4817 76.4888 59.2825C76.518 58.0399 76.475 56.7966 76.36 55.5589C76.14 53.0587 75.7108 50.5477 75.3245 47.9938C74.9015 45.4155 74.6648 42.8101 74.6162 40.1978C74.5796 37.5539 74.7988 34.9125 75.2708 32.3107C75.948 28.519 77.1925 24.8509 78.9622 21.4297C80.7748 18.0335 83.1003 14.937 85.8567 12.2496C88.2621 9.84978 91.0039 7.81284 93.996 6.20277C97.0182 4.70588 100.196 3.54537 103.471 2.7421C106.714 1.90498 110.022 1.34143 113.36 1.05737C115.028 0.907135 116.708 0.864213 118.387 0.869578C120.068 0.896579 121.746 1.01479 123.414 1.22369C125.089 1.4321 126.746 1.76205 128.372 2.21092C130.008 2.65204 131.604 3.23181 133.142 3.94394C134.682 4.66412 136.153 5.52441 137.536 6.51396L138.539 7.30267L139.038 7.69971L139.505 8.13431L140.439 9.0035L141.303 9.94244L141.737 10.4146L142.129 10.9136L142.918 11.9223C143.154 12.2496 143.454 12.711 143.486 12.7754L143.637 13.0007C143.663 13.0007 143.679 13.1027 143.717 13.0866L143.824 13.0114L144.039 12.8558L144.457 12.6037C144.828 12.3676 145.225 12.2013 145.611 12.0028C146.389 11.6442 147.19 11.3377 148.009 11.0853C151.266 10.112 154.68 9.77496 158.064 10.0927C161.079 10.3582 164.015 11.2054 166.708 12.5876C168.737 13.6235 170.566 15.0114 172.111 16.6867L172.878 17.5237L173.591 18.4305C175.386 20.855 176.71 23.5938 177.497 26.5054C178.272 29.3723 178.708 32.3201 178.796 35.2885C178.833 36.2328 178.876 37.1825 178.828 38.1268C178.78 39.0711 178.828 40.0101 178.726 40.9705C178.565 42.8752 178.249 44.7262 177.97 46.5773C177.66 48.3863 177.48 50.2152 177.433 52.05C177.408 52.9369 177.466 53.8242 177.605 54.7005C177.761 55.5545 178.024 56.3855 178.388 57.1739C179.193 58.7723 180.245 60.2336 181.505 61.5038C182.761 62.8398 184.145 64.0523 185.519 65.3669C186.912 66.6911 188.132 68.1855 189.151 69.8148C190.171 71.4788 190.879 73.3154 191.238 75.2338C191.409 76.087 191.493 76.9552 191.49 77.8253C191.49 78.3618 191.41 78.614 191.313 78.5872C191.104 78.5335 190.857 77.3853 190.267 75.5235C189.914 74.4309 189.465 73.3716 188.926 72.358C188.218 71.0777 187.355 69.8901 186.356 68.8222C185.819 68.232 185.213 67.6311 184.548 67.0409C183.882 66.4507 183.19 65.8444 182.444 65.1898C180.807 63.8129 179.325 62.2622 178.023 60.5648C177.409 59.7246 176.879 58.8261 176.441 57.8822C175.998 56.9073 175.691 55.8765 175.528 54.8185C175.385 53.8005 175.333 52.7715 175.373 51.7442C175.4 50.7408 175.48 49.7482 175.598 48.7717C175.834 46.8295 176.183 44.9409 176.451 43.0952C176.585 42.1669 176.693 41.2495 176.757 40.3427C176.821 39.436 176.816 38.4917 176.848 37.5634C176.88 36.6352 176.811 35.707 176.795 34.7788C176.795 34.3174 176.746 33.856 176.703 33.3945L176.575 32.0156C176.473 31.0982 176.296 30.1968 176.162 29.29L175.845 27.954C175.752 27.5061 175.633 27.0636 175.491 26.6288L175.078 25.325C174.944 24.8904 174.745 24.4826 174.579 24.0588C174.235 23.2239 173.844 22.4089 173.409 21.6175C172.509 20.0661 171.415 18.6362 170.152 17.3628C167.538 14.8617 164.28 13.1376 160.741 12.3837C157.161 11.5984 153.451 11.624 149.882 12.4588C149.447 12.5822 149.002 12.6842 148.567 12.8183C148.133 12.9524 147.704 13.0812 147.29 13.2636C146.874 13.4217 146.466 13.6007 146.067 13.8002C145.869 13.9021 145.665 13.9879 145.482 14.106L145.203 14.2723L145.026 14.3743C144.925 14.4337 144.826 14.4981 144.731 14.5674L143.658 15.3347L143.39 15.5224L143.256 15.619C143.229 15.6512 143.213 15.619 143.202 15.619L143.154 15.5493L142.789 15.0127L141.608 13.2207C141.346 12.8505 141.072 12.4964 140.777 12.1476C140.632 11.9652 140.498 11.7774 140.348 11.6111L139.886 11.1067C139.275 10.424 138.625 9.77726 137.938 9.16983C137.24 8.57435 136.509 8.01732 135.749 7.50119C134.219 6.46046 132.576 5.59648 130.851 4.92581C126.605 3.34037 122.097 2.57215 117.566 2.66162C112.933 2.69475 108.323 3.30576 103.841 4.48048C101.593 5.05832 99.3876 5.7934 97.2421 6.68029C95.1164 7.55211 93.107 8.68388 91.2597 10.0498C87.5319 12.786 84.34 16.1853 81.8434 20.0777C80.4916 22.209 79.3881 24.488 78.5544 26.8702C77.7049 29.2531 77.1079 31.7186 76.7731 34.2262C76.4377 36.7402 76.3353 39.2799 76.4673 41.8128C76.6375 44.3649 76.942 46.9062 77.3794 49.4263C77.8301 52.0036 78.1311 54.6048 78.2808 57.2168C78.3455 58.5503 78.306 59.8868 78.1628 61.2141C77.9811 62.5651 77.6202 63.8858 77.0897 65.1415C76.0542 67.6579 74.407 69.804 72.7598 71.8053C71.9335 72.8087 71.0804 73.7852 70.2864 74.7724C69.5401 75.7297 68.9481 76.7978 68.5319 77.938C68.0521 79.3721 67.8287 80.8796 67.8719 82.3912C67.8893 83.1515 67.9574 83.9097 68.0758 84.6608C68.2098 85.4131 68.389 86.1567 68.6124 86.8874C68.8411 87.617 69.1098 88.3335 69.4172 89.0336C69.7397 89.7311 70.0979 90.4116 70.4902 91.0724C71.2753 92.4062 72.1978 93.6542 73.2427 94.796C75.3753 97.0952 77.8893 99.0084 80.6738 100.451C83.4471 101.892 86.4091 102.936 89.473 103.552C93.0878 104.264 96.7793 104.505 100.456 104.271L101.835 104.191C102.296 104.153 102.752 104.089 103.208 104.041C104.126 103.933 105.043 103.847 105.95 103.67C106.857 103.493 107.769 103.386 108.665 103.171L110.017 102.866L110.849 102.678C111.176 102.608 111.514 102.517 111.831 102.463L112.163 103.214L112.335 103.579L112.485 103.88C112.651 104.202 112.823 104.518 113.022 104.829C113.383 105.452 113.779 106.054 114.207 106.632C115.032 107.781 116.053 108.777 117.223 109.572C117.507 109.765 117.824 109.9 118.119 110.071C118.414 110.243 118.752 110.323 119.079 110.393L119.567 110.495C119.648 110.495 119.734 110.533 119.809 110.538H120.029C120.102 110.543 120.176 110.543 120.249 110.538L120.474 110.495L120.694 110.452L120.914 110.366C121.531 110.113 122.089 109.737 122.556 109.261C123.057 108.772 123.506 108.232 123.897 107.651C124.7 106.472 125.342 105.191 125.807 103.842C125.936 103.504 126.033 103.161 126.135 102.823C126.204 102.581 126.269 102.318 126.333 102.071L126.43 101.691L126.483 101.503C126.483 101.449 126.483 101.347 126.58 101.379L127.358 101.412L128.109 101.492H128.292L128.431 101.519L128.721 101.578C128.909 101.61 129.096 101.658 129.284 101.707C130.745 102.108 132.152 102.684 133.475 103.424C134.782 104.137 136.045 104.929 137.257 105.795C138.389 106.6 139.489 107.448 140.546 108.322C141.083 108.757 141.619 109.202 142.107 109.653L142.869 110.334L143.481 110.908L144.42 111.064C144.785 111.134 145.155 111.171 145.525 111.219C146.26 111.332 147.006 111.386 147.746 111.456C149.227 111.552 150.713 111.606 152.194 111.557C158.112 111.402 163.943 110.097 169.364 107.716C172.065 106.549 174.641 105.11 177.052 103.424C179.622 101.597 181.921 99.4165 183.882 96.9475C185.437 95.0175 186.76 92.9125 187.826 90.6754C188.533 89.1479 189.114 87.5652 189.564 85.9431C189.747 85.2885 189.924 84.7037 190.015 84.1618C190.106 83.6199 190.246 83.1424 190.342 82.7024C190.471 81.8225 190.659 81.0928 190.777 80.4704C190.895 79.848 190.981 79.1076 191.088 78.7589C191.195 78.4101 191.27 78.5443 191.367 78.9842C191.41 79.2042 191.458 79.5208 191.507 79.9071C191.572 80.3834 191.601 80.8642 191.592 81.345C191.589 84.8167 190.841 88.2474 189.398 91.4051C188.473 93.4378 187.342 95.3705 186.023 97.1729C183.327 100.811 179.966 103.906 176.119 106.294C174.184 107.484 172.169 108.538 170.088 109.449C167.994 110.351 165.843 111.114 163.649 111.735C161.426 112.334 159.163 112.779 156.878 113.065C154.578 113.357 152.259 113.472 149.941 113.409C148.782 113.376 147.618 113.301 146.459 113.183C145.874 113.135 145.294 113.038 144.715 112.969C144.425 112.931 144.136 112.872 143.851 112.829L142.628 112.614L142.043 112.078L141.726 111.783L141.061 111.182C140.632 110.801 140.197 110.42 139.752 110.05C138.865 109.302 137.958 108.587 137.032 107.904C135.217 106.523 133.265 105.335 131.205 104.357C130.224 103.894 129.19 103.553 128.125 103.343C127.776 103.279 127.927 103.311 127.889 103.306L127.819 103.536C127.728 103.842 127.637 104.153 127.524 104.448C127.108 105.659 126.568 106.824 125.915 107.925C125.241 109.081 124.388 110.122 123.388 111.01C122.789 111.527 122.1 111.927 121.354 112.191C121.147 112.258 120.935 112.31 120.721 112.346C120.608 112.346 120.501 112.389 120.388 112.4H120.045C119.636 112.399 119.229 112.349 118.832 112.25C117.409 111.902 116.093 111.209 115.001 110.232C113.98 109.33 113.079 108.3 112.319 107.169C111.938 106.632 111.594 106.053 111.246 105.478C111.095 105.194 110.913 104.867 110.79 104.62H110.736L110.371 104.701L108.906 105.033C107.93 105.248 106.937 105.387 105.955 105.57C103.972 105.884 101.973 106.088 99.9677 106.181C95.922 106.398 91.866 106.037 87.9224 105.108C83.9364 104.191 80.1558 102.541 76.7731 100.242C73.3447 97.9282 70.5087 94.8404 68.4943 91.228L68.5104 91.1958Z" fill="#231F20"/>
<path d="M112.529 45.6607C111.786 45.7483 111.039 45.7985 110.291 45.8109C109.54 45.8109 108.794 45.8968 108.048 45.87L105.806 45.7734C105.43 45.7465 105.055 45.7734 104.684 45.709L103.574 45.5641L101.347 45.269C100.612 45.1403 99.8877 44.9525 99.158 44.7969C98.4283 44.6413 97.6879 44.4857 97.0118 44.2603L95.9388 43.9545C95.7295 43.8901 95.5203 43.8257 95.3164 43.7506C95.1125 43.6755 94.9247 43.5897 94.7369 43.4985C93.2507 42.758 92.1562 41.7762 91.0509 41.3952C90.5259 41.2035 89.9601 41.1517 89.4091 41.245C89.275 41.2718 89.0872 41.304 89.0603 41.3147L88.6365 41.4972C88.3423 41.6281 88.0573 41.7787 87.7834 41.9479C86.6883 42.6072 85.7984 43.5584 85.2134 44.6949C84.6375 45.8632 84.3383 47.1483 84.3388 48.4507C84.3563 50.4202 84.8542 52.3556 85.7892 54.0891C86.7242 55.8225 88.068 57.3017 89.7042 58.3981C89.9724 58.5537 90.2407 58.7147 90.509 58.8542C90.7773 58.9937 91.0455 59.1332 91.3514 59.2298C91.6364 59.3448 91.9286 59.4415 92.2259 59.5195L92.6712 59.6375C92.7239 59.6525 92.7778 59.6633 92.8322 59.6697L93.0307 59.7019L93.4224 59.7663L93.8677 59.9648L93.9804 60.0131H94.034C94.0609 60.0131 93.8194 60.2492 93.9267 60.1472L94.0609 60.3082C94.2774 60.5578 94.4155 60.8658 94.4579 61.1935L94.7047 62.5509L95.1554 65.0566C95.472 66.7306 95.7617 68.3885 96.1856 69.9927C97.0238 73.22 98.2716 76.3267 99.8984 79.2373C103.161 84.9675 107.989 90.2846 114.519 91.7708C117.67 92.5405 120.949 92.621 124.134 92.0069C124.921 91.8625 125.699 91.669 126.462 91.4274C127.217 91.1781 127.951 90.8695 128.657 90.5046C130.072 89.76 131.388 88.8407 132.574 87.7682C135.653 85.0212 138.057 81.539 140.16 77.9228C141.233 76.1093 142.183 74.2475 143.127 72.3589C144.072 70.4702 144.946 68.5655 145.976 66.6608C146.211 66.1858 146.527 65.7555 146.91 65.3892C147.061 65.2545 147.247 65.1652 147.446 65.1317C147.672 65.1317 147.763 65.2014 147.72 65.2336C147.677 65.2658 147.527 65.3141 147.452 65.4268C147.368 65.5442 147.305 65.6748 147.264 65.8131C147.162 66.1189 147.049 66.5481 146.894 67.09C145.905 70.7402 144.497 74.2636 142.698 77.5901C140.552 81.4264 138.111 85.1714 134.859 88.3209C133.226 89.9389 131.351 91.2929 129.301 92.3342C128.25 92.8494 127.147 93.2523 126.012 93.536C124.906 93.8024 123.784 93.9978 122.653 94.1208C118.104 94.7097 113.484 93.925 109.384 91.8674C108.368 91.3289 107.399 90.7061 106.487 90.0056C106.026 89.6729 105.607 89.2705 105.167 88.9057C104.727 88.5409 104.352 88.1277 103.96 87.7253C102.397 86.1134 100.994 84.3543 99.7696 82.4726C97.6522 79.1946 96.0119 75.6321 94.8979 71.8921C94.3517 70.0145 93.9075 68.1088 93.5673 66.1833L93.0307 63.3289L92.7625 61.9071L92.7142 61.6281C92.7142 61.5208 92.6122 61.5422 92.5425 61.5261H92.4137C92.3708 61.5261 92.3386 61.5261 92.2205 61.4832L91.6304 61.3276C91.2396 61.2182 90.8546 61.0893 90.4768 60.9413C89.7229 60.631 89.0036 60.2425 88.3306 59.7824C87.013 58.8746 85.8789 57.7259 84.988 56.3968C84.1041 55.1097 83.4405 53.6845 83.0243 52.1796C82.5917 50.6695 82.4407 49.0926 82.5789 47.5279C82.7151 45.9254 83.248 44.3821 84.1295 43.037C85.0413 41.6989 86.3035 40.6372 87.778 39.968L88.3145 39.732L88.4809 39.6568C88.5461 39.6369 88.6123 39.6208 88.6794 39.6086L88.996 39.5442C89.4206 39.4669 89.8532 39.4435 90.2836 39.4744C91.1243 39.5501 91.9387 39.8063 92.6712 40.2256C94.0555 40.9982 95.1393 41.9318 96.3626 42.2644C97.763 42.7044 99.1741 42.9726 100.58 43.2946C100.934 43.3697 101.283 43.4716 101.653 43.5146L102.726 43.654L104.872 43.9331C108.414 44.2125 111.977 44.0503 115.479 43.4502C118.993 42.8104 122.422 41.7736 125.701 40.3597C128.198 39.2927 130.639 38.0982 133.014 36.781C133.625 36.4644 134.21 36.1318 134.838 35.8152C135.16 35.665 135.444 35.4933 135.787 35.3538L136.292 35.1445L136.582 35.0211L136.941 34.9729C137.774 34.9314 138.592 35.2053 139.232 35.7401C139.808 36.2012 140.314 36.7434 140.734 37.3497C141.532 38.5067 142.213 39.7395 142.768 41.0304C143.331 42.2966 143.841 43.5843 144.292 44.872C144.742 46.1597 145.188 47.4635 145.622 48.7458L145.95 49.7008L146.148 50.2374C146.212 50.4213 146.29 50.6006 146.379 50.7739C146.403 50.8149 146.43 50.8544 146.459 50.892C146.491 50.9295 146.545 50.9671 146.583 50.9241C146.62 50.8812 146.679 50.7578 146.727 50.672C146.776 50.5861 146.862 50.4198 146.931 50.3071L147.167 49.9423C147.167 49.9047 147.296 49.7706 147.371 49.674L147.613 49.3628C147.769 49.1479 147.939 48.9436 148.122 48.7512C148.305 48.558 148.477 48.3488 148.659 48.1717C149.423 47.4071 150.305 46.7712 151.272 46.2885C152.253 45.7911 153.328 45.5042 154.427 45.4461C155.539 45.3988 156.645 45.6293 157.646 46.1168C158.135 46.3611 158.603 46.6446 159.046 46.9645C159.484 47.2847 159.892 47.6438 160.264 48.0376C161.033 48.8416 161.619 49.8026 161.981 50.8544C162.636 52.9689 162.534 55.2457 161.692 57.2929C161.358 58.2028 160.926 59.0736 160.404 59.8897C159.895 60.7133 159.304 61.4827 158.639 62.1861C156.133 64.8258 153.745 65.7594 152.114 66.1296C150.986 66.4323 149.793 66.3875 148.691 66.0009C148.364 65.8863 148.051 65.7351 147.758 65.5502C147.613 65.4321 147.683 65.3517 147.935 65.298C148.187 65.2444 148.611 65.2444 149.196 65.1692C150.966 64.9897 152.674 64.4179 154.196 63.4952C156.422 62.137 158.23 60.1914 159.422 57.8723C159.997 56.7365 160.36 55.5057 160.495 54.2399C160.621 53.0315 160.412 51.8117 159.889 50.7149C159.306 49.6401 158.449 48.7386 157.405 48.1019L157.211 47.9732L157.013 47.8766L156.627 47.6727L156.219 47.5279L156.015 47.4527L155.806 47.4098C155.243 47.272 154.659 47.2356 154.083 47.3025C152.866 47.4673 151.716 47.9607 150.757 48.7297C150.498 48.9159 150.254 49.1222 150.027 49.3467C149.788 49.5659 149.563 49.7988 149.351 50.0442C149.13 50.2921 148.922 50.5518 148.729 50.8222L148.648 50.9188L148.611 50.9724L148.536 51.0958L148.251 51.5734L147.672 52.5338C147.522 52.8289 147.409 52.802 147.285 52.8932L146.915 53.1079L146.54 53.3225C146.395 53.3529 146.245 53.3529 146.1 53.3225C145.807 53.2496 145.544 53.0863 145.349 52.8557C145.07 52.5154 144.851 52.1309 144.699 51.7182C144.512 51.2675 144.34 50.7793 144.163 50.3018L143.911 49.5667L143.417 48.1127C142.762 46.1758 142.092 44.2603 141.303 42.42C140.777 41.1377 140.136 39.9058 139.388 38.7394C139.054 38.2187 138.654 37.7442 138.197 37.3283C137.902 37.0248 137.503 36.8445 137.081 36.8239C137.081 36.8239 136.968 36.8239 137.005 36.8239H136.936L136.501 37.0063C136.222 37.119 135.884 37.3122 135.578 37.4624C134.95 37.779 134.301 38.1438 133.657 38.4818C132.359 39.1793 131.044 39.8822 129.698 40.5314C127.002 41.8609 124.207 42.9785 121.338 43.874C120.63 44.1208 119.89 44.2711 119.16 44.475L118.087 44.7647L116.976 44.99C116.231 45.1242 115.496 45.2905 114.75 45.4085L112.496 45.6768L112.529 45.6607Z" fill="#231F20"/>
<path d="M49.8343 175.905C53.2321 168.648 57.165 161.654 61.6005 154.98C63.2102 152.55 64.7929 150.103 66.4884 147.737C72.4687 139.4 78.882 131.382 85.7019 123.716C88.7226 120.331 91.7808 116.897 94.9947 113.731C97.0335 111.676 99.0831 109.605 101.288 107.679C102.383 106.702 103.531 105.786 104.728 104.937C105.915 104.072 107.171 103.304 108.483 102.641C110.152 101.858 110.034 102.228 108.88 103.269C107.727 104.31 105.725 106.23 103.273 108.387C101.068 110.276 98.9812 112.32 96.8994 114.402L93.7929 117.535C92.7788 118.581 91.7808 119.681 90.7829 120.754C86.8071 125.1 82.9548 129.581 79.1346 134.125C74.5848 139.576 70.2066 145.548 66.1128 151.541C61.5567 158.095 57.4345 164.939 53.7724 172.031C51.5393 176.385 49.6242 180.895 48.0422 185.525C46.8348 189.028 45.9371 192.629 45.3595 196.288L45.161 197.662C45.1276 197.88 45.1096 198.101 45.1074 198.322C45.0913 198.538 45.0913 198.755 45.1074 198.971C45.1257 199.826 45.3078 200.669 45.6439 201.455C46.0162 202.223 46.5337 202.912 47.1677 203.483C47.8225 204.054 48.563 204.517 49.3621 204.857C50.6247 205.38 51.9717 205.671 53.3378 205.715C54.0216 205.746 54.7066 205.727 55.3874 205.656C56.0796 205.581 56.7717 205.506 57.4531 205.377C58.8217 205.153 60.1695 204.815 61.4825 204.369C62.7951 203.935 64.0708 203.397 65.2973 202.759C65.8338 202.496 66.3704 202.169 66.9069 201.879C67.4435 201.589 67.9424 201.251 68.4468 200.897C70.3408 199.626 71.4997 198.66 72.3742 198.048C72.9633 197.579 73.6296 197.216 74.3433 196.975C74.5784 196.886 74.8208 196.818 75.0677 196.771C75.3735 196.771 75.234 197.136 74.7189 197.844C73.9013 198.898 72.9652 199.854 71.9289 200.693C69.8849 202.417 67.6271 203.871 65.2114 205.018C63.9709 205.591 62.6928 206.078 61.3859 206.477C60.0643 206.873 58.7159 207.172 57.3512 207.373C56.6644 207.497 55.9776 207.534 55.2855 207.615L54.2124 207.663C53.8529 207.663 53.4881 207.663 53.1393 207.636C51.6554 207.556 50.1946 207.233 48.8148 206.681C47.3655 206.102 46.0772 205.181 45.0591 203.998C43.8661 202.495 43.2141 200.633 43.208 198.714L43.2509 197.85C43.2992 197.313 43.3904 196.814 43.4602 196.294L43.6802 194.77C43.7499 194.233 43.8787 193.761 43.9753 193.257C44.3616 191.24 44.8927 189.26 45.4668 187.301C46.6547 183.405 48.1067 179.594 49.8128 175.895L49.8343 175.905Z" fill="#231F20"/>
<path d="M189.612 180.16C187.879 176.565 185.98 173.019 184.161 169.397C182.342 165.775 180.405 162.331 178.356 158.897C176.848 156.397 175.233 153.95 173.65 151.493C172.248 149.318 170.826 147.161 169.385 145.022C167.936 142.876 166.504 140.73 165.012 138.627C162.033 134.417 158.878 130.335 155.548 126.383C154.072 124.634 152.554 122.906 151.003 121.221C149.453 119.537 147.891 117.857 146.255 116.307C144.141 114.311 141.909 112.406 139.736 110.405C138.625 109.391 137.643 108.291 136.64 107.244C135.679 106.177 134.599 105.223 133.421 104.401C132.664 103.945 132.316 103.784 132.348 103.703C132.782 103.679 133.214 103.767 133.603 103.961C134.636 104.365 135.62 104.884 136.538 105.506C137.143 105.923 137.723 106.375 138.276 106.858L139.173 107.631L140.063 108.468C142.209 110.437 144.581 112.331 146.77 114.402C147.875 115.432 148.975 116.516 149.989 117.621C151.003 118.726 152.044 119.816 153.058 120.932C157.112 125.413 160.927 130.105 164.486 134.989C166.633 137.918 168.736 140.96 170.844 144.003C172.953 147.045 175.072 150.119 177.074 153.236C179.268 156.665 181.366 160.163 183.34 163.737C184.328 165.518 185.267 167.342 186.184 169.15L188.963 174.559C191.341 178.989 193.419 183.574 195.182 188.283C195.52 189.179 195.793 190.097 196.083 191.009C196.373 191.921 196.62 192.849 196.813 193.793C197.27 195.664 197.582 197.567 197.746 199.486C197.963 201.45 197.781 203.437 197.21 205.329C196.581 207.284 195.241 208.931 193.454 209.943C192.09 210.671 190.587 211.103 189.044 211.209C187.555 211.341 186.057 211.314 184.574 211.129C181.576 210.765 178.706 209.697 176.199 208.012C175.098 207.285 174.061 206.466 173.098 205.565C171.809 204.389 170.721 203.01 169.879 201.482C169.46 200.805 169.208 200.038 169.144 199.245C169.123 198.991 169.123 198.736 169.144 198.483C169.208 198.193 169.551 198.434 170.099 199.084C170.646 199.733 171.477 200.768 172.604 202.002C174.233 203.88 176.153 205.484 178.292 206.751C179.358 207.366 180.479 207.884 181.64 208.296C182.812 208.681 184.02 208.947 185.245 209.09C186.492 209.233 187.75 209.257 189.001 209.16C190.174 209.078 191.321 208.768 192.376 208.248C192.869 208 193.321 207.678 193.717 207.293C194.12 206.912 194.47 206.479 194.758 206.005C195.338 204.988 195.688 203.856 195.783 202.689C195.937 200.797 195.836 198.894 195.482 197.029C195.146 195.087 194.689 193.168 194.114 191.282C192.894 187.474 191.376 183.768 189.575 180.198L189.612 180.16Z" fill="#231F20"/>
<path d="M104.98 125.523C104.376 125.803 103.731 125.984 103.07 126.06C102.355 126.145 101.631 126.068 100.95 125.834C100.222 125.573 99.5941 125.091 99.1529 124.455C98.7674 123.87 98.5231 123.203 98.4394 122.508C98.3041 121.619 98.3041 120.714 98.4394 119.825C99.0144 116.957 100.047 114.199 101.498 111.659C102.12 110.548 102.753 109.438 103.445 108.375C103.898 107.692 104.388 107.034 104.915 106.406C105.446 105.736 106.095 105.168 106.831 104.732C107.367 104.475 107.367 104.834 107.239 105.322C107.044 106.001 106.727 106.639 106.305 107.206C105.367 108.454 104.529 109.774 103.799 111.155C103.054 112.544 102.297 113.945 101.605 115.388C100.797 117.127 100.315 119.001 100.183 120.914C100.148 121.4 100.168 121.887 100.242 122.368C100.315 122.786 100.478 123.184 100.72 123.533C101.006 123.841 101.368 124.069 101.771 124.192C102.173 124.316 102.601 124.331 103.011 124.235C104.23 123.93 105.36 123.342 106.31 122.518C107.881 121.226 109.355 119.82 110.721 118.312C111.794 117.148 112.797 115.919 113.94 114.787C114.188 114.527 114.449 114.279 114.723 114.047C115.796 113.183 116.285 113.081 116.778 113.387C116.895 113.448 117.005 113.522 117.106 113.607C117.395 113.912 117.106 114.406 116.456 115.002C114.53 116.804 112.647 119.042 110.554 121.188C109.771 121.993 108.945 122.797 108.059 123.538C107.14 124.338 106.123 125.02 105.033 125.566L104.98 125.523Z" fill="#231F20"/>
<path d="M136.243 123.458C137.003 123.965 137.804 124.408 138.636 124.783C138.831 124.873 139.032 124.95 139.237 125.014C139.428 125.085 139.623 125.14 139.822 125.18C140.026 125.239 140.192 125.223 140.359 125.261C140.513 125.267 140.668 125.257 140.82 125.229C141.212 125.143 141.437 124.901 141.668 124.424C142.081 123.635 142.006 122.428 141.754 121.29C141.473 120.108 141.076 118.956 140.568 117.851C140.106 116.85 139.579 115.881 138.991 114.948C138.239 113.752 137.381 112.615 136.721 111.348C136.512 110.951 136.823 110.812 137.317 110.924C137.99 111.109 138.581 111.518 138.991 112.083C139.872 113.286 140.68 114.54 141.41 115.839C142.174 117.162 142.771 118.575 143.186 120.046C143.45 120.985 143.629 121.945 143.723 122.916C143.825 124.038 143.523 125.159 142.87 126.076C142.419 126.613 141.798 126.978 141.11 127.112C140.509 127.207 139.896 127.177 139.307 127.026C138.276 126.759 137.288 126.347 136.372 125.803C135.292 125.178 134.251 124.488 133.255 123.737C131.747 122.621 130.336 121.403 128.92 120.228C127.82 119.311 126.688 118.468 125.599 117.545C125.357 117.347 125.11 117.164 124.874 116.955C124.01 116.172 123.839 115.823 124.016 115.281C124.045 115.156 124.086 115.033 124.139 114.916C124.332 114.557 124.901 114.653 125.588 115.147C127.632 116.622 129.601 118.339 131.629 119.976C133.103 121.208 134.649 122.351 136.26 123.399L136.243 123.458Z" fill="#231F20"/>
<path d="M123.994 122.777C123.988 123.318 123.874 123.852 123.662 124.349C123.527 124.635 123.346 124.896 123.125 125.122C123.007 125.243 122.873 125.347 122.728 125.433L122.508 125.567L122.277 125.669L122.159 125.717C121.738 125.881 121.271 125.881 120.85 125.717C120.46 125.535 120.131 125.242 119.906 124.875C119.743 124.604 119.615 124.314 119.525 124.011C119.368 123.487 119.267 122.947 119.224 122.402L119.079 121.007C118.957 120.385 119.02 119.741 119.262 119.156C119.391 118.925 119.691 119.156 119.997 119.359C120.303 119.563 120.625 119.81 120.635 120.084C120.668 121.082 120.812 122.16 120.914 123.164C120.948 123.432 121.043 123.689 121.193 123.915C121.224 123.963 121.265 124.004 121.313 124.036C121.362 124.067 121.416 124.088 121.472 124.097C121.522 124.108 121.573 124.108 121.623 124.097C121.827 124.097 122.095 123.775 122.159 123.276C122.217 122.869 122.201 122.454 122.111 122.053C121.998 121.404 121.743 120.789 121.365 120.25C121.223 120.069 121.039 119.925 120.829 119.832C120.792 119.812 120.752 119.801 120.711 119.799C120.697 119.793 120.683 119.789 120.668 119.789C120.653 119.789 120.638 119.793 120.625 119.799C120.624 119.783 120.624 119.767 120.625 119.751V119.676C120.627 119.662 120.627 119.647 120.625 119.633C120.625 119.633 120.625 119.681 120.625 119.687C120.648 119.749 120.687 119.804 120.737 119.848C120.689 119.896 120.48 119.987 120.013 119.848C119.9 119.821 119.788 119.81 119.686 119.783C119.601 119.765 119.521 119.73 119.45 119.68C119.379 119.63 119.319 119.567 119.273 119.494C119.22 119.399 119.189 119.295 119.182 119.187C119.176 119.079 119.194 118.971 119.235 118.871C119.272 118.765 119.323 118.664 119.385 118.571L119.487 118.415C119.536 118.361 119.588 118.309 119.643 118.26C119.885 118.02 120.204 117.873 120.544 117.846C120.858 117.817 121.174 117.863 121.467 117.981C121.686 118.066 121.892 118.181 122.079 118.324C122.631 118.759 123.07 119.323 123.356 119.966C123.77 120.833 123.989 121.779 124 122.74L123.994 122.777Z" fill="#231F20"/>
<path d="M124.767 133.003C124.592 133.419 124.32 133.787 123.973 134.076C123.599 134.38 123.161 134.593 122.691 134.699C122.357 134.814 122.002 134.856 121.65 134.822C121.365 134.777 121.093 134.669 120.855 134.507C120.617 134.345 120.417 134.132 120.271 133.883C119.963 133.368 119.767 132.794 119.697 132.198C119.659 131.903 119.622 131.613 119.6 131.308C119.579 130.981 119.579 130.653 119.6 130.326C119.6 130.106 119.638 129.886 119.67 129.655C119.695 129.44 119.732 129.227 119.783 129.017C119.857 128.675 120.013 128.356 120.239 128.088C120.41 127.906 120.652 128.164 120.888 128.443C121.124 128.722 121.382 129.027 121.349 129.29V129.424C121.332 129.439 121.317 129.458 121.306 129.478C121.205 129.703 121.145 129.945 121.129 130.192C121.09 130.376 121.125 130.569 121.226 130.728C121.312 130.83 121.424 130.836 121.553 130.895C121.69 130.975 121.849 131.01 122.007 130.995C122.165 130.979 122.314 130.914 122.433 130.809C122.551 130.656 122.604 130.464 122.583 130.272C122.553 129.879 122.403 129.505 122.154 129.199C122.042 129.076 121.905 128.979 121.752 128.915C121.669 128.871 121.581 128.84 121.489 128.823C121.451 128.823 121.435 128.823 121.408 128.823C121.382 128.823 121.408 128.883 121.408 128.797C121.404 128.75 121.404 128.704 121.408 128.657C121.411 128.625 121.411 128.593 121.408 128.561C121.42 128.59 121.438 128.615 121.462 128.636C121.462 128.663 121.494 128.663 121.526 128.689C121.558 128.726 121.594 128.758 121.634 128.786C121.634 128.786 121.634 128.786 121.602 128.786C121.562 128.808 121.518 128.821 121.473 128.823C121.314 128.868 121.149 128.884 120.984 128.872C120.877 128.872 120.77 128.872 120.668 128.872C120.586 128.874 120.505 128.857 120.43 128.822C120.356 128.788 120.29 128.737 120.239 128.673C120.182 128.598 120.14 128.512 120.115 128.421C120.089 128.292 120.089 128.159 120.115 128.029C120.15 127.901 120.198 127.777 120.26 127.659C120.348 127.514 120.456 127.382 120.582 127.268C120.744 127.144 120.925 127.05 121.119 126.989C121.293 126.942 121.475 126.924 121.655 126.935C122.15 126.979 122.621 127.165 123.013 127.471C123.412 127.798 123.759 128.184 124.043 128.614C124.31 129.016 124.531 129.446 124.703 129.897C125.141 130.886 125.181 132.006 124.815 133.025L124.767 133.003Z" fill="#231F20"/>
<path d="M160.607 157.539C160.516 155.769 160.409 153.998 160.221 152.271C160.184 151.836 160.108 151.428 160.055 151.004L159.937 150.425C159.937 150.318 159.937 150.355 159.937 150.323C159.937 150.291 159.937 150.291 159.937 150.28L159.899 150.248L159.792 150.2C159.627 150.128 159.459 150.065 159.288 150.012C158.898 149.897 158.502 149.804 158.102 149.733C156.389 149.443 154.66 149.264 152.924 149.196C151.164 149.11 149.394 149.084 147.618 149.078C145.032 149.078 142.44 149.175 139.849 149.245C130.728 149.513 121.558 150.044 112.416 150.672C108.359 150.961 104.287 151.321 100.268 151.702C95.1015 152.142 89.9346 152.775 84.7409 152.92C84.4428 152.945 84.1431 152.945 83.8449 152.92C83.6625 152.888 83.5284 152.834 83.5552 152.775C83.8742 152.536 84.2397 152.366 84.6283 152.276C85.2936 152.056 86.2379 151.788 87.3968 151.509C87.9709 151.369 88.5986 151.224 89.2693 151.101C89.94 150.978 90.6482 150.886 91.4155 150.8L99.3187 149.953C101.958 149.69 104.604 149.481 107.249 149.271C112.543 148.853 117.858 148.513 123.195 148.252C129.585 147.968 136.222 147.501 142.778 147.361C146.378 147.286 149.984 147.27 153.611 147.458C155.449 147.528 157.279 147.744 159.084 148.102C159.569 148.206 160.043 148.355 160.5 148.547C160.602 148.601 160.779 148.67 160.924 148.762L161.364 149.051C161.383 149.062 161.399 149.077 161.411 149.094C161.423 149.112 161.431 149.132 161.434 149.153L161.482 149.277L161.568 149.524C161.633 149.672 161.683 149.827 161.718 149.985L161.868 150.699L161.965 151.385C162.035 151.847 162.067 152.297 162.121 152.753C162.335 154.98 162.442 157.191 162.539 159.407C162.636 161.622 162.711 163.833 162.775 166.044C162.968 172.745 163.049 179.457 163.204 186.115C163.328 191.282 163.542 196.347 163.741 201.444C163.789 202.566 163.843 203.666 163.891 204.798C163.972 206.89 164.004 208.269 163.95 209.24C163.954 209.921 163.836 210.597 163.601 211.236C163.542 211.448 163.47 211.655 163.387 211.859C163.269 212.084 163.076 211.778 162.85 211.011C162.565 209.862 162.386 208.689 162.314 207.507C161.664 198.386 161.514 188.728 161.278 179.071C161.106 171.903 160.988 164.686 160.607 157.539Z" fill="#231F20"/>
<path d="M108.177 215.361C104.652 215.404 101.122 215.388 97.5911 215.254C94.028 215.165 90.4767 214.806 86.9677 214.181C85.6234 213.942 84.317 213.526 83.0831 212.941C82.9168 212.84 82.788 212.791 82.5466 212.62C82.3051 212.448 82.0852 212.292 81.8866 212.11C81.8866 211.831 81.8384 211.573 81.8276 211.273L81.7954 210.768L81.6881 208.848C81.2696 199.802 81.1516 190.766 80.9638 181.736C80.8726 177.728 80.7814 173.688 80.6955 169.723C80.6204 167.169 80.5489 164.614 80.4809 162.056C80.4487 160.774 80.4433 159.497 80.4326 158.22C80.4326 157.581 80.4326 156.943 80.4326 156.304V154.394C80.4326 152.833 80.5399 152.994 80.9155 154.33C81.0818 154.995 81.2964 155.94 81.5111 157.104C81.7311 158.422 81.878 159.751 81.951 161.085C82.3695 171.521 82.4876 181.94 82.6163 192.456C82.6539 195.601 82.7505 198.804 82.89 202.023C82.9651 203.633 83.0456 205.242 83.1207 206.852L83.2602 209.266L83.3299 210.473L83.3621 211.074C83.3621 211.182 83.3621 211.23 83.3621 211.289L83.448 211.359C83.4939 211.391 83.5424 211.42 83.5928 211.444C83.7639 211.55 83.9433 211.642 84.1294 211.718C84.3131 211.805 84.5011 211.882 84.6927 211.949C84.8859 212.024 85.079 212.094 85.2829 212.153C86.1008 212.404 86.9342 212.601 87.7778 212.743C89.4973 213.041 91.2307 213.253 92.9715 213.376C96.4751 213.65 100 213.725 103.531 213.736C107.877 213.736 112.228 213.634 116.568 213.462C123.152 213.199 129.767 212.823 136.292 212.335C141.362 211.954 146.325 211.439 151.315 210.983L154.614 210.683C158.746 210.366 160.103 210.414 161.01 210.903C161.215 210.984 161.408 211.092 161.584 211.225C161.734 211.412 161.455 211.493 160.726 211.654C159.602 211.866 158.469 212.018 157.329 212.11C148.401 213.033 138.942 213.875 129.429 214.465C122.363 214.911 115.249 215.238 108.134 215.367L108.177 215.361Z" fill="#231F20"/>
<path d="M82.2569 210.979C82.2569 210.979 72.0627 211.059 71.2847 212.266C69.4122 215.19 88.9529 215.748 98.8896 214.949C98.8896 214.96 84.0651 213.007 82.2569 210.979Z" fill="#231F20"/>
<path d="M124.686 164.257C123.613 164.337 122.583 164.385 121.532 164.364C121.145 164.364 120.764 164.396 120.373 164.364C119.981 164.332 119.68 164.294 119.326 164.241C118.931 164.183 118.544 164.081 118.173 163.935C117.735 163.747 117.373 163.418 117.143 163.001C116.947 162.65 116.816 162.267 116.756 161.869C116.668 161.253 116.629 160.63 116.638 160.007C116.622 159.276 116.68 158.544 116.81 157.824C116.853 157.614 117.164 157.604 117.486 157.791C117.67 157.899 117.827 158.048 117.942 158.227C118.058 158.406 118.129 158.61 118.151 158.822C118.151 159.589 118.178 160.302 118.21 160.968C118.233 161.257 118.276 161.544 118.339 161.826C118.385 162.022 118.473 162.205 118.597 162.363L118.65 162.432L118.699 162.459C118.699 162.459 118.699 162.459 118.752 162.492L118.876 162.524C119.065 162.565 119.257 162.59 119.45 162.599C119.874 162.599 120.319 162.599 120.764 162.599C121.741 162.567 122.744 162.54 123.742 162.449C124.354 162.395 124.965 162.325 125.561 162.223C125.84 162.164 126.13 162.116 126.398 162.041C126.621 161.996 126.838 161.922 127.042 161.821C127.219 161.687 127.348 161.499 127.407 161.284C127.453 160.679 127.319 160.074 127.02 159.546C126.961 159.412 126.886 159.283 126.827 159.144C126.775 159.05 126.742 158.946 126.73 158.839C126.718 158.732 126.727 158.624 126.757 158.521C126.839 158.329 126.985 158.171 127.171 158.076C127.273 158.011 127.364 157.936 127.46 157.888C127.646 157.804 127.855 157.789 128.051 157.844C128.247 157.899 128.418 158.021 128.533 158.188C128.983 158.828 129.28 159.562 129.403 160.335C129.478 160.837 129.451 161.35 129.322 161.842C129.155 162.445 128.802 162.981 128.313 163.371C128.294 163.39 128.273 163.407 128.249 163.42C128.147 163.495 128.034 163.554 127.927 163.618C127.832 163.676 127.731 163.724 127.627 163.763C127.466 163.822 127.289 163.887 127.144 163.924C126.859 164.005 126.575 164.074 126.307 164.123C125.77 164.23 125.234 164.294 124.697 164.364L124.686 164.257Z" fill="#231F20"/>
<path d="M68.8971 175.03C68.3605 175.427 67.7918 175.829 67.2392 176.242C67.0407 176.393 66.869 176.58 66.6651 176.725C65.9408 177.262 65.2003 177.75 64.4331 178.217C64.1004 178.437 63.7785 178.673 63.4619 178.909C63.0813 179.252 62.6388 179.52 62.1582 179.698C62.0026 179.741 61.8631 179.472 61.8148 179.161C61.7758 179.009 61.774 178.849 61.8095 178.696C61.845 178.543 61.9167 178.401 62.0187 178.281C62.7768 177.649 63.5802 177.074 64.4223 176.559C64.9387 176.221 65.422 175.835 65.8656 175.405L67.4752 174.112L68.4839 173.318C68.9883 172.91 69.5195 172.535 70.0131 172.116C70.394 171.789 70.7213 171.397 71.0862 171.043C71.1618 170.96 71.2443 170.882 71.333 170.813C71.671 170.56 71.8427 170.587 72.1592 170.925C72.229 171 72.3041 171.076 72.3685 171.156C72.4725 171.271 72.5348 171.418 72.5455 171.572C72.5562 171.727 72.5146 171.881 72.4275 172.009C71.8825 172.706 71.2412 173.322 70.5228 173.839L68.9132 175.067L68.8971 175.03Z" fill="#231F20"/>
<path d="M176.479 179.323C175.916 178.663 175.325 178.014 174.698 177.408C174.472 177.177 174.204 177.011 173.973 176.785C173.168 175.997 172.321 175.245 171.446 174.51C171.06 174.183 170.625 173.92 170.217 173.636C169.65 173.312 169.112 172.941 168.608 172.525C168.458 172.38 168.608 172.155 168.903 171.989C169.062 171.891 169.239 171.828 169.424 171.803C169.609 171.778 169.797 171.792 169.976 171.844C171.286 172.265 172.482 172.983 173.469 173.942C174.059 174.521 174.794 174.956 175.438 175.492C176.082 176.029 176.812 176.721 177.461 177.375C177.863 177.772 178.249 178.186 178.63 178.604C179.215 179.227 179.752 179.897 180.342 180.509C180.798 180.986 181.308 181.405 181.775 181.877C181.881 181.973 181.978 182.079 182.064 182.194C182.132 182.267 182.185 182.353 182.219 182.447C182.253 182.541 182.268 182.641 182.263 182.741C182.258 182.841 182.233 182.939 182.19 183.03C182.147 183.12 182.086 183.2 182.011 183.267C181.954 183.345 181.893 183.42 181.828 183.492C181.688 183.602 181.517 183.667 181.339 183.679C181.161 183.69 180.984 183.647 180.83 183.556C179.821 182.96 178.926 182.19 178.185 181.281C177.6 180.643 177.021 179.994 176.409 179.371L176.479 179.323Z" fill="#231F20"/>
<path d="M94.5057 59.492C93.8639 57.5876 93.6947 55.5558 94.0125 53.5715C94.3302 51.5872 95.1256 49.7099 96.3299 48.1012C97.1818 46.922 98.2374 45.9045 99.4472 45.0966C101.621 43.7183 104.195 43.1116 106.755 43.3743C108 43.4848 109.223 43.7646 110.393 44.206C110.971 44.4206 111.539 44.6641 112.093 44.9357C112.646 45.216 113.183 45.5259 113.703 45.8639C114.636 46.4805 115.468 47.2369 116.171 48.1066C116.859 48.9788 117.417 49.9455 117.829 50.9771C118.909 53.6188 118.895 56.5812 117.791 59.213C117.443 60.0124 117.255 59.7924 117.185 59.0359C117.185 58.8427 117.185 58.6228 117.142 58.3706C117.099 58.1184 117.094 57.834 117.083 57.5497C117.072 57.2653 117.046 56.938 117.051 56.6107C117.056 56.2834 117.019 55.9401 117.051 55.586C117.069 53.0958 116.167 50.6868 114.519 48.8202C114.11 48.3688 113.663 47.9541 113.183 47.5808C112.941 47.393 112.678 47.2321 112.426 47.0443L111.589 46.5667C110.455 45.953 109.247 45.4877 107.994 45.1825C106.47 44.8073 104.878 44.8091 103.355 45.1878C101.832 45.5664 100.425 46.3104 99.254 47.3554C97.9338 48.503 96.9123 49.9544 96.2776 51.5844C95.643 53.2145 95.4142 54.9745 95.611 56.7127C95.829 58.6204 96.55 60.436 97.7001 61.9736C98.8503 63.5112 100.388 64.7156 102.157 65.4636C103.684 66.1094 105.327 66.4397 106.986 66.4348C108.244 66.425 109.487 66.1527 110.634 65.6353C111.76 65.1063 112.781 64.3794 113.649 63.4892C114.03 63.0962 114.388 62.6825 114.722 62.2498C115.978 60.6401 116.262 60.05 116.869 59.8353C116.989 59.7689 117.115 59.7115 117.244 59.6636C117.588 59.5402 117.63 60.6026 116.799 62.0781C115.533 64.4028 113.519 66.2326 111.085 67.2718C109.804 67.7902 108.437 68.0649 107.055 68.0819C105.699 68.0899 104.348 67.9094 103.042 67.5454C101.067 66.9917 99.254 65.9703 97.7571 64.5676C96.2627 63.1633 95.1337 61.4155 94.4681 59.4759L94.5057 59.492Z" fill="#231F20"/>
<path d="M145.247 52.983C146.185 54.7916 146.674 56.7992 146.674 58.8366C146.637 60.8538 146.105 62.8309 145.123 64.5937C144.438 65.8664 143.554 67.0219 142.505 68.0168C140.647 69.7359 138.366 70.9302 135.895 71.4775C133.425 72.0367 130.84 71.7865 128.523 70.7639C127.505 70.3178 126.55 69.7386 125.685 69.0416C124.823 68.3295 124.076 67.4899 123.469 66.552C122.68 65.3674 122.097 64.0576 121.746 62.6782C121.384 61.2766 121.417 59.8019 121.843 58.4181C122.16 57.565 122.38 57.8118 122.535 58.5522C122.626 58.9278 122.744 59.4268 122.911 59.9848C123.077 60.5428 123.206 61.1652 123.378 61.8412C123.839 64.3017 125.158 66.5187 127.101 68.0973C129.128 69.6583 131.658 70.4219 134.21 70.2434L134.79 70.1951C134.983 70.1951 135.176 70.1307 135.369 70.0985C135.757 70.0315 136.141 69.9401 136.517 69.8249C137.28 69.5847 138.016 69.2645 138.712 68.8699C140.116 68.0782 141.359 67.0299 142.376 65.7794C142.939 65.104 143.421 64.3658 143.814 63.5796C145.019 61.2216 145.278 58.4926 144.539 55.95C144.377 55.4323 144.184 54.9252 143.959 54.4316C143.857 54.1837 143.737 53.9434 143.6 53.7127C143.472 53.4792 143.33 53.2535 143.176 53.0366C142.557 52.1576 141.782 51.3993 140.89 50.7993C139.519 49.8602 137.962 49.2287 136.324 48.9482C134.695 48.6454 133.017 48.73 131.426 49.195C130.209 49.5488 129.067 50.1216 128.056 50.8851C127.075 51.6537 126.219 52.5695 125.518 53.6C125.373 53.8307 125.223 54.056 125.078 54.2814L124.692 55.0111C123.742 56.8353 123.506 57.4577 122.82 57.6938C122.677 57.7662 122.528 57.8254 122.374 57.8708C122.149 57.9138 122.031 57.6991 122.02 57.2592C122.027 56.6131 122.162 55.9749 122.417 55.3813C122.53 55.0862 122.637 54.7911 122.766 54.496L123.2 53.6429L123.426 53.2083L123.689 52.8006C123.871 52.5269 124.043 52.264 124.225 51.9796C125.036 50.9002 126.008 49.952 127.106 49.1682C129.406 47.574 132.167 46.782 134.961 46.9147C137.029 47.0197 139.046 47.5882 140.863 48.578C142.733 49.5759 144.271 51.0973 145.29 52.9561L145.247 52.983Z" fill="#231F20"/>
<path d="M111.939 70.4687C112.302 68.7885 112.862 67.1569 113.607 65.6077C113.854 65.0711 114.047 64.497 114.294 63.9498L115.635 61.0793C116.091 60.1296 116.542 59.18 116.966 58.2249C117.347 57.3718 117.669 56.4973 117.959 55.6227C118.292 54.4899 118.686 53.3759 119.139 52.2854C119.289 51.9474 119.531 52.0547 119.724 52.4303C119.99 52.9666 120.075 53.5747 119.965 54.1633C119.847 54.7743 119.682 55.3753 119.472 55.9607C119.278 56.5456 119.069 57.1304 118.844 57.7045C118.393 58.8527 117.894 59.9794 117.336 61.0793C116.665 62.3938 116.129 63.8264 115.544 65.1945C114.854 66.6579 114.271 68.1696 113.8 69.7176C113.521 70.5993 113.434 71.5303 113.543 72.4485C113.578 72.7225 113.713 72.9739 113.922 73.155C114.131 73.336 114.399 73.434 114.675 73.4304C115.369 73.4333 116.054 73.2676 116.671 72.9475C117.668 72.4403 118.575 71.7713 119.354 70.9677C119.531 70.8014 119.686 70.619 119.852 70.4312C120.056 70.1916 120.29 69.9805 120.55 69.8034C120.739 69.7086 120.957 69.6857 121.162 69.739C121.272 69.7482 121.381 69.7661 121.489 69.7927C121.827 69.8785 121.859 70.4365 121.408 71.0911C120.726 72.0353 119.884 72.8525 118.919 73.5055C117.895 74.2449 116.724 74.7538 115.485 74.9971C114.903 75.1067 114.304 75.0773 113.736 74.9113C113.399 74.8021 113.087 74.6274 112.819 74.3972C112.55 74.1669 112.329 73.8858 112.169 73.5699C111.912 73.0513 111.778 72.4802 111.778 71.9013C111.766 71.416 111.802 70.9308 111.885 70.4526L111.939 70.4687Z" fill="#231F20"/>
<path d="M122.706 57.2389C121.451 55.801 119.283 55.2108 117.593 56.2731C116.643 56.8741 117.518 58.3817 118.473 57.7808C119.546 57.1155 120.716 57.6037 121.477 58.4729C122.239 59.3421 123.447 58.0813 122.706 57.2389Z" fill="#231F20"/>
<path d="M127.369 45.6107C130.406 43.4646 135.347 43.2017 138.781 44.4733C139.999 44.9186 140.519 42.9763 139.317 42.531C135.433 41.0984 129.794 41.4204 126.355 43.8723C125.314 44.6181 126.317 46.3672 127.374 45.6107H127.369Z" fill="#231F20"/>
<path d="M107.174 56.1436C109.465 56.3797 112.067 56.4548 114.186 57.442C115.2 57.9088 116.086 56.4065 115.066 55.9343C112.641 54.8076 109.798 54.6735 107.174 54.3998C106.058 54.2872 106.063 56.0094 107.174 56.1436Z" fill="#231F20"/>
<path d="M110.972 56.0737C110.808 56.0774 110.647 56.1245 110.507 56.2103C110.366 56.296 110.251 56.4173 110.173 56.5619C109.438 57.9462 109.1 61.0098 111.316 61.1118C113.531 61.2137 115.034 55.9181 110.972 56.0737Z" fill="#231F20"/>
<path d="M127.412 58.7891C129.226 58.993 131.27 59.1432 132.949 59.9319C133.963 60.4041 134.848 58.9018 133.829 58.4242C131.844 57.496 129.569 57.2868 127.391 57.0453C126.275 56.9219 126.285 58.655 127.391 58.7891H127.412Z" fill="#231F20"/>
<path d="M129.199 58.5639C128.866 58.5639 128.71 58.462 128.555 58.757C127.825 60.1413 127.342 63.4947 129.542 63.5859C131.742 63.6771 133.26 58.4298 129.199 58.5639Z" fill="#231F20"/>
<path d="M119.906 81.779C119.961 82.057 119.961 82.3433 119.906 82.6214C119.882 82.7438 119.847 82.864 119.804 82.9808C119.763 83.1078 119.709 83.23 119.643 83.3457C119.545 83.5688 119.399 83.7669 119.213 83.9251C119.108 83.9946 118.997 84.0539 118.881 84.1022C118.762 84.1375 118.639 84.1626 118.516 84.1773C118.302 84.1843 118.089 84.1421 117.894 84.0539C117.593 83.9076 117.345 83.6713 117.185 83.3779C117.05 83.1434 116.956 82.8876 116.906 82.6214C116.857 82.4508 116.858 82.2693 116.91 82.0995C116.963 81.9297 117.064 81.7791 117.201 81.6663C117.293 81.6019 117.534 81.8219 117.781 82.0365C117.943 82.1934 118.123 82.3303 118.317 82.4443C118.355 82.4443 118.36 82.4443 118.355 82.4443C118.349 82.5033 118.335 82.5612 118.312 82.616C118.312 82.616 118.258 82.7823 118.285 82.8682L118.253 82.836C118.228 82.802 118.197 82.7729 118.162 82.7501C118.114 82.7501 118.199 82.7126 118.221 82.616C118.254 82.5313 118.277 82.4431 118.291 82.3531C118.302 82.2892 118.302 82.2238 118.291 82.1599C118.291 82.1599 118.264 82.0955 118.221 82.0848C118.203 82.0728 118.181 82.0664 118.159 82.0664C118.137 82.0664 118.116 82.0728 118.097 82.0848C118.097 82.0848 118.097 82.1224 118.097 82.1116C118.084 82.0929 118.068 82.0766 118.049 82.0634C118.001 82.0365 118.049 82.0634 118.156 82.0634C118.228 82.0518 118.298 82.0339 118.366 82.0097C118.366 82.0097 118.366 82.0419 118.269 82.1063L117.915 82.4175L117.738 82.5838C117.647 82.6709 117.537 82.7352 117.416 82.7716C117.287 82.8091 117.067 82.8521 116.971 82.7716C116.868 82.7163 116.779 82.6372 116.713 82.5409C116.624 82.4315 116.562 82.3029 116.531 82.1653C116.48 81.993 116.467 81.8116 116.492 81.6337C116.518 81.4558 116.583 81.2857 116.681 81.1351C116.769 80.9822 116.886 80.8474 117.024 80.7381C117.141 80.6328 117.275 80.5492 117.421 80.4913C117.741 80.3498 118.095 80.3024 118.441 80.3546C118.787 80.4069 119.111 80.5567 119.374 80.7864C119.671 81.0439 119.881 81.3868 119.975 81.7683L119.906 81.779Z" fill="#231F20"/>
<path d="M102.769 166.269C101.497 166.972 100.226 167.68 98.965 168.415L97.5968 169.231C96.7866 169.692 95.955 170.143 95.1663 170.609C94.3776 171.076 93.5567 171.581 92.7841 172.08L90.6916 173.421C89.7959 174.02 88.8301 174.506 87.8157 174.87C87.4938 174.972 87.4616 174.757 87.6279 174.451C87.888 174.036 88.2453 173.689 88.6688 173.442C90.4769 172.369 92.2529 171.178 94.1522 170.073C95.2951 169.413 96.4379 168.683 97.5807 167.997L101.374 165.77L103.724 164.418L107.297 162.4C108.215 161.864 109.084 161.327 109.98 160.791C110.179 160.673 110.372 160.549 110.57 160.437C111.327 160.024 111.611 159.975 111.912 160.158C111.984 160.193 112.053 160.236 112.116 160.286C112.293 160.453 112.073 160.785 111.552 161.14C110.002 162.18 108.333 163.178 106.621 164.155L102.796 166.301L102.769 166.269Z" fill="#231F20"/>
<g opacity="0.6">
<path d="M112.582 179.124C110.694 180.085 108.827 181.072 106.965 182.107C106.289 182.483 105.634 182.896 104.958 183.277C102.587 184.624 100.231 186.003 97.9294 187.467C96.8993 188.106 95.9013 188.803 94.9087 189.485C93.6425 190.37 92.3924 191.288 91.0832 192.108C90.6754 192.361 90.6164 192.167 90.831 191.77C91.2024 191.171 91.685 190.648 92.2529 190.231C94.8085 188.342 97.4588 186.585 100.194 184.967C101.835 183.996 103.499 182.907 105.178 181.909C107.027 180.836 108.898 179.779 110.79 178.738C111.949 178.11 113.119 177.493 114.288 176.881C116.064 175.953 117.873 175.073 119.654 174.172C121.038 173.485 122.337 172.729 123.721 172.026C124.021 171.876 124.311 171.715 124.622 171.575C125.76 171.039 126.167 170.969 126.554 171.183C126.647 171.224 126.735 171.274 126.817 171.334C127.037 171.532 126.661 171.951 125.862 172.407C123.501 173.77 120.92 174.987 118.35 176.254C116.435 177.193 114.514 178.137 112.62 179.135L112.582 179.124Z" fill="#231F20"/>
</g>
<g opacity="0.6">
<path d="M130.347 188.084C128.136 189.296 125.931 190.514 123.742 191.759L121.36 193.149L117.116 195.536C115.683 196.32 114.245 197.071 112.823 197.838C111.557 198.514 110.296 199.222 109.068 199.957C107.506 200.902 105.993 201.921 104.475 202.924C104.003 203.236 103.938 203.026 104.185 202.559C104.624 201.841 105.209 201.223 105.902 200.746C107.453 199.673 109.062 198.653 110.693 197.709C112.325 196.765 113.993 195.901 115.651 195.026C117.631 193.953 119.595 192.66 121.585 191.485C123.774 190.192 125.99 188.937 128.201 187.681L132.289 185.38C134.349 184.21 136.437 183.067 138.475 181.897C140.085 180.991 141.582 180.03 143.133 179.107C143.476 178.903 143.803 178.694 144.152 178.496C145.445 177.761 145.912 177.616 146.368 177.793C146.476 177.821 146.58 177.86 146.679 177.911C146.942 178.099 146.523 178.598 145.606 179.204C142.923 180.991 139.994 182.745 137.021 184.403L130.363 188.116L130.347 188.084Z" fill="#231F20"/>
</g>
<path d="M131.946 199.807L128.668 201.288C128.27 201.47 127.89 201.69 127.492 201.873C126.092 202.511 124.692 203.15 123.307 203.82C122.69 204.116 122.095 204.454 121.51 204.792C120.778 205.264 120.017 205.689 119.23 206.063C118.731 206.283 118.833 205.13 119.68 204.561C121.191 203.588 122.775 202.734 124.418 202.007C125.416 201.583 126.382 201.02 127.374 200.531L130.647 198.97L132.659 198.01C133.673 197.521 134.698 197.044 135.68 196.518C136.437 196.1 137.15 195.627 137.891 195.204C138.057 195.118 138.218 195.021 138.39 194.935C139.023 194.63 139.259 194.597 139.511 194.731C139.569 194.758 139.625 194.79 139.677 194.828C139.828 194.946 139.65 195.23 139.248 195.574C138.025 196.623 136.67 197.509 135.219 198.208C134.146 198.777 133.06 199.313 131.962 199.818L131.946 199.807Z" fill="#231F20"/>
<path d="M80.1591 190.718L80.2074 182.444C80.2074 181.441 80.1591 180.438 80.1644 179.429C80.1644 175.888 80.2449 172.347 80.2235 168.811C80.2235 167.239 80.1483 165.662 80.0786 164.106C80.0196 163.113 79.9659 162.11 79.9123 161.112C79.866 160.107 79.9055 159.1 80.0303 158.102C80.143 157.469 80.2556 157.565 80.5668 158.048C80.7385 158.3 80.9424 158.665 81.1785 159.121C81.4072 159.612 81.561 160.135 81.6346 160.672C81.7365 161.697 81.7955 162.721 81.8545 163.746C81.9136 164.771 81.9618 165.801 81.9672 166.826C81.994 168.881 81.9672 170.936 81.9028 173.007C81.817 175.475 81.9511 178.04 81.9726 180.567L82.0048 188.888C82.0048 190.6 82.0048 192.306 82.0477 194.012C82.0852 196.598 82.1067 199.195 82.2247 201.754C82.3267 203.745 82.5467 205.693 82.7345 207.656C82.7827 208.091 82.8257 208.51 82.8686 208.944C82.9974 210.554 82.9115 211.09 82.3803 211.46C82.2796 211.556 82.17 211.643 82.0531 211.718C81.715 211.895 81.2482 211.262 81.0766 210.076C80.5502 206.438 80.2634 202.769 80.2181 199.093C80.1376 196.314 80.1269 193.524 80.1001 190.739L80.1591 190.718Z" fill="#231F20"/>
<path d="M126.597 159.937C126.463 159.867 126.597 159.695 126.93 159.4C127.086 159.273 127.27 159.185 127.466 159.143C127.61 159.187 127.748 159.247 127.879 159.32C127.939 159.381 127.988 159.452 128.024 159.529L128.142 159.738C128.18 159.829 128.212 159.931 128.244 160.039C128.287 160.156 128.312 160.279 128.319 160.403C128.335 160.534 128.335 160.665 128.319 160.795C128.299 161.022 128.243 161.245 128.153 161.455C127.927 161.963 127.527 162.373 127.026 162.614C126.314 162.93 125.55 163.112 124.773 163.151C124.618 163.165 124.462 163.152 124.311 163.113C123.815 162.99 123.304 162.938 122.793 162.957C122.704 162.939 122.612 162.957 122.535 163.006C121.974 163.07 121.405 163.013 120.867 162.839C120.464 162.609 120.056 162.415 119.659 162.163C119.606 162.131 119.525 162.136 119.504 162.024C119.445 161.772 119.305 161.761 119.177 161.691C118.984 161.593 118.812 161.46 118.667 161.299C118.591 161.176 118.547 161.036 118.538 160.892C118.538 160.758 118.79 160.538 118.828 160.521C118.957 160.479 119.005 160.318 119.091 160.205L119.187 160.087C119.523 159.973 119.87 159.897 120.223 159.862L120.427 159.904C120.545 159.904 120.711 159.953 120.883 159.98C121.142 160.018 121.404 160.039 121.666 160.044C121.747 160.044 121.816 160.108 121.886 160.151C121.956 160.194 122.986 160.151 123.024 160.151C123.238 160.2 123.458 160.151 123.662 160.339C123.7 160.382 123.743 160.371 123.785 160.371C124.144 160.381 124.503 160.41 124.859 160.457C125.039 160.456 125.219 160.436 125.395 160.398C125.422 160.398 125.454 160.398 125.486 160.398C125.523 160.408 125.562 160.408 125.599 160.398L126.071 160.285C126.2 160.248 126.264 160.2 126.248 160.183C126.232 160.167 126.248 160.183 126.291 160.183H126.345C126.398 160.183 126.457 160.124 126.436 160.092C126.414 160.06 126.5 160.039 126.549 159.974C126.597 159.91 126.624 159.953 126.597 159.937Z" fill="#231F20"/>
<path d="M31.4096 202.146C30.2239 202.098 29.0381 202.055 27.8524 202.028C27.4178 202.028 26.9886 202.076 26.554 202.06C25.0248 202.017 23.4957 201.942 21.9666 201.91C21.2852 201.91 20.6037 201.91 19.9331 201.974C19.0683 202.098 18.1903 202.098 17.3255 201.974C16.789 201.856 17.4704 200.188 18.4361 200.123C20.1865 199.995 21.9439 199.995 23.6942 200.123C24.7686 200.149 25.8435 200.111 26.9134 200.011C28.1046 199.973 29.301 199.957 30.4975 199.941L32.7081 199.914C33.8241 199.914 34.9454 199.914 36.0561 199.855C36.9199 199.801 37.7622 199.662 38.6261 199.587C38.8139 199.587 38.9963 199.533 39.1894 199.533C39.903 199.533 40.123 199.694 40.2625 200.268C40.2988 200.397 40.3275 200.528 40.3484 200.66C40.3622 200.882 40.2937 201.1 40.1561 201.275C40.0185 201.449 39.8214 201.566 39.6026 201.604C38.0893 202.022 36.5261 202.232 34.9562 202.227C33.7758 202.259 32.5847 202.227 31.3935 202.227L31.4096 202.146Z" fill="#231F20"/>
<path d="M207.839 200.296C208.858 200.366 209.878 200.43 210.908 200.484C211.278 200.484 211.654 200.484 212.029 200.484C213.355 200.564 214.685 200.763 216.01 200.918C216.595 200.983 217.191 201.026 217.781 201.063C218.552 201.061 219.317 201.197 220.04 201.466C220.265 201.562 220.147 201.922 219.884 202.254C219.763 202.431 219.604 202.578 219.418 202.684C219.232 202.79 219.025 202.852 218.811 202.866C217.373 202.775 215.908 202.743 214.406 202.528C213.483 202.465 212.557 202.456 211.632 202.501L208.553 202.442L206.642 202.399C205.677 202.399 204.706 202.324 203.745 202.34C202.994 202.34 202.248 202.469 201.481 202.496C201.313 202.509 201.144 202.509 200.977 202.496C200.739 202.487 200.513 202.394 200.338 202.233C200.218 202.045 200.15 201.828 200.14 201.605C200.14 201.492 200.107 201.385 200.107 201.283C200.112 201.102 200.185 200.93 200.311 200.8C200.44 200.613 200.63 200.477 200.848 200.414L201.325 200.296C201.485 200.251 201.648 200.22 201.814 200.205C202.136 200.167 202.457 200.151 202.785 200.13C203.439 200.097 204.11 200.097 204.781 200.13L207.828 200.242L207.839 200.296Z" fill="#231F20"/>
<path d="M110.324 122.181C109.68 122.819 109.02 123.447 108.322 124.053C108.065 124.273 107.829 124.509 107.555 124.713C106.598 125.475 105.49 126.024 104.304 126.323C103.774 126.432 103.235 126.484 102.694 126.479C101.999 126.479 101.315 126.306 100.704 125.974C100.516 125.872 100.623 125.701 100.854 125.572C101.131 125.421 101.448 125.361 101.761 125.4C102.939 125.568 104.141 125.412 105.237 124.949C105.943 124.62 106.593 124.182 107.163 123.651C107.839 123.114 108.483 122.476 109.111 121.843C109.501 121.449 109.887 121.052 110.27 120.652L112.019 118.822C112.464 118.339 112.867 117.83 113.318 117.352C113.414 117.245 113.511 117.137 113.618 117.035C114.01 116.665 114.208 116.622 114.487 116.794C114.552 116.829 114.615 116.869 114.675 116.912C114.857 117.068 114.814 117.357 114.573 117.647C113.854 118.516 113.044 119.359 112.228 120.239C111.606 120.888 110.984 121.548 110.367 122.202L110.324 122.181Z" fill="#231F20"/>
<path d="M133.652 123.378C134.583 124.111 135.554 124.794 136.56 125.422C136.925 125.647 137.311 125.83 137.681 126.028C138.322 126.385 139.005 126.66 139.715 126.844C140.032 126.943 140.366 126.974 140.696 126.936C141.026 126.898 141.344 126.792 141.63 126.624C142.106 126.238 142.41 125.681 142.478 125.073C142.548 124.24 142.508 123.401 142.36 122.578C142.322 122.31 142.526 122.289 142.784 122.471C143.136 122.747 143.366 123.149 143.428 123.592C143.618 124.616 143.455 125.673 142.966 126.592C142.685 127.109 142.237 127.516 141.695 127.745C141.185 127.951 140.629 128.016 140.085 127.933C138.918 127.745 137.791 127.367 136.748 126.812C135.653 126.223 134.607 125.549 133.62 124.794C133.008 124.344 132.413 123.871 131.822 123.399C130.932 122.686 130.068 121.929 129.199 121.205C128.517 120.641 127.82 120.132 127.138 119.595C126.988 119.472 126.838 119.364 126.688 119.236C126.151 118.769 126.033 118.554 126.151 118.222C126.168 118.146 126.191 118.073 126.221 118.002C126.334 117.782 126.677 117.835 127.106 118.136C128.383 119.026 129.617 120.078 130.862 121.108C131.79 121.875 132.724 122.648 133.69 123.362L133.652 123.378Z" fill="#231F20"/>
<path d="M178.163 144.935C177.367 146.233 176.691 147.599 176.14 149.018C175.898 149.667 175.734 150.343 175.652 151.03C175.57 151.55 175.669 152.082 175.931 152.538C176.173 152.974 176.563 153.31 177.031 153.482C177.543 153.487 178.04 153.308 178.431 152.978C178.9 152.635 179.259 152.163 179.467 151.621C179.697 151.021 179.783 150.376 179.719 149.737C179.693 149.282 179.575 148.837 179.37 148.43C179.165 148.023 178.878 147.663 178.528 147.371C177.749 146.8 176.811 146.485 175.845 146.47C173.908 146.45 171.988 146.832 170.206 147.591C169.277 147.95 168.372 148.37 167.497 148.847C166.621 149.323 165.78 149.861 164.98 150.456C161.675 152.841 158.639 155.578 155.924 158.617C154.732 159.954 153.696 161.421 152.833 162.99C152.419 163.757 152.088 164.567 151.846 165.404C151.616 166.209 151.543 167.051 151.631 167.883C151.762 168.922 152.228 169.89 152.957 170.641C153.668 171.403 154.634 171.88 155.671 171.982C156.777 172.096 157.894 172.053 158.987 171.853C160.119 171.698 161.262 171.456 162.432 171.29C163.167 171.183 163.505 171.236 163.505 171.338C163.505 171.44 163.156 171.607 162.587 171.875C162.019 172.143 161.208 172.47 160.189 172.83C158.988 173.286 157.718 173.539 156.433 173.576C155.024 173.621 153.638 173.207 152.484 172.395C152.198 172.181 151.932 171.94 151.69 171.676C151.441 171.428 151.219 171.155 151.025 170.861L150.73 170.421C150.649 170.265 150.574 170.099 150.494 169.938C150.334 169.615 150.212 169.275 150.129 168.924C149.811 167.571 149.873 166.156 150.306 164.836C150.689 163.607 151.23 162.433 151.916 161.343C153.24 159.261 154.795 157.335 156.551 155.602C158.274 153.882 160.1 152.27 162.019 150.773C163.172 149.882 164.32 148.997 165.587 148.149C166.865 147.329 168.213 146.623 169.616 146.041C171.037 145.428 172.53 144.997 174.059 144.758C175.694 144.459 177.382 144.676 178.887 145.381C179.301 145.611 179.685 145.893 180.03 146.218C180.386 146.56 180.688 146.955 180.926 147.387C181.385 148.221 181.63 149.156 181.64 150.108C181.672 151.059 181.472 152.004 181.055 152.86C180.947 153.079 180.821 153.289 180.679 153.488C180.543 153.696 180.385 153.888 180.207 154.062C180.034 154.242 179.845 154.407 179.644 154.555C179.455 154.694 179.258 154.821 179.054 154.936C178.616 155.2 178.135 155.382 177.632 155.473C177.063 155.562 176.48 155.48 175.958 155.237C175.497 155.005 175.086 154.686 174.745 154.298C174.59 154.128 174.445 153.949 174.311 153.761C174.155 153.546 174.023 153.314 173.919 153.069C173.582 152.162 173.506 151.179 173.699 150.231C173.85 149.38 174.091 148.547 174.418 147.747C175.21 145.877 176.167 144.081 177.278 142.381C178.351 140.691 179.456 139.001 180.658 137.402C184.298 132.515 188.601 128.16 193.444 124.461C195.319 123.045 197.316 121.798 199.41 120.732C201.506 119.65 203.718 118.809 206.004 118.226C207.042 117.964 208.105 117.811 209.175 117.77C210.707 117.657 212.231 118.071 213.494 118.945C213.787 119.146 214.034 119.405 214.219 119.708C214.404 120.01 214.522 120.348 214.567 120.7C214.598 120.922 214.598 121.148 214.567 121.371C214.471 121.639 214.154 121.472 213.66 121.118C212.949 120.599 212.138 120.234 211.278 120.045C209.572 119.68 207.608 120.008 205.709 120.544C203.764 121.133 201.875 121.894 200.065 122.819C196.369 124.767 192.974 127.237 189.983 130.154C187.689 132.326 185.55 134.657 183.582 137.129C181.615 139.615 179.822 142.234 178.217 144.968L178.163 144.935Z" fill="#231F20"/>
<path d="M68.8812 136.083C68.9888 137.243 69.0103 138.408 68.9456 139.571C68.9152 140.838 68.6037 142.082 68.0335 143.214C67.6564 143.915 67.0304 144.449 66.279 144.711L65.9785 144.802L65.6351 144.84C65.5208 144.848 65.4061 144.848 65.2917 144.84C65.1791 144.84 65.061 144.802 64.9484 144.775C64.528 144.673 64.1404 144.467 63.8216 144.174C63.326 143.698 62.9366 143.122 62.6788 142.484C62.4397 141.916 62.2599 141.324 62.1423 140.719C62.0504 140.268 61.993 139.811 61.9706 139.351V138.954L62.0242 138.616L62.1315 137.945C62.1672 137.718 62.2265 137.495 62.3086 137.28L62.5286 136.625C62.6305 136.416 62.7432 136.207 62.8559 136.003C62.9554 135.791 63.0816 135.593 63.2314 135.413C63.7235 134.743 64.3517 134.184 65.0748 133.773C65.7978 133.363 66.5995 133.11 67.4272 133.031C69.0473 132.876 70.6676 133.325 71.977 134.291C72.2895 134.536 72.5852 134.801 72.8623 135.085L73.2486 135.531L73.4418 135.756L73.5974 136.003C74.0089 136.641 74.3593 137.316 74.6436 138.02C75.1662 139.391 75.5631 140.806 75.8294 142.248C76.2696 144.779 76.4494 147.348 76.3659 149.915C76.3082 151.554 76.1379 153.188 75.8562 154.803C75.5593 156.427 75.0525 158.005 74.3485 159.498C73.8871 160.426 73.7261 160.169 73.812 159.289C73.8978 158.409 74.1232 156.89 74.4397 155.12C75.0126 151.957 75.1498 148.731 74.8475 145.532C74.6946 143.943 74.4184 142.368 74.0212 140.821L73.6832 139.684L73.2701 138.578L72.7818 137.505C72.594 137.183 72.4116 136.877 72.197 136.577C71.6683 135.876 70.9666 135.324 70.1607 134.975C69.3547 134.626 68.472 134.492 67.5989 134.586C66.7285 134.69 65.9092 135.053 65.2465 135.626C64.5838 136.2 64.1081 136.959 63.8807 137.806C63.8485 137.924 63.7948 138.031 63.7733 138.154L63.709 138.525L63.6446 138.895L63.6017 139.083V139.238C63.6098 139.729 63.6783 140.218 63.8055 140.692C63.9219 141.18 64.0929 141.654 64.3153 142.103C64.4875 142.494 64.7595 142.833 65.104 143.085C65.2244 143.16 65.3645 143.198 65.5064 143.193H65.6137C65.656 143.184 65.6973 143.172 65.7371 143.155C65.8214 143.131 65.9025 143.097 65.9785 143.053C66.3297 142.827 66.5987 142.494 66.7458 142.103C67.1089 141.136 67.2908 140.11 67.2823 139.077C67.3147 137.735 67.2375 136.393 67.0516 135.064C66.8785 133.728 66.6168 132.405 66.2682 131.104C65.7484 129.184 64.7368 127.433 63.3334 126.023C62.6351 125.37 61.7791 124.91 60.8492 124.687C59.9124 124.481 58.9402 124.497 58.0109 124.736C56.5387 125.131 55.166 125.831 53.9815 126.791C52.7704 127.738 51.669 128.818 50.6979 130.01C50.2687 130.546 49.8824 131.083 49.4853 131.619C48.7503 132.65 48.3264 133.363 47.9562 133.825C47.7169 134.191 47.3832 134.485 46.9904 134.678C46.846 134.76 46.6931 134.827 46.5344 134.876C46.1105 134.973 46.2285 133.803 47.1782 132.059C48.64 129.372 50.664 127.031 53.1123 125.197C54.4265 124.208 55.9182 123.479 57.5066 123.051C59.2401 122.575 61.0866 122.737 62.711 123.507C63.8777 124.099 64.8915 124.953 65.6727 126.002C66.4062 126.982 67.0053 128.055 67.454 129.194C67.8964 130.308 68.2236 131.464 68.4305 132.644C68.6505 133.782 68.8222 134.924 68.9295 136.083H68.8812Z" fill="#231F20"/>
<path d="M0.542127 152.56C2.83087 154.776 4.81549 157.286 6.44405 160.024C7.16301 161.204 9.0248 160.126 8.30047 158.951C6.57624 156.052 4.47826 153.393 2.06053 151.042C1.05184 150.103 -0.471931 151.616 0.542127 152.56Z" fill="#231F20"/>
<path d="M5.70863 155.43C6.62075 154.819 7.31825 153.906 8.26792 153.364C9.46977 152.683 8.39133 150.832 7.19485 151.513C6.22371 152.05 5.55304 152.967 4.63556 153.579C4.39535 153.728 4.22143 153.964 4.14957 154.237C4.07772 154.511 4.11339 154.801 4.24925 155.049C4.32069 155.171 4.41541 155.277 4.52799 155.362C4.64056 155.447 4.76879 155.509 4.90533 155.544C5.04187 155.58 5.18405 155.588 5.32373 155.568C5.46341 155.549 5.59785 155.502 5.71937 155.43H5.70863Z" fill="#231F20"/>
<path d="M4.26581 149.045C6.27783 151.69 8.55811 154.147 10.4789 156.846C11.2784 157.957 13.1616 156.889 12.33 155.773C10.3877 153.09 8.13425 150.617 6.11687 147.972C5.29596 146.899 3.43417 147.972 4.26581 149.045Z" fill="#231F20"/>
<path d="M10.4039 147.018C11.4448 148.88 12.6842 150.613 13.5427 152.577C14.0792 153.838 15.9464 152.748 15.3991 151.504C14.5407 149.54 13.3013 147.807 12.255 145.945C11.579 144.738 9.72791 145.822 10.4039 147.018Z" fill="#231F20"/>
<path d="M8.48841 147.419C10.1409 146.453 12.0886 146.121 13.784 145.246C15.0127 144.608 13.9289 142.757 12.711 143.39C11.0155 144.27 9.07324 144.597 7.41533 145.568C6.22422 146.266 7.30266 148.122 8.48841 147.419Z" fill="#231F20"/>
<path d="M20.0342 147.898C18.5963 145.548 17.8397 142.941 17.2549 140.263L16.2194 141.621C17.5607 141.551 19.0148 143.102 20.0342 143.847C20.7746 144.384 21.5526 143.627 21.6438 142.919C21.8799 141.17 21.9228 139.378 22.6471 137.741L20.678 137.473C21.7994 140.156 22.8725 142.839 23.8973 145.553C24.3748 146.841 26.4512 146.283 25.9683 144.985C24.9596 142.27 23.8865 139.576 22.7491 136.904C22.4432 136.175 21.2092 135.697 20.7907 136.647C19.8947 138.67 19.782 140.746 19.4923 142.908L21.1019 141.98C19.6854 140.95 18.0866 139.367 16.2033 139.464C16.0375 139.463 15.8738 139.502 15.7252 139.575C15.5765 139.649 15.4469 139.756 15.3466 139.888C15.2463 140.02 15.1779 140.173 15.1469 140.336C15.1158 140.499 15.123 140.667 15.1678 140.827C15.7032 143.691 16.7171 146.444 18.167 148.971C18.886 150.146 20.7424 149.068 20.0181 147.898H20.0342Z" fill="#231F20"/>
<path d="M25.5074 134.483C26.2585 136.495 25.4162 139.575 27.2243 141.131C28.1901 141.968 29.4134 141.667 30.406 141.05C31.6936 140.153 33.0437 139.35 34.4461 138.646C35.707 138.083 34.6178 136.232 33.373 136.79C32.241 137.27 31.1621 137.867 30.1538 138.571C29.5582 139.011 28.689 139.988 28.3457 138.915C27.8091 137.305 28.1579 135.513 27.5623 133.914C27.117 132.643 25.0406 133.179 25.5074 134.483Z" fill="#231F20"/>
<g opacity="0.6">
<path d="M37.0325 92.2965C36.6837 91.7278 36.3564 91.1483 36.0506 90.542C35.9244 90.3229 35.8098 90.0972 35.7072 89.866C35.6027 89.6208 35.541 89.3595 35.5248 89.0934C35.508 88.8127 35.5557 88.5319 35.6643 88.2725C35.8747 87.8268 36.1916 87.4398 36.5871 87.1458C36.9037 86.8989 37.2202 86.6736 37.5314 86.459C37.907 86.1682 38.318 85.9266 38.7547 85.74C38.8889 85.6917 39.0016 85.8795 39.0176 86.1317C39.031 86.2678 39.0106 86.4052 38.9582 86.5315C38.9057 86.6578 38.823 86.7693 38.7172 86.856C37.9717 87.2859 37.2892 87.8167 36.6891 88.4335C36.57 88.5854 36.516 88.7783 36.5388 88.97C36.5466 89.072 36.5721 89.1718 36.614 89.2651C36.6622 89.3885 36.7159 89.5065 36.7749 89.6353C37.0507 90.2117 37.3551 90.774 37.687 91.32C37.8909 91.658 38.1002 92.0014 38.3255 92.3287C38.4972 92.5755 38.6689 92.8277 38.8621 93.0638C38.9533 93.1818 39.0445 93.3052 39.1411 93.4125L39.2752 93.5681L39.3771 93.6647C39.4221 93.7093 39.4806 93.7376 39.5435 93.7452C39.6053 93.7263 39.6609 93.6911 39.7044 93.6432C39.7527 93.5896 39.9727 93.4018 40.1229 93.2516L40.3483 93.0423C40.638 92.7955 40.8151 92.7633 41.0458 92.9672C41.1005 93.0085 41.1493 93.0573 41.1906 93.1121C41.2535 93.2013 41.2831 93.3098 41.2743 93.4186C41.2654 93.5274 41.2188 93.6297 41.1423 93.7076C41.0063 93.8729 40.8612 94.0305 40.7077 94.1798C40.6219 94.2603 40.5414 94.3354 40.4502 94.4105L40.3751 94.4695L40.2517 94.5553C40.1605 94.609 40.0746 94.6734 39.9834 94.7163C39.8072 94.8114 39.6095 94.8595 39.4093 94.8558C39.2264 94.7868 39.0473 94.708 38.8728 94.6197L38.6474 94.4105C38.5831 94.3461 38.4811 94.2549 38.4543 94.2227L38.2182 93.9491C37.7938 93.4191 37.3997 92.8656 37.0378 92.2912L37.0325 92.2965Z" fill="#231F20"/>
</g>
<g opacity="0.6">
<path d="M43.3421 84.8266L44.2864 86.5006C44.4045 86.7045 44.5493 86.8869 44.662 87.0908C44.8712 87.4503 45.059 87.8205 45.2576 88.1639L45.5473 88.7004L45.9926 89.4677C46.0302 89.5428 46.0999 89.6179 46.0892 89.6823C45.7173 89.902 45.3589 90.1438 45.0161 90.4066C44.6674 90.6963 44.3347 91.0236 43.9967 91.2597C43.9001 91.3241 43.7177 91.206 43.6318 90.9646C43.5842 90.8299 43.573 90.6851 43.5994 90.5447C43.6257 90.4043 43.6888 90.2733 43.7821 90.1652C43.9969 89.9551 44.2226 89.7563 44.4581 89.5696L44.6352 89.4355C44.6727 89.4086 44.6352 89.4355 44.662 89.4355H44.7049C44.7049 89.4355 44.7049 89.4355 44.7049 89.3925C44.7049 89.3496 44.7049 89.3925 44.7049 89.3496L44.6352 89.2209L44.501 88.9579C44.2381 88.4214 43.8518 87.9761 43.546 87.4771L42.5373 85.8138L41.9096 84.7944L41.6735 84.4081L41.5554 84.215L41.4803 84.0915C41.442 84.0145 41.3971 83.9409 41.3462 83.8716C41.2818 83.8394 41.1852 83.9038 41.1047 83.9199C41.0243 83.9359 40.7721 84.0647 40.5682 84.1667C40.3643 84.2686 40.1819 84.3866 39.9995 84.4993L39.7741 84.6549C39.4951 84.832 39.3986 84.7622 39.1142 84.5422L38.9371 84.4242C38.8897 84.3876 38.8514 84.3403 38.8253 84.2863C38.7992 84.2323 38.7861 84.173 38.7869 84.113C38.7827 84.0317 38.7958 83.9504 38.8254 83.8746C38.855 83.7987 38.9004 83.73 38.9586 83.673C39.3116 83.3507 39.716 83.0895 40.1551 82.9004L40.4716 82.7663H40.5521L40.6916 82.7234C40.7882 82.6965 40.8794 82.6697 40.9867 82.6483L41.5876 82.5088L41.7379 82.4766C41.7862 82.4766 41.8076 82.5409 41.8452 82.5678L42.0383 82.7985C42.236 83.0368 42.4154 83.2896 42.5749 83.555L42.8324 83.9735L43.3367 84.8051L43.3421 84.8266Z" fill="#231F20"/>
</g>
<g opacity="0.6">
<path d="M213.73 158.761C213.77 158.384 213.831 158.01 213.912 157.64C213.966 157.398 214.052 157.168 214.116 156.937L214.224 156.599C214.224 156.545 214.224 156.47 214.288 156.443L214.465 156.47C214.637 156.502 214.803 156.518 214.969 156.535C215.151 156.56 215.33 156.599 215.506 156.653L215.742 156.717L215.935 156.776L216.198 156.867L216.735 157.05L217.808 157.404C218.121 157.501 218.44 157.578 218.763 157.634C219.18 157.688 219.586 157.81 219.964 157.994C220.083 158.064 220.013 158.294 219.852 158.531C219.783 158.646 219.687 158.744 219.574 158.817C219.46 158.89 219.331 158.935 219.197 158.949C218.983 158.949 218.768 158.911 218.559 158.879C218.349 158.847 218.146 158.793 217.936 158.74C217.518 158.641 217.11 158.503 216.718 158.327C216.477 158.228 216.227 158.151 215.973 158.096L215.779 158.058L215.629 158.021L215.5 157.962L215.345 157.903C215.307 157.903 215.307 157.903 215.297 157.935L215.264 158.005C215.239 158.056 215.219 158.11 215.205 158.166L215.179 158.268C215.179 158.311 215.179 158.396 215.179 158.455C215.133 158.792 215.11 159.13 215.109 159.469C215.095 159.998 215.118 160.527 215.179 161.052C215.255 161.461 215.351 161.866 215.468 162.265C215.497 162.354 215.52 162.446 215.538 162.538C215.592 162.882 215.5 163.005 215.141 163.075C215.06 163.1 214.978 163.119 214.894 163.134C214.772 163.164 214.643 163.149 214.53 163.093C214.417 163.037 214.328 162.943 214.277 162.828C213.993 162.113 213.823 161.358 213.773 160.591C213.723 159.982 213.714 159.371 213.746 158.761H213.73Z" fill="#231F20"/>
</g>
<g opacity="0.6">
<path d="M226.918 165.178L226.972 165.591V165.693L226.999 165.87L227.069 166.241L227.133 166.606C227.133 166.724 227.133 166.826 227.133 166.933V167.255V167.41V167.448H227.09H227.004C226.682 167.535 226.354 167.601 226.022 167.646C225.87 167.655 225.718 167.655 225.566 167.646C225.429 167.656 225.291 167.656 225.153 167.646C224.965 167.646 224.778 167.598 224.617 167.566C224.246 167.502 223.887 167.426 223.544 167.346C223.2 167.265 222.905 167.228 222.583 167.174C222.147 167.153 221.726 167.012 221.365 166.767C221.247 166.67 221.408 166.407 221.617 166.166C221.827 165.924 222.073 165.693 222.272 165.736L223.372 165.951C223.742 166.042 224.118 166.144 224.499 166.262C224.724 166.331 224.96 166.364 225.196 166.359H225.486C225.541 166.367 225.597 166.367 225.652 166.359C225.679 166.359 225.652 166.284 225.652 166.235C225.652 166.187 225.652 166.133 225.652 166.08L225.598 165.806L225.421 164.803C225.325 164.298 225.244 163.783 225.11 163.29C224.986 162.911 224.839 162.54 224.67 162.179C224.632 162.102 224.601 162.021 224.579 161.938C224.556 161.878 224.547 161.814 224.553 161.751C224.56 161.687 224.581 161.626 224.617 161.573C224.701 161.472 224.81 161.394 224.933 161.347C224.998 161.347 225.062 161.283 225.121 161.262C225.24 161.229 225.366 161.231 225.484 161.266C225.603 161.301 225.709 161.368 225.792 161.46C226.203 162.084 226.489 162.782 226.634 163.515C226.757 164.052 226.838 164.588 226.94 165.157L226.918 165.178Z" fill="#231F20"/>
</g>
<g opacity="0.6">
<path d="M222.159 161.079L220.137 162.823C219.895 163.043 219.664 163.279 219.412 163.494C218.511 164.242 217.563 164.931 216.574 165.56C216.134 165.833 215.705 166.134 215.265 166.407C214.98 166.574 214.728 166.767 214.412 166.944C214.114 167.1 213.796 167.214 213.467 167.282C213.264 167.33 213.188 167.078 213.231 166.745C213.244 166.569 213.296 166.397 213.383 166.243C213.47 166.089 213.591 165.956 213.736 165.855C214.841 165.254 215.882 164.583 217.003 163.886C217.655 163.425 218.266 162.908 218.827 162.34L220.807 160.543L222.052 159.432C222.691 158.896 223.367 158.359 224.027 157.823C224.289 157.624 224.531 157.399 224.778 157.184L225.54 156.556C225.651 156.463 225.768 156.375 225.888 156.293C226.35 156.004 226.548 156.004 226.827 156.293C226.894 156.356 226.957 156.422 227.015 156.492C227.1 156.624 227.13 156.785 227.099 156.939C227.068 157.093 226.978 157.229 226.849 157.318C226.012 158.059 225.094 158.719 224.166 159.464C223.49 159.997 222.819 160.559 222.154 161.149L222.159 161.079Z" fill="#231F20"/>
</g>
<path d="M198.439 102.377C199.646 104.163 200.011 106.32 200.923 108.279C201.326 109.132 202.602 108.386 202.195 107.533C201.277 105.59 200.928 103.46 199.711 101.658C199.174 100.874 197.902 101.615 198.439 102.403V102.377Z" fill="#231F20"/>
<path d="M197.79 107.046C199.179 105.785 201.009 104.712 202.913 104.551C203.852 104.47 203.863 102.995 202.913 103.075C200.595 103.358 198.43 104.384 196.743 106C196.04 106.638 197.087 107.679 197.816 107.073L197.79 107.046Z" fill="#231F20"/>
<path d="M25.7649 171.377C24.547 173.174 24.1929 175.309 23.2808 177.246C22.873 178.099 24.1446 178.856 24.5524 177.992C25.4645 176.061 25.8293 173.909 27.0365 172.117C27.5731 171.334 26.2907 170.593 25.7649 171.377Z" fill="#231F20"/>
<path d="M28.7261 175.743C27.0407 174.125 24.8755 173.097 22.5559 172.814C21.6063 172.733 21.6116 174.209 22.5559 174.289C24.4553 174.456 26.3117 175.529 27.6799 176.784C28.3828 177.423 29.429 176.382 28.753 175.743H28.7261Z" fill="#231F20"/>
<path d="M29.5586 200.971C30.3044 201.009 31.0609 201.03 31.8174 201.02C32.0911 201.02 32.354 200.944 32.6383 200.944C33.6095 200.944 34.5913 200.912 35.5571 200.81C35.9836 200.761 36.4041 200.669 36.8126 200.537C37.2807 200.317 37.7804 200.172 38.2935 200.107C38.4437 200.107 38.669 200.531 38.7227 201.02C38.7763 201.508 38.5993 202.093 38.2613 202.178C37.1009 202.557 35.8789 202.71 34.6611 202.629C33.9433 202.643 33.2268 202.697 32.5149 202.79C31.7262 202.833 30.9053 202.833 30.1434 202.822C29.6552 202.822 29.1669 202.79 28.6787 202.779C27.9436 202.753 27.2032 202.677 26.4628 202.645C25.8887 202.613 25.3146 202.688 24.7083 202.645C24.5761 202.653 24.4435 202.653 24.3113 202.645C23.8069 202.527 23.6835 202.356 23.7747 201.857C23.7883 201.743 23.808 201.63 23.8337 201.519C23.8682 201.353 23.9517 201.203 24.0732 201.086C24.1948 200.969 24.3489 200.892 24.5151 200.864C25.4565 200.797 26.4014 200.797 27.3427 200.864L28.4533 200.912H29.5747L29.5586 200.971Z" fill="#231F20"/>
<path d="M209.728 203.3C209.047 203.338 208.338 203.402 207.619 203.477C207.362 203.504 207.083 203.584 206.836 203.6C205.877 203.673 204.914 203.673 203.955 203.6C203.526 203.6 203.086 203.547 202.646 203.552C202.361 203.52 202.072 203.509 201.787 203.466C201.498 203.403 201.225 203.279 200.988 203.101C200.838 202.989 201.052 202.565 201.342 202.184C201.632 201.803 201.97 201.433 202.19 201.497C203.016 201.669 203.917 201.744 204.942 201.9C205.573 201.928 206.204 201.872 206.82 201.733L208.966 201.492C209.417 201.444 209.867 201.406 210.324 201.374C211.01 201.315 211.719 201.342 212.421 201.331C212.695 201.331 212.958 201.331 213.253 201.331C213.54 201.322 213.827 201.335 214.111 201.368C214.239 201.367 214.365 201.386 214.487 201.422C214.949 201.562 215.056 201.733 214.943 202.222C214.916 202.329 214.895 202.441 214.857 202.549C214.816 202.707 214.73 202.85 214.609 202.959C214.488 203.069 214.337 203.141 214.176 203.166C213.328 203.262 212.593 203.203 211.724 203.23C211.091 203.23 210.425 203.273 209.739 203.359L209.728 203.3Z" fill="#231F20"/>
</svg>
