<svg width="60" height="60" viewBox="0 0 60 60" fill="none" xmlns="http://www.w3.org/2000/svg">
<circle cx="30" cy="30" r="29.5" fill="url(#paint0_radial_252_1990)" stroke="#F5F5F5"/>
<path d="M32.5 25.3965C32.5 26.7772 31.3807 27.8965 30 27.8965V29.3965C32.2091 29.3965 34 27.6056 34 25.3965H32.5ZM30 27.8965C28.6193 27.8965 27.5 26.7772 27.5 25.3965H26C26 27.6056 27.7909 29.3965 30 29.3965V27.8965ZM27.5 25.3965C27.5 24.0158 28.6193 22.8965 30 22.8965V21.3965C27.7909 21.3965 26 23.1873 26 25.3965H27.5ZM30 22.8965C31.3807 22.8965 32.5 24.0158 32.5 25.3965H34C34 23.1873 32.2091 21.3965 30 21.3965V22.8965ZM26.75 32.6465H33.25V31.1465H26.75V32.6465ZM33.25 37.6465H26.75V39.1465H33.25V37.6465ZM26.75 37.6465C25.3693 37.6465 24.25 36.5272 24.25 35.1465H22.75C22.75 37.3556 24.5409 39.1465 26.75 39.1465V37.6465ZM35.75 35.1465C35.75 36.5272 34.6307 37.6465 33.25 37.6465V39.1465C35.4591 39.1465 37.25 37.3556 37.25 35.1465H35.75ZM33.25 32.6465C34.6307 32.6465 35.75 33.7658 35.75 35.1465H37.25C37.25 32.9373 35.4591 31.1465 33.25 31.1465V32.6465ZM26.75 31.1465C24.5409 31.1465 22.75 32.9373 22.75 35.1465H24.25C24.25 33.7658 25.3693 32.6465 26.75 32.6465V31.1465Z" fill="#040403"/>
<path d="M25.3978 28.255C25.227 27.9805 24.9063 27.834 24.583 27.834C23.2368 27.834 22.1455 26.7427 22.1455 25.3965C22.1455 24.0503 23.2368 22.959 24.583 22.959C24.9063 22.959 25.227 22.8124 25.3978 22.5379C25.4054 22.5258 25.413 22.5137 25.4206 22.5016C25.7051 22.0526 25.561 21.4168 25.0326 21.3586C24.885 21.3423 24.735 21.334 24.583 21.334C22.3394 21.334 20.5205 23.1528 20.5205 25.3965C20.5205 27.6401 22.3394 29.459 24.583 29.459C24.735 29.459 24.885 29.4506 25.0326 29.4344C25.561 29.3762 25.7051 28.7404 25.4206 28.2913C25.413 28.2793 25.4054 28.2672 25.3978 28.255Z" fill="#040403"/>
<path d="M22.1003 36.8439C21.9773 36.6388 21.7603 36.5007 21.5211 36.5007H21.333C19.9868 36.5007 18.8955 35.4093 18.8955 34.0632C18.8955 32.717 19.9868 31.6257 21.333 31.6257H21.5211C21.7603 31.6257 21.9773 31.4876 22.1003 31.2824C22.4005 30.7815 22.0747 30.0007 21.4908 30.0007H21.333C19.0894 30.0007 17.2705 31.8195 17.2705 34.0632C17.2705 36.3068 19.0894 38.1257 21.333 38.1257H21.4908C22.0748 38.1257 22.4005 37.3448 22.1003 36.8439Z" fill="#040403"/>
<path d="M34.5787 28.2913C34.2942 28.7404 34.4384 29.3762 34.9668 29.4344C35.1144 29.4506 35.2644 29.459 35.4163 29.459C37.66 29.459 39.4788 27.6401 39.4788 25.3965C39.4788 23.1528 37.66 21.334 35.4163 21.334C35.2644 21.334 35.1144 21.3423 34.9668 21.3586C34.4384 21.4168 34.2942 22.0526 34.5787 22.5016C34.5864 22.5137 34.594 22.5258 34.6015 22.5379C34.7724 22.8124 35.093 22.959 35.4163 22.959C36.7625 22.959 37.8538 24.0503 37.8538 25.3965C37.8538 26.7427 36.7625 27.834 35.4163 27.834C35.093 27.834 34.7724 27.9805 34.6015 28.255C34.594 28.2672 34.5864 28.2793 34.5787 28.2913Z" fill="#040403"/>
<path d="M37.899 36.8439C37.5988 37.3448 37.9246 38.1257 38.5085 38.1257H38.6663C40.91 38.1257 42.7288 36.3068 42.7288 34.0632C42.7288 31.8195 40.91 30.0007 38.6663 30.0007H38.5085C37.9246 30.0007 37.5988 30.7815 37.899 31.2824C38.022 31.4876 38.2391 31.6257 38.4783 31.6257H38.6663C40.0125 31.6257 41.1038 32.717 41.1038 34.0632C41.1038 35.4093 40.0125 36.5007 38.6663 36.5007H38.4783C38.2391 36.5007 38.022 36.6388 37.899 36.8439Z" fill="#040403"/>
<defs>
<radialGradient id="paint0_radial_252_1990" cx="0" cy="0" r="1" gradientUnits="userSpaceOnUse" gradientTransform="translate(30 30) rotate(90) scale(30)">
<stop stop-color="  #FFAC1B
"/>
<stop offset="0.947917" stop-color="#F6F6F9" stop-opacity="0.68"/>
</radialGradient>
</defs>
</svg>
