<svg width="60" height="60" viewBox="0 0 60 60" fill="none" xmlns="http://www.w3.org/2000/svg">
<circle cx="30" cy="30" r="29.5" fill="url(#paint0_radial_520_2565)" stroke="#F5F5F5"/>
<path d="M29.2503 37.5827C29.2503 37.9969 29.5861 38.3327 30.0003 38.3327C30.4145 38.3327 30.7503 37.9969 30.7503 37.5827H29.2503ZM30.7503 22.416C30.7503 22.0018 30.4145 21.666 30.0003 21.666C29.5861 21.666 29.2503 22.0018 29.2503 22.416H30.7503ZM32.6953 26.1242C32.9024 26.4829 33.3611 26.6058 33.7198 26.3987C34.0786 26.1916 34.2015 25.7329 33.9944 25.3742L32.6953 26.1242ZM32.938 25.0445L32.2885 25.4195V25.4195L32.938 25.0445ZM29.0579 29.6527L29.3168 28.9488L29.3168 28.9488L29.0579 29.6527ZM30.943 30.346L31.2019 29.6421L31.2019 29.6421L30.943 30.346ZM27.0629 34.9543L26.4134 35.3293L27.0629 34.9543ZM27.3056 33.8745C27.0985 33.5158 26.6398 33.3929 26.281 33.6C25.9223 33.8071 25.7994 34.2658 26.0065 34.6245L27.3056 33.8745ZM31.4389 36.1268L31.0639 35.4773L31.4389 36.1268ZM28.562 23.8719L28.937 24.5214L28.562 23.8719ZM40.0837 29.9993C40.0837 35.5682 35.5692 40.0827 30.0003 40.0827V41.5827C36.3976 41.5827 41.5837 36.3966 41.5837 29.9993H40.0837ZM30.0003 40.0827C24.4315 40.0827 19.917 35.5682 19.917 29.9993H18.417C18.417 36.3966 23.603 41.5827 30.0003 41.5827V40.0827ZM19.917 29.9993C19.917 24.4305 24.4315 19.916 30.0003 19.916V18.416C23.603 18.416 18.417 23.6021 18.417 29.9993H19.917ZM30.0003 19.916C35.5692 19.916 40.0837 24.4305 40.0837 29.9993H41.5837C41.5837 23.6021 36.3976 18.416 30.0003 18.416V19.916ZM33.9944 25.3742L33.5875 24.6695L32.2885 25.4195L32.6953 26.1242L33.9944 25.3742ZM27.7124 34.5793L27.3056 33.8745L26.0065 34.6245L26.4134 35.3293L27.7124 34.5793ZM30.6841 31.0499C32.6363 31.768 32.8653 34.4372 31.0639 35.4773L31.8139 36.7763C34.7167 35.1004 34.3477 30.7992 31.2019 29.6421L30.6841 31.0499ZM28.187 23.2224C25.2842 24.8983 25.6532 29.1995 28.799 30.3566L29.3168 28.9488C27.3646 28.2307 27.1356 25.5615 28.937 24.5214L28.187 23.2224ZM30.7503 37.5827V36.5525H29.2503V37.5827H30.7503ZM30.7503 36.5525V29.9993H29.2503V36.5525H30.7503ZM31.0639 35.4773C30.7143 35.6791 30.3377 35.7846 29.9627 35.8034L30.0379 37.3015C30.6449 37.2711 31.2535 37.0998 31.8139 36.7763L31.0639 35.4773ZM29.9627 35.8034C29.0704 35.8482 28.1882 35.4033 27.7124 34.5793L26.4134 35.3293C27.1815 36.6596 28.6054 37.3734 30.0379 37.3015L29.9627 35.8034ZM28.799 30.3566L29.7414 30.7032L30.2593 29.2955L29.3168 28.9488L28.799 30.3566ZM29.7414 30.7033L30.6841 31.0499L31.2019 29.6421L30.2592 29.2954L29.7414 30.7033ZM30.7503 29.9993L30.7503 23.4462H29.2503L29.2503 29.9993L30.7503 29.9993ZM30.7503 23.4462V22.416H29.2503V23.4462H30.7503ZM33.5875 24.6695C32.8194 23.339 31.3953 22.6252 29.9627 22.6972L30.038 24.1953C30.9304 24.1504 31.8127 24.5953 32.2885 25.4195L33.5875 24.6695ZM29.9627 22.6972C29.3558 22.7277 28.7473 22.899 28.187 23.2224L28.937 24.5214C29.2866 24.3196 29.6631 24.2141 30.038 24.1953L29.9627 22.6972Z" fill="#040403"/>
<defs>
<radialGradient id="paint0_radial_520_2565" cx="0" cy="0" r="1" gradientUnits="userSpaceOnUse" gradientTransform="translate(30 30) rotate(90) scale(30)">
<stop stop-color="  #FFAC1B
"/>
<stop offset="0.947917" stop-color="#F6F6F9" stop-opacity="0.68"/>
</radialGradient>
</defs>
</svg>
