<svg width="60" height="60" viewBox="0 0 60 60" fill="none" xmlns="http://www.w3.org/2000/svg">
<circle cx="30" cy="30" r="29.5" fill="url(#paint0_radial_520_2564)" stroke="#F5F5F5"/>
<path d="M29.642 39.5291L30.0779 40.1394L29.642 39.5291ZM29.6994 39.4882L29.2674 38.8751L29.6994 39.4882ZM32.7848 38.4995L32.7896 39.2494L32.7848 38.4995ZM25.0126 40.1355L25.7089 40.414L25.0126 40.1355ZM26.8137 41.5493L26.3777 40.939L26.8137 41.5493ZM40.6148 34.6068L41.3345 34.8178L40.6148 34.6068ZM36.9411 38.2805L37.1521 39.0002L36.9411 38.2805ZM22.1245 21.7564L22.465 22.4247L22.1245 21.7564ZM19.7574 24.1236L20.4256 24.4641L19.7574 24.1236ZM37.8761 21.7564L37.5356 22.4247L37.8761 21.7564ZM40.2433 24.1236L39.575 24.4641L40.2433 24.1236ZM30.8674 26.1201L31.2691 26.7534V26.7534L30.8674 26.1201ZM34.5024 26.2906L35.0379 25.7655H35.0379L34.5024 26.2906ZM25.4983 26.2906L26.0338 26.8157L25.4983 26.2906ZM29.1333 26.1201L29.535 25.4867L29.1333 26.1201ZM32.167 20.416H27.8337V21.916H32.167V20.416ZM18.417 29.8327V34.4134H19.917V29.8327H18.417ZM41.5837 31.1156V29.8327H40.0837V31.1156H41.5837ZM23.253 39.2493H23.9049V37.7493H23.253V39.2493ZM27.2496 42.1596L30.0779 40.1394L29.206 38.9188L26.3777 40.939L27.2496 42.1596ZM32.8553 39.2493H33.4499V37.7493H32.8553V39.2493ZM30.0779 40.1394C30.1075 40.1183 30.1197 40.1096 30.1314 40.1013L29.2674 38.8751C29.2508 38.8868 29.2341 38.8988 29.206 38.9188L30.0779 40.1394ZM32.8553 37.7493C32.8208 37.7493 32.8003 37.7493 32.78 37.7495L32.7896 39.2494C32.804 39.2494 32.819 39.2493 32.8553 39.2493V37.7493ZM30.1314 40.1013C30.9098 39.5528 31.8374 39.2555 32.7896 39.2494L32.78 37.7495C31.5217 37.7575 30.296 38.1503 29.2674 38.8751L30.1314 40.1013ZM23.9049 39.2493C24.2183 39.2493 24.4326 39.5659 24.3162 39.8569L25.7089 40.414C26.2194 39.1377 25.2795 37.7493 23.9049 37.7493V39.2493ZM24.3162 39.8569C23.5955 41.6587 25.6705 43.2876 27.2496 42.1596L26.3777 40.939C26.0177 41.1962 25.5446 40.8248 25.7089 40.414L24.3162 39.8569ZM40.0837 31.1156C40.0837 32.9983 40.076 33.7788 39.8951 34.3957L41.3345 34.8178C41.5913 33.9421 41.5837 32.8927 41.5837 31.1156H40.0837ZM33.4499 39.2493C35.227 39.2493 36.2764 39.257 37.1521 39.0002L36.7301 37.5608C36.1131 37.7417 35.3326 37.7493 33.4499 37.7493V39.2493ZM39.8951 34.3957C39.4479 35.9209 38.2552 37.1136 36.7301 37.5608L37.1521 39.0002C39.1675 38.4093 40.7436 36.8332 41.3345 34.8178L39.8951 34.3957ZM18.417 34.4134C18.417 37.0842 20.5821 39.2493 23.253 39.2493V37.7493C21.4106 37.7493 19.917 36.2558 19.917 34.4134H18.417ZM27.8337 20.416C26.3292 20.416 25.1558 20.4154 24.2149 20.4923C23.2653 20.5699 22.4867 20.7301 21.7841 21.0881L22.465 22.4247C22.921 22.1923 23.4802 22.0573 24.3371 21.9873C25.2027 21.9166 26.3045 21.916 27.8337 21.916V20.416ZM19.917 29.8327C19.917 28.3035 19.9176 27.2017 19.9883 26.3361C20.0583 25.4792 20.1933 24.9201 20.4256 24.4641L19.0891 23.7831C18.7311 24.4858 18.5709 25.2643 18.4933 26.214C18.4164 27.1548 18.417 28.3282 18.417 29.8327H19.917ZM21.7841 21.0881C20.6237 21.6794 19.6803 22.6227 19.0891 23.7831L20.4256 24.4641C20.873 23.586 21.5869 22.8721 22.465 22.4247L21.7841 21.0881ZM32.167 21.916C33.6962 21.916 34.798 21.9166 35.6636 21.9873C36.5204 22.0573 37.0796 22.1923 37.5356 22.4247L38.2166 21.0881C37.5139 20.7301 36.7353 20.5699 35.7857 20.4923C34.8449 20.4154 33.6714 20.416 32.167 20.416V21.916ZM41.5837 29.8327C41.5837 28.3282 41.5842 27.1548 41.5074 26.214C41.4298 25.2643 41.2696 24.4858 40.9115 23.7831L39.575 24.4641C39.8074 24.9201 39.9423 25.4792 40.0124 26.3361C40.0831 27.2017 40.0837 28.3035 40.0837 29.8327H41.5837ZM37.5356 22.4247C38.4137 22.8721 39.1276 23.586 39.575 24.4641L40.9115 23.7831C40.3203 22.6227 39.3769 21.6794 38.2166 21.0881L37.5356 22.4247ZM31.2691 26.7534C31.671 26.4984 32.1417 26.2881 32.6055 26.2541C33.0317 26.2229 33.4952 26.3346 33.9669 26.8157L35.0379 25.7655C34.2452 24.9571 33.3445 24.696 32.4959 24.7581C31.6849 24.8175 30.9703 25.1666 30.4656 25.4867L31.2691 26.7534ZM33.9669 26.8157C34.5352 27.3952 34.7296 28.1048 34.6501 28.9078C34.5684 29.7338 34.1938 30.6434 33.6315 31.5092C33.0723 32.3703 32.3575 33.1412 31.6575 33.6895C30.9248 34.2634 30.3298 34.4993 30.0003 34.4993V35.9993C30.8491 35.9993 31.781 35.4981 32.5824 34.8704C33.4163 34.2172 34.2426 33.3223 34.8895 32.3263C35.5333 31.335 36.03 30.1962 36.1428 29.0555C36.258 27.8918 35.9702 26.7163 35.0379 25.7655L33.9669 26.8157ZM30.0003 34.4993C29.6709 34.4993 29.0759 34.2634 28.3432 33.6895C27.6432 33.1412 26.9284 32.3703 26.3691 31.5092C25.8068 30.6434 25.4322 29.7338 25.3505 28.9078C25.2711 28.1048 25.4655 27.3952 26.0338 26.8157L24.9628 25.7655C24.0304 26.7163 23.7427 27.8918 23.8578 29.0555C23.9707 30.1962 24.4674 31.335 25.1112 32.3263C25.7581 33.3223 26.5843 34.2172 27.4183 34.8704C28.2196 35.4981 29.1516 35.9993 30.0003 35.9993V34.4993ZM26.0338 26.8157C26.5055 26.3346 26.969 26.223 27.3952 26.2542C27.8589 26.2881 28.3296 26.4984 28.7315 26.7534L29.535 25.4867C29.0304 25.1666 28.3157 24.8175 27.5047 24.7582C26.6561 24.696 25.7554 24.9571 24.9628 25.7655L26.0338 26.8157ZM30.4656 25.4867C30.1986 25.6561 29.802 25.6561 29.535 25.4867L28.7315 26.7534C29.489 27.2339 30.5116 27.2339 31.2691 26.7534L30.4656 25.4867Z" fill="#040403"/>
<defs>
<radialGradient id="paint0_radial_520_2564" cx="0" cy="0" r="1" gradientUnits="userSpaceOnUse" gradientTransform="translate(30 30) rotate(90) scale(30)">
<stop stop-color="  #FFAC1B
"/>
<stop offset="0.947917" stop-color="#F6F6F9" stop-opacity="0.68"/>
</radialGradient>
</defs>
</svg>
