<svg width="40" height="40" viewBox="0 0 40 40" fill="none" xmlns="http://www.w3.org/2000/svg">
<g id="pdf-svgrepo-com 1" clip-path="url(#clip0_365_2546)">
<g id="Group">
<path id="Vector" d="M29.563 0H16.2727H15.2429L14.5152 0.727656L4.45422 10.7892L3.72656 11.5169V12.5462V33.2895C3.72656 36.9895 6.73656 40.0001 10.4372 40.0001H29.563C33.2625 40.0001 36.2725 36.9895 36.2725 33.2895V6.71063C36.2725 3.01 33.2625 0 29.563 0ZM33.7884 33.2895C33.7884 35.6236 31.8966 37.5153 29.563 37.5153H10.4372C8.1025 37.5153 6.21078 35.6236 6.21078 33.2895V12.5462H12.7511C14.6952 12.5462 16.2727 10.9698 16.2727 9.02508V2.48469H29.563C31.8966 2.48469 33.7884 4.37641 33.7884 6.71063V33.2895Z" fill="  #FFAC1B
"/>
<path id="Vector_2" d="M13.4328 19.748H11.204C10.7796 19.748 10.5254 20.0241 10.5254 20.4375V26.1995C10.5254 26.6986 10.8538 27.0276 11.3098 27.0276C11.756 27.0276 12.0844 26.6987 12.0844 26.1995V24.4491C12.0844 24.4065 12.1062 24.3852 12.1488 24.3852H13.4328C15.0027 24.3852 15.9475 23.4301 15.9475 22.0718C15.9476 20.6923 15.0137 19.748 13.4328 19.748ZM13.3369 23.0373H12.1488C12.1062 23.0373 12.0844 23.0161 12.0844 22.9741V21.1592C12.0844 21.1166 12.1062 21.0955 12.1488 21.0955H13.3369C13.9947 21.0955 14.3874 21.4882 14.3874 22.0719C14.3875 22.6555 13.9947 23.0373 13.3369 23.0373Z" fill="  #FFAC1B
"/>
<path id="Vector_3" d="M19.5452 19.748H17.8368C17.4124 19.748 17.1582 20.0241 17.1582 20.4375V26.2846C17.1582 26.6987 17.4123 26.9637 17.8368 26.9637H19.5452C21.0835 26.9637 22.0392 26.4755 22.421 25.2978C22.5585 24.8837 22.6338 24.3852 22.6338 23.3559C22.6338 22.3266 22.5584 21.828 22.421 21.414C22.0391 20.2363 21.0835 19.748 19.5452 19.748ZM20.9253 24.7567C20.7442 25.3295 20.2249 25.5738 19.5027 25.5738H18.7816C18.739 25.5738 18.7172 25.5526 18.7172 25.5101V21.2018C18.7172 21.1592 18.739 21.138 18.7816 21.138H19.5027C20.2249 21.138 20.7442 21.3823 20.9253 21.9552C20.9995 22.1995 21.0519 22.6239 21.0519 23.3559C21.0519 24.088 20.9995 24.5123 20.9253 24.7567Z" fill="  #FFAC1B
"/>
<path id="Vector_4" d="M28.2158 19.748H24.7148C24.2905 19.748 24.0352 20.0241 24.0352 20.4375V26.1995C24.0352 26.6986 24.3647 27.0276 24.8207 27.0276C25.2658 27.0276 25.5952 26.6987 25.5952 26.1995V24.1409C25.5952 24.0988 25.6159 24.0776 25.6585 24.0776H27.6965C28.1525 24.0776 28.4176 23.8016 28.4176 23.4088C28.4176 23.016 28.1525 22.7406 27.6965 22.7406H25.6585C25.6159 22.7406 25.5952 22.7194 25.5952 22.6768V21.1592C25.5952 21.1166 25.6159 21.0955 25.6585 21.0955H28.2158C28.6511 21.0955 28.938 20.8091 28.938 20.4273C28.938 20.0344 28.651 19.748 28.2158 19.748Z" fill="  #FFAC1B
"/>
</g>
</g>
<defs>
<clipPath id="clip0_365_2546">
<rect width="40" height="40" fill="white"/>
</clipPath>
</defs>
</svg>
