<svg width="100" height="100" viewBox="0 0 100 100" fill="none" xmlns="http://www.w3.org/2000/svg">
<g id="Tick Circle">
<path id="Vector" fill-rule="evenodd" clip-rule="evenodd" d="M50 100C77.6142 100 100 77.6142 100 50C100 22.3858 77.6142 0 50 0C22.3858 0 0 22.3858 0 50C0 77.6142 22.3858 100 50 100ZM77.7939 37.5014C79.1753 35.9583 79.0444 33.5876 77.5014 32.2061C75.9583 30.8247 73.5876 30.9556 72.2061 32.4986L55.3603 51.3145C51.9468 55.1272 49.648 57.6814 47.6826 59.3333C45.8103 60.907 44.7106 61.25 43.75 61.25C42.7894 61.25 41.6897 60.907 39.8174 59.3333C37.852 57.6814 35.5532 55.1272 32.1397 51.3145L27.7939 46.4605C26.4124 44.9174 24.0417 44.7865 22.4986 46.1679C20.9556 47.5494 20.8247 49.9202 22.2061 51.4632L26.7376 56.5246C29.9169 60.0759 32.5687 63.0381 34.9918 65.0746C37.5549 67.229 40.3196 68.75 43.75 68.75C47.1804 68.75 49.945 67.229 52.5082 65.0747C54.9313 63.0381 57.5831 60.076 60.7623 56.5247L77.7939 37.5014Z" fill="white"/>
</g>
</svg>
