<svg width="114" height="110" viewBox="0 0 114 110" fill="none" xmlns="http://www.w3.org/2000/svg">
<g id="Star 2">
<path id="Vector" d="M77.8217 15.378C71.2678 -4.79265 42.7318 -4.79265 36.178 15.378C34.2511 21.3084 28.7247 25.3235 22.4891 25.3235C1.28043 25.3235 -7.53769 52.4629 9.62045 64.9291C14.6652 68.5942 16.7761 75.091 14.8492 81.0213C8.29533 101.192 31.3815 117.965 48.5396 105.499C53.5843 101.834 60.4153 101.834 65.4601 105.499C82.6182 117.965 105.704 101.192 99.1505 81.0213C97.2236 75.091 99.3345 68.5942 104.379 64.9291C121.537 52.4629 112.719 25.3235 91.5106 25.3235C85.275 25.3235 79.7486 21.3084 77.8217 15.378Z" fill="white" fill-opacity="0.3"/>
</g>
</svg>
