<svg width="118" height="108" viewBox="0 0 118 108" fill="none" xmlns="http://www.w3.org/2000/svg">
<g id="Award 2">
<g id="Vector">
<path d="M57.665 33.8122C58.1104 32.3961 59.8901 32.3961 60.3355 33.8122C61.4981 37.5084 64.8833 40.1238 68.8251 40.1238C69.2092 40.1238 69.4554 40.2378 69.6388 40.3844C69.848 40.5515 70.0467 40.8245 70.1603 41.1859C70.3899 41.9156 70.1922 42.59 69.6102 43.0268C66.4969 45.3634 65.2507 49.4387 66.4076 53.1167C66.6621 53.9258 66.3741 54.5699 65.8574 54.9577C65.5929 55.1562 65.317 55.2425 65.087 55.2496C64.8886 55.2558 64.6229 55.2096 64.2873 54.9577C61.1432 52.598 56.8573 52.598 53.7132 54.9577C53.3776 55.2096 53.1119 55.2558 52.9135 55.2496C52.6835 55.2425 52.4076 55.1562 52.1431 54.9577C51.6264 54.5699 51.3384 53.9258 51.5929 53.1167C52.7498 49.4387 51.5036 45.3634 48.3903 43.0268C47.8083 42.59 47.6106 41.9156 47.8402 41.1859C47.9538 40.8245 48.1525 40.5515 48.3617 40.3844C48.5451 40.2378 48.7913 40.1238 49.1754 40.1238C53.1172 40.1238 56.5024 37.5084 57.665 33.8122Z" fill="#444549"/>
<path fill-rule="evenodd" clip-rule="evenodd" d="M40.1165 1.65729C44.4541 0.24792 49.6602 0.248739 58.1916 0.250081H59.81C68.3414 0.248739 73.5474 0.24792 77.885 1.65729C86.6376 4.50118 93.4998 11.3633 96.3437 20.1159L96.3867 20.2502H97.8476C116.375 20.2502 124.334 43.7605 109.617 55.0152L109.563 55.0559L97.257 63.7878C96.7979 64.1136 96.3231 64.416 95.8344 64.6939C95.7812 64.8334 95.7266 64.9727 95.6706 65.1118C94.3932 68.2849 91.8997 72.0922 89.5016 74.5312C85.5935 78.5062 81.5491 80.2688 75.0908 83.0835L74.6616 83.2705C71.8799 84.4833 69.067 85.5835 66.4553 86.3861C65.2184 86.7662 63.9697 87.0978 62.7508 87.3389V100.25H79.0008C81.0718 100.25 82.7508 101.929 82.7508 104C82.7508 106.071 81.0718 107.75 79.0008 107.75H39.0008C36.9297 107.75 35.2508 106.071 35.2508 104C35.2508 101.929 36.9297 100.25 39.0008 100.25H55.2508V87.3389C54.0318 87.0978 52.7832 86.7662 51.5462 86.3861C48.9345 85.5835 46.1217 84.4833 43.3399 83.2705L42.9107 83.0834C36.4524 80.2688 32.408 78.5062 28.4999 74.5312C26.1018 72.0922 23.6083 68.2849 22.3309 65.1118C22.2733 64.9688 22.2173 64.8257 22.1627 64.6823C21.6842 64.4168 21.2203 64.1249 20.7733 63.8077L8.43876 55.0559L8.38551 55.0152C-6.3321 43.7605 1.62691 20.2502 20.1546 20.2502H21.6148L21.6579 20.1159C24.5018 11.3633 31.3639 4.50118 40.1165 1.65729ZM20.4161 27.7502H20.1546C8.82009 27.7502 3.93909 42.1063 12.8915 49.0191L20.3507 54.3117C20.25 51.9006 20.2504 49.2053 20.2507 46.0801L20.2508 38.5804C20.2506 34.1844 20.2505 30.6757 20.4161 27.7502ZM97.6509 54.3122L105.111 49.0191C114.063 42.1063 109.182 27.7502 97.8476 27.7502H97.5854C97.7511 30.6754 97.7509 34.1845 97.7508 38.58L97.7508 46.0847C97.7512 49.2082 97.7515 51.902 97.6509 54.3122ZM67.4899 31.5618C64.8428 23.1463 53.1576 23.1463 50.5106 31.5618C50.2902 32.2624 49.709 32.6238 49.1754 32.6238C40.298 32.6238 37.1761 43.9877 43.8884 49.0254C44.3958 49.4062 44.6646 50.1475 44.4385 50.8663C43.1468 54.973 44.809 58.8307 47.6411 60.9562C50.4907 63.0949 54.7053 63.5904 58.2152 60.9562C58.6918 60.5985 59.3087 60.5985 59.7853 60.9562C63.2951 63.5904 67.5098 63.0949 70.3594 60.9562C73.1915 58.8307 74.8537 54.973 73.562 50.8663C73.3359 50.1475 73.6047 49.4062 74.1121 49.0254C80.8244 43.9877 77.7025 32.6238 68.8251 32.6238C68.2915 32.6238 67.7103 32.2624 67.4899 31.5618Z" fill="#444549"/>
</g>
</g>
</svg>
