<svg width="256" height="317" viewBox="0 0 256 317" fill="none" xmlns="http://www.w3.org/2000/svg">
<path d="M20.5707 272.769C20.5707 272.769 20.4202 272.769 20.4598 272.698C20.4958 272.639 20.5355 272.581 20.5786 272.526C20.6915 272.404 20.8162 272.294 20.951 272.196C21.2341 271.992 21.5335 271.811 21.8463 271.655C22.4822 271.341 23.1485 271.091 23.835 270.91C25.2199 270.56 26.6379 270.355 28.0659 270.298C37.5736 269.756 47.0813 269.513 56.589 269.254C64.7577 269.034 72.9264 268.964 81.0872 268.705C95.1268 268.242 109.167 267.598 123.143 266.429C127.263 266.076 131.391 265.708 135.495 265.198C139.456 264.719 143.331 264.107 147.197 263.385C147.847 263.26 148.52 263.079 149.146 263.024C150.818 262.859 151.357 263.456 150.232 264.201C150 264.41 149.732 264.575 149.44 264.688C146.421 265.292 144.123 266.555 140.875 266.979C134.885 267.763 128.895 268.595 122.881 269.191C120.504 269.419 118.064 269.607 115.656 269.733C112.573 269.905 109.499 269.984 106.417 270.109C104.318 270.203 98.3119 270.517 90.4681 270.823C82.6242 271.129 72.9343 271.443 63.4504 271.678L37.6608 272.283C30.6409 272.455 25.9029 272.691 25.4434 272.714C24.6986 272.714 23.9618 272.714 23.114 272.714C22.6941 272.714 22.2504 272.714 21.775 272.714L21.0461 272.753H20.7054H20.5707V272.769Z" fill="white"/>
<path d="M19.4531 170.675C21.5481 171.13 23.4887 172.114 25.0864 173.531C30.5137 177.744 36.7334 181.095 42.6202 184.971C47.7147 188.227 52.73 191.601 57.8325 194.833C66.6113 200.396 75.4613 205.865 84.4303 211.083C87.0845 212.652 89.7308 214.158 92.4326 215.586C94.975 216.952 97.5939 218.172 100.276 219.243C100.704 219.376 101.196 219.525 101.536 219.659C101.649 219.708 101.757 219.766 101.861 219.831C101.93 219.876 101.994 219.929 102.051 219.988C102.155 220.092 102.234 220.218 102.281 220.357C102.36 220.632 102.281 220.906 101.79 221.142C101.565 221.263 101.307 221.312 101.053 221.283C99.9278 220.977 98.8899 220.781 97.8282 220.553C96.7284 220.343 95.6623 219.987 94.659 219.494C90.6974 217.422 86.6646 215.414 82.7744 213.217C81.1897 212.346 79.6685 211.436 78.1552 210.494C76.214 209.286 74.3204 208.015 72.403 206.791L62.3724 200.514C57.4443 197.43 51.3831 193.594 45.4725 189.804L36.8839 184.272C34.1504 182.546 31.5754 180.938 29.4045 179.463C26.8219 177.779 24.3719 175.903 22.0757 173.853C21.1036 172.877 20.2256 171.813 19.4531 170.675Z" fill="white"/>
<path d="M103.977 223.433C103.675 222.881 103.537 222.256 103.577 221.631C103.618 221.005 103.836 220.403 104.206 219.894C106.145 216.933 108.179 214.038 110.307 211.208C112.153 208.784 114.134 206.461 116.147 204.147C117.002 203.15 117.945 202.122 118.912 201.197C119.878 200.271 120.742 199.384 121.653 198.458C123.467 196.591 125.282 194.684 127.199 192.856C128.324 191.773 129.505 190.722 130.725 189.718C131.893 188.699 133.132 187.763 134.433 186.917C134.65 186.751 134.89 186.619 135.146 186.524C135.835 186.352 136.247 186.901 136.073 187.576C136.026 187.733 136.018 187.952 135.915 188.007C134.916 188.572 134.671 189.812 133.72 190.455C131.996 191.802 130.404 193.307 128.966 194.951C128.356 195.579 127.73 196.206 127.08 196.811C126.248 197.595 125.369 198.317 124.545 199.109C123.967 199.635 122.43 201.251 120.298 203.299C119.198 204.399 118.156 205.553 117.177 206.759C116.099 208.054 114.998 209.443 113.92 210.824C109.602 216.316 105.696 221.808 105.474 222.091C105 222.565 104.5 223.013 103.977 223.433Z" fill="white"/>
<path d="M81.0158 308.118C81.2677 307.727 80.9995 307.112 80.4167 306.743C79.8339 306.375 79.1573 306.393 78.9053 306.784C78.6534 307.175 78.9217 307.79 79.5044 308.158C80.0872 308.527 80.7639 308.509 81.0158 308.118Z" fill="white"/>
<path d="M67.6623 258.56C67.8473 258.134 67.4824 257.57 66.8472 257.299C66.2121 257.029 65.5472 257.155 65.3623 257.581C65.1773 258.007 65.5422 258.571 66.1774 258.842C66.8125 259.112 67.4773 258.986 67.6623 258.56Z" fill="white"/>
<path d="M101.949 282.571C102.314 281.731 101.596 280.619 100.346 280.086C99.0961 279.554 97.7869 279.803 97.4222 280.643C97.0574 281.483 97.7752 282.596 99.0254 283.128C100.276 283.66 101.585 283.411 101.949 282.571Z" fill="white"/>
<path d="M127.586 246.748C127.842 246.159 127.339 245.379 126.462 245.006C125.586 244.633 124.668 244.808 124.412 245.397C124.157 245.986 124.66 246.766 125.536 247.139C126.412 247.513 127.33 247.338 127.586 246.748Z" fill="white"/>
<path d="M151.955 199.604C152.12 199.226 151.793 198.724 151.226 198.482C150.66 198.241 150.067 198.352 149.903 198.73C149.739 199.108 150.065 199.61 150.632 199.852C151.199 200.093 151.791 199.982 151.955 199.604Z" fill="white"/>
<path d="M124.432 215.705C124.617 215.279 124.252 214.715 123.617 214.444C122.982 214.174 122.317 214.3 122.132 214.726C121.947 215.152 122.312 215.716 122.947 215.987C123.582 216.257 124.247 216.131 124.432 215.705Z" fill="white"/>
<path d="M254.801 222.555C255.053 222.164 254.785 221.549 254.202 221.18C253.619 220.812 252.942 220.83 252.691 221.221C252.439 221.612 252.707 222.227 253.29 222.595C253.872 222.964 254.549 222.946 254.801 222.555Z" fill="white"/>
<path d="M75.881 234.235C76.066 233.809 75.7011 233.244 75.066 232.974C74.4308 232.704 73.766 232.83 73.581 233.255C73.396 233.681 73.761 234.246 74.3961 234.516C75.0313 234.787 75.6961 234.661 75.881 234.235Z" fill="white"/>
<path d="M148.027 316.135C148.279 315.744 148.011 315.128 147.428 314.76C146.846 314.391 146.169 314.41 145.917 314.801C145.665 315.191 145.933 315.807 146.516 316.175C147.099 316.544 147.776 316.525 148.027 316.135Z" fill="white"/>
<path d="M197.574 247.535C197.826 247.144 197.558 246.528 196.975 246.16C196.392 245.792 195.716 245.81 195.464 246.201C195.212 246.591 195.48 247.207 196.063 247.575C196.646 247.944 197.322 247.925 197.574 247.535Z" fill="white"/>
<path d="M149.832 303.495C150.084 303.104 149.816 302.488 149.233 302.12C148.65 301.752 147.974 301.77 147.722 302.161C147.47 302.552 147.738 303.167 148.321 303.535C148.904 303.904 149.58 303.886 149.832 303.495Z" fill="white"/>
<path d="M86.0738 70.6131C86.9636 69.9838 88.0692 69.7298 89.1479 69.9069C90.5679 70.1109 92.0113 70.095 93.4264 69.8598C94.8175 69.6656 96.1606 69.2187 97.3879 68.5417C97.6177 68.3848 97.8712 68.2435 98.0772 68.0787C98.2922 67.9202 98.4936 67.7443 98.6794 67.5531C98.8617 67.3799 99.0214 67.1849 99.1548 66.9724C99.2181 66.8783 99.3053 66.7449 99.3449 66.6978C99.3845 66.6508 99.3449 66.6978 99.3449 66.5801C99.406 66.0116 99.406 65.4382 99.3449 64.8697C99.2974 64.2498 99.2181 63.6221 99.1151 63.0023C98.9388 61.9363 98.6738 60.8866 98.3228 59.8638C98.0191 58.9287 97.5407 58.0584 96.9125 57.2981C96.7086 57.0521 96.4313 56.8763 96.1202 56.796C96.0068 56.787 95.8929 56.787 95.7795 56.796L95.3755 56.7568H94.5832C93.5042 56.7262 92.4247 56.7945 91.3585 56.9607C90.1082 57.1426 88.888 57.4883 87.7297 57.9886C87.4603 58.1063 87.1909 58.2475 86.9374 58.3888C86.7277 58.5066 86.5312 58.646 86.3511 58.8046C86.0102 59.1223 85.7403 59.5072 85.5588 59.9344C85.4875 60.0835 85.4875 60.2483 85.3845 60.366C85.302 60.4604 85.198 60.534 85.081 60.5806C84.9641 60.6272 84.8376 60.6455 84.7121 60.634C84.5866 60.6225 84.4657 60.5815 84.3594 60.5144C84.2531 60.4473 84.1645 60.3561 84.1009 60.2483C84.0217 60.1384 83.8791 59.9815 83.9108 59.8795C84.0613 59.3852 84.0851 58.8674 84.2277 58.3103C84.3508 57.7173 84.6855 57.1881 85.1705 56.8195C85.4236 56.6497 85.6883 56.4976 85.9628 56.3644L86.6759 56.0035C87.1592 55.776 87.6346 55.5563 88.1338 55.368C89.1148 54.9671 90.1341 54.6648 91.1762 54.4657C92.0121 54.3118 92.8617 54.2434 93.7116 54.2617C94.2419 54.2726 94.771 54.3145 95.2962 54.3872C95.5656 54.3872 95.8271 54.4657 96.0885 54.5049C96.4352 54.5457 96.7756 54.6273 97.1027 54.7481C97.8865 55.079 98.5595 55.6231 99.0438 56.3174C99.7383 57.3183 100.273 58.4192 100.628 59.5814C101.077 60.978 101.398 62.4118 101.587 63.8654C101.699 64.6738 101.75 65.4895 101.738 66.3055C101.731 66.5419 101.709 66.7777 101.674 67.0117C101.634 67.3215 101.531 67.6202 101.373 67.8904C101.152 68.2997 100.886 68.6838 100.581 69.036C99.4055 70.2767 97.9094 71.1749 96.2549 71.6331C94.9017 72.0373 93.5003 72.2615 92.0874 72.3C90.627 72.349 89.1683 72.1608 87.7693 71.7429C87.494 71.6295 87.2289 71.493 86.977 71.3349C86.6997 71.1231 86.4145 70.872 86.0738 70.6131Z" fill="white"/>
<path d="M73.4993 59.8951C72.2931 60.6482 70.8464 60.928 69.4427 60.6797C68.4161 60.5739 67.3821 60.5582 66.3527 60.6326C65.3396 60.7203 64.3386 60.9123 63.3657 61.2054C62.4044 61.496 61.4794 61.8935 60.6084 62.3902C60.3945 62.5157 60.1806 62.6413 59.9746 62.7825C59.8868 62.8343 59.8045 62.8947 59.729 62.963C59.6532 63.0146 59.584 63.0752 59.523 63.1434C59.2603 63.4126 59.0483 63.7261 58.8971 64.0693C58.4074 65.6234 58.3499 67.2795 58.7307 68.8632C58.987 70.5324 59.6476 72.1154 60.656 73.4768C61.5095 74.5656 62.7012 75.3459 64.0471 75.6973C64.7306 75.8662 65.4346 75.9401 66.1387 75.9169C66.901 75.8909 67.6606 75.8149 68.4127 75.6894C69.8762 75.4888 71.2894 75.0205 72.5802 74.3085C73.1011 74.0142 73.529 73.5823 73.8162 73.0609C74.0776 72.4868 74.2075 71.8625 74.1965 71.2328C74.1834 70.3679 74.0717 69.5072 73.8637 68.6671L73.7053 68.008L73.4993 67.2705C73.428 67.0508 73.3884 66.839 73.3408 66.6271L73.2616 66.3054C73.2616 66.2034 73.3646 66.1171 73.4042 66.0229C73.4438 65.9288 73.634 65.6385 73.7687 65.4659C73.9034 65.2932 74.0618 65.0814 74.1411 65.0029C74.8948 64.1155 75.8947 63.4662 77.0171 63.1356C78.166 62.8394 79.3784 62.8941 80.4954 63.2925C80.8531 63.3825 81.1932 63.531 81.5016 63.7319C82.2384 64.3203 82.0166 64.9166 81.2639 65.0343C81.0896 65.0343 80.8836 65.1442 80.7568 65.0814C80.4579 64.94 80.136 64.8524 79.8061 64.8225C79.4949 64.8082 79.1832 64.8346 78.8791 64.901C78.339 65.0454 77.8096 65.2263 77.2944 65.4423C76.7884 65.6293 76.3347 65.9333 75.9713 66.3289L75.8287 66.4937L75.7653 66.5643L75.7257 66.6506C75.7257 66.6506 75.7257 66.7134 75.7257 66.7369C75.7298 66.7656 75.7298 66.7946 75.7257 66.8233L75.8128 67.0743C76.3234 68.5023 76.6042 70.0009 76.6447 71.5153C76.6406 72.2011 76.5256 72.8819 76.3041 73.5317C76.0566 74.2357 75.6501 74.8743 75.1156 75.3991C74.4843 75.9883 73.7483 76.4565 72.9447 76.78C72.2222 77.0816 71.4746 77.3205 70.7104 77.494C69.7857 77.7311 68.846 77.9067 67.8977 78.0197C67.1357 78.1145 66.3679 78.1564 65.6 78.1453C64.6349 78.1281 63.6782 77.964 62.7635 77.6588C60.6194 76.8762 58.8477 75.3288 57.7957 73.3199C57.2382 72.2936 56.8123 71.2024 56.5281 70.0716C56.2317 68.9352 56.0669 67.769 56.0368 66.5957C55.9769 65.3512 56.2017 64.1094 56.6944 62.963C56.9763 62.354 57.3714 61.803 57.8591 61.3388C58.3207 60.9558 58.8197 60.6194 59.3487 60.3345C61.0955 59.371 63.0136 58.7503 64.9978 58.5063C66.4078 58.3304 67.8346 58.3304 69.2446 58.5063C70.2825 58.6476 70.9084 58.7809 71.0194 58.8123C71.3893 58.9231 71.7518 59.0568 72.1048 59.2125L73.4993 59.8951Z" fill="white"/>
<path d="M88.5823 77.0861C88.5526 76.8422 88.4941 76.6025 88.408 76.3721C88.3193 76.0826 88.2108 75.7995 88.0831 75.5247C87.8211 74.9264 87.5221 74.3447 87.1878 73.7829C86.9422 73.3592 86.6015 72.9982 86.3321 72.5589C85.3538 71.0229 84.2959 69.538 83.1629 68.1101C82.6479 67.4667 82.0933 66.8704 81.5783 66.2662C80.8558 65.4918 80.1786 64.6771 79.55 63.8261C79.3519 63.5593 79.344 63.6299 79.55 63.779C79.756 63.9281 80.3423 64.1007 80.889 64.3832C82.8689 65.3674 84.6284 66.7363 86.0628 68.4082C86.8947 69.4361 87.9247 70.3698 88.7487 71.4839C89.6927 72.7378 90.4209 74.1376 90.9037 75.6267C91.2524 76.6885 91.2017 77.8394 90.7611 78.8672C90.3897 79.6194 89.7805 80.231 89.026 80.609C88.3447 80.9474 87.6059 81.1576 86.8471 81.2289C85.7744 81.3322 84.6925 81.2926 83.6304 81.1112C83.3974 81.0738 83.1671 81.0214 82.9411 80.9542C82.5079 80.8286 82.0886 80.6604 81.6892 80.4521H81.5704C81.8729 80.4897 82.179 80.4897 82.4815 80.4521C83.4254 80.3638 84.3606 80.2012 85.2784 79.9656C86.1017 79.809 86.8871 79.4974 87.5919 79.0476C87.9591 78.835 88.2563 78.5216 88.4476 78.1453C88.5827 77.8115 88.6131 77.4451 88.5347 77.0939L88.5823 77.0861Z" fill="white"/>
<path d="M72.689 71.123C72.7005 71.6516 72.4996 72.163 72.1304 72.5449C71.7611 72.9267 71.2538 73.1476 70.7201 73.1591C70.1864 73.1705 69.6699 72.9715 69.2843 72.6059C68.8987 72.2402 68.6756 71.7379 68.6641 71.2093C68.6888 70.6872 68.9083 70.1927 69.2801 69.8216C69.6518 69.4505 70.1495 69.2293 70.6765 69.2007C72.6969 69.0124 72.6811 71.0602 72.689 71.123Z" fill="white"/>
<path d="M90.9509 66.8312C90.9624 67.3597 90.7615 67.8712 90.3922 68.253C90.023 68.6349 89.5157 68.8558 88.982 68.8672C88.4482 68.8787 87.9318 68.6797 87.5462 68.314C87.1606 67.9484 86.9375 67.446 86.9259 66.9175C86.9228 66.6736 86.9683 66.4316 87.0599 66.2052C87.1515 65.9789 87.2873 65.7727 87.4595 65.5984C87.6318 65.4242 87.8371 65.2854 88.0637 65.1899C88.2903 65.0945 88.5337 65.0443 88.7799 65.0422C89.0436 65.0034 89.3126 65.0202 89.5693 65.0914C89.8261 65.1626 90.0647 65.2868 90.2696 65.4556C90.4746 65.6245 90.6412 65.8343 90.7586 66.0714C90.876 66.3084 90.9415 66.5673 90.9509 66.8312Z" fill="white"/>
<path d="M93.9317 119.565C89.1779 123.692 82.7602 124.893 78.5768 125.261L76.9922 113.422C79.6788 114.547 82.6053 114.994 85.5095 114.724C88.2864 114.547 90.9671 113.648 93.282 112.119L93.9317 119.565Z" fill="white"/>
<path d="M93.4629 119.063C93.5262 119.711 93.3973 120.364 93.0919 120.941C92.7865 121.518 92.318 121.994 91.7436 122.311C88.3364 124.435 84.492 125.776 80.4928 126.234L79.7718 126.321C79.3677 126.368 78.9795 126.391 78.5596 126.431L77.9495 126.485H77.6484C77.6484 126.485 77.5216 126.533 77.5216 126.485V126.336L77.3632 125.136L77.0066 122.217L76.4283 117.321L75.6914 111.641C76.658 112.025 77.7435 112.48 78.6784 112.802L79.3281 113.006L79.7005 113.108C79.954 113.171 80.1996 113.233 80.4928 113.28C81.5011 113.494 82.528 113.61 83.559 113.626C85.622 113.683 87.6783 113.37 89.6281 112.7C90.1708 112.507 90.7002 112.279 91.2127 112.017C92.2664 111.439 93.2898 110.807 94.2789 110.126L94.5008 112.621L94.6672 114.442L94.7939 115.634L95.0475 117.988C95.1011 118.246 95.125 118.509 95.1188 118.773C95.0237 119.463 94.4453 119.667 93.962 119.204C93.8511 119.094 93.6768 118.985 93.6609 118.859C93.5342 117.627 92.6943 116.701 92.6072 115.399L92.5438 114.559L92.5042 114.136V114.002C92.5042 113.9 92.5042 113.79 92.417 113.775L92.2744 113.908C92.2338 113.97 92.176 114.019 92.108 114.049C91.4914 114.388 90.8505 114.682 90.1906 114.928C89.2044 115.293 88.1777 115.541 87.1323 115.666C85.8166 115.809 84.49 115.828 83.1708 115.721C82.8459 115.721 82.3072 115.673 81.293 115.532C80.6557 115.443 80.0236 115.32 79.3994 115.163L78.8052 115.007L78.5516 114.928L78.2902 114.834C78.2842 114.912 78.2842 114.991 78.2902 115.069C78.3298 115.383 78.3694 115.728 78.4169 116.089C78.5675 117.227 78.7418 118.498 78.9161 119.855C79.0904 121.213 79.2726 122.507 79.4549 123.881C79.4549 123.935 79.4549 124.045 79.5024 124.061H79.7084C80.4056 123.99 81.1187 123.881 81.8001 123.763C84.2036 123.366 86.543 122.653 88.7566 121.644C89.7549 121.175 90.7162 120.632 91.6326 120.02C91.8863 119.861 92.1511 119.719 92.425 119.597L93.4629 119.063Z" fill="white"/>
<path d="M45.6005 78.6631C44.5775 77.9009 43.6493 77.0212 42.8354 76.0425C42.6848 75.8699 42.5184 75.7051 42.36 75.5325C42.2015 75.3599 42.0668 75.1716 41.9401 74.9755C41.0092 73.5926 40.4202 72.0121 40.2208 70.3619C40.2208 69.9931 40.1494 69.6244 40.1178 69.2635C40.0861 68.9025 40.1178 68.5651 40.0781 68.2121C39.9568 67.2613 40.1515 66.2973 40.6327 65.4659C40.8229 65.1991 41.3458 65.5208 41.8054 65.921C42.2649 66.3211 42.7165 66.7684 42.6611 67.1371C42.5505 67.8643 42.4949 68.5987 42.4947 69.3341C42.4947 69.6714 42.4947 70.0245 42.4947 70.3776C42.4947 70.7307 42.4947 71.1151 42.6452 71.4839C42.6949 71.7098 42.7584 71.9325 42.8354 72.1508C42.9321 72.3671 43.0433 72.5768 43.1681 72.7785C43.4236 73.188 43.7014 73.5835 44.0001 73.9633C44.6623 74.8334 45.4255 75.6235 46.274 76.3171C46.5245 76.5402 46.7892 76.7473 47.0663 76.937C47.3443 77.1397 47.6325 77.3283 47.9299 77.5019C48.8207 78.0463 49.7832 78.4662 50.7901 78.7494C51.177 78.8223 51.5691 78.8642 51.9628 78.875C52.3442 78.8757 52.7253 78.8521 53.1037 78.8044C53.2621 78.8044 53.4206 78.7338 53.5791 78.7181C54.1495 78.6318 54.3238 78.7181 54.6091 79.3144C54.6724 79.4478 54.7517 79.5733 54.8071 79.7067C54.9973 80.1539 54.8071 80.5933 54.2129 80.8287C52.4772 81.3521 50.6104 81.2493 48.9441 80.5384C47.7336 80.0632 46.5845 79.4468 45.5213 78.7024L45.6005 78.6631Z" fill="white"/>
<path d="M115.674 68.0473C116.298 66.7062 116.555 65.226 116.419 63.7555C116.397 63.4781 116.355 63.2028 116.292 62.9316C116.221 62.6727 116.15 62.4216 116.102 62.147C115.935 61.3244 115.497 60.5796 114.858 60.0286C114.128 59.5421 113.238 59.3512 112.37 59.495C111.479 59.6013 110.614 59.8672 109.819 60.2796C108.757 60.7975 107.815 61.5272 106.65 61.9901C105.937 62.2883 105.438 59.8873 106.777 59.0792C107.965 58.3569 109.251 57.8049 110.596 57.4393C111.326 57.2448 112.081 57.155 112.838 57.1726H113.432C113.63 57.1726 113.836 57.2432 114.042 57.2824C114.453 57.3656 114.851 57.5056 115.223 57.6983C116.128 58.1454 116.892 58.8291 117.433 59.6755C117.927 60.4357 118.268 61.2828 118.439 62.1706C118.824 63.9923 118.742 65.8803 118.202 67.6629C117.853 68.737 117.357 69.7587 116.728 70.6993C115.781 72.0969 114.593 73.3186 113.218 74.3086C112.166 75.1175 110.996 75.7631 109.748 76.223C109.462 76.3314 109.168 76.4154 108.868 76.4741C107.719 76.6624 107.284 76.38 107.149 75.7836C107.106 75.6451 107.074 75.5034 107.054 75.3599C107.054 74.8813 107.45 74.5204 108.044 74.387C108.955 74.1263 109.828 73.7519 110.643 73.2729C111.508 72.7939 112.307 72.2058 113.02 71.5232C114.126 70.5232 115.004 69.3007 115.595 67.9375L115.674 68.0473Z" fill="white"/>
<path d="M114.474 54.6461C111.163 55.6739 108.699 55.823 106.726 55.3209C99.7534 53.5712 99.0561 43.8262 90.0238 36.7569C79.6208 28.6125 57.6501 51.437 48.087 56.4193C48.8793 59.0556 49.6082 61.841 50.4164 64.697C46.7401 62.9944 42.8815 62.3981 41.4871 65.6072C38.4624 64.3414 35.8903 62.207 34.1028 59.4793C31.1078 55.0776 29.7134 49.2793 29.3489 43.787C27.0195 8.37732 65.0424 15.941 65.2246 15.7056C75.3978 3.15178 125.923 -14.3295 129.203 30.3544C129.909 39.8796 124.228 51.6096 114.474 54.6461Z" fill="transparent"/>
<path d="M114.24 53.9007C113.024 54.7022 111.687 55.3061 110.278 55.6896C108.709 56.1287 107.045 56.1124 105.485 55.6425C103.84 55.0898 102.376 54.1087 101.246 52.8022C100.158 51.5574 99.1844 50.2182 98.3382 48.8007C97.0011 46.542 95.5246 44.3671 93.9172 42.2884C93.521 41.7784 93.1249 41.2998 92.6574 40.829C92.2328 40.3484 91.7833 39.8901 91.3105 39.4559C90.8544 39.0081 90.3729 38.5863 89.8685 38.1927C89.6377 37.9821 89.3943 37.7856 89.1395 37.6042L88.4265 37.1335C86.2561 36.1247 83.7776 35.9786 81.5017 36.7255C79.022 37.4237 76.6439 38.4364 74.4264 39.7384C69.8534 42.4232 65.4746 45.4198 61.3216 48.7065C59.1982 50.3307 57.0828 51.9705 54.9039 53.5868C53.8475 54.3976 52.7383 55.1822 51.5762 55.9407C51.0058 56.3251 50.4116 56.7253 49.8094 57.0548C49.8094 57.0548 49.8094 57.0548 49.8094 57.1019L52.6062 67.1999C51.0929 66.5408 49.231 65.6307 47.8524 65.207L47.3374 65.0344L47.0443 64.9638C46.87 64.9133 46.6927 64.874 46.5134 64.8461C46.176 64.7795 45.8346 64.735 45.4913 64.7127C44.9104 64.6659 44.3271 64.7658 43.7958 65.003C43.5775 65.1098 43.3813 65.2562 43.2174 65.4345C42.8162 66.069 42.4486 66.7237 42.1161 67.3961C41.4347 67.1058 40.7216 66.7998 40.0402 66.4781C39.8739 66.4074 39.6758 66.3133 39.549 66.2427L39.2717 66.0936L38.7092 65.7719C37.9737 65.3387 37.2742 64.8481 36.6175 64.3047C35.316 63.2252 34.1673 61.9769 33.2026 60.5934C31.3554 57.869 30.0139 54.84 29.2411 51.6488C28.4462 48.5229 28.0234 45.3155 27.9813 42.0922C27.844 38.8653 28.1478 35.6348 28.8845 32.4885C29.6926 28.73 31.4738 25.2441 34.0533 22.3732C36.6328 19.5024 39.9219 17.3452 43.5977 16.1136C47.1657 14.8539 50.9053 14.1344 54.69 13.9795C56.5559 13.8814 58.4257 13.8814 60.2916 13.9795C61.216 14.0265 62.143 14.0971 63.0726 14.1913L64.4592 14.3404H64.6889C64.6889 14.3404 64.7365 14.3404 64.7523 14.3404L65.1089 13.9402C65.2953 13.7229 65.4965 13.5184 65.711 13.3282C66.1309 12.9438 66.5033 12.5436 66.9708 12.1748L68.2781 11.1156L69.6329 10.1427C71.4522 8.88465 73.3584 7.75464 75.3376 6.76099C79.2628 4.7544 83.3964 3.17591 87.6659 2.0533C91.9437 0.886767 96.3574 0.280067 100.794 0.248684C105.304 0.160689 109.783 1.00235 113.947 2.72022L115.634 3.50484L117.219 4.43853C117.48 4.59545 117.758 4.73668 118.011 4.91715L118.756 5.46638C119.247 5.84299 119.762 6.18823 120.238 6.59623C121.172 7.40352 122.046 8.27672 122.852 9.20899C123.248 9.6876 123.645 10.1505 124.041 10.6291L125.063 12.1591C127.63 16.2899 129.3 20.9045 129.967 25.7095C130.165 26.8393 130.244 27.977 130.387 29.1147C130.536 30.2724 130.597 31.4395 130.569 32.6062C130.523 34.9534 130.158 37.2837 129.484 39.5344C128.834 41.7889 127.911 43.9571 126.735 45.9918C125.559 48.0564 124.077 49.9343 122.337 51.5625C122.051 51.8438 121.747 52.1059 121.426 52.3471L120.475 53.1318C119.824 53.5996 119.144 54.0268 118.439 54.4107C116.569 55.3444 115.27 55.4699 114.834 55.3836C114.398 55.2973 114.834 54.7951 116.046 54.0576C116.588 53.6332 117.154 53.2403 117.742 52.8807C120.475 51.1837 122.71 48.8054 124.223 45.9839C124.982 44.6188 125.626 43.1938 126.148 41.7234C126.73 40.1637 127.196 38.5641 127.543 36.9373C127.888 35.364 128.076 33.7609 128.105 32.1511C128.061 30.5203 127.921 28.8934 127.685 27.2787C127.277 24.0271 126.43 20.8444 125.166 17.8162C123.935 14.8386 122.132 12.126 119.857 9.82884C117.568 7.58685 114.813 5.86531 111.784 4.78376C106.808 3.12488 101.521 2.58872 96.3099 3.21453C89.5275 3.91815 82.9253 5.80971 76.8112 8.80099L75.393 9.52284C74.8226 9.82884 74.1491 10.229 73.2775 10.7155C72.406 11.2019 71.4156 11.861 70.2509 12.7319C69.6409 13.1478 69.0625 13.6735 68.3732 14.207L67.3986 15.125C67.2231 15.2806 67.0589 15.4485 66.9074 15.6271L66.2181 16.4118L65.8061 16.7021L65.7031 16.7805C65.6001 16.5295 65.6635 16.7178 65.6397 16.6628H65.5842L65.3386 16.7413C65.1643 16.7413 65.0138 16.8747 64.8078 16.8433L64.2769 16.7805L62.9142 16.6236C61.9634 16.5295 60.9334 16.4431 59.8242 16.3961C57.3267 16.2656 54.8227 16.3365 52.3369 16.6079C49.3775 16.8974 46.4734 17.5946 43.7086 18.6793C42.2056 19.2748 40.7734 20.0326 39.4381 20.939C38.7499 21.4068 38.0886 21.9124 37.4573 22.4533L36.5462 23.3321C36.3956 23.4811 36.2372 23.6302 36.0946 23.7871L35.6826 24.2736C34.5378 25.6054 33.5785 27.0832 32.8303 28.6675C32.6639 29.0833 32.4896 29.4991 32.3152 29.915L32.0538 30.5427L31.8557 31.2018L31.4516 32.5121C31.3249 32.9593 31.2536 33.4222 31.1506 33.8773C30.4419 37.6755 30.2978 41.5559 30.7227 45.3955C31.067 49.3253 32.1415 53.1584 33.8919 56.7018C34.7645 58.4402 35.912 60.0295 37.2909 61.4094C37.968 62.0779 38.7112 62.6772 39.5094 63.1984C39.9056 63.4573 40.3017 63.7005 40.7296 63.9202L40.8563 63.983H40.9276C40.9276 63.983 41.0227 64.0379 41.0544 64.0222C41.1202 63.886 41.2116 63.7635 41.3238 63.6613C41.6952 63.245 42.1445 62.904 42.6469 62.657C43.584 62.204 44.6259 62.0063 45.6656 62.0842C46.137 62.105 46.6059 62.1627 47.068 62.2568C47.2925 62.2944 47.5146 62.3442 47.7336 62.4059L48.0188 62.4765H48.1376C48.2347 62.5015 48.33 62.5329 48.4229 62.5707L48.6368 62.6648C48.6368 62.6021 48.5893 62.4373 48.5655 62.3353L48.2644 61.2682C47.8999 59.9658 47.5355 58.6764 47.171 57.4001C47.0284 56.843 46.8382 56.2702 46.7273 55.7367L48.2486 54.8893L48.4546 54.7716L48.5496 54.7167L48.7715 54.6461L49.1597 54.4107C49.4212 54.2538 49.6826 54.0811 49.952 53.9085C50.9899 53.2338 51.9962 52.5119 52.9945 51.7822C56.956 48.8478 60.7512 45.8427 64.5146 43.1515C68.0733 40.5063 71.8592 38.1749 75.8288 36.1841C77.7038 35.2664 79.6827 34.5736 81.7235 34.1205C83.727 33.6529 85.8171 33.6933 87.8005 34.2382C88.0382 34.3167 88.2839 34.3716 88.5136 34.4658L89.195 34.7875C89.6438 35.0049 90.0687 35.2678 90.4627 35.5721C90.8324 35.8255 91.1845 36.1034 91.5165 36.4038L92.4831 37.1884C93.0773 37.7768 93.6715 38.3261 94.2024 38.9067C94.7332 39.4873 95.2562 40.0522 95.6919 40.6407C97.2373 42.6269 98.6506 44.7105 99.9229 46.8784C100.979 48.6464 101.861 49.9802 102.569 50.8799C102.934 51.3036 103.219 51.6645 103.441 51.8999L103.916 52.355C105.017 53.4442 106.426 54.1773 107.957 54.4578C110.067 54.7199 112.21 54.5299 114.24 53.9007Z" fill="white"/>
<path d="M77.3325 123.347C77.7207 127.27 78.0852 131.193 78.4259 135.163C78.7666 139.133 79.0914 143.064 79.1706 146.932C79.1706 147.199 81.7219 147.207 81.706 146.932C81.6189 142.86 81.2703 138.945 80.9533 134.975C80.6364 131.005 80.2482 127.074 79.852 123.119C79.8362 122.908 77.2929 123.135 77.3325 123.347Z" fill="white"/>
<path d="M92.6485 118.985L93.932 145.952C93.932 146.266 96.4912 146.148 96.4595 145.834L95.2235 118.906C95.176 118.663 92.6327 118.773 92.6485 118.985Z" fill="white"/>
<path d="M73.3314 116.999C72.9245 117.637 72.4036 118.195 71.7943 118.647C71.3144 118.977 70.7773 119.216 70.2097 119.353C66.4609 120.405 62.8273 121.824 59.363 123.59L57.1208 124.744L55.9957 125.316L54.8944 125.936L52.6918 127.184L50.5684 128.557C45.7461 131.818 41.223 135.494 37.0517 139.541C35.8394 140.758 34.6034 141.958 33.407 143.19C32.2107 144.422 31.252 145.693 30.1823 146.94C30.025 147.167 29.8386 147.373 29.6277 147.552C29.5096 147.645 29.3673 147.702 29.2175 147.717C29.0677 147.733 28.9166 147.705 28.7819 147.639C28.6472 147.572 28.5345 147.469 28.457 147.341C28.3795 147.213 28.3403 147.066 28.3442 146.917C28.3442 146.752 28.2729 146.532 28.3442 146.43C29.192 145.457 29.2157 144.077 30.1586 143.096C31.8541 141.213 33.5655 139.314 35.2769 137.431C35.9909 136.698 36.7447 136.004 37.535 135.352C38.5412 134.52 39.5395 133.688 40.6012 132.911C41.9877 131.821 48.453 126.391 55.655 122.594C58.8638 120.817 62.2356 119.346 65.7253 118.2C67.4061 117.635 69.1277 117.197 70.8753 116.89C71.2256 116.854 71.5787 116.854 71.929 116.89L72.555 116.937L73.3314 116.999Z" fill="white"/>
<path d="M100.586 116.364C101.035 115.79 101.649 115.363 102.347 115.139C103.046 114.915 103.796 114.904 104.5 115.109C108.754 116.133 112.804 117.86 116.48 120.216C119.579 122.194 122.575 124.326 125.456 126.603C130.464 130.401 135.305 134.347 140.288 138.027C141.77 139.11 143.244 140.185 144.765 141.166C146.286 142.146 147.736 142.97 149.265 143.763C149.545 143.864 149.811 143.998 150.058 144.163C150.177 144.254 150.268 144.378 150.32 144.518C150.371 144.659 150.38 144.812 150.347 144.958C150.314 145.104 150.239 145.237 150.132 145.342C150.024 145.448 149.888 145.52 149.741 145.552C149.574 145.552 149.36 145.693 149.234 145.638C148.006 145.026 146.603 145.23 145.351 144.43C143.069 142.962 140.716 141.589 138.49 140.067C137.603 139.455 136.739 138.796 135.907 138.121C134.845 137.25 133.831 136.325 132.777 135.446C132.056 134.849 129.973 133.186 127.231 131.044C124.49 128.902 121.083 126.336 117.621 123.983C114.537 121.861 111.249 120.047 107.804 118.569C106.195 117.899 104.523 117.389 102.812 117.047C102.511 116.976 102.21 116.85 101.862 116.733L100.586 116.364Z" fill="white"/>
<path d="M5.98467 223.032C6.55849 223.262 7.05337 223.651 7.41023 224.152C7.76708 224.653 7.97083 225.245 7.99713 225.857C8.30877 229.231 8.53062 232.61 8.66267 235.994C8.78151 238.905 8.71813 241.824 8.76567 244.735C8.8449 249.749 8.92413 254.762 8.92413 259.776V264.217C8.92413 265.637 8.97959 267.057 9.00336 268.477C9.04296 268.714 9.04296 268.955 9.00336 269.191C8.96415 269.331 8.88657 269.457 8.77923 269.556C8.67189 269.655 8.53901 269.722 8.39534 269.751C8.25167 269.779 8.10285 269.768 7.96541 269.717C7.82798 269.667 7.70731 269.58 7.61682 269.466C7.49797 269.364 7.30782 269.254 7.30782 269.136C7.30782 268.046 6.41251 267.159 6.45213 265.998C6.51551 263.864 6.29367 261.722 6.19859 259.588C6.15897 258.732 6.19859 257.877 6.19859 257.022C6.19859 255.923 6.35705 254.833 6.38875 253.742C6.43629 252.244 6.38875 245.213 6.15898 238.474C5.92921 231.734 5.69152 225.292 5.68359 224.955C5.73971 224.308 5.8403 223.666 5.98467 223.032Z" fill="white"/>
<path d="M1.78679 152.903C3.3714 153.547 3.73587 154.402 3.83887 155.257C4.18748 158.121 4.48064 160.993 4.69456 163.888C4.87679 166.36 4.89264 168.839 5.04317 171.318C5.28879 175.571 5.58194 179.824 5.83548 184.084C5.91471 185.339 5.97018 186.595 6.07318 187.85C6.17618 189.106 6.31087 190.259 6.42971 191.459C6.46923 191.659 6.46923 191.864 6.42971 192.064C6.37927 192.19 6.29909 192.303 6.19581 192.393C6.09254 192.482 5.96915 192.546 5.83591 192.579C5.70266 192.612 5.56339 192.613 5.42965 192.582C5.29591 192.551 5.17157 192.489 5.06694 192.401C4.94017 192.323 4.7421 192.236 4.73417 192.15C4.64702 191.216 3.70418 190.526 3.67249 189.537C3.60118 187.717 3.25256 185.912 3.03864 184.092C2.95941 183.362 2.91979 182.633 2.90395 181.903C2.90395 180.969 2.95148 180.035 2.90395 179.102C2.90395 176.544 1.38271 155.147 1.39856 154.575C1.48451 154.009 1.61431 153.45 1.78679 152.903Z" fill="white"/>
<path d="M2.6875 151.499C5.71412 149.545 9.39043 148.949 13.043 148.651C25.2392 147.704 37.4698 146.932 49.7347 146.336C60.2645 145.818 70.8101 145.552 81.3478 145.198L135.7 143.417L151.752 142.884C156.879 142.68 161.997 142.429 167.115 142.178C167.971 142.138 168.874 142.036 169.69 142.076C171.885 142.186 172.424 142.954 170.839 143.598C170.477 143.796 170.083 143.931 169.674 143.998C165.713 144.186 162.544 145.324 158.376 145.442C150.627 145.669 142.878 146.226 135.122 146.548C132.024 146.697 128.91 146.791 125.804 146.846L113.92 146.987C108.5 147.105 83.0196 147.858 58.5769 148.902C46.3674 149.428 34.4273 150.024 25.395 150.542L9.62812 151.499C7.67904 151.585 5.76165 151.507 2.6875 151.499Z" fill="white"/>
<path d="M174.502 212.864C175.072 213.092 175.564 213.48 175.915 213.98C176.267 214.48 176.464 215.071 176.483 215.681C176.752 219.023 176.966 222.373 177.101 225.724C177.211 228.603 177.164 231.491 177.243 234.354L177.703 249.262C177.75 250.729 177.774 252.197 177.837 253.656C177.901 255.115 178.012 256.465 178.099 257.861C178.135 258.096 178.135 258.334 178.099 258.568C178.066 258.709 177.994 258.838 177.892 258.941C177.789 259.044 177.66 259.118 177.518 259.153C177.376 259.187 177.227 259.183 177.088 259.139C176.948 259.095 176.824 259.014 176.728 258.905C176.609 258.803 176.411 258.701 176.403 258.591C176.34 257.501 175.421 256.661 175.413 255.508C175.413 253.389 175.088 251.271 174.93 249.152C174.866 248.305 174.85 247.457 174.858 246.602C174.858 245.527 174.93 244.429 174.961 243.346C174.961 240.38 174.106 215.437 174.129 214.778C174.212 214.133 174.336 213.493 174.502 212.864Z" fill="white"/>
<path d="M170.055 145.316C171.64 145.842 172.044 146.619 172.178 147.411C172.606 150.055 172.971 152.707 173.24 155.375C173.47 157.666 173.525 159.973 173.7 162.272L174.579 174.119C174.658 175.288 174.706 176.473 174.801 177.619C174.896 178.764 175.031 179.847 175.142 180.969C175.177 181.153 175.177 181.342 175.142 181.526C175.082 181.646 174.997 181.751 174.892 181.835C174.787 181.918 174.664 181.977 174.533 182.008C174.402 182.039 174.266 182.04 174.134 182.013C174.002 181.985 173.878 181.929 173.771 181.848C173.652 181.769 173.454 181.691 173.446 181.605C173.367 180.742 172.432 180.106 172.4 179.196C172.345 177.501 171.996 175.83 171.79 174.151C171.706 173.479 171.661 172.803 171.655 172.126C171.655 171.256 171.695 170.392 171.655 169.529C171.655 168.345 171.228 162.797 170.752 157.493C170.277 152.189 169.778 147.121 169.754 146.854C169.812 146.334 169.913 145.82 170.055 145.316Z" fill="white"/>
<path d="M13.4258 270.659C16.5396 268.925 20.0891 268.681 23.5911 268.728C35.3093 268.728 47.0355 268.446 58.7537 267.944L73.8789 267.316C78.9179 267.041 83.9649 266.814 89.004 266.453C106.34 265.3 123.66 263.73 140.979 262.177L156.342 260.819L171.047 259.431C171.864 259.318 172.687 259.25 173.512 259.227C175.627 259.227 176.182 260.011 174.684 260.796C174.353 261.018 173.982 261.176 173.591 261.259C169.796 261.612 166.856 262.914 162.839 263.236C155.431 263.809 148.039 264.758 140.655 265.535C137.699 265.841 134.72 266.1 131.749 266.32L120.356 267.104L100.675 268.673C90.9848 269.419 79.013 270.243 67.271 270.792C55.529 271.341 44.0168 271.6 35.3014 271.584C26.586 271.569 20.6596 271.42 20.0812 271.365C18.1955 271.263 16.3573 270.98 13.4258 270.659Z" fill="white"/>
<path d="M7.0625 157.76C11.1746 158.827 14.8588 161.401 18.4163 164.037C30.2296 172.99 42.5341 181.299 55.116 189.145C65.9494 195.908 76.9044 202.512 87.9809 208.956L95.1117 213.138L98.6691 215.233L100.452 216.285L100.674 216.41H100.721V216.363L111.092 204.594C118.392 196.371 125.787 188.219 133.277 180.137C137.703 175.372 142.193 170.664 146.746 166.014C151.12 161.558 155.462 157.078 160.216 152.896C160.62 152.542 161.008 152.158 161.412 151.805C161.816 151.452 162.26 151.13 162.68 150.84C164.961 149.271 165.889 149.561 164.7 151.248C164.457 151.674 164.156 152.065 163.805 152.409C163.337 152.786 162.886 153.194 162.466 153.547C162.046 153.9 161.673 154.331 161.277 154.763C160.485 155.548 159.788 156.403 159.059 157.219C157.594 159.021 156.028 160.739 154.368 162.366C147.65 168.894 141.382 175.908 135.068 182.86C132.548 185.645 129.989 188.415 127.438 191.169C124.166 194.684 120.854 198.16 117.613 201.706L111.544 208.47L106.79 213.876C105.919 214.872 105.008 215.916 104.057 217.014L102.282 219.054L101.616 219.839L101.45 220.027C101.45 220.027 101.403 220.121 101.363 220.09L101.252 220.027L100.808 219.768L99.1049 218.764C88.5355 212.487 75.3357 204.978 62.6033 197.258C49.8709 189.537 37.6773 181.51 28.748 175.022C19.8186 168.533 13.9635 163.857 13.3772 163.417C11.5311 161.903 9.82765 160.263 7.0625 157.76Z" fill="white"/>
<path d="M12.8945 168.933C15.525 168.808 17.5058 169.961 19.2885 171.287C25.2625 175.801 31.3104 180.203 37.4323 184.492C42.7249 188.148 48.0017 191.836 53.4607 195.265C62.8495 201.15 72.5315 206.603 82.2135 212.095L90.7625 217.062L99.0105 221.683C99.4884 221.907 99.9468 222.169 100.381 222.468C101.443 223.315 101.308 224.147 100.151 224.147C99.8866 224.19 99.6152 224.171 99.3591 224.092C97.2357 222.891 95.0489 222.766 92.8305 221.455C88.7421 219.031 84.4716 216.905 80.2724 214.645C78.6006 213.743 76.9368 212.793 75.3046 211.812C73.2129 210.565 71.1608 209.247 69.0771 207.984C66.2327 206.257 52.5654 198.498 40.1182 190C27.6711 181.503 16.4361 172.48 15.8974 171.954C15.0021 171.177 14.2177 170.275 12.8945 168.933Z" fill="white"/>
<path d="M147.635 177.25C147.73 178.045 147.62 178.851 147.317 179.593C147.014 180.335 146.526 180.989 145.899 181.495C142.485 184.704 139.22 188.062 135.996 191.475C133.222 194.41 130.378 197.305 127.661 200.333C122.986 205.528 118.335 210.8 113.399 215.853C111.933 217.336 110.46 218.811 108.962 220.263L106.847 222.381L104.692 224.468C104.473 224.726 104.223 224.955 103.947 225.151C103.805 225.261 103.633 225.324 103.453 225.332C103.274 225.34 103.096 225.292 102.945 225.195C102.794 225.099 102.678 224.958 102.611 224.792C102.545 224.627 102.533 224.445 102.576 224.272C102.576 224.076 102.576 223.809 102.671 223.699C103.78 222.64 104.002 221.087 105.191 220.004C107.385 217.995 109.319 215.712 111.315 213.507C112.108 212.613 112.939 211.757 113.795 210.926C114.873 209.843 116.014 208.823 117.083 207.732C117.812 206.987 119.832 204.798 122.439 201.895C125.046 198.992 128.247 195.375 131.479 191.899C134.712 188.423 137.984 185.096 140.591 182.703C143.198 180.31 145.036 178.78 145.234 178.623C146.008 178.121 146.809 177.663 147.635 177.25Z" fill="white"/>
<path d="M2.6875 197.124C2.71583 196.549 2.93278 195.998 3.30551 195.555C3.52382 195.314 3.82731 195.165 4.15327 195.139C6.07844 194.95 8.017 194.934 9.94504 195.092C10.7905 195.16 11.6299 195.289 12.4567 195.477C12.8959 195.568 13.3297 195.683 13.756 195.822L13.9224 195.877L14.168 195.971L14.6989 196.175L15.1822 196.434C15.3407 196.528 15.4674 196.638 15.61 196.74C16.0556 197.096 16.3405 197.612 16.4024 198.176C16.4158 198.445 16.3671 198.713 16.2597 198.96C16.1092 199.211 15.9904 199.47 15.816 199.706L15.1743 200.38C15.0646 200.494 14.9392 200.592 14.8019 200.671L14.4691 200.891C14.1163 201.098 13.7511 201.284 13.3757 201.448C11.9861 201.992 10.5369 202.374 9.05765 202.585C8.21781 202.719 7.37004 202.797 6.5302 202.891C5.69035 202.985 4.94558 203.095 4.09781 203.158C3.96334 203.197 3.82029 203.197 3.68581 203.158C3.32927 202.993 3.25797 202.303 3.50358 201.793C3.55904 201.675 3.62242 201.479 3.67788 201.479C4.28796 201.44 4.72374 200.53 5.34174 200.522C6.49061 200.431 7.62552 200.213 8.72489 199.87C9.16066 199.768 9.60435 199.69 10.0401 199.627C10.6027 199.549 11.1731 199.51 11.7119 199.384C12.0349 199.294 12.3502 199.178 12.6547 199.039C12.8711 198.952 13.0782 198.845 13.2727 198.717C13.3363 198.684 13.3928 198.638 13.4391 198.584C13.4718 198.56 13.4941 198.525 13.5014 198.486C13.5088 198.446 13.5007 198.406 13.4787 198.372C13.4204 198.31 13.3467 198.264 13.2648 198.239H13.1856L12.9004 198.16C12.6944 198.113 12.4963 198.058 12.2823 198.019C11.8624 197.925 11.4187 197.862 10.983 197.799C9.34466 197.604 7.6969 197.497 6.04689 197.477C4.69204 197.477 3.78089 197.477 3.66997 197.477C3.33111 197.393 3.00188 197.275 2.6875 197.124Z" fill="white"/>
<path d="M3.79688 202.789C4.44657 201.369 5.02495 201.22 5.43695 201.283C6.82814 201.547 8.19738 201.914 9.53319 202.381C10.6741 202.781 11.7437 203.346 12.8609 203.833L14.3029 204.476C14.8221 204.709 15.3273 204.971 15.8162 205.261L16.038 205.402L16.3074 205.637C16.3866 205.724 16.4896 205.794 16.561 205.889L16.7432 206.14C16.9882 206.475 17.1681 206.853 17.274 207.254C17.3008 207.404 17.3193 207.556 17.3295 207.709C17.3272 207.889 17.3033 208.068 17.2582 208.242C17.1725 208.586 16.9913 208.898 16.7353 209.145C16.3976 209.462 15.9911 209.698 15.5468 209.835C14.8594 210.015 14.1564 210.131 13.4472 210.18C12.8292 210.243 12.227 210.329 11.6249 210.377C11.5298 210.377 11.4189 210.439 11.3238 210.377C11.0703 210.212 11.0148 209.521 11.197 209.011C11.197 208.894 11.2842 208.697 11.3317 208.697C11.7833 208.697 12.124 207.772 12.5677 207.787C13.3225 207.77 14.0629 207.579 14.7307 207.23L14.8179 207.167C14.8179 207.167 14.7466 207.073 14.9605 207.356C15.0403 207.487 15.1453 207.602 15.2695 207.693L15.325 207.74H15.2299C15.1404 207.729 15.0499 207.729 14.9605 207.74L14.8337 207.779L14.6277 207.819C14.6305 207.766 14.6305 207.714 14.6277 207.662C14.6277 207.615 14.5406 207.489 14.5564 207.489C14.5723 207.489 14.5564 207.489 14.5564 207.434C14.5564 207.379 14.4059 207.332 14.287 207.254C13.986 207.081 13.566 206.861 13.0669 206.626C12.0686 206.163 10.7771 205.637 9.50149 205.151C8.22588 204.665 6.96611 204.217 6.01534 203.896L4.37526 203.37C4.19303 203.26 4.06626 203.04 3.79688 202.789Z" fill="white"/>
<path d="M2.54736 209.357C3.07821 207.85 3.66451 207.568 4.23497 207.544C6.15129 207.449 8.07222 207.507 9.9792 207.717C10.6892 207.801 11.3931 207.929 12.0867 208.101L12.3561 208.172C12.4908 208.172 12.6572 208.266 12.8077 208.305L13.7189 208.603C13.9902 208.716 14.2547 208.845 14.5112 208.988C14.753 209.108 14.9814 209.252 15.1926 209.419C15.4333 209.65 15.6388 209.914 15.8027 210.204C15.9043 210.412 15.961 210.639 15.9692 210.87C15.9774 211.101 15.9368 211.331 15.8502 211.546C15.6732 211.967 15.3687 212.323 14.9787 212.566C14.4893 212.884 13.9554 213.13 13.394 213.295C13.093 213.397 12.776 213.468 12.467 213.554L11.8887 213.688C10.481 213.979 9.05786 214.191 7.62605 214.323C6.7862 214.409 5.94636 214.441 5.10651 214.496C4.26666 214.551 3.5219 214.637 2.5949 214.629C2.43243 214.656 2.2656 214.64 2.11159 214.582C1.6362 214.339 1.76297 213.648 2.11159 213.201C2.19082 213.099 2.27005 212.911 2.33343 212.919C2.92766 212.919 3.41097 212.063 4.02105 212.087C5.17576 212.041 6.32269 211.878 7.44382 211.601C7.89995 211.524 8.36031 211.474 8.82244 211.451C9.40874 211.451 10.003 211.451 10.5893 211.389C10.724 211.389 10.9379 211.342 11.2311 211.287L11.9045 211.153C12.0122 211.127 12.1161 211.088 12.2135 211.036C12.2611 211.036 12.3324 210.949 12.2927 210.879C12.2546 210.816 12.1958 210.769 12.1264 210.745C12.0361 210.701 11.9401 210.669 11.8411 210.651L11.2707 210.533C11.025 210.479 10.7557 210.439 10.4784 210.392C9.41666 210.227 8.30743 210.11 7.30912 210.031C5.29666 209.867 3.70413 209.819 3.59321 209.796C3.22974 209.687 2.87913 209.54 2.54736 209.357Z" fill="white"/>
<path d="M1.37416 214.551C2.11893 213.115 2.6577 212.864 3.25193 212.872C5.20297 212.86 7.15293 212.965 9.09124 213.185L10.2163 213.358L10.7789 213.476L11.0641 213.539L11.5236 213.656L12.4269 213.892L13.3301 214.237C13.4727 214.3 13.6391 214.355 13.7579 214.417L14.0907 214.637C14.3046 214.786 14.5344 214.919 14.7245 215.076C14.8825 215.242 15.0183 215.426 15.1286 215.626L15.2712 215.9C15.2712 216.002 15.3425 216.096 15.3663 216.206C15.4097 216.437 15.4097 216.674 15.3663 216.904C15.2432 217.294 15.0061 217.638 14.6849 217.893C13.7052 218.519 12.5887 218.903 11.4285 219.015L10.9769 219.086H10.6996L10.1371 219.156L9.03578 219.258C8.29893 219.321 7.57001 219.36 6.83316 219.384C5.96955 219.384 5.10593 219.384 4.23439 219.384C3.36285 219.384 2.57054 219.384 1.64354 219.321C1.4725 219.334 1.30092 219.304 1.14439 219.235C1.03827 219.166 0.95526 219.067 0.905893 218.951C0.856527 218.835 0.843022 218.707 0.867085 218.584C0.936176 218.31 1.07535 218.059 1.27116 217.854C1.36624 217.76 1.46132 217.587 1.5247 217.595C2.13478 217.681 2.68939 216.81 3.30739 216.897C4.49622 216.938 5.68609 216.854 6.85693 216.646C7.32804 216.597 7.80159 216.576 8.27516 216.583C8.88524 216.583 9.48739 216.653 10.0895 216.63L10.6679 216.583H10.9452C11.0551 216.568 11.162 216.536 11.2622 216.489C11.3176 216.489 11.381 216.402 11.3493 216.332C11.3077 216.269 11.2464 216.222 11.175 216.198C11.0806 216.158 10.9824 216.126 10.8819 216.104L10.5887 216.041L9.79639 215.9C8.67924 215.72 7.51454 215.579 6.45285 215.469C4.32947 215.257 2.61016 215.123 2.49131 215.084C2.09907 214.95 1.72411 214.771 1.37416 214.551Z" fill="white"/>
<path d="M176.639 184.429C176.547 184.992 176.373 185.539 176.124 186.053C175.963 186.323 175.71 186.526 175.411 186.626C173.66 187.262 171.893 187.952 170.19 188.658C169.461 188.957 168.732 189.247 168.051 189.569C167.876 189.647 167.71 189.725 167.552 189.812C167.393 189.898 167.179 190.024 167.203 189.992C167.156 190.002 167.115 190.027 167.084 190.063C167.013 190.133 167.084 190.22 167.179 190.243C167.288 190.275 167.399 190.296 167.512 190.306C167.808 190.352 168.107 190.378 168.407 190.385C169.739 190.372 171.066 190.228 172.369 189.953C173.161 189.796 173.953 189.647 174.746 189.427C175.538 189.208 176.243 188.957 176.996 188.698C177.123 188.658 177.241 188.564 177.384 188.588C177.756 188.658 178.026 189.294 177.931 189.859C177.931 189.984 177.931 190.188 177.836 190.204C177.249 190.408 177.004 191.389 176.354 191.538C175.15 191.813 173.977 192.323 172.765 192.652C172.272 192.781 171.768 192.862 171.26 192.895C170.592 192.931 169.923 192.931 169.255 192.895C169.033 192.895 168.582 192.895 167.964 192.895C167.647 192.895 167.29 192.833 166.886 192.762C166.735 192.715 166.308 192.644 166.022 192.534C165.737 192.425 165.46 192.236 165.159 192.079C164.87 191.926 164.621 191.711 164.428 191.448C164.236 191.186 164.107 190.884 164.05 190.565C164.032 190.211 164.099 189.858 164.243 189.534C164.387 189.21 164.606 188.924 164.881 188.698C165.176 188.404 165.5 188.141 165.848 187.913C166.078 187.764 166.3 187.638 166.529 187.505C166.989 187.262 167.441 187.034 167.9 186.83C170.311 185.771 172.811 184.923 175.372 184.296C175.798 184.288 176.224 184.333 176.639 184.429Z" fill="white"/>
<path d="M177.125 192.197C176.967 193.766 176.333 194.182 175.802 194.315C173.893 194.747 172.007 195.1 170.169 195.492C169.376 195.673 168.584 195.806 167.847 196.002L167.578 196.057H167.467C167.415 196.062 167.366 196.081 167.324 196.112C167.221 196.167 167.324 196.269 167.38 196.285H167.507H167.633C167.796 196.317 167.96 196.34 168.125 196.355C169.495 196.514 170.873 196.584 172.253 196.567C173.045 196.567 173.901 196.567 174.717 196.489C175.465 196.42 176.207 196.291 176.935 196.104C177.046 196.104 177.133 195.995 177.228 196.034C177.323 196.073 177.434 196.285 177.569 196.512C177.71 196.75 177.778 197.022 177.767 197.297C177.767 197.43 177.767 197.627 177.672 197.65C177.054 197.838 176.658 198.78 175.945 198.827C174.669 198.905 173.425 199.188 172.15 199.282C171.641 199.325 171.129 199.325 170.62 199.282C169.971 199.211 169.321 199.062 168.671 198.96L167.427 198.78C167.237 198.78 166.516 198.615 165.97 198.458C165.394 198.304 164.855 198.037 164.385 197.674L164.1 197.391C164.019 197.286 163.945 197.176 163.878 197.062C163.732 196.804 163.666 196.509 163.688 196.214C163.707 195.916 163.808 195.628 163.981 195.383C164.147 195.104 164.365 194.859 164.623 194.661C164.934 194.441 165.259 194.241 165.597 194.064C165.946 193.892 166.334 193.774 166.706 193.625C166.85 193.565 166.998 193.518 167.15 193.484L167.522 193.374C167.768 193.303 168.014 193.248 168.259 193.186C170.232 192.715 172.126 192.448 173.56 192.228C174.994 192.009 175.937 191.891 176.032 191.891C176.406 191.956 176.772 192.059 177.125 192.197Z" fill="white"/>
<path d="M178.392 200.114C177.956 201.683 177.283 201.942 176.712 201.973C174.755 202.075 172.838 202.107 170.96 202.177L168.092 202.287H168.044C167.941 202.326 167.997 202.444 168.044 202.468L168.163 202.523L168.282 202.562L168.75 202.711C170.073 203.1 171.42 203.406 172.782 203.629C173.575 203.762 174.407 203.903 175.223 203.974C175.972 204.029 176.724 204.029 177.473 203.974C177.592 203.974 177.695 203.903 177.774 203.974C177.853 204.045 177.94 204.249 178.027 204.5C178.12 204.751 178.139 205.023 178.083 205.284C178.043 205.41 177.996 205.606 177.932 205.614C177.291 205.692 176.736 206.548 176.031 206.477C174.755 206.336 173.48 206.398 172.204 206.273C171.697 206.222 171.196 206.128 170.707 205.991C170.073 205.81 169.471 205.551 168.845 205.339L168.195 205.127L167.688 204.963L167.379 204.853C167.212 204.798 167.022 204.712 166.832 204.633C166.008 204.362 165.278 203.867 164.725 203.205C164.446 202.851 164.321 202.403 164.376 201.958C164.479 201.461 164.761 201.018 165.168 200.71L165.644 200.42C165.833 200.326 166.029 200.248 166.23 200.184C166.436 200.114 166.634 200.027 166.856 199.973L167.529 199.839L167.878 199.776C167.974 199.754 168.072 199.738 168.171 199.729L168.631 199.682C168.948 199.682 169.249 199.627 169.566 199.604C170.81 199.533 172.061 199.525 173.194 199.541C175.46 199.541 177.219 199.651 177.346 199.666C177.708 199.783 178.058 199.933 178.392 200.114Z" fill="white"/>
<path d="M178.249 204.57C177.877 206.14 177.536 206.453 177.092 206.555C175.65 206.901 174.193 207.293 172.766 207.67L171.974 207.866C171.808 207.913 171.839 207.866 171.824 207.866H171.776C171.688 207.843 171.595 207.843 171.507 207.866C171.443 207.866 171.356 207.921 171.348 207.991C171.34 208.062 171.459 208.054 171.523 208.062H172.315C172.965 208.062 173.614 208.062 174.264 207.976C174.872 207.908 175.475 207.806 176.07 207.67C176.173 207.67 176.253 207.575 176.356 207.63C176.514 207.81 176.629 208.022 176.692 208.252C176.755 208.481 176.765 208.722 176.72 208.956C176.72 209.074 176.68 209.278 176.625 209.286C176.134 209.396 175.833 210.322 175.278 210.345C174.272 210.392 173.289 210.675 172.283 210.785H171.966H171.459C171.142 210.785 170.706 210.785 170.35 210.737C169.557 210.665 168.777 210.494 168.028 210.227C167.688 210.126 167.365 209.976 167.07 209.78C166.883 209.655 166.715 209.505 166.571 209.333C166.487 209.227 166.418 209.111 166.365 208.988C166.292 208.82 166.262 208.636 166.277 208.454C166.317 208.138 166.44 207.838 166.634 207.583C166.753 207.45 166.856 207.317 166.991 207.183L167.521 206.783C168.596 206.171 169.751 205.706 170.952 205.402C171.887 205.135 172.537 204.978 173.329 204.814C174.121 204.649 174.7 204.531 175.278 204.437C175.954 204.311 176.637 204.219 177.322 204.162C177.648 204.258 177.959 204.396 178.249 204.57Z" fill="white"/>
<path d="M47.1222 269.38C48.7068 269.521 49.0554 269.874 49.1584 270.266C49.5077 271.559 49.7906 272.868 50.0062 274.189C50.1963 275.327 50.2201 276.48 50.3627 277.618C50.6163 279.58 50.9094 281.541 51.155 283.487C51.2343 284.068 51.2897 284.648 51.3927 285.221C51.4957 285.794 51.6304 286.319 51.7493 286.869C51.7493 286.963 51.8443 287.049 51.7889 287.143C51.6542 287.402 50.9966 287.551 50.434 287.449C50.3152 287.449 50.1171 287.449 50.1092 287.363C50.022 286.939 49.0871 286.72 49.0475 286.257C48.9082 285.417 48.6988 284.59 48.4216 283.785C48.3374 283.457 48.2922 283.12 48.2869 282.781C48.2869 282.341 48.3265 281.902 48.2869 281.471C48.2393 280.278 46.7577 270.486 46.7657 270.188C46.8508 269.905 46.9705 269.634 47.1222 269.38Z" fill="white"/>
<path d="M138.966 264.076C140.503 264.515 140.812 265.025 140.859 265.535C141.026 267.23 141.137 268.932 141.168 270.627C141.168 272.094 141.057 273.554 141.049 275.013C141.049 277.532 141.049 280.043 141.049 282.561C141.049 283.299 141.049 284.044 141.049 284.782C141.049 285.519 141.137 286.21 141.184 286.916C141.184 287.041 141.248 287.167 141.184 287.277C141.01 287.583 140.321 287.653 139.798 287.426C139.687 287.379 139.489 287.316 139.489 287.261C139.489 286.712 138.562 286.272 138.585 285.692C138.561 284.609 138.465 283.53 138.3 282.459C138.265 282.031 138.265 281.601 138.3 281.172C138.34 280.623 138.459 280.074 138.506 279.517C138.625 278.018 138.506 265.394 138.546 265.033C138.649 264.699 138.79 264.378 138.966 264.076Z" fill="white"/>
<path d="M187.169 115.885C188.936 117.29 188.968 119.447 188.278 121.189C187.113 124.224 184.912 126.759 182.056 128.354C179.201 129.95 175.872 130.504 172.646 129.922C169.855 129.415 167.285 128.079 165.278 126.093C164.286 125.11 163.44 123.993 162.766 122.774C162.103 121.539 161.615 120.219 161.316 118.851C160.826 116.51 160.921 114.086 161.593 111.79C162.296 109.506 163.559 107.43 165.27 105.748C166.992 104.073 169.116 102.858 171.442 102.217C173.767 101.566 176.223 101.517 178.573 102.076C180.614 102.583 182.523 103.513 184.174 104.804C185.825 106.096 187.181 107.72 188.152 109.569C188.794 110.802 189.242 112.125 189.483 113.492C189.606 113.934 189.664 114.391 189.657 114.85C189.522 116.042 188.73 116.23 188.072 115.477C187.93 115.312 187.7 115.132 187.684 114.952C187.56 114.099 187.226 113.291 186.71 112.598C186.48 112.252 186.202 111.931 185.981 111.586C185.727 111.243 185.502 110.881 185.307 110.503C184.519 109.06 183.388 107.829 182.011 106.917C180.662 106.021 179.136 105.417 177.535 105.144C176.268 104.933 174.978 104.891 173.7 105.018C172.062 105.151 170.473 105.632 169.041 106.431C168.788 106.564 168.463 106.831 168.027 107.137C167.529 107.541 167.065 107.984 166.64 108.463C165.408 109.836 164.546 111.496 164.137 113.288C163.707 115.092 163.733 116.973 164.212 118.764C164.69 120.556 165.607 122.203 166.882 123.561C168.156 124.918 169.748 125.943 171.518 126.547C173.287 127.15 175.18 127.312 177.028 127.019C178.161 126.871 179.264 126.542 180.292 126.046C180.769 125.811 181.232 125.549 181.678 125.261C182.085 124.976 182.473 124.666 182.843 124.336C184.018 123.306 184.963 122.045 185.616 120.632C185.907 120.036 186.138 119.413 186.305 118.773C186.369 118.576 186.44 118.388 186.519 118.192L186.725 117.549C186.916 117.006 187.065 116.45 187.169 115.885Z" fill="white"/>
<path d="M177.315 121.001V110.675H174.629C174.357 110.941 174.06 111.18 173.742 111.389L173.52 111.523L173.354 111.617L173.148 111.719C172.886 111.844 172.601 111.962 172.355 112.064C172.236 112.064 173.068 114.653 173.266 114.559C173.639 114.426 173.987 114.277 174.336 114.112L174.653 113.955V121.017C175.536 121.143 176.434 121.138 177.315 121.001Z" fill="white"/>
<path d="M99.8043 106.258C98.8857 107.814 97.7612 109.242 96.4608 110.503C95.1321 111.775 93.5975 112.817 91.9209 113.586C90.2535 114.336 88.4788 114.826 86.66 115.038C84.8673 115.263 83.052 115.244 81.2643 114.983C78.647 114.608 76.1374 113.697 73.8959 112.307C69.9898 109.828 67.082 106.282 64.713 102.586C62.422 98.84 60.4681 94.9018 58.8737 90.8168C57.4396 87.2311 56.1086 83.5983 54.9122 79.9813C53.3276 75.3363 51.8143 70.6679 50.7209 65.9053C50.0474 62.9316 53.2404 66.0622 54.8329 71.3976C56.2591 76.1523 57.7249 80.8757 59.3887 85.5206C60.993 90.1834 62.9475 94.7207 65.2359 99.0945C66.6215 101.727 68.3474 104.169 70.3701 106.36C72.3583 108.56 74.7866 110.326 77.5009 111.546C78.9789 112.159 80.532 112.576 82.12 112.786C83.7265 112.948 85.3471 112.914 86.9452 112.684C90.153 112.239 93.1122 110.725 95.3357 108.392C98.093 105.513 99.7885 101.692 100.945 97.792C102.688 91.829 103.433 85.5363 103.94 79.3379C104.305 74.5125 104.503 69.7263 104.732 64.9323C104.788 63.8731 104.843 62.8374 104.899 61.7939C105.295 57.8708 105.628 56.5919 106.333 55.8308C106.476 55.6472 106.641 55.4813 106.824 55.3365C107.339 55.0226 107.545 56.6782 107.339 59.542C107.157 61.6527 107.125 63.8417 107.006 66.0308C106.888 68.2199 106.777 70.4325 106.642 72.6608C106.357 77.0939 106.071 81.6682 105.517 86.2268C105.13 89.6613 104.524 93.0681 103.702 96.4268C102.902 99.8711 101.608 103.184 99.8598 106.266L99.8043 106.258Z" fill="white"/>
<path d="M89.8605 90.2048C88.3314 89.8046 80.9788 91.3817 79.1406 91.6563C79.41 94.12 82.4842 96.9917 85.8198 96.466C89.2822 95.9325 89.4089 91.2719 89.8605 90.2048Z" fill="white"/>
<path d="M82.3387 55.0776C81.0631 53.8536 81.079 53.218 81.3166 52.7786C81.7298 52.0228 82.2267 51.3149 82.7983 50.668C83.0919 50.3341 83.4125 50.0245 83.757 49.7422C84.088 49.4447 84.449 49.1817 84.8345 48.9576C85.1752 48.7536 85.5159 48.5652 85.8645 48.3848C86.2278 48.2256 86.601 48.0894 86.9816 47.9768C87.7337 47.7544 88.5019 47.5892 89.2793 47.4825C91.8386 47.248 94.4181 47.5942 96.8221 48.4946C97.5114 48.73 98.1611 49.0203 98.8187 49.2793C99.4763 49.5382 100.086 49.7029 100.657 49.8599C100.752 49.8599 100.863 49.8599 100.926 49.954C100.985 50.2271 100.981 50.5097 100.915 50.7812C100.849 51.0527 100.723 51.3062 100.546 51.5232C100.459 51.6331 100.34 51.8214 100.284 51.8057C99.7853 51.6723 99.0247 52.4491 98.5176 52.2137C97.6132 51.8472 96.6696 51.5839 95.705 51.4291C95.3452 51.3478 94.9928 51.2376 94.6512 51.0996C94.2075 50.9034 93.7955 50.6994 93.3439 50.5346C92.5674 50.3349 91.7692 50.2295 90.9669 50.2208C89.6756 50.2157 88.3981 50.4832 87.2193 51.0054C85.5974 51.9119 84.2132 53.1831 83.1786 54.7166C82.9149 54.8712 82.6328 54.9925 82.3387 55.0776Z" fill="white"/>
<path d="M75.8593 53.2809C74.7025 54.6932 74.1479 54.8501 73.6884 54.7324C73.2288 54.6147 72.9436 54.5049 72.5554 54.4421L71.4224 54.2381C70.6858 54.1033 69.9427 54.0064 69.196 53.9478C68.5621 53.8929 67.9362 53.9478 67.3024 53.8536L66.3675 53.9242C66.0513 53.929 65.7371 53.9738 65.4325 54.0576C63.2746 54.585 61.2957 55.6677 59.6962 57.1961C59.1812 57.6393 58.6943 58.1136 58.2384 58.6162C57.7947 59.1262 57.4461 59.6598 56.9231 60.2718C56.8598 60.3581 56.7488 60.5464 56.5745 60.6013C56.0912 60.7661 55.6158 60.1384 55.4178 59.5264C55.3702 59.3852 55.2672 59.189 55.2989 59.1498C55.6475 58.781 55.1642 57.7846 55.5683 57.3844C56.3606 56.5998 56.8677 55.6426 57.6679 54.8187C57.9761 54.4808 58.3309 54.1877 58.7217 53.9478C59.2362 53.66 59.7651 53.3981 60.3063 53.1632C60.4727 53.0533 60.8213 52.8807 61.2967 52.6453C61.5344 52.5276 61.7879 52.3786 62.089 52.253L63.0794 51.8686C63.4439 51.711 63.8235 51.59 64.2124 51.5076C64.6268 51.3844 65.0472 51.2823 65.4721 51.2016C66.3694 51.0478 67.2792 50.9768 68.1898 50.9898C69.8259 51.0136 71.4493 51.278 73.007 51.7744C73.5223 51.9058 74.0258 52.079 74.5124 52.2922L75.1462 52.559C75.4125 52.7702 75.652 53.0126 75.8593 53.2809Z" fill="white"/>
<path d="M57.4841 67.6707C56.6918 68.8084 56.367 68.9496 56.1372 68.8947C55.3863 68.6897 54.6525 68.4274 53.9425 68.11C53.3325 67.8433 52.7937 67.4431 52.1995 67.145C51.1853 66.635 50.1474 66.1563 49.1174 65.662C48.8163 65.513 48.5232 65.3482 48.2142 65.2148C47.9052 65.0814 47.5962 65.003 47.2872 64.901C47.2396 64.901 47.1683 64.901 47.1445 64.8303C47.1811 64.4126 47.3503 64.0171 47.6278 63.7005C47.6912 63.6142 47.7942 63.473 47.818 63.4808C48.0557 63.5671 48.6103 62.9473 48.8084 63.0807C49.2675 63.2767 49.7491 63.4164 50.2425 63.4965C50.4295 63.5512 50.6062 63.636 50.7654 63.7476C50.9714 63.8967 51.1536 64.0928 51.3596 64.2419C51.9222 64.6342 57.1355 67.0351 57.2544 67.1371C57.3573 67.3027 57.4347 67.4825 57.4841 67.6707Z" fill="white"/>
<path d="M101.063 62.5943C100.27 61.4644 100.27 61.1427 100.342 61.025C100.679 60.5514 101.064 60.1124 101.49 59.7147C101.847 59.3774 102.283 59.1498 102.695 58.836C103.352 58.3024 103.994 57.7453 104.644 57.1961C104.834 57.0313 105.04 56.8901 105.222 56.7097C105.404 56.5292 105.539 56.3409 105.698 56.1604C105.698 56.1604 105.698 56.0663 105.793 56.082C106.141 56.3127 106.429 56.6219 106.633 56.9843C106.688 57.0706 106.783 57.2118 106.767 57.2275C106.64 57.3687 107.045 58.067 106.878 58.1769C106.577 58.3809 106.434 58.7732 106.205 59.0713C106.117 59.1895 106.003 59.2861 105.872 59.3538C105.706 59.4401 105.492 59.4793 105.325 59.5735C104.866 59.8167 101.665 62.657 101.546 62.712C101.379 62.6997 101.216 62.6599 101.063 62.5943Z" fill="white"/>
</svg>
